<svg xmlns="http://www.w3.org/2000/svg" viewBox="0 0 512 512"><!--! Font Awesome Free 6.4.2 by @fontawesome - https://fontawesome.com License - https://fontawesome.com/license/free (Icons: CC BY 4.0, Fonts: SIL OFL 1.1, Code: MIT License) Copyright 2023 Fonticons, Inc. --><path d="M184 24c0-13.3-10.7-24-24-24s-24 10.7-24 24V64H96c-35.3 0-64 28.7-64 64v16 48V448c0 35.3 28.7 64 64 64H416c35.3 0 64-28.7 64-64V192 144 128c0-35.3-28.7-64-64-64H376V24c0-13.3-10.7-24-24-24s-24 10.7-24 24V64H184V24zM80 192H432V448c0 8.8-7.2 16-16 16H96c-8.8 0-16-7.2-16-16V192zm176 40c-13.3 0-24 10.7-24 24v48H184c-13.3 0-24 10.7-24 24s10.7 24 24 24h48v48c0 13.3 10.7 24 24 24s24-10.7 24-24V352h48c13.3 0 24-10.7 24-24s-10.7-24-24-24H280V256c0-13.3-10.7-24-24-24z"/></svg>