<svg xmlns="http://www.w3.org/2000/svg" viewBox="0 0 512 512"><!--! Font Awesome Free 6.2.0 by @fontawesome - https://fontawesome.com License - https://fontawesome.com/license/free (Icons: CC BY 4.0, Fonts: SIL OFL 1.1, Code: MIT License) Copyright 2022 Fonticons, Inc. --><path d="M256 112c30.88 0 56-25.12 56-56S286.9 0 256 0S199.1 25.12 199.1 56S225.1 112 256 112zM511.1 197.4c0-5.178-2.509-10.2-7.096-13.26L476.4 168.2c-2.5-1.75-5.497-2.62-8.497-2.62c-5.501 .125-10.63 2.87-13.75 7.245c-9.001 12-23.16 19.13-38.16 19.13c-3.125 0-6.089-.2528-9.089-.8778c-23.13-4.25-38.88-26.25-38.88-49.75C367.1 134 361.1 128 354.6 128h-38.75c-6.001 0-11.63 4-12.88 9.875C298.2 160.1 278.7 176 255.1 176c-22.75 0-42.25-15.88-47-38.12C207.7 132 202.2 128 196.1 128h-38.75C149.1 128 143.1 134 143.1 141.4c0 18.49-13.66 50.62-47.95 50.62c-15.13 0-29.3-7.118-38.3-19.24C54.6 168.4 49.66 165.7 44.15 165.6c-3 0-5.931 .8951-8.432 2.645l-28.63 16C2.509 187.2 0 192.3 0 197.4c0 2.438 .5583 4.901 1.72 7.185L109.9 432h53.13L69.85 236.4C78.35 238.8 87.11 240 95.98 240c2.432 0 56.83 1.503 84.76-52.5C198.1 210.5 226.6 224 255.9 224c29.38 0 57.01-13.38 75.26-36.25C336.1 197.6 360.6 240 416 240c8.751 0 17.5-1.125 26-3.5L349 432h53.13l108.1-227.4C511.4 202.3 511.1 199.8 511.1 197.4zM424 464H87.98c-13.26 0-24 10.75-24 23.1S74.72 512 87.98 512h336c13.26 0 24-10.75 24-23.1S437.3 464 424 464z"/></svg>