<svg xmlns="http://www.w3.org/2000/svg" viewBox="0 0 320 512"><!--! Font Awesome Free 6.3.0 by @fontawesome - https://fontawesome.com License - https://fontawesome.com/license/free (Icons: CC BY 4.0, Fonts: SIL OFL 1.1, Code: MIT License) Copyright 2023 Fonticons, Inc. --><path d="M232 152A72 72 0 1 0 88 152a72 72 0 1 0 144 0zm24 120H243.4l10.7 80H205.7L195 272H160 125l-10.7 80H65.9l10.7-80H64c-13.3 0-24-10.7-24-24s10.7-24 24-24c-15.1-20.1-24-45-24-72C40 85.7 93.7 32 160 32s120 53.7 120 120c0 27-8.9 51.9-24 72c13.3 0 24 10.7 24 24s-10.7 24-24 24zM52.7 464H267.3l-16.6-32H69.2L52.7 464zm207.9-80c12 0 22.9 6.7 28.4 17.3l26.5 51.2c3 5.8 4.6 12.2 4.6 18.7c0 22.5-18.2 40.8-40.8 40.8H40.8C18.2 512 0 493.8 0 471.2c0-6.5 1.6-12.9 4.6-18.7l26.5-51.2C36.5 390.7 47.5 384 59.5 384h201z"/></svg>