<svg xmlns="http://www.w3.org/2000/svg" viewBox="0 0 512 512"><!--! Font Awesome Free 6.2.1 by @fontawesome - https://fontawesome.com License - https://fontawesome.com/license/free (Icons: CC BY 4.0, Fonts: SIL OFL 1.1, Code: MIT License) Copyright 2022 Fonticons, Inc. --><path d="M360 224L272 224v-56c0-9.531-5.656-18.16-14.38-22C248.9 142.2 238.7 143.9 231.7 150.4l-96 88.75C130.8 243.7 128 250.1 128 256.8c.3125 7.781 2.875 13.25 7.844 17.75l96 87.25c7.031 6.406 17.19 8.031 25.88 4.188s14.28-12.44 14.28-21.94l-.002-56L360 288C373.3 288 384 277.3 384 264v-16C384 234.8 373.3 224 360 224zM256 0C114.6 0 0 114.6 0 256s114.6 256 256 256s256-114.6 256-256S397.4 0 256 0zM256 464c-114.7 0-208-93.31-208-208S141.3 48 256 48s208 93.31 208 208S370.7 464 256 464z"/></svg>