<svg xmlns="http://www.w3.org/2000/svg" viewBox="0 0 512 512"><!--! Font Awesome Free 6.4.0 by @fontawesome - https://fontawesome.com License - https://fontawesome.com/license/free (Icons: CC BY 4.0, Fonts: SIL OFL 1.1, Code: MIT License) Copyright 2023 Fonticons, Inc. --><path d="M464 256A208 208 0 1 0 48 256a208 208 0 1 0 416 0zM0 256a256 256 0 1 1 512 0A256 256 0 1 1 0 256zm176.5 64.3C196.1 302.1 223.8 288 256 288s59.9 14.1 79.5 32.3C354.5 338.1 368 362 368 384c0 5.4-2.7 10.4-7.2 13.4s-10.2 3.4-15.2 1.3l-17.2-7.5c-22.8-10-47.5-15.1-72.4-15.1s-49.6 5.2-72.4 15.1l-17.2 7.5c-4.9 2.2-10.7 1.7-15.2-1.3s-7.2-8-7.2-13.4c0-22 13.5-45.9 32.5-63.7zm-43-173.6l89.9 47.9c10.7 5.7 10.7 21.1 0 26.8l-89.9 47.9c-7.9 4.2-17.5-1.5-17.5-10.5c0-2.8 1-5.5 2.8-7.6l36-43.2-36-43.2c-1.8-2.1-2.8-4.8-2.8-7.6c0-9 9.6-14.7 17.5-10.5zM396 157.1c0 2.8-1 5.5-2.8 7.6l-36 43.2 36 43.2c1.8 2.1 2.8 4.8 2.8 7.6c0 9-9.6 14.7-17.5 10.5l-89.9-47.9c-10.7-5.7-10.7-21.1 0-26.8l89.9-47.9c7.9-4.2 17.5 1.5 17.5 10.5z"/></svg>