<svg xmlns="http://www.w3.org/2000/svg" viewBox="0 0 384 512"><!--! Font Awesome Free 6.0.0 by @fontawesome - https://fontawesome.com License - https://fontawesome.com/license/free (Icons: CC BY 4.0, Fonts: SIL OFL 1.1, Code: MIT License) Copyright 2022 Fonticons, Inc. --><path d="M365.3 93.38l-74.63-74.64C278.6 6.742 262.3 0 245.4 0H64C28.65 0 0 28.65 0 64l.0065 384c0 35.34 28.65 64 64 64H320c35.2 0 64-28.8 64-64V138.6C384 121.7 377.3 105.4 365.3 93.38zM336 448c0 8.836-7.164 16-16 16H64.02c-8.838 0-16-7.164-16-16L48 64.13c0-8.836 7.164-16 16-16h160L224 128c0 17.67 14.33 32 32 32h79.1V448zM229.1 233.3L192 280.9L154.9 233.3C146.8 222.8 131.8 220.9 121.3 229.1C110.8 237.2 108.9 252.3 117.1 262.8L161.6 320l-44.53 57.25c-8.156 10.47-6.25 25.56 4.188 33.69C125.7 414.3 130.8 416 135.1 416c7.156 0 14.25-3.188 18.97-9.25L192 359.1l37.06 47.65C233.8 412.8 240.9 416 248 416c5.125 0 10.31-1.656 14.72-5.062c10.44-8.125 12.34-23.22 4.188-33.69L222.4 320l44.53-57.25c8.156-10.47 6.25-25.56-4.188-33.69C252.2 220.9 237.2 222.8 229.1 233.3z"/></svg>