<svg xmlns="http://www.w3.org/2000/svg" viewBox="0 0 512 512"><!--! Font Awesome Free 6.5.0 by @fontawesome - https://fontawesome.com License - https://fontawesome.com/license/free (Icons: CC BY 4.0, Fonts: SIL OFL 1.1, Code: MIT License) Copyright 2023 Fonticons, Inc. --><path d="M250.8 1.4c-35.2-3.7-66.6 21.8-70.3 57L174 119 156.7 69.6C145 36.3 108.4 18.8 75.1 30.5S24.2 78.8 35.9 112.1L88.7 262.2C73.5 276.7 64 297.3 64 320v0 24c0 92.8 75.2 168 168 168h48c92.8 0 168-75.2 168-168V272 256 224c0-35.3-28.7-64-64-64c-7.9 0-15.4 1.4-22.4 4c-10.4-21.3-32.3-36-57.6-36c-.7 0-1.5 0-2.2 0l5.9-56.3c3.7-35.2-21.8-66.6-57-70.3zm-.2 155.4C243.9 166.9 240 179 240 192v48c0 .7 0 1.4 0 2c-5.1-1.3-10.5-2-16-2h-7.4l-5.4-15.3 17-161.3c.9-8.8 8.8-15.2 17.6-14.2s15.2 8.8 14.2 17.6l-9.5 90.1zM111.4 85.6L165.7 240H144c-4 0-8 .3-11.9 .9L81.2 96.2c-2.9-8.3 1.5-17.5 9.8-20.4s17.5 1.5 20.4 9.8zM288 192c0-8.8 7.2-16 16-16s16 7.2 16 16v32 16c0 8.8-7.2 16-16 16s-16-7.2-16-16V192zm38.4 108c10.4 21.3 32.3 36 57.6 36c5.5 0 10.9-.7 16-2v10c0 66.3-53.7 120-120 120H232c-66.3 0-120-53.7-120-120l0-24 0 0c0-17.7 14.3-32 32-32h80c8.8 0 16 7.2 16 16s-7.2 16-16 16H184c-13.3 0-24 10.7-24 24s10.7 24 24 24h40c35.3 0 64-28.7 64-64c0-.7 0-1.4 0-2c5.1 1.3 10.5 2 16 2c7.9 0 15.4-1.4 22.4-4zM400 272c0 8.8-7.2 16-16 16s-16-7.2-16-16V240 224c0-8.8 7.2-16 16-16s16 7.2 16 16v32 16z"/></svg>