<svg xmlns="http://www.w3.org/2000/svg" viewBox="0 0 512 512"><!--! Font Awesome Free 6.3.0 by @fontawesome - https://fontawesome.com License - https://fontawesome.com/license/free (Icons: CC BY 4.0, Fonts: SIL OFL 1.1, Code: MIT License) Copyright 2023 Fonticons, Inc. --><path d="M189.7 25.3l6.2 23.2-6.2-23.2zm48.9 28.4l23.2-6.2v0l-23.2 6.2zM161.3 74.3l-23.2 6.2v0l23.2-6.2zm46.5 175.3l-22.1 9.3c4.9 11.6 17.9 17.5 29.9 13.4s18.7-16.7 15.4-28.9l-23.2 6.2zm-51-121.1l-22.1 9.3 22.1-9.3zm-52.4-21.3l9.3 22.1-9.3-22.1zM83.1 159.5L61 168.8h0l22.1-9.3zm5.4 144.9l14.7-18.9L88.6 304.4zm-56.1 7l18.9 14.7h0L32.4 311.4zm7 56.1L24.7 386.5h0l14.7-18.9zm92 71.6l-14.7 18.9 14.7-18.9zm300.1-48.5l23.3 5.8-23.3-5.8zm55.2-220.9l23.3 5.8v0l-23.3-5.8zm-29.1-48.5l5.8-23.3-5.8 23.3zm-48.5 29.1l23.3 5.8v0l-23.3-5.8zM383 255l-23.3-5.8 0 0L383 255zm-2.6-.5l23.6 4.2 0 0-23.6-4.2zM407.4 103l23.6 4.2v0L407.4 103zM375 56.6l-4.2 23.6L375 56.6zM328.6 89L305 84.8v0L328.6 89zM299.5 252.6l-23.6-4.2 0 0 23.6 4.2zm-8 .3l23.2-6.2 0 0-23.2 6.2zM304 488l.5-24-.5 24zm-157-138L161.8 331l-14.7 18.9zM195.9 48.5c8.5-2.3 17.3 2.8 19.6 11.4l46.4-12.3c-9.1-34.2-44.1-54.5-78.3-45.4l12.3 46.4zM184.5 68.1c-2.3-8.5 2.8-17.3 11.4-19.6L183.6 2.1c-34.2 9.1-54.5 44.1-45.4 78.3l46.4-12.3zM231 243.4L184.5 68.1 138.1 80.4l46.5 175.3L231 243.4zM134.7 137.8l51 121.1L230 240.2 179 119.2l-44.2 18.6zm-21-8.5c8.1-3.4 17.5 .4 21 8.5L179 119.2C165.3 86.6 127.7 71.3 95.2 85l18.6 44.2zm-8.5 21c-3.4-8.1 .4-17.5 8.5-21L95.2 85C62.6 98.7 47.3 136.3 61 168.8l44.2-18.6zm76.2 181l-76.2-181L61 168.8l76.2 181 44.2-18.6zM73.8 323.4l58.5 45.5L161.8 331l-58.5-45.5L73.8 323.4zm-22.5 2.8c5.4-7 15.5-8.2 22.5-2.8l29.5-37.9c-27.9-21.7-68.1-16.7-89.8 11.2l37.9 29.5zm2.8 22.5c-7-5.4-8.2-15.5-2.8-22.5L13.5 296.7c-21.7 27.9-16.7 68.1 11.2 89.8l29.5-37.9zm92 71.6l-92-71.6L24.7 386.5l92 71.6 29.5-37.9zM273.9 464c-46.3 0-91.2-15.4-127.7-43.8l-29.5 37.9C161.6 493 216.9 512 273.9 512V464zm30.1 0H273.9v48H304V464zm2.8 0c-.8 0-1.5 0-2.3 0l-1 48c1.1 0 2.2 0 3.3 0V464zm101.5-79.2C396.7 431.3 354.8 464 306.8 464v48c70 0 131.1-47.7 148-115.6l-46.6-11.6zm55.2-220.9L408.3 384.8l46.6 11.6 55.2-220.9-46.6-11.6zm-11.6-19.4c8.6 2.1 13.8 10.8 11.6 19.4l46.6 11.6c8.6-34.3-12.3-69-46.6-77.6l-11.6 46.6zm-19.4 11.6c2.1-8.6 10.8-13.8 19.4-11.6l11.6-46.6c-34.3-8.6-69 12.3-77.6 46.6l46.6 11.6zM406.3 260.8l26.2-104.7-46.6-11.6L359.7 249.2l46.6 11.6zM381.7 280c11.6 0 21.7-7.9 24.6-19.2l-46.6-11.6c2.5-10.1 11.6-17.2 22-17.2v48zm-24.9-29.7c-2.8 15.5 9.2 29.7 24.9 29.7V232c14.1 0 24.8 12.8 22.3 26.7l-47.3-8.4zM383.8 98.8L356.8 250.3l47.3 8.4L431 107.2l-47.3-8.4zm-13-18.6c8.7 1.5 14.5 9.9 13 18.6l47.3 8.4c6.2-34.8-17-68-51.8-74.2l-8.4 47.3zm-18.6 13c1.5-8.7 9.9-14.5 18.6-13L379.2 33c-34.8-6.2-68 17-74.2 51.8l47.3 8.4zM323.2 256.8L352.2 93.2 305 84.8 275.9 248.4l47.3 8.4zM295.5 280c13.6 0 25.3-9.8 27.7-23.2l-47.3-8.4c1.7-9.5 9.9-16.4 19.6-16.4v48zm-27.2-20.9c3.3 12.3 14.4 20.9 27.2 20.9V232c9 0 16.9 6.1 19.2 14.8l-46.4 12.3zM215.5 59.9l52.8 199.2 46.4-12.3L261.9 47.6 215.5 59.9zM328 488c0 13.4-11.1 24.3-24.5 24l1-48c-13.5-.3-24.5 10.5-24.5 24h48zm-24 24c13.3 0 24-10.8 24-24H280c0-13.2 10.7-24 24-24v48zM137.2 349.8c-6.4-15.2 11.6-29 24.6-18.8l-29.5 37.9c26 20.2 61.9-7.3 49.1-37.7l-44.2 18.6z"/></svg>