<svg xmlns="http://www.w3.org/2000/svg" viewBox="0 0 576 512"><!--! Font Awesome Free 6.1.2 by @fontawesome - https://fontawesome.com License - https://fontawesome.com/license/free (Icons: CC BY 4.0, Fonts: SIL OFL 1.1, Code: MIT License) Copyright 2022 Fonticons, Inc. --><path d="M234.9 48.02c10.43 0 20.72 5.834 24.13 19.17l47.33 184.1c2.142 8.456 9.174 12.62 16.21 12.62c7.326 0 14.66-4.505 16.51-13.37l31.72-155.1c2.921-14.09 13.76-20.57 24.67-20.57c13.01 0 26.14 9.19 26.14 25.62c0 2.19-.2333 4.508-.7313 6.951l-28.48 139.2c-.2389 1.156-.3514 2.265-.3514 3.323c0 8.644 7.504 13.9 14.86 13.9c5.869 0 11.65-3.341 13.46-10.98l24.73-104.2c.2347-.9802 4.12-19.76 24.28-19.76c13.21 0 26.64 9.4 26.64 24.79c0 2.168-.2665 4.455-.8378 6.852l-48.06 204.7c-13.59 57.85-65.15 98.74-124.5 98.74l-48.79-.0234c-40.7-.0196-79.86-15.58-109.5-43.51l-75.93-71.55c-5.938-5.584-8.419-11.1-8.419-18.2c0-13.88 12.45-26.69 26.38-26.69c5.756 0 11.76 2.182 17.26 7.376l51.08 48.14c1.682 1.569 3.599 2.249 5.448 2.249c4.192 0 8.04-3.49 8.04-8.001c0-23.76-3.372-47.39-10.12-70.28L142 161.1C141.2 159.1 140.8 156.3 140.8 153.7c0-15.23 13.48-24.82 26.75-24.82c10.11 0 20.1 5.559 23.94 18.42l31.22 105.8c2.231 7.546 8.029 10.8 13.9 10.8c7.752 0 15.64-5.659 15.64-14.57c0-1.339-.1783-2.752-.562-4.23L209.3 80.06C208.7 77.45 208.3 74.97 208.3 72.62C208.3 57.33 221.7 48.02 234.9 48.02zM234.9 0C201.5 0 160.4 25.24 160.4 72.72c0 2.807 .1579 5.632 .4761 8.463C129.9 83.9 92.84 108.9 92.84 153.8c0 7.175 1.038 14.47 3.148 21.68l24.33 81.94C115.8 256.5 111.1 256 106.4 256C65.74 256 32 290.6 32 330.8c0 19.59 8.162 38.58 23.6 53.1l75.89 71.51c38.68 36.45 89.23 56.53 142.3 56.56L322.6 512c82.1 0 152.5-55.83 171.3-135.8l48.06-204.7C543.3 165.7 544 159.7 544 153.9c0-54.55-49.55-72.95-74.59-72.95c-.7689 0-1.534 .0117-2.297 .0352c-10.49-39.43-46.46-54.11-71.62-54.11c-34.1 0-64.45 24.19-71.63 58.83L319.2 108.5l-13.7-53.29C297.1 22.22 268.7 0 234.9 0z"/></svg>