<svg xmlns="http://www.w3.org/2000/svg" viewBox="0 0 512 512"><!--! Font Awesome Free 6.1.0 by @fontawesome - https://fontawesome.com License - https://fontawesome.com/license/free (Icons: CC BY 4.0, Fonts: SIL OFL 1.1, Code: MIT License) Copyright 2022 Fonticons, Inc. --><path d="M304 344c-13.25 0-24 10.74-24 24c0 13.25 10.75 24 24 24c13.26 0 24-10.75 24-24C328 354.7 317.3 344 304 344zM448 32h-384c-35.35 0-64 28.65-64 64v320c0 35.35 28.65 64 64 64h384c35.35 0 64-28.65 64-64V96C512 60.65 483.3 32 448 32zM464 416c0 8.822-7.178 16-16 16H64c-8.822 0-16-7.178-16-16v-96c0-8.822 7.178-16 16-16h384C456.8 304 464 311.2 464 320V416zM464 258.3C458.9 256.9 453.6 256 448 256H64C58.44 256 53.14 256.9 48 258.3V96c0-8.822 7.178-16 16-16h384c8.822 0 16 7.178 16 16V258.3zM400 344c-13.25 0-24 10.74-24 24c0 13.25 10.75 24 24 24c13.26 0 24-10.75 24-24C424 354.7 413.3 344 400 344z"/></svg>