<svg xmlns="http://www.w3.org/2000/svg" viewBox="0 0 384 512"><!--! Font Awesome Free 6.4.0 by @fontawesome - https://fontawesome.com License - https://fontawesome.com/license/free (Icons: CC BY 4.0, Fonts: SIL OFL 1.1, Code: MIT License) Copyright 2023 Fonticons, Inc. --><path d="M0 24C0 10.7 10.7 0 24 0H360c13.3 0 24 10.7 24 24s-10.7 24-24 24h-8V67c0 40.3-16 79-44.5 107.5L225.9 256l81.5 81.5C336 366 352 404.7 352 445v19h8c13.3 0 24 10.7 24 24s-10.7 24-24 24H24c-13.3 0-24-10.7-24-24s10.7-24 24-24h8V445c0-40.3 16-79 44.5-107.5L158.1 256 76.5 174.5C48 146 32 107.3 32 67V48H24C10.7 48 0 37.3 0 24zM110.5 371.5c-3.9 3.9-7.5 8.1-10.7 12.5H284.2c-3.2-4.4-6.8-8.6-10.7-12.5L192 289.9l-81.5 81.5zM284.2 128C297 110.4 304 89 304 67V48H80V67c0 22.1 7 43.4 19.8 61H284.2z"/></svg>