<svg xmlns="http://www.w3.org/2000/svg" viewBox="0 0 576 512"><!--! Font Awesome Free 6.5.1 by @fontawesome - https://fontawesome.com License - https://fontawesome.com/license/free (Icons: CC BY 4.0, Fonts: SIL OFL 1.1, Code: MIT License) Copyright 2023 Fonticons, Inc. --><path d="M64 112c-8.8 0-16 7.2-16 16V384c0 8.8 7.2 16 16 16H512c8.8 0 16-7.2 16-16V128c0-8.8-7.2-16-16-16H64zM0 128C0 92.7 28.7 64 64 64H512c35.3 0 64 28.7 64 64V384c0 35.3-28.7 64-64 64H64c-35.3 0-64-28.7-64-64V128zM176 320H400c8.8 0 16 7.2 16 16v16c0 8.8-7.2 16-16 16H176c-8.8 0-16-7.2-16-16V336c0-8.8 7.2-16 16-16zm-72-72c0-8.8 7.2-16 16-16h16c8.8 0 16 7.2 16 16v16c0 8.8-7.2 16-16 16H120c-8.8 0-16-7.2-16-16V248zm16-96h16c8.8 0 16 7.2 16 16v16c0 8.8-7.2 16-16 16H120c-8.8 0-16-7.2-16-16V168c0-8.8 7.2-16 16-16zm64 96c0-8.8 7.2-16 16-16h16c8.8 0 16 7.2 16 16v16c0 8.8-7.2 16-16 16H200c-8.8 0-16-7.2-16-16V248zm16-96h16c8.8 0 16 7.2 16 16v16c0 8.8-7.2 16-16 16H200c-8.8 0-16-7.2-16-16V168c0-8.8 7.2-16 16-16zm64 96c0-8.8 7.2-16 16-16h16c8.8 0 16 7.2 16 16v16c0 8.8-7.2 16-16 16H280c-8.8 0-16-7.2-16-16V248zm16-96h16c8.8 0 16 7.2 16 16v16c0 8.8-7.2 16-16 16H280c-8.8 0-16-7.2-16-16V168c0-8.8 7.2-16 16-16zm64 96c0-8.8 7.2-16 16-16h16c8.8 0 16 7.2 16 16v16c0 8.8-7.2 16-16 16H360c-8.8 0-16-7.2-16-16V248zm16-96h16c8.8 0 16 7.2 16 16v16c0 8.8-7.2 16-16 16H360c-8.8 0-16-7.2-16-16V168c0-8.8 7.2-16 16-16zm64 96c0-8.8 7.2-16 16-16h16c8.8 0 16 7.2 16 16v16c0 8.8-7.2 16-16 16H440c-8.8 0-16-7.2-16-16V248zm16-96h16c8.8 0 16 7.2 16 16v16c0 8.8-7.2 16-16 16H440c-8.8 0-16-7.2-16-16V168c0-8.8 7.2-16 16-16z"/></svg>