<svg xmlns="http://www.w3.org/2000/svg" viewBox="0 0 640 512"><!--! Font Awesome Free 6.5.0 by @fontawesome - https://fontawesome.com License - https://fontawesome.com/license/free (Icons: CC BY 4.0, Fonts: SIL OFL 1.1, Code: MIT License) Copyright 2023 Fonticons, Inc. --><path d="M48.2 66.8c-.1-.8-.2-1.7-.2-2.5c0-.1 0-.1 0-.2c0-8.8 7.2-16 16-16c.9 0 1.9 .1 2.8 .2C74.3 49.5 80 56.1 80 64c0 8.8-7.2 16-16 16c-7.9 0-14.5-5.7-15.8-13.2zM0 64c0 26.9 16.5 49.9 40 59.3V228.7C16.5 238.1 0 261.1 0 288c0 35.3 28.7 64 64 64c26.9 0 49.9-16.5 59.3-40H324.7c9.5 23.5 32.5 40 59.3 40c35.3 0 64-28.7 64-64c0-26.9-16.5-49.9-40-59.3V123.3c23.5-9.5 40-32.5 40-59.3c0-35.3-28.7-64-64-64c-26.9 0-49.9 16.5-59.3 40H123.3C113.9 16.5 90.9 0 64 0C28.7 0 0 28.7 0 64zm368 0a16 16 0 1 1 32 0 16 16 0 1 1 -32 0zM324.7 88c6.5 16 19.3 28.9 35.3 35.3V228.7c-16 6.5-28.9 19.3-35.3 35.3H123.3c-6.5-16-19.3-28.9-35.3-35.3V123.3c16-6.5 28.9-19.3 35.3-35.3H324.7zM384 272a16 16 0 1 1 0 32 16 16 0 1 1 0-32zM80 288c0 7.9-5.7 14.5-13.2 15.8c-.8 .1-1.7 .2-2.5 .2l-.2 0c-8.8 0-16-7.2-16-16c0-.9 .1-1.9 .2-2.8C49.5 277.7 56.1 272 64 272c8.8 0 16 7.2 16 16zm391.3-40h45.4c6.5 16 19.3 28.9 35.3 35.3V388.7c-16 6.5-28.9 19.3-35.3 35.3H315.3c-6.5-16-19.3-28.9-35.3-35.3V352H232v36.7c-23.5 9.5-40 32.5-40 59.3c0 35.3 28.7 64 64 64c26.9 0 49.9-16.5 59.3-40H516.7c9.5 23.5 32.5 40 59.3 40c35.3 0 64-28.7 64-64c0-26.9-16.5-49.9-40-59.3V283.3c23.5-9.5 40-32.5 40-59.3c0-35.3-28.7-64-64-64c-26.9 0-49.9 16.5-59.3 40H448v16.4c9.8 8.8 17.8 19.5 23.3 31.6zm88.9-26.7a16 16 0 1 1 31.5 5.5 16 16 0 1 1 -31.5-5.5zM271.8 450.7a16 16 0 1 1 -31.5-5.5 16 16 0 1 1 31.5 5.5zm301.5 13c-7.5-1.3-13.2-7.9-13.2-15.8c0-8.8 7.2-16 16-16c7.9 0 14.5 5.7 15.8 13.2l0 .1c.1 .9 .2 1.8 .2 2.7c0 8.8-7.2 16-16 16c-.9 0-1.9-.1-2.8-.2z"/></svg>