<svg xmlns="http://www.w3.org/2000/svg" viewBox="0 0 512 512"><!--! Font Awesome Free 6.3.0 by @fontawesome - https://fontawesome.com License - https://fontawesome.com/license/free (Icons: CC BY 4.0, Fonts: SIL OFL 1.1, Code: MIT License) Copyright 2023 Fonticons, Inc. --><path d="M16 115.8C6.2 107 0 94.2 0 80C0 53.5 21.5 32 48 32c14.2 0 27 6.2 35.8 16H428.2c8.8-9.8 21.6-16 35.8-16c26.5 0 48 21.5 48 48c0 14.2-6.2 27-16 35.8V396.2c9.8 8.8 16 21.6 16 35.8c0 26.5-21.5 48-48 48c-14.2 0-27-6.2-35.8-16H83.8C75 473.8 62.2 480 48 480c-26.5 0-48-21.5-48-48c0-14.2 6.2-27 16-35.8V115.8zM93.3 96c-4.8 13.6-15.6 24.4-29.3 29.3V386.7c13.6 4.8 24.4 15.6 29.3 29.3H418.7c4.8-13.6 15.6-24.4 29.3-29.3V125.3c-13.6-4.8-24.4-15.6-29.3-29.3H93.3zM96 160c0-17.7 14.3-32 32-32H256c17.7 0 32 14.3 32 32v96c0 17.7-14.3 32-32 32H128c-17.7 0-32-14.3-32-32V160zM224 320h32c35.3 0 64-28.7 64-64V224h64c17.7 0 32 14.3 32 32v96c0 17.7-14.3 32-32 32H256c-17.7 0-32-14.3-32-32V320z"/></svg>