<svg xmlns="http://www.w3.org/2000/svg" viewBox="0 0 576 512"><!--! Font Awesome Free 6.4.2 by @fontawesome - https://fontawesome.com License - https://fontawesome.com/license/free (Icons: CC BY 4.0, Fonts: SIL OFL 1.1, Code: MIT License) Copyright 2023 Fonticons, Inc. --><path d="M64 80c-8.8 0-16 7.2-16 16V416c0 8.8 7.2 16 16 16H512c8.8 0 16-7.2 16-16V96c0-8.8-7.2-16-16-16H64zM0 96C0 60.7 28.7 32 64 32H512c35.3 0 64 28.7 64 64V416c0 35.3-28.7 64-64 64H64c-35.3 0-64-28.7-64-64V96zm96 64a32 32 0 1 1 64 0 32 32 0 1 1 -64 0zm104 0c0-13.3 10.7-24 24-24H448c13.3 0 24 10.7 24 24s-10.7 24-24 24H224c-13.3 0-24-10.7-24-24zm0 96c0-13.3 10.7-24 24-24H448c13.3 0 24 10.7 24 24s-10.7 24-24 24H224c-13.3 0-24-10.7-24-24zm0 96c0-13.3 10.7-24 24-24H448c13.3 0 24 10.7 24 24s-10.7 24-24 24H224c-13.3 0-24-10.7-24-24zm-72-64a32 32 0 1 1 0-64 32 32 0 1 1 0 64zM96 352a32 32 0 1 1 64 0 32 32 0 1 1 -64 0z"/></svg>