<svg xmlns="http://www.w3.org/2000/svg" viewBox="0 0 512 512"><!--! Font Awesome Free 6.2.1 by @fontawesome - https://fontawesome.com License - https://fontawesome.com/license/free (Icons: CC BY 4.0, Fonts: SIL OFL 1.1, Code: MIT License) Copyright 2022 Fonticons, Inc. --><path d="M256 0C114.6 0 0 114.6 0 256s114.6 256 256 256s256-114.6 256-256S397.4 0 256 0zM256 464c-114.7 0-208-93.31-208-208S141.3 48 256 48s208 93.31 208 208S370.7 464 256 464zM352 208c0-44.13-35.88-80-80-80L184 128c-13.25 0-24 10.75-24 24v208c0 13.25 10.75 24 24 24s24-10.75 24-24v-72h59.79l38.46 82.19C310.3 378.9 319 384 328 384c3.438 0 6.875-.7187 10.19-2.25c12-5.625 17.16-19.91 11.56-31.94l-34.87-74.5C337.1 261.1 352 236.3 352 208zM272 240h-64v-64h64c17.66 0 32 14.34 32 32S289.7 240 272 240z"/></svg>