<svg xmlns="http://www.w3.org/2000/svg" viewBox="0 0 512 512"><!--! Font Awesome Free 6.5.1 by @fontawesome - https://fontawesome.com License - https://fontawesome.com/license/free (Icons: CC BY 4.0, Fonts: SIL OFL 1.1, Code: MIT License) Copyright 2023 Fonticons, Inc. --><path d="M256 48a208 208 0 1 1 0 416 208 208 0 1 1 0-416zm0 464A256 256 0 1 0 256 0a256 256 0 1 0 0 512zM160 152V264v96c0 13.3 10.7 24 24 24s24-10.7 24-24V288h60.9l37.2 81.9c5.5 12.1 19.7 17.4 31.8 11.9s17.4-19.7 11.9-31.8L315.7 275c21.8-14.3 36.3-39 36.3-67c0-44.2-35.8-80-80-80H184c-13.3 0-24 10.7-24 24zm48 88V176h64c17.7 0 32 14.3 32 32s-14.3 32-32 32H208z"/></svg>