<svg xmlns="http://www.w3.org/2000/svg" viewBox="0 0 448 512"><!--! Font Awesome Free 6.4.0 by @fontawesome - https://fontawesome.com License - https://fontawesome.com/license/free (Icons: CC BY 4.0, Fonts: SIL OFL 1.1, Code: MIT License) Copyright 2023 Fonticons, Inc. --><path d="M64 80c-8.8 0-16 7.2-16 16l0 320c0 8.8 7.2 16 16 16l320 0c8.8 0 16-7.2 16-16l0-320c0-8.8-7.2-16-16-16L64 80zM0 96C0 60.7 28.7 32 64 32l320 0c35.3 0 64 28.7 64 64l0 320c0 35.3-28.7 64-64 64L64 480c-35.3 0-64-28.7-64-64L0 96zm224 64c6.7 0 13 2.8 17.6 7.7l104 112c6.5 7 8.2 17.2 4.4 25.9s-12.5 14.4-22 14.4l-208 0c-9.5 0-18.2-5.7-22-14.4s-2.1-18.9 4.4-25.9l104-112c4.5-4.9 10.9-7.7 17.6-7.7z"/></svg>