<svg xmlns="http://www.w3.org/2000/svg" viewBox="0 0 448 512"><!--! Font Awesome Free 6.4.0 by @fontawesome - https://fontawesome.com License - https://fontawesome.com/license/free (Icons: CC BY 4.0, Fonts: SIL OFL 1.1, Code: MIT License) Copyright 2023 Fonticons, Inc. --><path d="M400 96c0-8.8-7.2-16-16-16L64 80c-8.8 0-16 7.2-16 16l0 320c0 8.8 7.2 16 16 16l320 0c8.8 0 16-7.2 16-16l0-320zM384 32c35.3 0 64 28.7 64 64l0 320c0 35.3-28.7 64-64 64L64 480c-35.3 0-64-28.7-64-64L0 96C0 60.7 28.7 32 64 32l320 0zM320 256c0 6.7-2.8 13-7.7 17.6l-112 104c-7 6.5-17.2 8.2-25.9 4.4s-14.4-12.5-14.4-22l0-208c0-9.5 5.7-18.2 14.4-22s18.9-2.1 25.9 4.4l112 104c4.9 4.5 7.7 10.9 7.7 17.6z"/></svg>