<svg xmlns="http://www.w3.org/2000/svg" viewBox="0 0 640 512"><!--! Font Awesome Free 6.5.0 by @fontawesome - https://fontawesome.com License - https://fontawesome.com/license/free (Icons: CC BY 4.0, Fonts: SIL OFL 1.1, Code: MIT License) Copyright 2023 Fonticons, Inc. --><path d="M15 15C24.4 5.7 39.6 5.7 49 15l63 63V40c0-13.3 10.7-24 24-24s24 10.7 24 24v96c0 13.3-10.7 24-24 24H40c-13.3 0-24-10.7-24-24s10.7-24 24-24H78.1L15 49C5.7 39.6 5.7 24.4 15 15zM133.5 243.9C158.6 193.6 222.7 112 320 112s161.4 81.6 186.5 131.9c3.8 7.6 3.8 16.5 0 24.2C481.4 318.4 417.3 400 320 400s-161.4-81.6-186.5-131.9c-3.8-7.6-3.8-16.5 0-24.2zM320 320a64 64 0 1 0 0-128 64 64 0 1 0 0 128zM591 15c9.4-9.4 24.6-9.4 33.9 0s9.4 24.6 0 33.9l-63 63H600c13.3 0 24 10.7 24 24s-10.7 24-24 24H504c-13.3 0-24-10.7-24-24V40c0-13.3 10.7-24 24-24s24 10.7 24 24V78.1l63-63zM15 497c-9.4-9.4-9.4-24.6 0-33.9l63-63H40c-13.3 0-24-10.7-24-24s10.7-24 24-24h96c13.3 0 24 10.7 24 24v96c0 13.3-10.7 24-24 24s-24-10.7-24-24V433.9L49 497c-9.4 9.4-24.6 9.4-33.9 0zm576 0l-63-63V472c0 13.3-10.7 24-24 24s-24-10.7-24-24V376c0-13.3 10.7-24 24-24h96c13.3 0 24 10.7 24 24s-10.7 24-24 24H561.9l63 63c9.4 9.4 9.4 24.6 0 33.9s-24.6 9.4-33.9 0z"/></svg>