<svg xmlns="http://www.w3.org/2000/svg" viewBox="0 0 640 512"><!--! Font Awesome Free 6.5.0 by @fontawesome - https://fontawesome.com License - https://fontawesome.com/license/free (Icons: CC BY 4.0, Fonts: SIL OFL 1.1, Code: MIT License) Copyright 2023 Fonticons, Inc. --><path d="M96 224v32V416c0 17.7 14.3 32 32 32h32c17.7 0 32-14.3 32-32V327.8c9.9 6.6 20.6 12 32 16.1V368c0 8.8 7.2 16 16 16s16-7.2 16-16V351.1c5.3 .6 10.6 .9 16 .9s10.7-.3 16-.9V368c0 8.8 7.2 16 16 16s16-7.2 16-16V343.8c11.4-4 22.1-9.4 32-16.1V416c0 17.7 14.3 32 32 32h32c17.7 0 32-14.3 32-32V256l32 32v49.5c0 9.5 2.8 18.7 8.1 26.6L530 427c8.8 13.1 23.5 21 39.3 21c22.5 0 41.9-15.9 46.3-38l20.3-101.6c2.6-13-.3-26.5-8-37.3l-3.9-5.5V184c0-13.3-10.7-24-24-24s-24 10.7-24 24v14.4l-52.9-74.1C496 86.5 452.4 64 405.9 64H272 256 192 144C77.7 64 24 117.7 24 184v54C9.4 249.8 0 267.8 0 288v17.6c0 8 6.4 14.4 14.4 14.4C46.2 320 72 294.2 72 262.4V256 224 184c0-24.3 12.1-45.8 30.5-58.9C98.3 135.9 96 147.7 96 160v64zM560 336a16 16 0 1 1 32 0 16 16 0 1 1 -32 0zM166.6 166.6c-4.2-4.2-6.6-10-6.6-16c0-12.5 10.1-22.6 22.6-22.6H361.4c12.5 0 22.6 10.1 22.6 22.6c0 6-2.4 11.8-6.6 16l-23.4 23.4C332.2 211.8 302.7 224 272 224s-60.2-12.2-81.9-33.9l-23.4-23.4z"/></svg>