<svg xmlns="http://www.w3.org/2000/svg" viewBox="0 0 640 512"><!--! Font Awesome Free 6.5.0 by @fontawesome - https://fontawesome.com License - https://fontawesome.com/license/free (Icons: CC BY 4.0, Fonts: SIL OFL 1.1, Code: MIT License) Copyright 2023 Fonticons, Inc. --><path d="M480 0c-17.7 0-32 14.3-32 32V192 512h64V192H624c8.8 0 16-7.2 16-16V48c0-8.8-7.2-16-16-16H512c0-17.7-14.3-32-32-32zM416 159L276.8 39.7c-12-10.3-29.7-10.3-41.7 0l-224 192C1 240.4-2.7 254.5 2 267.1S18.6 288 32 288H64V480c0 17.7 14.3 32 32 32h64c17.7 0 32-14.3 32-32V384c0-17.7 14.3-32 32-32h64c17.7 0 32 14.3 32 32v96c0 17.7 14.3 32 32 32h64.7l.2 0h-1V159z"/></svg>