<svg xmlns="http://www.w3.org/2000/svg" viewBox="0 0 640 512"><!--! Font Awesome Free 6.5.0 by @fontawesome - https://fontawesome.com License - https://fontawesome.com/license/free (Icons: CC BY 4.0, Fonts: SIL OFL 1.1, Code: MIT License) Copyright 2023 Fonticons, Inc. --><path d="M38.8 5.1C28.4-3.1 13.3-1.2 5.1 9.2S-1.2 34.7 9.2 42.9l592 464c10.4 8.2 25.5 6.3 33.7-4.1s6.3-25.5-4.1-33.7L542.6 400c2.7-7.8 1.3-16.5-3.9-23l-14.9-18.6C495.5 322.9 480 278.8 480 233.4V208c0-77.4-55-142-128-156.8V32c0-17.7-14.3-32-32-32s-32 14.3-32 32V51.2c-42.6 8.6-79 34.2-102 69.3L38.8 5.1zM224 150.3C243.6 117.7 279.3 96 320 96c61.9 0 112 50.1 112 112v25.4c0 32.7 6.4 64.8 18.7 94.5L224 150.3zM406.2 416l-60.9-48H168.3c21.2-32.8 34.4-70.3 38.4-109.1L160 222.1v11.4c0 45.4-15.5 89.5-43.8 124.9L101.3 377c-5.8 7.2-6.9 17.1-2.9 25.4s12.4 13.6 21.6 13.6H406.2zM384 448H320 256c0 17 6.7 33.3 18.7 45.3s28.3 18.7 45.3 18.7s33.3-6.7 45.3-18.7s18.7-28.3 18.7-45.3z"/></svg>