<svg xmlns="http://www.w3.org/2000/svg" viewBox="0 0 384 512"><!--! Font Awesome Free 6.1.0 by @fontawesome - https://fontawesome.com License - https://fontawesome.com/license/free (Icons: CC BY 4.0, Fonts: SIL OFL 1.1, Code: MIT License) Copyright 2022 Fonticons, Inc. --><path d="M44 320.6l14.5 6.5c-17.01 20.24-26.44 45.91-26.44 72.35C32.06 399.7 32.12 432 32.12 432h48v-32c0-24.75 14-47.5 36.13-58.63l38.13-23.37c13.25-6.625 21.75-20.25 21.75-35.13v-58.75l-15.37 9C155.6 235.8 151.9 240.4 150.5 245.9L143 271c-2.25 7.625-8 13.88-15.38 16.75L117.1 292C114 293.3 110.7 293.9 107.4 293.9c-3.626 0-7.263-.7514-10.66-2.254L63.5 276.9C54.12 272.6 48 263.2 48 252.9V140.5c0-5.125 2.125-10.12 5.75-13.88l7.375-7.375L49.5 96C48.5 94.12 48 92 48 89.88C48 84.38 52.38 80 57.88 80h105c86.75 0 156.1 70.38 156.1 157.1V432h48.06l-.0625-194.9C367.9 124 276 32 162.9 32H57.88C25.88 32 0 57.88 0 89.88c0 8.5 1.75 16.88 5.125 24.62C1.75 122.8 0 131.6 0 140.5v112.4C0 282.2 17.25 308.8 44 320.6zM80.12 164c0 11 8.875 20 20 20c11 0 20-9 20-20s-9-20-20-20C89 144 80.12 153 80.12 164zM360 464H23.1C10.75 464 0 474.7 0 487.1S10.75 512 23.1 512H360C373.3 512 384 501.3 384 488S373.3 464 360 464z"/></svg>