<svg xmlns="http://www.w3.org/2000/svg" viewBox="0 0 384 512"><!--! Font Awesome Free 6.3.0 by @fontawesome - https://fontawesome.com License - https://fontawesome.com/license/free (Icons: CC BY 4.0, Fonts: SIL OFL 1.1, Code: MIT License) Copyright 2023 Fonticons, Inc. --><path d="M48 80V192c0 2.5 1.2 4.9 3.2 6.4l51.2 38.4c6.8 5.1 10.4 13.4 9.5 21.9L101.5 352H53.2l9.4-85L22.4 236.8C8.3 226.2 0 209.6 0 192V72C0 49.9 17.9 32 40 32H344c22.1 0 40 17.9 40 40V192c0 17.6-8.3 34.2-22.4 44.8L321.4 267l9.4 85H282.5l-10.4-93.3c-.9-8.4 2.7-16.8 9.5-21.9l51.2-38.4c2-1.5 3.2-3.9 3.2-6.4V80H272v24c0 13.3-10.7 24-24 24s-24-10.7-24-24V80H160v24c0 13.3-10.7 24-24 24s-24-10.7-24-24V80H48zm4.7 384H331.3l-16.6-32H69.2L52.7 464zm271.9-80c12 0 22.9 6.7 28.4 17.3l26.5 51.2c3 5.8 4.6 12.2 4.6 18.7c0 22.5-18.2 40.8-40.8 40.8H40.8C18.2 512 0 493.8 0 471.2c0-6.5 1.6-12.9 4.6-18.7l26.5-51.2C36.5 390.7 47.5 384 59.5 384h265zM176 288c-8.8 0-16-7.2-16-16V224c0-17.7 14.3-32 32-32s32 14.3 32 32v48c0 8.8-7.2 16-16 16H176z"/></svg>