<svg xmlns="http://www.w3.org/2000/svg" viewBox="0 0 576 512"><!--! Font Awesome Free 6.0.0 by @fontawesome - https://fontawesome.com License - https://fontawesome.com/license/free (Icons: CC BY 4.0, Fonts: SIL OFL 1.1, Code: MIT License) Copyright 2022 Fonticons, Inc. --><path d="M512 32H64C28.65 32 0 60.65 0 96v320c0 35.35 28.65 64 64 64h448c35.35 0 64-28.65 64-64V96C576 60.65 547.3 32 512 32zM528 416c0 8.822-7.178 16-16 16H64c-8.822 0-16-7.178-16-16V96c0-8.822 7.178-16 16-16h448c8.822 0 16 7.178 16 16V416zM236.5 222.1c9.375 9.375 24.56 9.375 33.94 0c9.375-9.375 9.375-24.56 0-33.94c-37.44-37.44-98.31-37.44-135.7 0C116.5 206.2 106.5 230.4 106.5 256s9.1 49.75 28.12 67.88c18.72 18.72 43.28 28.08 67.87 28.08s49.16-9.359 67.87-28.08c9.375-9.375 9.375-24.56 0-33.94c-9.375-9.375-24.56-9.375-33.94 0c-18.69 18.72-49.19 18.72-67.87 0C159.5 280.9 154.5 268.8 154.5 256s5-24.88 14.06-33.94C187.3 203.3 217.8 203.3 236.5 222.1zM428.5 222.1c9.375 9.375 24.56 9.375 33.94 0c9.375-9.375 9.375-24.56 0-33.94c-37.44-37.44-98.31-37.44-135.7 0C308.5 206.2 298.5 230.4 298.5 256s9.1 49.75 28.12 67.88c18.72 18.72 43.28 28.08 67.87 28.08s49.16-9.359 67.87-28.08c9.375-9.375 9.375-24.56 0-33.94c-9.375-9.375-24.56-9.375-33.94 0c-18.69 18.72-49.19 18.72-67.87 0C351.5 280.9 346.5 268.8 346.5 256s5-24.88 14.06-33.94C379.3 203.3 409.8 203.3 428.5 222.1z"/></svg>