<svg xmlns="http://www.w3.org/2000/svg" viewBox="0 0 640 512"><!--! Font Awesome Free 6.1.2 by @fontawesome - https://fontawesome.com License - https://fontawesome.com/license/free (Icons: CC BY 4.0, Fonts: SIL OFL 1.1, Code: MIT License) Copyright 2022 Fonticons, Inc. --><path d="M519.4 334.4C522.7 342.5 527.8 352.1 535.9 361.1C539.9 365 544.1 368.4 548.6 371.4C506.4 454.8 419.9 512 319.1 512C220.1 512 133.6 454.8 91.4 371.4C95.87 368.4 100.1 365 104.1 361.1C112.2 352.1 117.3 342.5 120.6 334.4C121.8 331.5 122.9 328.6 123.9 325.5C152.5 406.2 229.5 464 319.1 464C410.5 464 487.5 406.2 516.1 325.5C517.1 328.6 518.2 331.5 519.4 334.4V334.4zM319.1 47.1C218.6 47.1 134.2 120.5 115.7 216.5C109.1 213.4 101.4 212.2 93.4 213.3C86.59 214.3 77.18 215.7 66.84 217.7C85.31 94.5 191.6 0 319.1 0C448.4 0 554.7 94.5 573.2 217.7C562.8 215.7 553.4 214.3 546.6 213.3C538.6 212.2 530.9 213.4 524.2 216.5C505.8 120.5 421.4 48 319.1 48V47.1zM78.5 341.1C59.98 356.7 32.01 355.5 14.27 337.7C-4.442 319-4.825 288.9 13.55 270.6C22.19 261.9 43.69 255.4 64.05 250.1C77.02 248.2 89.53 246.2 97.94 245C103.3 244.2 107.8 248.7 106.1 254.1C103.9 275.6 95.58 324.3 81.43 338.4C80.49 339.4 79.51 340.3 78.5 341.1V341.1zM561.5 341.1C560.7 340.5 559.1 339.8 559.2 339.1C559 338.9 558.8 338.7 558.6 338.4C544.4 324.3 536.1 275.6 533 254.1C532.2 248.7 536.7 244.2 542.1 245C543.1 245.2 544.2 245.3 545.4 245.5C553.6 246.7 564.6 248.5 575.1 250.1C596.3 255.4 617.8 261.9 626.4 270.6C644.8 288.9 644.4 319 625.7 337.7C607.1 355.5 580 356.7 561.5 341.1L561.5 341.1zM319.9 399.1C269.6 399.1 225.5 374.6 200.9 336.5C190.5 320.4 207.7 303.1 226.3 308.4C255.3 315.1 286.8 318.8 319.9 318.8C353 318.8 384.6 315.1 413.5 308.4C432.2 303.1 449.4 320.4 438.1 336.5C414.4 374.6 370.3 399.1 319.9 399.1zM281.6 228.8L281.4 228.5C281.2 228.3 281 228 280.7 227.6C280 226.8 279.1 225.7 277.9 224.3C275.4 221.4 271.9 217.7 267.7 213.1C258.9 206.2 248.8 200 239.1 200C231.2 200 221.1 206.2 212.3 213.1C208.1 217.7 204.6 221.4 202.1 224.3C200.9 225.7 199.1 226.8 199.3 227.6C198.1 228 198.8 228.3 198.6 228.5L198.4 228.8L198.4 228.8C196.3 231.6 192.7 232.7 189.5 231.6C186.2 230.5 183.1 227.4 183.1 224C183.1 206.1 190.7 188.4 200.6 175.2C210.4 162.2 224.5 152 239.1 152C255.5 152 269.6 162.2 279.4 175.2C289.3 188.4 295.1 206.1 295.1 224C295.1 227.4 293.8 230.5 290.5 231.6C287.3 232.7 283.7 231.6 281.6 228.8L281.6 228.8zM441.6 228.8L441.6 228.8L441.4 228.5C441.2 228.3 441 228 440.7 227.6C440 226.8 439.1 225.7 437.9 224.3C435.4 221.4 431.9 217.7 427.7 213.1C418.9 206.2 408.8 200 400 200C391.2 200 381.1 206.2 372.3 213.1C368.1 217.7 364.6 221.4 362.1 224.3C360.9 225.7 359.1 226.8 359.3 227.6C358.1 228 358.8 228.3 358.6 228.5L358.4 228.8L358.4 228.8C356.3 231.6 352.7 232.7 349.5 231.6C346.2 230.5 344 227.4 344 223.1C344 206.1 350.7 188.4 360.6 175.2C370.4 162.2 384.5 151.1 400 151.1C415.5 151.1 429.6 162.2 439.4 175.2C449.3 188.4 456 206.1 456 223.1C456 227.4 453.8 230.5 450.5 231.6C447.3 232.7 443.7 231.6 441.6 228.8V228.8z"/></svg>