<svg xmlns="http://www.w3.org/2000/svg" viewBox="0 0 384 512"><!--! Font Awesome Free 6.0.0 by @fontawesome - https://fontawesome.com License - https://fontawesome.com/license/free (Icons: CC BY 4.0, Fonts: SIL OFL 1.1, Code: MIT License) Copyright 2022 Fonticons, Inc. --><path d="M365.3 93.38l-74.63-74.64C278.6 6.742 262.3 0 245.4 0L64-.0001c-35.35 0-64 28.65-64 64l.0065 384c0 35.34 28.65 64 64 64H320c35.2 0 64-28.8 64-64V138.6C384 121.7 377.3 105.4 365.3 93.38zM336 448c0 8.836-7.164 16-16 16H64.02c-8.838 0-16-7.164-16-16L48 64.13c0-8.836 7.164-16 16-16h48V64h64V48.13h48.01L224 128c0 17.67 14.33 32 32 32h79.1V448zM176 96h-64v32h64V96zM176 160h-64v32h64V160zM176 224h-64l-30.56 116.5C73.51 379.5 103.7 416 144.3 416c40.26 0 70.45-36.3 62.68-75.15L176 224zM160 368H128c-8.836 0-16-7.164-16-16s7.164-16 16-16h32c8.836 0 16 7.164 16 16S168.8 368 160 368z"/></svg>