<svg xmlns="http://www.w3.org/2000/svg" viewBox="0 0 384 512"><!--! Font Awesome Free 6.1.1 by @fontawesome - https://fontawesome.com License - https://fontawesome.com/license/free (Icons: CC BY 4.0, Fonts: SIL OFL 1.1, Code: MIT License) Copyright 2022 Fonticons, Inc. --><path d="M365.3 93.38l-74.63-74.64C278.6 6.742 262.3 0 245.4 0H64C28.65 0 0 28.65 0 64l.0065 384c0 35.34 28.65 64 64 64H320c35.2 0 64-28.8 64-64V138.6C384 121.7 377.3 105.4 365.3 93.38zM336 448c0 8.836-7.164 16-16 16H64.02c-8.838 0-16-7.164-16-16L48 64.13c0-8.836 7.164-16 16-16h160L224 128c0 17.67 14.33 32 32 32h79.1V448zM214.6 248C211.3 238.4 202.2 232 192 232s-19.25 6.406-22.62 16L144.7 318.1l-25.89-77.66C114.6 227.8 101 221.2 88.41 225.2C75.83 229.4 69.05 243 73.23 255.6l48 144C124.5 409.3 133.5 415.9 143.8 416c10.17 0 19.45-6.406 22.83-16L192 328.1L217.4 400C220.8 409.6 229.8 416 240 416c10.27-.0938 19.53-6.688 22.77-16.41l48-144c4.188-12.59-2.594-26.16-15.17-30.38c-12.61-4.125-26.2 2.594-30.36 15.19l-25.89 77.66L214.6 248z"/></svg>