<svg xmlns="http://www.w3.org/2000/svg" viewBox="0 0 384 512"><!--! Font Awesome Free 6.2.0 by @fontawesome - https://fontawesome.com License - https://fontawesome.com/license/free (Icons: CC BY 4.0, Fonts: SIL OFL 1.1, Code: MIT License) Copyright 2022 Fonticons, Inc. --><path d="M365.3 93.38l-74.63-74.64C278.6 6.742 262.3 0 245.4 0H64C28.65 0 0 28.65 0 64l.0065 384c0 35.34 28.65 64 64 64H320c35.2 0 64-28.8 64-64V138.6C384 121.7 377.3 105.4 365.3 93.38zM336 448c0 8.836-7.164 16-16 16H64.02c-8.838 0-16-7.164-16-16L48 64.13c0-8.836 7.164-16 16-16h160L224 128c0 17.67 14.33 32 32 32h79.1V448zM200 224H128C119.2 224 112 231.2 112 240v168c0 13.25 10.75 24 24 24S160 421.3 160 408v-32h44c44.21 0 79.73-37.95 75.69-82.98C276.1 253.2 240 224 200 224zM204 328H160V272h44c15.44 0 28 12.56 28 28S219.4 328 204 328z"/></svg>