<svg xmlns="http://www.w3.org/2000/svg" viewBox="0 0 384 512" ><path d="M 48 -0.099609375 C 21.5 0.000390625 0 21.5 0 48 L 0 464 C 0 490.5 21.5 512 48 512 L 336 512 C 362.5 512 384 490.5 384 464 L 384 131.90039 C 384 119.20039 378.90039 106.90039 369.90039 97.900391 L 286 14 C 277 5 264.79961 -0.099609375 252.09961 -0.099609375 L 48 -0.099609375 z M 48 48 L 208 48 L 208 152 C 208 165.3 218.7 176 232 176 L 336 176 L 336 464 L 48 464 L 48 48 z M 256 51.900391 L 332.09961 128 L 256 128 L 256 51.900391 z M 192.00586 220.94531 C 185.71524 220.94255 179.42284 223.98484 175.83203 230.08203 L 82.519531 388.57617 C 75.355422 400.74122 84.323112 416 98.6875 416 L 285.31055 416 C 299.64731 416 308.65662 400.76484 301.47852 388.57617 L 208.16797 230.08203 C 204.58358 223.99588 198.29648 220.94807 192.00586 220.94531 z M 179.67578 287.99414 L 204.32422 287.99414 C 207.00135 287.99414 209.13021 290.19763 208.98438 292.81641 L 206.09961 344.62695 C 205.96467 347.05144 203.91784 348.94922 201.43945 348.94922 L 182.56055 348.94922 C 180.08218 348.94922 178.03534 347.05144 177.90039 344.62695 L 175.01562 292.81641 C 174.8698 290.19763 176.99868 287.99414 179.67578 287.99414 z M 192 355.80664 C 201.87972 355.80664 209.88867 363.65355 209.88867 373.33203 C 209.88867 383.01051 201.87972 390.85547 192 390.85547 C 182.12029 390.85547 174.11133 383.01051 174.11133 373.33203 C 174.11133 363.65355 182.12029 355.80664 192 355.80664z"/></svg>