<svg xmlns="http://www.w3.org/2000/svg" viewBox="0 0 448 512"><!--! Font Awesome Free 6.1.2 by @fontawesome - https://fontawesome.com License - https://fontawesome.com/license/free (Icons: CC BY 4.0, Fonts: SIL OFL 1.1, Code: MIT License) Copyright 2022 Fonticons, Inc. --><path d="M224 256c-35.2 0-64 28.8-64 64c0 35.2 28.8 64 64 64c35.2 0 64-28.8 64-64C288 284.8 259.2 256 224 256zM433.1 129.1l-83.9-83.9C341.1 37.06 328.8 32 316.1 32H64C28.65 32 0 60.65 0 96v320c0 35.35 28.65 64 64 64h320c35.35 0 64-28.65 64-64V163.9C448 151.2 442.9 138.9 433.1 129.1zM128 80h144V160H128V80zM400 416c0 8.836-7.164 16-16 16H64c-8.836 0-16-7.164-16-16V96c0-8.838 7.164-16 16-16h16v104c0 13.25 10.75 24 24 24h192C309.3 208 320 197.3 320 184V83.88l78.25 78.25C399.4 163.2 400 164.8 400 166.3V416z"/></svg>