<?xml version="1.0" encoding="utf-8"?>
<!-- Generator: Adobe Illustrator 24.1.1, SVG Export Plug-In . SVG Version: 6.00 Build 0)  -->
<svg version="1.1" id="Ebene_1" xmlns="http://www.w3.org/2000/svg" xmlns:xlink="http://www.w3.org/1999/xlink" x="0px" y="0px"
	 viewBox="0 0 80 40" style="enable-background:new 0 0 80 40;" xml:space="preserve">
<style type="text/css">
	.st0{fill:#FFFFFF;}
	.st1{fill:none;stroke:#000000;stroke-width:0.25;stroke-miterlimit:10;}
</style>
<g>
	<rect x="0.3" y="0.3" width="79.5" height="39.5"/>
	<path class="st0" d="M79.5,0.5v39h-79v-39H79.5 M80,0H0v40h80V0L80,0z"/>
</g>
<g>
	<rect x="1.3" y="1.3" class="st0" width="77.5" height="37.5"/>
	<path d="M78.5,1.5v37h-77v-37H78.5 M79,1H1v38h78V1L79,1z"/>
</g>
<g>
	<line class="st1" x1="5.4" y1="34.6" x2="2.6" y2="37.4"/>
	<line class="st1" x1="2.8" y1="35.1" x2="2.6" y2="37.4"/>
	<line class="st1" x1="4.9" y1="37.2" x2="2.6" y2="37.4"/>
</g>
<g>
	<line class="st1" x1="74.3" y1="5.6" x2="77.1" y2="2.8"/>
	<line class="st1" x1="76.9" y1="5.1" x2="77.1" y2="2.8"/>
	<line class="st1" x1="74.8" y1="3" x2="77.1" y2="2.8"/>
</g>
</svg>
