<svg xmlns="http://www.w3.org/2000/svg" viewBox="0 0 576 512"><!--! Font Awesome Free 6.5.0 by @fontawesome - https://fontawesome.com License - https://fontawesome.com/license/free (Icons: CC BY 4.0, Fonts: SIL OFL 1.1, Code: MIT License) Copyright 2023 Fonticons, Inc. --><path d="M170.2 80.8C161 47 180.8 12 214.6 2.4c34-9.6 69.4 10.2 79 44.2l30.3 107.1L337.1 84c6.6-34.7 40.1-57.5 74.8-50.9c31.4 6 53 33.9 52 64.9c10-2.6 20.8-2.8 31.5-.1c34.3 8.6 55.1 43.3 46.6 77.6L486.7 397.2C469.8 464.7 409.2 512 339.6 512c-11.2 0-22.5 0-33.7 0c-56.9 0-112.2-19-157.2-53.9l-92-71.6c-27.9-21.7-32.9-61.9-11.2-89.8s61.9-32.9 89.8-11.2l17 13.2L100.5 167.5c-13-32.9 3.2-70.1 36-83c11.1-4.4 22.7-5.4 33.7-3.7zm77.1-21.2c-2.4-8.5-11.2-13.4-19.7-11s-13.4 11.2-11 19.7l54.8 182.4c3.5 12.3-3.3 25.2-15.4 29.3s-25.3-2-30-13.9L174.9 138.1c-3.2-8.2-12.5-12.3-20.8-9s-12.3 12.5-9 20.8l73.3 185.6c12 30.3-23.7 57-49.4 37l-63.1-49.1c-7-5.4-17-4.2-22.5 2.8s-4.2 17 2.8 22.5l92 71.6c36.5 28.4 81.4 43.8 127.7 43.8c11.2 0 22.5 0 33.7 0c47.5 0 89-32.4 100.5-78.5l55.4-221.6c2.1-8.6-3.1-17.3-11.6-19.4s-17.3 3.1-19.4 11.6l-26 104C435.6 271.8 425 280 413 280c-16.5 0-28.9-15-25.8-31.2L415.7 99c1.7-8.7-4-17.1-12.7-18.7s-17.1 4-18.7 12.7L352.5 260c-2.2 11.6-12.4 20-24.2 20c-11 0-20.7-7.3-23.7-17.9L247.4 59.6z"/></svg>