<?xml version="1.0" standalone="no"?>
<!DOCTYPE svg PUBLIC "-//W3C//DTD SVG 20010904//EN"
 "http://www.w3.org/TR/2001/REC-SVG-20010904/DTD/svg10.dtd">
<svg version="1.0" xmlns="http://www.w3.org/2000/svg"
 width="200.000000pt" height="200.000000pt" viewBox="0 0 200.000000 200.000000"
 preserveAspectRatio="xMidYMid meet">

<g transform="translate(0.000000,200.000000) scale(0.100000,-0.100000)"
fill="#000000" stroke="none">
<path d="M490 1980 c-6 -11 -15 -18 -19 -16 -4 3 -13 -6 -20 -20 -6 -14 -15
-23 -20 -20 -5 3 -21 -12 -36 -34 -15 -22 -31 -38 -35 -35 -4 2 -12 -7 -19
-21 -6 -14 -15 -23 -20 -20 -4 3 -13 -6 -20 -20 -6 -14 -15 -22 -21 -19 -5 3
-14 -4 -20 -15 -6 -11 -15 -18 -20 -15 -5 3 -10 -5 -12 -17 -2 -13 -7 -22 -13
-21 -5 1 -16 -9 -23 -23 -7 -13 -17 -22 -21 -20 -4 3 -13 -6 -20 -21 -6 -14
-15 -23 -18 -19 -3 3 -13 -3 -20 -14 -8 -11 -18 -18 -23 -15 -5 3 -10 -5 -12
-17 -2 -13 -7 -21 -11 -18 -5 3 -15 -8 -23 -23 -8 -15 -19 -25 -24 -22 -5 3
-12 -4 -15 -17 -3 -13 -5 -297 -3 -633 l3 -610 26 -55 c37 -80 81 -125 157
-162 l67 -33 724 -3 c713 -3 726 -2 795 18 58 18 78 31 127 79 48 49 61 69 79
127 20 69 21 82 18 795 l-3 724 -33 67 c-37 76 -82 120 -162 157 l-55 26 -622
3 c-620 3 -622 3 -633 -18z m-3 -202 c57 -53 66 -117 25 -176 l-19 -27 177
-354 177 -354 7 152 c7 162 25 281 50 329 21 40 72 82 100 82 45 0 88 -43 146
-145 31 -55 128 -225 214 -377 155 -274 157 -278 196 -288 74 -20 138 -96 154
-180 8 -46 -17 -130 -51 -170 -79 -95 -237 -99 -319 -8 -54 59 -75 146 -52
214 15 41 14 41 -55 205 -38 90 -95 227 -127 304 -32 77 -65 155 -72 173 -14
32 -15 29 -21 -89 -4 -67 -7 -181 -8 -253 -1 -182 -9 -234 -43 -263 -29 -25
-83 -31 -117 -13 -35 19 -110 187 -287 645 -49 127 -100 259 -112 293 -13 35
-28 65 -34 67 -6 2 -24 6 -40 10 -39 8 -84 58 -92 101 -10 55 26 120 81 145
32 14 95 3 122 -23z"/>
<path d="M263 1983 c9 -2 25 -2 35 0 9 3 1 5 -18 5 -19 0 -27 -2 -17 -5z"/>
<path d="M149 1939 l-24 -20 28 17 c15 9 27 18 27 20 0 8 -8 4 -31 -17z"/>
<path d="M95 1899 c-11 -16 -1 -19 13 -3 7 8 8 14 3 14 -5 0 -13 -5 -16 -11z"/>
<path d="M63 1858 c-15 -20 -25 -38 -20 -38 3 0 12 11 21 25 17 26 16 35 -1
13z"/>
<path d="M12 1725 c0 -16 2 -22 5 -12 2 9 2 23 0 30 -3 6 -5 -1 -5 -18z"/>
</g>
</svg>
