<svg xmlns="http://www.w3.org/2000/svg" viewBox="0 0 576 512"><!--! Font Awesome Free 6.2.1 by @fontawesome - https://fontawesome.com License - https://fontawesome.com/license/free (Icons: CC BY 4.0, Fonts: SIL OFL 1.1, Code: MIT License) Copyright 2022 Fonticons, Inc. --><path d="M565.6 36.24C572.1 40.72 576 48.11 576 56V392C576 401.1 569.8 410.9 560.5 414.4L392.5 478.4C387.4 480.4 381.7 480.5 376.4 478.8L192.5 417.5L32.54 478.4C25.17 481.2 16.88 480.2 10.38 475.8C3.882 471.3 0 463.9 0 456V120C0 110 6.15 101.1 15.46 97.57L183.5 33.57C188.6 31.6 194.3 31.48 199.6 33.23L383.5 94.52L543.5 33.57C550.8 30.76 559.1 31.76 565.6 36.24H565.6zM48 421.2L168 375.5V90.83L48 136.5V421.2zM360 137.3L216 89.3V374.7L360 422.7V137.3zM408 421.2L528 375.5V90.83L408 136.5V421.2z"/></svg>