<svg xmlns="http://www.w3.org/2000/svg" viewBox="0 0 512 512"><!--! Font Awesome Free 6.1.1 by @fontawesome - https://fontawesome.com License - https://fontawesome.com/license/free (Icons: CC BY 4.0, Fonts: SIL OFL 1.1, Code: MIT License) Copyright 2022 Fonticons, Inc. --><path d="M502.6 198.6l-61.25-61.25C435.4 131.4 427.3 128 418.8 128H256C220.7 128 191.1 156.7 192 192l.0065 255.1C192 483.3 220.7 512 256 512h192c35.2 0 64-28.8 64-64l.0098-226.7C512 212.8 508.6 204.6 502.6 198.6zM464 448c0 8.836-7.164 16-16 16h-192c-8.838 0-16-7.164-16-16L240 192.1c0-8.836 7.164-16 16-16h128L384 224c0 17.67 14.33 32 32 32h48.01V448zM317.7 96C310.6 68.45 285.8 48 256 48H215.2C211.3 20.93 188.1 0 160 0C131.9 0 108.7 20.93 104.8 48H64c-35.35 0-64 28.65-64 64V384c0 35.34 28.65 64 64 64h96v-48H64c-8.836 0-16-7.164-16-16V112C48 103.2 55.18 96 64 96h16v16c0 17.67 14.33 32 32 32h61.35C190 115.4 220.6 96 256 96H317.7zM160 72c-8.822 0-16-7.176-16-16s7.178-16 16-16s16 7.176 16 16S168.8 72 160 72z"/></svg>