<svg xmlns="http://www.w3.org/2000/svg" viewBox="0 0 448 512"><!--! Font Awesome Free 6.2.1 by @fontawesome - https://fontawesome.com License - https://fontawesome.com/license/free (Icons: CC BY 4.0, Fonts: SIL OFL 1.1, Code: MIT License) Copyright 2022 Fonticons, Inc. --><path d="M241.6 175.7C237.1 170.8 230.7 168 224 168S210.9 170.8 206.4 175.7l-96 104c-6.469 7-8.188 17.19-4.375 25.91C109.8 314.3 118.5 320 127.1 320h192c9.531 0 18.16-5.656 22-14.38c3.813-8.719 2.094-18.91-4.375-25.91L241.6 175.7zM384 32H64C28.65 32 0 60.66 0 96v320c0 35.34 28.65 64 64 64h320c35.35 0 64-28.66 64-64V96C448 60.66 419.3 32 384 32zM400 416c0 8.82-7.178 16-16 16H64c-8.822 0-16-7.18-16-16V96c0-8.82 7.178-16 16-16h320c8.822 0 16 7.18 16 16V416z"/></svg>