<svg xmlns="http://www.w3.org/2000/svg" viewBox="0 0 640 512"><!--! Font Awesome Free 6.4.0 by @fontawesome - https://fontawesome.com License - https://fontawesome.com/license/free (Icons: CC BY 4.0, Fonts: SIL OFL 1.1, Code: MIT License) Copyright 2023 Fonticons, Inc. --><path d="M341.5 13.5C337.5 5.2 329.1 0 319.9 0s-17.6 5.2-21.6 13.5L229.7 154.8 76.5 177.5c-9 1.3-16.5 7.6-19.3 16.3s-.5 18.1 5.9 24.5L174.2 328.4 148 483.9c-1.5 9 2.2 18.1 9.7 23.5s17.3 6 25.3 1.7l137-73.2 137 73.2c8.1 4.3 17.9 3.7 25.3-1.7s11.2-14.5 9.7-23.5L465.6 328.4 576.8 218.2c6.5-6.4 8.7-15.9 5.9-24.5s-10.3-14.9-19.3-16.3L410.1 154.8 341.5 13.5zM320 384.7V79.1l52.5 108.1c3.5 7.1 10.2 12.1 18.1 13.3l118.3 17.5L423 303c-5.5 5.5-8.1 13.3-6.8 21l20.2 119.6L331.2 387.5c-3.5-1.9-7.4-2.8-11.2-2.8z"/></svg>