<svg xmlns="http://www.w3.org/2000/svg" viewBox="0 0 512 512"><path d="M128 144v320c0 26.51-21.49 48-48 48H48c-26.51 0-48-21.49-48-48V144c0-26.51 21.49-48 48-48h32c26.51 0 48 21.49 48 48zm384 64v256c0 26.51-21.49 48-48 48H192c-26.51 0-48-21.49-48-48V40c0-22.091 17.909-40 40-40h207.432a39.996 39.996 0 0 1 28.284 11.716l48.569 48.569A39.999 39.999 0 0 1 480 88.568v74.174c18.641 6.591 32 24.36 32 45.258zm-320-16h240V96h-24c-13.203 0-24-10.797-24-24V48H192v144zm96 204c0-6.627-5.373-12-12-12h-40c-6.627 0-12 5.373-12 12v40c0 6.627 5.373 12 12 12h40c6.627 0 12-5.373 12-12v-40zm0-128c0-6.627-5.373-12-12-12h-40c-6.627 0-12 5.373-12 12v40c0 6.627 5.373 12 12 12h40c6.627 0 12-5.373 12-12v-40zm128 128c0-6.627-5.373-12-12-12h-40c-6.627 0-12 5.373-12 12v40c0 6.627 5.373 12 12 12h40c6.627 0 12-5.373 12-12v-40zm0-128c0-6.627-5.373-12-12-12h-40c-6.627 0-12 5.373-12 12v40c0 6.627 5.373 12 12 12h40c6.627 0 12-5.373 12-12v-40z"/></svg>