<svg xmlns="http://www.w3.org/2000/svg" viewBox="0 0 512 512"><path d="M64 128H32c-17.67 0-32 14.33-32 32v320c0 17.67 14.33 32 32 32h32c17.67 0 32-14.33 32-32V160c0-17.67-14.33-32-32-32zm416 32V77.25c0-8.49-3.37-16.62-9.37-22.63L425.37 9.37c-6-6-14.14-9.37-22.63-9.37H160c-17.67 0-32 14.33-32 32v448c0 17.67 14.33 32 32 32h320c17.67 0 32-14.33 32-32V192c0-17.67-14.33-32-32-32zM288 432c0 8.84-7.16 16-16 16h-32c-8.84 0-16-7.16-16-16v-32c0-8.84 7.16-16 16-16h32c8.84 0 16 7.16 16 16v32zm0-128c0 8.84-7.16 16-16 16h-32c-8.84 0-16-7.16-16-16v-32c0-8.84 7.16-16 16-16h32c8.84 0 16 7.16 16 16v32zm128 128c0 8.84-7.16 16-16 16h-32c-8.84 0-16-7.16-16-16v-32c0-8.84 7.16-16 16-16h32c8.84 0 16 7.16 16 16v32zm0-128c0 8.84-7.16 16-16 16h-32c-8.84 0-16-7.16-16-16v-32c0-8.84 7.16-16 16-16h32c8.84 0 16 7.16 16 16v32zm16-112H176V48h208v32c0 8.84 7.16 16 16 16h32v96z"/></svg>