<svg xmlns="http://www.w3.org/2000/svg" viewBox="0 0 448 512"><!--! Font Awesome Free 6.5.1 by @fontawesome - https://fontawesome.com License - https://fontawesome.com/license/free (Icons: CC BY 4.0, Fonts: SIL OFL 1.1, Code: MIT License) Copyright 2023 Fonticons, Inc. --><path d="M298 0c3 0 5.8 1.3 7.8 3.6l38.1 44c.5-.1 1-.2 1.5-.3c9.2-1.6 18.6-2.2 27.7-1.2c11.6 1.4 21.5 5.4 28.9 12.9c7.7 7.8 15.4 15.8 22.6 23.6c2.5 2.7 4.9 5.2 6.9 7.4c.7 .8 1.4 1.5 1.9 2c3.4 3.7 4.2 8.1 2.7 11.9l-9.8 24.6 13.1 38.1c.7 2 .8 4.1 .2 6.2c-.1 .4-.1 .4-.5 2.1c-.6 2.3-.6 2.3-1.5 5.8c-1.6 6.3-3.5 13.3-5.4 20.9c-5.6 21.6-11.2 43.2-16.4 63.4c-12.9 49.9-21.4 82.7-23.4 90.9c-11.1 44.5-19.9 60-48.3 80.3c-24.9 17.8-76.8 53.6-86.8 60c-1 .6-2 1.3-3.4 2.3c-.5 .4-3.2 2.2-3.9 2.7c-4.9 3.3-8.3 5.5-12.1 7.3c-4.7 2.2-9.3 3.5-13.9 3.5s-9.1-1.2-13.9-3.5c-3.7-1.8-7.2-3.9-12.1-7.3c-.8-.5-3.4-2.4-3.9-2.7c-1.4-1-2.5-1.7-3.4-2.3c-10-6.4-61.9-42.1-86.8-60c-28.4-20.4-37.2-35.8-48.3-80.3c-2-8.2-10.5-41-23.3-90.5c-5.3-20.6-10.9-42.2-16.5-63.8c-2-7.6-3.8-14.6-5.4-20.9c-.9-3.5-.9-3.5-1.5-5.8c-.4-1.7-.4-1.7-.5-2.1c-.5-2-.4-4.2 .2-6.2l13.1-38.1L11.8 104c-1.5-3.8-.7-8.2 2-11.2c1.2-1.3 1.8-2 2.6-2.8c2-2.2 4.4-4.7 6.9-7.4C30.6 74.9 38.3 66.9 46 59.1c7.4-7.5 17.3-11.6 28.9-12.9c9.1-1.1 18.5-.5 27.7 1.2c.5 .1 1 .2 1.5 .3l38.1-44C144.2 1.3 147 0 150 0H298zm-4.7 21.1H154.7L115.6 66.2c-2.6 3-6.7 4.3-10.6 3.2c-.2-.1-.7-.2-1.5-.4c-1.3-.3-2.9-.6-4.5-.9c-7.4-1.3-14.9-1.8-21.7-1C70 68 64.3 70.3 60.7 74c-7.6 7.7-15.2 15.6-22.3 23.3c-1.7 1.8-3.3 3.5-4.8 5.1l8.8 22c1 2.4 1 5 .2 7.5L29.2 170.6c.4 1.4 .5 1.9 1.2 4.8c1.6 6.3 3.5 13.3 5.4 20.9c5.6 21.6 11.2 43.2 16.4 63.4c12.9 50 21.4 82.8 23.4 91C85.7 390.8 92 402 115.8 419c24.6 17.6 76.3 53.2 85.9 59.3c1.2 .8 2.5 1.6 4 2.7c.6 .4 3.2 2.2 3.9 2.7c4 2.8 6.7 4.4 9.2 5.6c2.2 1 3.9 1.5 5.1 1.5s2.9-.5 5.1-1.5c2.5-1.2 5.2-2.8 9.2-5.6c.7-.5 3.3-2.3 3.9-2.7c1.6-1.1 2.8-1.9 4-2.7c9.6-6.1 61.3-41.7 85.9-59.3c23.8-17.1 30.2-28.2 40.1-68.3c2.1-8.3 10.5-41.1 23.3-90.7c5.3-20.6 10.9-42.2 16.5-63.8c2-7.6 3.8-14.6 5.4-20.9c.7-2.9 .9-3.4 1.2-4.8l-13.3-38.8c-.8-2.4-.8-5.1 .2-7.5l8.8-22c-1.5-1.6-3.1-3.3-4.8-5.1c-7.2-7.6-14.7-15.5-22.3-23.3c-3.7-3.7-9.3-6-16.6-6.9c-6.8-.8-14.4-.3-21.7 1c-1.7 .3-3.2 .6-4.5 .9c-.8 .2-1.3 .3-1.5 .4c-3.8 1.1-7.9-.2-10.6-3.2L293.3 21.1zM224 316c2.8 0 20.9 6.5 35.4 14.1s25 13 28.3 15.2s1.3 6.2-1.7 8.4s-44.1 34.6-48.1 38.2s-9.8 9.5-13.8 9.5s-9.8-5.9-13.8-9.5s-45.1-36-48.1-38.2s-5.1-6.2-1.7-8.4s13.9-7.5 28.3-15.2s32.5-14.1 35.4-14.1zm.1-230.7c.7 0 8.8 .2 20.5 4.2c12.3 4.2 25.7 9.4 31.9 9.4s51.9-8.9 51.9-8.9s54.2 66.7 54.2 81s-6.8 18-13.7 25.4s-36.8 39.8-40.7 43.9s-11.9 10.5-7.1 21.8s11.7 25.8 3.9 40.4s-21 24.4-29.4 22.8s-28.4-12.2-35.7-17.1s-30.5-24.3-30.5-31.8s24-20.8 28.4-23.9s24.7-14.8 25.1-19.4s.3-6-5.7-17.4s-16.7-26.7-14.9-36.8s19.1-15.4 31.5-20.2s36.2-13.7 39.2-15.1s2.2-2.7-6.8-3.6s-34.6-4.3-46.1-1.1s-31.2 8.2-32.8 10.9s-3 2.7-1.4 11.8s10.1 52.8 10.9 60.6s2.4 12.9-5.8 14.8s-22.1 5.2-26.8 5.2s-18.6-3.3-26.8-5.2s-6.6-7-5.8-14.8s9.3-51.5 10.9-60.6s.2-9.2-1.4-11.8s-21.3-7.6-32.8-10.9s-37.1 .2-46.1 1.1s-9.8 2.2-6.8 3.6s26.8 10.4 39.2 15.1s29.7 10 31.5 20.2s-9 25.4-14.9 36.8s-6.1 12.8-5.7 17.4s20.6 16.4 25.1 19.4s28.4 16.4 28.4 23.9s-23.2 27-30.5 31.8s-27.2 15.4-35.7 17.1s-21.7-8.2-29.4-22.8s-.8-29.1 3.9-40.4s-3.3-17.7-7.1-21.8s-33.8-36.5-40.7-43.9s-13.7-11.2-13.7-25.4s54.2-81 54.2-81s45.8 8.9 51.9 8.9s19.5-5.2 31.9-9.4s20.6-4.2 20.6-4.2l.1 0z"/></svg>