<svg xmlns="http://www.w3.org/2000/svg" viewBox="0 0 448 512"><!--! Font Awesome Free 6.5.0 by @fontawesome - https://fontawesome.com License - https://fontawesome.com/license/free (Icons: CC BY 4.0, Fonts: SIL OFL 1.1, Code: MIT License) Copyright 2023 Fonticons, Inc. --><path d="M380.2 245.6c3-7.6 5.5-14 5.2-24.4l-4.3 9c4.4-13.2 4-27.1 3.6-40.4c-.2-6-.3-11.8 0-17.4l-1.8-.5c-1.5-45.2-40.6-93.1-75.3-109.4c-30-13.8-76.1-16.2-97.3-5.8c1.3-1.1 4.2-2 6.8-2.7l.3-.1c3.3-1 6-1.7 4-2.9c-19.2 1.9-24.9 5.5-31.1 9.4l-.1 0c-4.6 2.9-9.5 6-20.3 8.7c-3.5 3.4 1.7 2 5.8 .9l0 0c4.1-1.1 7.2-1.9-.1 2.4c-3.5 1-6.6 1.3-9.6 1.6l-.1 0c-8.3 .8-15.8 1.6-30.7 17c.8 1.3 3.4-.2 5.3-1.3l.1-.1c2.3-1.4 3.4-2-1.7 4.4c-19.1-2.4-60.3 43.7-69.1 59l4.6 .8c-3.2 8-6.8 14.8-10 20.8c-4.3 8.1-7.9 14.9-8.7 21.3c-.3 5.1-1 11-1.7 17.3l0 0c-.1 1-.2 2-.3 3l-.1 .6c-3 27.3-6.7 60.8 3.9 73l-1.3 13c.6 1.2 1.1 2.3 1.6 3.5c.2 .4 .4 .8 .5 1.1l0 0 0 0 0 0 0 0 0 0 0 0 0 0c1 2.1 2 4.2 3.3 6.2l-3 .2c7 22.1 10.8 22.5 15.1 22.9l0 0c4.4 .4 9.3 .9 18.7 24.2c-2.7-.9-5.5-1.9-9.4-7.2c-.5 4.1 5.8 16.3 13.1 25.8l-3.1 3.6c2.1 3.7 4.8 6.2 7.6 8.8l0 0 0 0c1 .9 2.1 1.9 3.1 2.9c-11.9-6.5 3.2 13.7 11.9 25.2c.8 1.1 1.5 2 2.2 2.9l0 0 0 0 0 0 0 0 0 0c1.4 1.9 2.5 3.4 2.9 4.1l2.4-4.2c-.3 6.1 4.3 13.9 13.1 24.7l7.3-.3c3 6 14 16.7 20.7 17.2l-4.4 5.8c8.1 2.6 10.3 4.3 12.7 6.2c2.6 2.1 5.4 4.3 16.1 8.1l-4.2-7.4c3.5 3 6.2 5.9 8.8 8.7l.1 .1c5.2 5.6 9.9 10.6 19.7 15.3c10.7 3.7 16.6 4.7 22.7 5.8c.3 0 .6 .1 .9 .1c5.4 .8 11.2 1.8 20.8 4.5c-1.1-.1-2.2-.1-3.3-.1h0c-2.3-.1-4.7-.1-7-.1l0 0 0 0 0 0 0 0 0 0 0 0 0 0c-14.4-.2-29.2-.4-42.7-5.2C107.8 480.5 19.5 367.2 26 250.6c-.6-9.9-.3-20.9 0-30.7c.4-13.5 .7-24.8-1.6-28.3l1-3.1c5.3-17.4 11.7-38.2 23.8-62.8l-.1-.2v-.1c.4 .4 3.4 3.4 8.8-5.8c.8-1.8 1.6-3.7 2.4-5.6c.5-1.1 .9-2.2 1.4-3.2c2.5-6.1 5.1-12.3 8.4-17.9l2.6-.6c1.7-10.1 17-23.8 29.8-35.2l1.1-1c5.7-5.1 10.7-9.7 13.6-13.1l.7 4.4c17-15.9 44.6-27.5 65.6-36.4l.5-.2c4.8-2 9.3-3.9 13.3-5.7c-3.4 3.8 2.2 2.7 10 1c4.8-1 10.4-2.1 15.3-2.4l-3.9 2.1c-2.7 1.4-5.4 2.8-8 4.6c8.1-2 11.7-1.4 15.7-.8l.3 0c3.5 .6 7.3 1.2 14.6 .2c-5.6 .8-12.3 3-11.2 3.8c7.9 .9 12.8-.1 17.2-1l.2 0c5.5-1.1 10.3-2 19.3 .9l-1-4.8c7.3 2.6 12.7 4.3 17.5 5.8l.5 .1c10 3 17.6 5.3 34.2 14.1c3.2 .2 5.3-.5 7.4-1.2l.1 0c3.6-1.1 7-2.1 15.2 1.2c.3 .5 .5 1 .7 1.4c.1 .2 .2 .5 .3 .7l0 .1c1 2.6 1.8 4.6 14.6 12.1c1.7-.7-2.7-4.7-6.4-8.2c0 0 0 0-.1-.1c-.2-.1-.3-.3-.5-.4c32.2 17.3 67.3 54.1 78 93.5c-6-11.1-5.2-5.5-4.3 .5c.6 4 1.2 8.1-.2 7.5c4.5 12.1 8.1 24.5 10.4 37.4l-.8-2.9-.1-.3c-3.3-11.9-9.6-34.3-19.9-49.3c-.4 4.3-2.8 3.9-5.2 3.5l-.1 0 0 0c-3.3-.6-6.2-1.1-1.9 12.6c2.6 3.8 3.1 2.4 3.5 1.1l0 0c.5-1.5 .9-2.7 4.7 5.2c.1 4.1 1 8.2 2.1 12.7l0 0 0 0 .1 .6c.1 .3 .1 .5 .2 .8l.1 .6c.6 2.6 1.3 5.4 1.8 8.4c-1.1-.2-2.3-2.2-3.4-4.2c-1.4-2.4-2.8-4.7-3.7-3.2c2.4 11.5 6.5 17.4 8 18.3c-.3 .6-.6 .7-1.1 .7c-.8 0-1.8 .1-1.9 5.3c.7 13.7 3.3 12.5 5.3 11.6l0 0c.6-.3 1.2-.6 1.7-.4c-.6 2.5-1.6 5.1-2.7 7.9c-2.8 7.1-6 15.4-3.4 26.1c-.8-3-2-6-3.1-8.9l-.1-.4c-.2-.5-.4-1-.6-1.5l0 0c-.3-.8-.6-1.6-.9-2.3c-.6 4.4-.3 7.7-.1 10.6c0 .2 0 .5 0 .7c.4 5.3 .7 10-3 19.9c4.3-14.2 3.8-26.9-.2-20.8c1 10.9-3.7 20.4-8 28.9l-.1 .2c-3.6 7.1-6.8 13.5-5.9 19.3l-5.2-7.1c-7.5 10.9-7 13.3-6.5 15.5l0 .1c.5 1.9 1 3.8-3.4 10.8c1.7-2.9 1.3-3.6 1-4.2l0 0c-.4-.8-.7-1.5 1.7-5.1c-1.6 .1-5.5 3.9-10.1 8.5c-3.9 3.9-8.5 8.4-12.8 11.8c-37.5 30.1-82.3 34-125.6 17.8c.2-1-.2-2.1-3.1-4.1c-36.8-28.2-58.5-52.1-50.9-107.5c2.1-1.6 3.6-5.8 5.3-10.8l0 0 0 0 .2-.4 .1-.3 0-.1c2.9-8.4 6.5-18.8 14.3-23.8c7.8-17.3 31.3-33.3 56.4-33.7c25.6-1.4 47.2 13.7 58.1 27.9c-19.8-18.4-52.1-24-79.7-10.4c-28.2 12.7-45 43.8-42.5 74.7c.3-.4 .6-.6 .9-.8l0 0s0 0 0 0c0 0 .1-.1 .1-.1l.1-.1c.6-.5 1.1-.9 1.4-3.3c-.9 60.2 64.8 104.3 112.1 82l.6 1.3c12.7-3.5 15.9-6.5 20.3-10.7l.1-.1 0 0c2.2-2.1 4.7-4.5 8.9-7.3c-.3 .7-1.3 1.7-2.4 2.7c-2.2 2.1-4.6 4.5-1.6 4.6c5-1.3 18.5-13.4 28.5-22.3l0 0 0 0c.6-.5 1.2-1 1.7-1.5c1.5-1.3 2.8-2.5 4-3.6l0 0 .3-.3c1.9-4.2 1.6-5.6 1.3-7l0-.1c-.4-1.6-.8-3.3 2.4-9.6l7.3-3.7c.8-2.1 1.5-4.1 2.2-6c.2-.6 .5-1.2 .7-1.8l-.4-.2zM349.3 34.3l-.2-.1 .2 .1 0 0zM247.8 334.1c-6-3-13.7-8.9-14.8-11.4l-.4 .3c-.3 .6-.5 1.3-.2 2.2c-12.2-5.7-23.4-14.3-32.6-24.9c4.9 7.1 10.1 14.1 17 19.5c-6.9-2.3-15.1-11.8-21.6-19.3l-.1-.1c-4.3-5-7.9-9.1-9.7-9.5c19.8 35.5 80.5 62.3 112.3 49c-14.7 .5-33.4 .3-49.9-5.8zm79.3-119.7l-.1-.2c-.5-1.5-1.1-3.1-1.7-3.4c1.4-5.8 5.4-10.7 4.4 4.6c-1 3.8-1.8 1.5-2.6-1zm-4.2 22.2c-1.3 7.9-5 15.5-10.1 22.5c.2-2-1.2-2.4-2.6-2.8l0 0c-2.9-.8-5.9-1.6 5.6-16.1c-.5 1.9-2.1 4.6-3.7 7.3l0 0 0 0-.3 .4c-3.6 5.9-6.7 11 4 4.3l1-1.8c2.6-4.5 5-8.8 6-13.8h.1zm-55.6 33.9c7.1 .6 14.1 .6 21-1.1c-2.5 2.4-5.2 4.8-8.3 7.2c-11.1-1.7-21.2-6-12.7-6.1zm-92.6 11.6c3.6 7.1 6.4 11.5 9 15.7l.1 .2c2.3 3.7 4.4 7.1 6.8 11.7c-5.1-4.2-8.7-9.5-12.5-15l-.3-.5c-1.4-2.1-2.8-4.2-4.4-6.2l1.2-5.9h.1zm7.5-9.6c1.6 3.3 3.2 6.4 5.7 9.1l2.6 7.7-1.3-2.1c-3.2-5.3-6.3-10.6-8-16.7l.8 1.6 .2 .4zm238.9-41.6c-2.3 17.4-7.7 34.6-16 50.3c7.6-14.9 12.5-30.9 14.8-47.2l1.2-3.1zM35.6 110.6c.4 .8 1.4 .5 2.3 .3c1.9-.5 3.6-.9-.1 7.6c-.5 .3-1 .7-1.5 1l0 0 0 0c-1.4 .9-2.8 1.9-3.9 3c1.9-3.8 3.5-7.4 3.2-11.9zM25.3 152.3c-.7 3.7-1.5 7.9-3.4 13.9c.2-1.9 0-3.5-.2-4.9l0-.1c-.4-3.4-.7-6.3 4.3-12.8c-.3 1.2-.5 2.5-.7 3.8v.1z"/></svg>