<svg xmlns="http://www.w3.org/2000/svg" viewBox="0 0 448.44 512"><path d="M53.62 479.56c-29.79-.08-53.7-24.11-53.62-53.9l.44-170.24C.76 131.71 101.31 31.68 225.02 32c123.71.32 223.74 100.87 223.42 224.58S347.57 480.32 223.86 480l-170.24-.44M289.84 85.93c-58.24-.15-105.4 46.77-105.55 105.01l-.14 56-42.56-.11c-32.63-.08-32.75 49.2-.13 49.28l33.6.09c4.48.01 8.95 4.5 8.94 8.98l-.12 47.04c-.08 30.91-25.23 55.93-56.14 55.85-9.37-.02-9.4-1.59-15.68-1.61-13.22-.03-24.44 11.14-24.48 24.58-.04 15.57 14.19 24.24 19.87 24.24 61.32 12.85 125.53-33.64 125.71-102.94l.14-56 42.56.11c32.65.08 32.7-49.2.13-49.28l-33.6-.09c-4.95-.01-8.95-4.03-8.94-8.98l.12-47.04c.1-40.52 38.63-60.87 66-54.93 15.36 3.88 30.26-8.43 30.3-23.89.03-12.1-8.68-22.2-19.87-24.02-6.72-1.58-13.22-2.27-20.16-2.29m-181 177.39L97 251.41c-4.71 1.33-9.42 3.11-13.68 5.34l27.03 27.17c-1.56-4.04-2.44-8.07-2.43-12.55m-6.16 129.91h-1.57 1.57m-20.91 29.74c.01-5.15 1.37-10.08 3.62-14.33l-61.89-62.21c-.02 7.62 1.08 14.79 2.86 21.96l55.41 55.7v-1.12m5.55 17.94c-2.01-2.92-3.34-5.83-4.23-9.19L27.88 385.2c9.56 28.68 31 51.81 58.52 63.76m222.2-169l11.84 11.9c4.71-1.33 9.42-3.11 13.68-5.34l-27.03-27.17c1.56 4.04 2.44 8.07 2.43 12.55m27.29-159.64c-.01 5.15-1.59 9.63-3.85 14.33l61.89 62.66c-.2-8.06-1.08-15.23-2.85-22.41l-55.18-56.14-.01 1.56m-5.78-17.94c2.01 2.92 3.34 5.83 4.23 9.19l54.29 54.57c-9.55-28.69-30.99-51.81-58.52-63.76M315.51 293.2l-8.49-8.53c-1.8 4.25-4.28 8.05-7.65 11.4 5.61-.44 10.99-1.54 16.14-2.87m48.46-27.43l-34.85-35.03a64.478 64.478 0 0 1-10.55 8.48l35.3 35.48c3.59-2.9 6.95-5.8 10.1-8.93m-13.7 11.61l-36.2-35.93c-4.04 2.23-8.75 3.56-13.68 4.67l37.98 38.4c4.05-2.23 8.09-4.68 11.9-7.14m25.38-25.47l-35.75-35.93c-2.25 4.25-4.72 8.05-7.65 11.4l34.85 35.03c2.93-3.35 5.85-6.7 8.55-10.5m9.23-15.88l-39.55-39.75c-.46 5.37-1.6 10.52-3.62 15.22l36.42 36.61c2.47-3.8 4.72-7.83 6.75-12.08m9.96-40.97l-64.34-64.68c-2.7 3.8-6.07 6.93-9.88 9.16l71.94 72.09c1.35-5.14 2.04-11.19 2.28-16.57m-3.2 22.17l-53.17-53.45c4.24 7.85 6.9 16.82 7.1 26.23l41.33 41.55c1.81-4.7 3.39-9.4 4.74-14.33M63.57 268.58c-3.59 2.9-7.18 5.81-10.1 9.38l34.85 34.59c3.14-3.13 6.74-6.03 10.55-8.48l-35.3-35.49m15.26-9.82c-3.81 2.23-7.85 4.68-11.22 7.14l35.3 35.93c4.49-2.23 9.42-3.78 14.12-4.67l-38.2-38.4m39.23-11.55c-5.6.43-10.98 1.54-16.14 2.87l8.49 8.53c2.03-4.24 4.51-8.05 7.65-11.4m-93.4 83.99c-1.13 5.6-2.04 11.19-2.06 17.02l64.35 64.23c2.7-3.35 6.06-6.48 9.88-8.71L24.66 331.2m14.65-36.03c-2.47 3.8-4.72 7.83-6.75 12.08L72.11 347c.46-5.37 1.6-10.52 3.62-15.22l-36.42-36.61m-8.77 16.33c-1.8 4.92-3.38 9.62-4.74 14.55l52.73 53.45c-3.79-7.85-6.45-16.82-6.65-26.23L30.54 311.5m19.79-30.64c-2.92 3.35-5.84 6.7-8.54 10.51l35.75 35.93c2.25-4.47 4.72-8.05 7.65-11.4l-34.86-35.04z"/></svg>