<svg xmlns="http://www.w3.org/2000/svg" viewBox="0 0 448 512"><!-- Font Awesome Free 5.15.4 by @fontawesome - https://fontawesome.com License - https://fontawesome.com/license/free (Icons: CC BY 4.0, Fonts: SIL OFL 1.1, Code: MIT License) --><path d="M400 32H48A48 48 0 0 0 0 80V432a48 48 0 0 0 48 48H400a48 48 0 0 0 48-48V80A48 48 0 0 0 400 32Zm16 400a16 16 0 0 1-16 16H48a16 16 0 0 1-16-16V80A16 16 0 0 1 48 64H400a16 16 0 0 1 16 16ZM201.6 152c-25.4 0-37.4 10.4-57.6 14.4V160a16 16 0 0 0-32 0V352a16 16 0 0 0 32 0V198.4c20.2-4 32.2-14.4 57.6-14.4 31.4 0 43.2 16 74.6 16 10.2 0 17.8-1.4 27.8-4.6v96c-10 3.2-17.6 4.6-27.8 4.6-31.4 0-43.4-16-74.6-16a85.9 85.9 0 0 0-25.6 4v32a80 80 0 0 1 25.6-4c31.4 0 43.2 16 74.6 16 18.6 0 28.2-4.8 59.8-16V152c-31.6 11.2-41.2 16-59.8 16C244.8 168 232.8 152 201.6 152Z"/></svg>