<svg xmlns="http://www.w3.org/2000/svg" viewBox="0 0 512 512"><!--! Font Awesome Free 6.5.1 by @fontawesome - https://fontawesome.com License - https://fontawesome.com/license/free (Icons: CC BY 4.0, Fonts: SIL OFL 1.1, Code: MIT License) Copyright 2023 Fonticons, Inc. --><path d="M0 256C0 114.6 114.6 0 256 0S512 114.6 512 256s-114.6 256-256 256L37.1 512c-13.7 0-20.5-16.5-10.9-26.2L75 437C28.7 390.7 0 326.7 0 256zM349.6 153.6c23.6 0 42.7-19.1 42.7-42.7s-19.1-42.7-42.7-42.7c-20.6 0-37.8 14.6-41.8 34c-34.5 3.7-61.4 33-61.4 68.4l0 .2c-37.5 1.6-71.8 12.3-99 29.1c-10.1-7.8-22.8-12.5-36.5-12.5c-33 0-59.8 26.8-59.8 59.8c0 24 14.1 44.6 34.4 54.1c2 69.4 77.6 125.2 170.6 125.2s168.7-55.9 170.6-125.3c20.2-9.6 34.1-30.2 34.1-54c0-33-26.8-59.8-59.8-59.8c-13.7 0-26.3 4.6-36.4 12.4c-27.4-17-62.1-27.7-100-29.1l0-.2c0-25.4 18.9-46.5 43.4-49.9l0 0c4.4 18.8 21.3 32.8 41.5 32.8zM177.1 246.9c16.7 0 29.5 17.6 28.5 39.3s-13.5 29.6-30.3 29.6s-31.4-8.8-30.4-30.5s15.4-38.3 32.1-38.3zm190.1 38.3c1 21.7-13.7 30.5-30.4 30.5s-29.3-7.9-30.3-29.6c-1-21.7 11.8-39.3 28.5-39.3s31.2 16.6 32.1 38.3zm-48.1 56.7c-10.3 24.6-34.6 41.9-63 41.9s-52.7-17.3-63-41.9c-1.2-2.9 .8-6.2 3.9-6.5c18.4-1.9 38.3-2.9 59.1-2.9s40.7 1 59.1 2.9c3.1 .3 5.1 3.6 3.9 6.5z"/></svg>