<svg xmlns="http://www.w3.org/2000/svg" viewBox="0 0 512 512"><path d="M312.4 401.2c1.3 1.3 3.6 5.6.8 11.1-1.6 2.9-3.2 4.9-6.2 7.3-3.6 2.9-10.6 6.2-20.3.1-5.2-3.3-5.5-4.4-12.7-3.4-5.1.7-7.1-4.5-5.3-8.8 1.9-4.3 9.4-7.7 18.8-2.2 4.2 2.5 10.8 7.7 16.6 3.1 2.4-1.9 3.8-3.2 7.2-7 .3-.5.8-.5 1.1-.2M256 29.7C114.6 29.7 0 144.3 0 285.6c0 28.6 4.7 56.1 13.3 81.8h17.8c15.8 0 30.4-3.8 42.8-10.2 3.1-1.6 6.6-2.6 10.4-2.6 19.1 0 18.3 15.3 30.3 22.9.7.4 7.5 4.3 15.8 3.9 3.4-.2 8.5-1 9.8-4.5 1.4-4-.3-7-5.3-9.1-9.7-4.1-9.5-11-15.8-18.2-3.9-4.3-8.6-8.5-9.5-17.8-.9-9.1 4.2-19.9 14.7-22.7 4-1.1 12.8-1.8 21.5 5 8.3 6.4 13.9 16.9 16.3 21.2 1.7 3 7.8 6.5 12.7 2.1 4.9-4.5 9.4-4.5 13.1 1.2 3.1 4.9 26.2 35.6 51.1 36.4 25.3.8 38.8-5.7 49.9-5.3 7.7.3 11.5 4.2 15.9 4.9 7.8 1.2 13.3-5.8 21.9-5.4 6.9.3 14.5 5 22.3 5 7.8 0 24.1-9.4 23.9-5.5-.4 6.8-5.7 18.9-6.9 24.5-.9 3.9-.1 13.2-2.4 20.8-2.1 7.6-9.2 17.4-11.1 20.1-6.3 9.4-10.8 12.2-16 22.1-5.7 11-15.1 21.2-17.6 24.5-.4.5-.4.9-.1 1.2 2 1.9 18.8-2.2 25.3-8.3 6.3-5.9 17.3-24 34.7-27.8 8.8-2 12.3-5 13-8.1.5-2.7-.6-2.9-.6-4.8 0-1.6.9-3 2.3-3.7 14.4-6 43.3-12.4 77.7-4.5 26-40.1 41.1-87.8 41.1-139.1C512 144.3 397.4 29.7 256 29.7zm208.2 250.8c-12.3 67.4-122.5 90-229.7 57.6-102.2-30.9-191.9-92.5-181.6-128.6 6-21 39.4-30 83.8-25.2-6.7 13.7-6.2 29.9 23.2 47.8 36 20.4 96.7 37.8 113.1 36.1 6.1-.6 11.6-3.7 6.1-7.3-24.8-16.6 7-36.4-55.7-48.4-82.9-15.8-79.6-39.2-77.2-52.7 0 0 7.4-33.1 10.4-44.7 3.1-11.6 11-38.3 64.3-26.3 30.8 6.9 47.5-1.7 55.9-3.9 23.1-5.9 48.6-1.8 62.7 12.7 14.6 15 34.7 61.3 44.3 95.9 4.9 17.6 3.6 26 1.1 32-1.8 4-2.8 6.6-8.9 16.9-1.1 1.8-.2 3.8 2.2 2.6 16-8.2 19.6-19.1 22.1-27.6 43.7 9.9 69.4 32.5 63.9 63.1zM229.6 135c-26.3 0-34.4 7-45.8-7.1-2.3-2.9-9.6-5.6-13.6 3.6-4 9.3 3.4 19.2 9.6 20.5 0 0 10.3 19.1 18.1 10.8 5.5-5.9 8.6-9.1 38.2-11.2 27.9-2.1 13.4-16.6-6.5-16.6zm61.1-40.2c-9.8 1-18.3 3.4-24.1 6.4-.7.3-.7 1.5.5 1.5 34.2-5.4 48.9 8.1 18.3 15.1-1.2.3-1.2 1.9 0 2.2 4.3 1.2 9.3 2 14.6 2.1 16.4.3 29.9-5.6 30.1-13.2.2-6.4-12.4-16.9-39.4-14.1z"/></svg>