<svg xmlns="http://www.w3.org/2000/svg" viewBox="0 0 448 512"><!--! Font Awesome Free 6.5.0 by @fontawesome - https://fontawesome.com License - https://fontawesome.com/license/free (Icons: CC BY 4.0, Fonts: SIL OFL 1.1, Code: MIT License) Copyright 2023 Fonticons, Inc. --><path d="M283.2 354.7c2.7-2.4 2.7-6.5 0-9.2c-2.4-2.3-6.6-2.3-9 0c-19.5 19.6-81.8 19.2-100.5 0c-2.4-2.4-6.5-2.4-8.9 0c-2.7 2.7-2.7 6.8 0 9.2c24.6 24.6 93.9 24.5 118.4 0zM165.4 264.9a26.6 26.6 0 1 0 -.4 53.2 26.6 26.6 0 1 0 .4-53.2zm90.7 26.8a26.7 26.7 0 1 0 53.4-.4 26.7 26.7 0 1 0 -53.4 .4zM384 32H64C28.7 32 0 60.7 0 96V416c0 35.3 28.7 64 64 64H384c35.3 0 64-28.7 64-64V96c0-35.3-28.7-64-64-64zM322.7 231.3c6.6-6.5 15.5-10.7 25.6-10.7c37.3 0 49.7 50 16.1 67.2c1.5 5.4 2.1 11.3 2.1 17c0 56.5-63.7 102.3-142.2 102.3c-78.2 0-141.9-45.8-141.9-102.3c0-5.7 .6-11.3 1.8-16.7c-34.3-17.1-22-67.5 15.5-67.5c10.1 0 19.4 4.2 25.9 11c24.1-16.7 56.2-27.4 91.9-28.9L238 109.9c.9-3.3 4.1-5.7 7.4-4.8l65.7 14.6c4.5-8.7 13.4-14.9 23.8-14.9c14.9 0 26.8 12.2 26.8 26.8s-11.9 26.8-26.8 26.8c-14.6 0-26.5-11.9-26.5-26.5l-59.5-13.4-18.7 84.2c36 1.2 68.4 11.9 92.5 28.6z"/></svg>