<svg xmlns="http://www.w3.org/2000/svg" viewBox="0 0 448 512"><!--! Font Awesome Free 6.5.0 by @fontawesome - https://fontawesome.com License - https://fontawesome.com/license/free (Icons: CC BY 4.0, Fonts: SIL OFL 1.1, Code: MIT License) Copyright 2023 Fonticons, Inc. --><path d="M120.8 335.5c-5.9-.4-12.6-.8-20.2-1.3c-3.3 4.1-6.6 8.4-6.6 13.5c0 18.5 65.5 18.5 65.5-1.5c0-8.3-7.4-8.7-38.8-10.7zm7.8-117.9c-32.3 0-33.7 44.5-.7 44.5c32.5 0 31.7-44.5 .7-44.5zM384 32H64C28.7 32 0 60.7 0 96V416c0 35.3 28.7 64 64 64H384c35.3 0 64-28.7 64-64V96c0-35.3-28.7-64-64-64zM243.9 172.2c-14.5 0-22.9-8.4-22.9-22.9c0-14.5 8.4-22.3 22.9-22.3c14.7 0 23.1 7.8 23.1 22.3s-8.4 22.9-23.1 22.9zM149.6 195h49.5l0 21.6-23.4 1.8c4.6 5.8 9.4 14 9.4 25.7c0 48.7-57.2 47.2-74.2 42.4l-8.4 13.4c5 .3 9.8 .6 14.3 .8c56.3 3.2 80.5 4.6 80.5 38.5c0 29.2-25.7 45.7-69.9 45.7c-46 0-63.5-11.6-63.5-31.7c0-11.4 5.1-17.5 14-25.9c-8.4-3.5-11.2-9.9-11.2-16.8c0-9.6 7.4-16.3 23-30.6l.2-.2c-12.4-6.1-21.8-19.3-21.8-38.1c0-51.6 56.6-53.3 81.6-46.8zM270.5 303.1l13 1.8 0 20.1H211.1V304.9c2.7-.4 5-.7 6.9-.9c9.9-1.2 10.1-1.3 10.1-6V223.3c0-4.4-.9-4.7-10.1-7.8c-1.9-.7-4.2-1.4-6.9-2.4l2.8-20.6h52.6V298c0 4.1 .2 4.6 4.1 5.1zm106.6-10.4L384 315c-10.9 5.4-26.9 10.2-41.4 10.2c-30.2 0-41.7-12.2-41.7-40.9V217.7c0-.8 0-1.4-.2-1.8c-.8-1.2-4.2-.7-19.6-.7V192.6c22.3-2.5 31.2-13.7 34-41.4h24.2c0 33.3-.6 38 .7 38.6c.3 .1 .7 0 1.3 0h35.8v25.4H339.3v60.7c0 .2 0 .5 0 .9c-.2 6.3-.9 30.4 37.9 15.9z"/></svg>