<svg xmlns="http://www.w3.org/2000/svg" viewBox="0 0 482 512"><!--! Font Awesome Free 6.5.1 by @fontawesome - https://fontawesome.com License - https://fontawesome.com/license/free (Icons: CC BY 4.0, Fonts: SIL OFL 1.1, Code: MIT License) Copyright 2023 Fonticons, Inc. --><path d="M481.9 268.1A240.9 240.9 0 1 1 .1 268a240.9 240.9 0 1 1 481.9 0zM24.5 268a216.5 216.5 0 1 0 432.9 0A216.5 216.5 0 1 0 24.5 268zm385.9 63.3c-12.7 0-21.6-1.9-26.7-5.9c-5.5-4.3-8.2-12.3-8.2-23.8V205.1c0-6.5-5.2-20.2-15.7-41.2c7 0 17-9.1 30-27.2V284.5c0 11 2.4 19.4 7 25.3c3.7 4.7 10.1 8.9 19 12.6c1.2 .4 2.6 .9 4.1 1.4c2.9 .9 6.3 2.1 10.3 3.5c-1.8 2.7-8.3 4-19.9 4zm-219 0c-1.3 2.4-3.6 5.5-6.8 9.4l-18.5 22.5c-1-6.1-4-13-9.3-20.6s-9.7-11.4-13.4-11.4h-8.3H53.6c3.3-5.3 4.9-8.8 4.9-10.8c0-2-.8-5.3-2.4-9.7c-1.5-4.4-2.4-8.5-2.4-12.4c0-7.4 2.1-13.9 6.3-19.3L80 253.4l-7.1-17.7L89 215.9l6.7 16.8 8-10.3c-1.8 6.4-2.6 12.3-2.6 17.7c0 4.2 2.8 13.3 8.3 27.3l16.2 40.7H135h8 .3c2.8 .4 7.7 5 14.6 13.9c1.8 2.4 4.3 5.8 7.7 10.2c1.4 1.9 2.9 3.9 4.6 6.1c1.3-2.3 2-4.6 2-7.1c0-2-1.3-6.6-4-13.4L163 304.1c-4-10.6-6.1-17.7-6.1-21.3c0-6.3 1.9-12.3 5.8-17.9c.5-.6 1-1.3 1.5-1.9c4.4-5.6 8.8-11.1 13.3-16.5c-1.1 4.6-1.7 8.7-1.7 12c0 3.7 1.7 9.9 5.1 18.8l7.9 20.4c1.9 4.7 3 8.2 3.7 10.3h17.6 8.3l-.9-2.6c-1.4-3.9-4-7-7.7-9.3l15.6-20.1 12.3 32h13.4L245 292.2c-1.5-3.9-4-7-7.7-9.3L253 262.8 270.3 308h13.4l-11.4-29.4c-1.5-3.9-4-7-7.7-9.3l15.6-20L302.6 308h10.3 8.3 7.6c1.5 0 3-1.1 4.5-3.1s2.2-4.1 2.2-6.3V205.1c0-6.5-4.5-20.3-13.7-41.2c5.4 0 14.1-9.1 26.2-27.2V300.2c0 7.2 .6 12 1.7 14.6c1.6 3.4 5.3 6.2 11.1 8.2c-3.9 5.6-8.7 8.5-14.5 8.5H321.1h-8.3H210.5h-19zM93.4 287.3c-2.7-6.7-4-11.7-4-15c-.6 1.2-2.4 3.7-5.4 7.6c-1.4 1.9-2.2 3.7-2.2 5.3c0 2.6 .8 5.7 2.2 9.3l5.6 13.9h0c5 0 9 0 11.9-.1l-8.2-20.9zm13.5-72.4c-3-5.2-7-9.3-11.9-11.9c-3.5-1.9-5.3-4.3-5.3-7.4c0-2.4 4.6-8.6 14-18.3c.2 3.8 1.9 7.6 4.9 11.2c3.1 3.6 4.6 7 4.6 10.1c0 2.6-2.1 8-6.2 16.3zm-27.6 0c-3-5.2-7-9.3-11.9-11.9c-3.5-1.9-5.3-4.3-5.3-7.4c0-2.4 4.6-8.6 14-18.3c.2 3.8 1.9 7.6 4.9 11.2c3.1 3.6 4.6 7 4.6 10.1c0 2.6-2.1 8-6.2 16.3zm87 27.5c-3-5.2-7-9.3-11.9-11.9c-3.5-1.9-5.3-4.3-5.3-7.4c0-2.4 4.6-8.6 14-18.3c.2 3.8 1.9 7.6 4.9 11.2c3.1 3.6 4.6 7 4.6 10.1c0 2.6-2.1 8-6.2 16.3z"/></svg>