<svg xmlns="http://www.w3.org/2000/svg" viewBox="0 0 448 512"><!--! Font Awesome Free 6.5.0 by @fontawesome - https://fontawesome.com License - https://fontawesome.com/license/free (Icons: CC BY 4.0, Fonts: SIL OFL 1.1, Code: MIT License) Copyright 2023 Fonticons, Inc. --><path d="M48 56c0-13.3-10.7-24-24-24S0 42.7 0 56V456c0 13.3 10.7 24 24 24s24-10.7 24-24V124.2l12.5-2.4c16.7-3.2 31.5-8.5 44.2-13.1l0 0 0 0c3.7-1.3 7.1-2.6 10.4-3.7c15.2-5.2 30.4-9.1 51.2-9.1c25.6 0 43 6 63.5 13.3l.5 .2c20.9 7.4 44.8 15.9 79.1 15.9c32.4 0 53.7-6.8 90.5-19.6V342.9l-9.5 3.3c-41.5 14.4-55.2 19.2-81 19.2c-25.7 0-43.1-6-63.6-13.3l-.6-.2c-20.8-7.4-44.8-15.8-79-15.8c-16.8 0-31 2-43.9 5c-12.9 3-20.9 16-17.9 28.9s16 20.9 28.9 17.9c9.6-2.2 20.1-3.7 32.9-3.7c25.6 0 43 6 63.5 13.3l.5 .2c20.9 7.4 44.8 15.9 79.1 15.9c34.4 0 56.4-7.7 97.8-22.2c7.5-2.6 15.5-5.4 24.4-8.5l16.2-5.5V360 72 38.4L416.2 49.3c-9.7 3.3-18.2 6.3-25.7 8.9c-41.5 14.4-55.2 19.2-81 19.2c-25.7 0-43.1-6-63.6-13.3l-.6-.2c-20.8-7.4-44.8-15.8-79-15.8c-27.8 0-48.5 5.5-66.6 11.6c-4.9 1.7-9.3 3.3-13.6 4.8c-11.9 4.3-22 7.9-34.7 10.3L48 75.4V56z"/></svg>