<svg xmlns="http://www.w3.org/2000/svg" viewBox="0 0 448 512"><path d="M436 160c6.627 0 12-5.373 12-12v-40c0-6.627-5.373-12-12-12h-20V48c0-26.51-21.49-48-48-48H48C21.49 0 0 21.49 0 48v416c0 26.51 21.49 48 48 48h320c26.51 0 48-21.49 48-48v-48h20c6.627 0 12-5.373 12-12v-40c0-6.627-5.373-12-12-12h-20v-64h20c6.627 0 12-5.373 12-12v-40c0-6.627-5.373-12-12-12h-20v-64h20zm-228-32c44.183 0 80 35.817 80 80s-35.817 80-80 80-80-35.817-80-80 35.817-80 80-80zm128 232c0 13.255-10.745 24-24 24H104c-13.255 0-24-10.745-24-24v-18.523c0-22.026 14.99-41.225 36.358-46.567l35.657-8.914c29.101 20.932 74.509 26.945 111.97 0l35.657 8.914C321.01 300.252 336 319.452 336 341.477V360z"/></svg>