<svg xmlns="http://www.w3.org/2000/svg" viewBox="0 0 640 512"><path d="M352 448h168c13.255 0 24 10.745 24 24v16c0 13.255-10.745 24-24 24H120c-13.255 0-24-10.745-24-24v-16c0-13.255 10.745-24 24-24h168V153.324C264.469 143.04 246.836 121.778 241.603 96H120c-13.255 0-24-10.745-24-24V56c0-13.255 10.745-24 24-24h135.999C270.594 12.57 293.828 0 320 0s49.406 12.57 64.001 32H520c13.255 0 24 10.745 24 24v16c0 13.255-10.745 24-24 24H398.397c-5.233 25.778-22.866 47.04-46.397 57.324V448zm287.981-112c.001-16.182 1.342-8.726-85.048-181.506-17.647-35.294-68.186-35.358-85.865 0C381.94 328.75 384.019 320.331 384.019 336H384c0 44.183 57.308 80 128 80s128-35.817 128-80h-.019zM512 176l72 144H440l72-144zM255.981 336c.001-16.182 1.342-8.726-85.048-181.506-17.647-35.294-68.186-35.358-85.865 0C-2.06 328.75.019 320.331.019 336H0c0 44.183 57.308 80 128 80s128-35.817 128-80h-.019zM128 176l72 144H56l72-144z"/></svg>