<svg xmlns="http://www.w3.org/2000/svg" viewBox="0 0 512 512"><path d="M192 288H32c-17.67 0-32 14.33-32 32v160c0 17.67 14.33 32 32 32h160c17.67 0 32-14.33 32-32V320c0-17.67-14.33-32-32-32zm-29.09 140.29c3.12 3.12 3.12 8.19 0 11.31l-11.31 11.31c-3.12 3.12-8.19 3.12-11.31 0L112 422.63l-28.29 28.29c-3.12 3.12-8.19 3.12-11.31 0L61.09 439.6c-3.12-3.12-3.12-8.19 0-11.31L89.37 400l-28.29-28.29c-3.12-3.12-3.12-8.19 0-11.31l11.31-11.31c3.12-3.12 8.19-3.12 11.31 0l28.3 28.28 28.29-28.29c3.12-3.12 8.19-3.12 11.31 0l11.31 11.31c3.12 3.12 3.12 8.19 0 11.31L134.63 400l28.28 28.29zM480 0H320c-17.67 0-32 14.33-32 32v160c0 17.67 14.33 32 32 32h160c17.67 0 32-14.33 32-32V32c0-17.67-14.33-32-32-32zm-16 120c0 4.42-3.58 8-8 8h-40v40c0 4.42-3.58 8-8 8h-16c-4.42 0-8-3.58-8-8v-40h-40c-4.42 0-8-3.58-8-8v-16c0-4.42 3.58-8 8-8h40V56c0-4.42 3.58-8 8-8h16c4.42 0 8 3.58 8 8v40h40c4.42 0 8 3.58 8 8v16zm16 168H320c-17.67 0-32 14.33-32 32v160c0 17.67 14.33 32 32 32h160c17.67 0 32-14.33 32-32V320c0-17.67-14.33-32-32-32zm-16 152c0 4.42-3.58 8-8 8H344c-4.42 0-8-3.58-8-8v-16c0-4.42 3.58-8 8-8h112c4.42 0 8 3.58 8 8v16zm0-64c0 4.42-3.58 8-8 8H344c-4.42 0-8-3.58-8-8v-16c0-4.42 3.58-8 8-8h112c4.42 0 8 3.58 8 8v16zM192 0H32C14.33 0 0 14.33 0 32v160c0 17.67 14.33 32 32 32h160c17.67 0 32-14.33 32-32V32c0-17.67-14.33-32-32-32zm-16 120c0 4.42-3.58 8-8 8H56c-4.42 0-8-3.58-8-8v-16c0-4.42 3.58-8 8-8h112c4.42 0 8 3.58 8 8v16z"/></svg>