<svg xmlns="http://www.w3.org/2000/svg" viewBox="0 0 640 512"><path d="M640 352c0 70.692-57.308 128-128 128H144C64.471 480 0 415.529 0 336c0-62.773 40.171-116.155 96.204-135.867A163.68 163.68 0 0 1 96 192c0-88.366 71.634-160 160-160 59.288 0 111.042 32.248 138.684 80.159C409.935 101.954 428.271 96 448 96c53.019 0 96 42.981 96 96 0 12.184-2.275 23.836-6.415 34.56C596.017 238.414 640 290.07 640 352zm-246.627-64H328V176c0-8.837-7.164-16-16-16h-48c-8.836 0-16 7.163-16 16v112h-65.373c-14.254 0-21.393 17.234-11.314 27.314l105.373 105.373c6.248 6.248 16.379 6.248 22.627 0l105.373-105.373c10.08-10.08 2.941-27.314-11.313-27.314z"/></svg>