<svg xmlns="http://www.w3.org/2000/svg" viewBox="0 0 640 512"><path d="M342.75 352.68c5.74-9.59 9.25-20.69 9.25-32.68 0-35.35-28.65-64-64-64-17.21 0-32.77 6.88-44.27 17.93C227.39 244.3 196.23 224 160 224c-53.02 0-96 42.98-96 96 0 1.95.46 3.78.57 5.7C27.08 338.77 0 374.05 0 416c0 53.02 42.98 96 96 96h240c44.18 0 80-35.82 80-80 0-41.87-32.28-75.84-73.25-79.32zm285.26-29.42c-104.23 19.22-199.95-58.16-199.95-160.03 0-58.68 32.45-112.64 85.18-141.7 8.13-4.48 6.08-16.41-3.15-18.06C497.14 1.17 484 0 470.84 0 352.25 0 256 93.04 256 208c0 7.26.4 14.44 1.15 21.51 9.87-3.38 20.18-5.51 30.85-5.51 52.94 0 96 43.06 96 96 0 3.59-.21 7.17-.63 10.73 33.49 15.39 57.47 46.55 63.24 83.86 7.96.87 16.03 1.41 24.23 1.41 66.26 0 126.79-29.19 166.88-77.02 5.93-7.07-.54-17.41-9.71-15.72z"/></svg>