<svg xmlns="http://www.w3.org/2000/svg" viewBox="0 0 640 512"><path d="M288.73 320c0-52.34 16.96-103.22 48.01-144.95 5.17-6.94 4.45-16.54-2.15-22.14l-24.69-20.98c-7-5.95-17.83-5.09-23.38 2.23C246.09 187.42 224 252.78 224 320c0 67.23 22.09 132.59 62.52 185.84 5.56 7.32 16.38 8.18 23.38 2.23l24.69-20.99c6.59-5.61 7.31-15.2 2.15-22.14-31.06-41.71-48.01-92.6-48.01-144.94zM224 16c0-8.84-7.16-16-16-16h-48C102.56 0 56 46.56 56 104v64H16c-8.84 0-16 7.16-16 16v48c0 8.84 7.16 16 16 16h40v128c0 13.2-10.8 24-24 24H16c-8.84 0-16 7.16-16 16v48c0 8.84 7.16 16 16 16h16c57.44 0 104-46.56 104-104V248h40c8.84 0 16-7.16 16-16v-48c0-8.84-7.16-16-16-16h-40v-64c0-13.2 10.8-24 24-24h48c8.84 0 16-7.16 16-16V16zm353.48 118.16c-5.56-7.32-16.38-8.18-23.38-2.23l-24.69 20.98c-6.59 5.61-7.31 15.2-2.15 22.14 31.05 41.71 48.01 92.61 48.01 144.95 0 52.34-16.96 103.23-48.01 144.95-5.17 6.94-4.45 16.54 2.15 22.14l24.69 20.99c7 5.95 17.83 5.09 23.38-2.23C617.91 452.57 640 387.22 640 320c0-67.23-22.09-132.59-62.52-185.84zm-54.17 231.9L477.25 320l46.06-46.06c6.25-6.25 6.25-16.38 0-22.63l-22.62-22.62c-6.25-6.25-16.38-6.25-22.63 0L432 274.75l-46.06-46.06c-6.25-6.25-16.38-6.25-22.63 0l-22.62 22.62c-6.25 6.25-6.25 16.38 0 22.63L386.75 320l-46.06 46.06c-6.25 6.25-6.25 16.38 0 22.63l22.62 22.62c6.25 6.25 16.38 6.25 22.63 0L432 365.25l46.06 46.06c6.25 6.25 16.38 6.25 22.63 0l22.62-22.62c6.25-6.25 6.25-16.38 0-22.63z"/></svg>