<svg xmlns="http://www.w3.org/2000/svg" viewBox="0 0 640 512"><path d="M72 112H24c-13.255 0-24 10.745-24 24v208c0 13.255 10.745 24 24 24h48c13.255 0 24-10.745 24-24V136c0-13.255-10.745-24-24-24zM48 340c-11.046 0-20-8.954-20-20s8.954-20 20-20 20 8.954 20 20-8.954 20-20 20zm568-228h-48c-13.255 0-24 10.745-24 24v208c0 13.255 10.745 24 24 24h48c13.255 0 24-10.745 24-24V136c0-13.255-10.745-24-24-24zm-24 228c-11.046 0-20-8.954-20-20s8.954-20 20-20 20 8.954 20 20-8.954 20-20 20zM485.94 92.67L528 140.74V320h-19.17c.56-14.96-4.38-28.98-14-39.71l-80.92-98.91c2.93-3.2 2.76-8.16-.38-11.16-2.82-2.7-7.08-2.92-10.14-.76-.42.3-60.35 62.93-60.35 62.93l-.2.21c-23.904 26.905-66.127 26.204-89.15-1.42-15.48-18.58-15.29-45.39.45-63.76l66.57-77.67C334.304 73.88 354.534 64 376.7 64h46.05a83.98 83.98 0 0 1 63.19 28.67zm-3.37 197.92c15.46 16.78 12.59 43.83-2.37 57.75-17.711 16.462-42.433 13.004-45.93 9.2 1.653 15.658-21.389 47.249-56.42 44.68-6.325 21.185-32.298 38.909-59.18 29.61-10.22 10.21-25.82 14.97-39.81 14.97-28.69 0-54.92-11.99-72.58-30.8L112 320V135.52l61.36-50.57A71.52 71.52 0 0 1 223.93 64h37.42c16.73 0 32.68 6.84 44.21 18.85l-63.57 74.16c-20.84 24.31-21.09 59.81-.59 84.42 29.375 35.247 83.007 35.853 113.31 1.92L402.82 193l79.75 97.59z"/></svg>