<svg xmlns="http://www.w3.org/2000/svg" viewBox="0 0 576 512"><path d="M47.9 257C31.6 232.7 16 200.5 16 165.5 16 76.9 70.3 24 161.1 24 214.2 24 264 65.7 288 89.3 312 65.7 361.8 24 414.9 24 505.7 24 560 76.9 560 165.5c0 35-15.5 67.2-31.9 91.5H408l-26.4-58.6c-4.7-8.9-17.6-8.5-21.6.7l-53.3 134.6L235.4 120c-3.7-10.6-18.7-10.7-22.6-.2l-48 137.2H47.9zm348 32c-4.5 0-8.6-2.5-10.6-6.4l-12.8-32.5-56.9 142.8c-4.4 9.9-18.7 9.4-22.3-.9l-69.7-209.2-33.6 98.4c-1.7 4.7-6.2 7.8-11.2 7.8H73.4c5.3 5.7-12.8-12 198.9 192.6 8.8 8.5 22.8 8.5 31.6 0 204.3-197.2 191-184 199-192.6h-107z"/></svg>