<svg xmlns="http://www.w3.org/2000/svg" viewBox="0 0 512 512"><path d="M101.1 505L7 410.9c-9.4-9.4-9.4-24.6 0-33.9L377 7c9.4-9.4 24.6-9.4 33.9 0l94.1 94.1c9.4 9.4 9.4 24.6 0 33.9L135 505c-9.3 9.3-24.5 9.3-33.9 0zM304 159.2l48.8 48.8 89.9-89.9-48.8-48.8-89.9 89.9zM138.9 39.3l-11.7 23.8-26.2 3.8c-4.7.7-6.6 6.5-3.2 9.8l19 18.5-4.5 26.1c-.8 4.7 4.1 8.3 8.3 6.1L144 115l23.4 12.3c4.2 2.2 9.1-1.4 8.3-6.1l-4.5-26.1 19-18.5c3.4-3.3 1.5-9.1-3.2-9.8L160.8 63l-11.7-23.8c-2-4.1-8.1-4.1-10.2.1zm97.7-20.7l-7.8 15.8-17.5 2.6c-3.1.5-4.4 4.3-2.1 6.5l12.6 12.3-3 17.4c-.5 3.1 2.8 5.5 5.6 4L240 69l15.6 8.2c2.8 1.5 6.1-.9 5.6-4l-3-17.4 12.6-12.3c2.3-2.2 1-6.1-2.1-6.5l-17.5-2.5-7.8-15.8c-1.4-3-5.4-3-6.8-.1zm-192 0l-7.8 15.8L19.3 37c-3.1.5-4.4 4.3-2.1 6.5l12.6 12.3-3 17.4c-.5 3.1 2.8 5.5 5.6 4L48 69l15.6 8.2c2.8 1.5 6.1-.9 5.6-4l-3-17.4 12.6-12.3c2.3-2.2 1-6.1-2.1-6.5l-17.5-2.5-7.8-15.8c-1.4-3-5.4-3-6.8-.1zm416 223.5l-7.8 15.8-17.5 2.5c-3.1.5-4.4 4.3-2.1 6.5l12.6 12.3-3 17.4c-.5 3.1 2.8 5.5 5.6 4l15.6-8.2 15.6 8.2c2.8 1.5 6.1-.9 5.6-4l-3-17.4 12.6-12.3c2.3-2.2 1-6.1-2.1-6.5l-17.5-2.5-7.8-15.8c-1.4-2.8-5.4-2.8-6.8 0z"/></svg>