<svg xmlns="http://www.w3.org/2000/svg" viewBox="0 0 640 512"><path d="M144 160h-32c-8.84 0-16 7.16-16 16v112h64V176c0-8.84-7.16-16-16-16zm96 0h-32c-8.84 0-16 7.16-16 16v112h64V176c0-8.84-7.16-16-16-16zm192 0h-32c-8.84 0-16 7.16-16 16v112h64V176c0-8.84-7.16-16-16-16zm96 0h-32c-8.84 0-16 7.16-16 16v112h64V176c0-8.84-7.16-16-16-16zm80-32c17.67 0 32-14.33 32-32s-32-64-32-64-32 46.33-32 64 14.33 32 32 32zm-96 0c17.67 0 32-14.33 32-32s-32-64-32-64-32 46.33-32 64 14.33 32 32 32zm-96 0c17.67 0 32-14.33 32-32s-32-64-32-64-32 46.33-32 64 14.33 32 32 32zm-96-32c17.67 0 32-14.33 32-32S320 0 320 0s-32 46.33-32 64 14.33 32 32 32zm-96 32c17.67 0 32-14.33 32-32s-32-64-32-64-32 46.33-32 64 14.33 32 32 32zm-96 0c17.67 0 32-14.33 32-32s-32-64-32-64-32 46.33-32 64 14.33 32 32 32zm-96 0c17.67 0 32-14.33 32-32S32 32 32 32 0 78.33 0 96s14.33 32 32 32zm544 160c0 17.67-14.33 32-32 32H352V144c0-8.84-7.16-16-16-16h-32c-8.84 0-16 7.16-16 16v176H96c-17.67 0-32-14.33-32-32V176c0-8.84-7.16-16-16-16H16c-8.84 0-16 7.16-16 16v112c0 53.02 42.98 96 96 96h192v64H112c-8.84 0-16 7.16-16 16v32c0 8.84 7.16 16 16 16h416c8.84 0 16-7.16 16-16v-32c0-8.84-7.16-16-16-16H352v-64h192c53.02 0 96-42.98 96-96V176c0-8.84-7.16-16-16-16h-32c-8.84 0-16 7.16-16 16v112z"/></svg>