<svg xmlns="http://www.w3.org/2000/svg" viewBox="0 0 512 512"><path d="M421.45 285.195L376 239.746V212c0-6.627 5.373-12 12-12h24c6.627 0 12 5.373 12 12v44c0 9.957-.881 19.71-2.55 29.195zM352 96c0-53.019-42.981-96-96-96-32.574 0-61.354 16.227-78.71 41.035L352 215.746V96zm152.971 363.716L52.284 7.029c-9.373-9.373-24.569-9.373-33.941 0L7.029 18.343c-9.372 9.373-9.372 24.568 0 33.941L160 205.254v49.577c0 53.089 43.436 97.452 96.524 97.167 14.626-.078 28.471-3.44 40.854-9.366l17.746 17.746c-17.529 9.971-37.794 15.666-59.372 15.622C189.355 375.864 136 321.053 136 254.656V212c0-6.627-5.373-12-12-12h-24c-6.627 0-12 5.373-12 12v44c0 84.488 62.693 154.597 144 166.278V468h-68c-6.627 0-12 5.373-12 12v20c0 6.627 5.373 12 12 12h184c6.627 0 12-5.373 12-12v-20c0-6.627-5.373-12-12-12h-68v-45.722c25.625-3.682 49.396-13.172 69.942-27.083L459.717 504.97c9.373 9.373 24.569 9.373 33.941 0l11.313-11.313c9.372-9.373 9.372-24.568 0-33.941z"/></svg>