<svg xmlns="http://www.w3.org/2000/svg" viewBox="0 0 512 512"><path d="M85.231 330.958C36 330.958 0 273.792 0 231.5c0-28.292 16-58.042 49.538-58.042 49.231 0 85.231 57.458 85.231 99.75 0 28.292-15.692 57.75-49.538 57.75zm348 106.167c0 37.042-32 42.875-63.385 42.875-41.231 0-74.462-26.25-113.846-26.25-41.231 0-76.308 25.958-120.923 25.958-29.847 0-56.308-9.625-56.308-42.583C78.769 368 180.616 265.333 256 265.333s177.231 102.959 177.231 171.792zM182.462 203.792c-49.847 0-80-59.5-80-100.333C102.462 70.792 120.308 32 160 32c50.154 0 80 59.5 80 100.333 0 32.667-17.846 71.459-57.538 71.459zM272 132.333C272 91.5 301.846 32 352 32c39.692 0 57.539 38.792 57.539 71.458 0 40.833-30.154 100.333-80.001 100.333C289.846 203.792 272 165 272 132.333zM512 231.5c0 42.292-36 99.458-85.231 99.458-33.847 0-49.538-29.458-49.538-57.75 0-42.291 35.999-99.75 85.231-99.75C496 173.458 512 203.208 512 231.5z"/></svg>