<svg xmlns="http://www.w3.org/2000/svg" viewBox="0 0 640 512"><path d="M633.82 458.1L608 438.14V32c0-17.67-14.33-32-32-32h-32c-17.67 0-32 14.33-32 32v331.95l-64-49.46V160c0-17.67-14.33-32-32-32h-32c-17.67 0-32 14.33-32 32v80.29L45.47 3.37C38.49-2.05 28.43-.8 23.01 6.18L3.37 31.45C-2.05 38.42-.8 48.47 6.18 53.9l588.36 454.73c6.98 5.43 17.03 4.17 22.46-2.81l19.64-25.27c5.41-6.97 4.16-17.02-2.82-22.45zM96 384H64c-17.67 0-32 14.33-32 32v64c0 17.67 14.33 32 32 32h32c17.67 0 32-14.33 32-32v-64c0-17.67-14.33-32-32-32zm96-96v192c0 17.67 14.33 32 32 32h32c17.67 0 32-14.33 32-32V352.6l-94.33-72.9c-.74 2.71-1.67 5.36-1.67 8.3zm160 192c0 17.67 14.33 32 32 32h32c17.67 0 32-14.33 32-32v-3.73l-96-74.2V480z"/></svg>