<svg xmlns="http://www.w3.org/2000/svg" viewBox="0 0 640 512"><path d="M96 384H64c-17.67 0-32 14.33-32 32v64c0 17.67 14.33 32 32 32h32c17.67 0 32-14.33 32-32v-64c0-17.67-14.33-32-32-32zm160-128h-32c-17.67 0-32 14.33-32 32v192c0 17.67 14.33 32 32 32h32c17.67 0 32-14.33 32-32V288c0-17.67-14.33-32-32-32zm160-128h-32c-17.67 0-32 14.33-32 32v320c0 17.67 14.33 32 32 32h32c17.67 0 32-14.33 32-32V160c0-17.67-14.33-32-32-32zM576 0h-32c-17.67 0-32 14.33-32 32v448c0 17.67 14.33 32 32 32h32c17.67 0 32-14.33 32-32V32c0-17.67-14.33-32-32-32z"/></svg>