<svg xmlns="http://www.w3.org/2000/svg" viewBox="0 0 640 512"><path d="M36 384h56c6.6 0 12 5.4 12 12v104c0 6.6-5.4 12-12 12H36c-6.6 0-12-5.4-12-12V396c0-6.6 5.4-12 12-12zm116-36v152c0 6.6 5.4 12 12 12h56c6.6 0 12-5.4 12-12V348c0-6.6-5.4-12-12-12h-56c-6.6 0-12 5.4-12 12zm128-80v232c0 6.6 5.4 12 12 12h56c6.6 0 12-5.4 12-12V268c0-6.6-5.4-12-12-12h-56c-6.6 0-12 5.4-12 12zm128-112v344c0 6.6 5.4 12 12 12h56c6.6 0 12-5.4 12-12V156c0-6.6-5.4-12-12-12h-56c-6.6 0-12 5.4-12 12zM536 12v488c0 6.6 5.4 12 12 12h56c6.6 0 12-5.4 12-12V12c0-6.6-5.4-12-12-12h-56c-6.6 0-12 5.4-12 12z"/></svg>