<svg xmlns="http://www.w3.org/2000/svg" viewBox="0 0 576 512"><path d="M576 80v40c0 6.6-5.4 12-12 12H160v8c0 13.3-10.7 24-24 24h-16c-13.3 0-24-10.7-24-24v-8H12c-6.6 0-12-5.4-12-12V80c0-6.6 5.4-12 12-12h84v-8c0-13.3 10.7-24 24-24h16c13.3 0 24 10.7 24 24v8h404c6.6 0 12 5.4 12 12zm-12 148h-84v-8c0-13.3-10.7-24-24-24h-16c-13.3 0-24 10.7-24 24v8H12c-6.6 0-12 5.4-12 12v40c0 6.6 5.4 12 12 12h404v8c0 13.3 10.7 24 24 24h16c13.3 0 24-10.7 24-24v-8h84c6.6 0 12-5.4 12-12v-40c0-6.6-5.4-12-12-12zm0 160H288v-8c0-13.3-10.7-24-24-24h-16c-13.3 0-24 10.7-24 24v8H12c-6.6 0-12 5.4-12 12v40c0 6.6 5.4 12 12 12h212v8c0 13.3 10.7 24 24 24h16c13.3 0 24-10.7 24-24v-8h276c6.6 0 12-5.4 12-12v-40c0-6.6-5.4-12-12-12z"/></svg>