<svg xmlns="http://www.w3.org/2000/svg" viewBox="0 0 512 512"><path d="M504 256c0 136.967-111.033 248-248 248S8 392.967 8 256 119.033 8 256 8s248 111.033 248 248zm-122.526 75.34c11.479-17.755-15.349-35.194-26.873-17.374-53.418 82.627-143.71 82.681-197.164 0-11.502-17.79-38.364-.401-26.873 17.374 66.014 102.107 184.795 102.265 250.91 0zM108 192c0 37.497 30.503 68 68 68s68-30.503 68-68-30.503-68-68-68-68 30.503-68 68zm160.5 0c0 37.221 30.279 67.5 67.5 67.5s67.5-30.279 67.5-67.5-30.279-67.5-67.5-67.5-67.5 30.279-67.5 67.5zm67.5-48a47.789 47.789 0 0 0-22.603 5.647h.015c10.916 0 19.765 8.849 19.765 19.765s-8.849 19.765-19.765 19.765-19.765-8.849-19.765-19.765v-.015A47.789 47.789 0 0 0 288 192c0 26.51 21.49 48 48 48s48-21.49 48-48-21.49-48-48-48zm-160 0a47.789 47.789 0 0 0-22.603 5.647h.015c10.916 0 19.765 8.849 19.765 19.765s-8.849 19.765-19.765 19.765-19.765-8.849-19.765-19.765v-.015A47.789 47.789 0 0 0 128 192c0 26.51 21.49 48 48 48s48-21.49 48-48-21.49-48-48-48z"/></svg>