<svg xmlns="http://www.w3.org/2000/svg" viewBox="0 0 640 512"><path d="M639.21 169.49l-9.89-30.43c-2.73-8.4-11.75-13-20.16-10.27L544 149.88V48c0-8.84-7.16-16-16-16h-32c-8.84 0-16 7.16-16 16v122.59l-64 20.71V48c0-8.84-7.16-16-16-16h-32c-8.84 0-16 7.16-16 16v164.01l-64 20.71V48c0-8.84-7.16-16-16-16h-32c-8.84 0-16 7.16-16 16v205.43l-64 20.71V48c0-8.84-7.16-16-16-16h-32c-8.84 0-16 7.16-16 16v246.86l-84.94 27.49C2.65 325.08-1.95 334.11.79 342.51l9.89 30.43c2.73 8.4 11.76 13 20.16 10.27L96 362.13V464c0 8.84 7.16 16 16 16h32c8.84 0 16-7.16 16-16V341.41l64-20.71V464c0 8.84 7.16 16 16 16h32c8.84 0 16-7.16 16-16V299.99l64-20.71V464c0 8.84 7.16 16 16 16h32c8.84 0 16-7.16 16-16V258.57l64-20.71V464c0 8.84 7.16 16 16 16h32c8.84 0 16-7.16 16-16V217.14l84.94-27.49c8.4-2.73 13.01-11.75 10.27-20.16z"/></svg>