<svg xmlns="http://www.w3.org/2000/svg" viewBox="0 0 640 512"><path d="M224 32c77.32 0 140 62.68 140 140s-62.68 140-140 140S84 249.32 84 172 146.68 32 224 32zm160.373 292.093l-62.399-15.6c-65.557 47.154-145.021 36.631-195.948 0l-62.399 15.6C26.233 333.442 0 367.04 0 405.585V438c0 23.196 18.804 42 42 42h364c23.196 0 42-18.804 42-42v-32.415c0-38.545-26.233-72.143-63.627-81.492zM587.897 256l48.596-48.598c4.675-4.675 4.675-12.256 0-16.931l-26.964-26.964c-4.675-4.675-12.256-4.675-16.931 0L544 212.105l-48.598-48.598c-4.675-4.675-12.256-4.675-16.931 0l-26.964 26.964c-4.675 4.675-4.675 12.256 0 16.931L500.103 256l-48.596 48.598c-4.675 4.675-4.675 12.256 0 16.931l26.964 26.964c4.675 4.675 12.256 4.675 16.931 0L544 299.897l48.598 48.596c4.675 4.675 12.256 4.675 16.931 0l26.964-26.964c4.675-4.675 4.675-12.256 0-16.931L587.897 256z"/></svg>