<svg xmlns="http://www.w3.org/2000/svg" viewBox="0 0 448 512"><path d="M224 256c70.7 0 128-57.3 128-128S294.7 0 224 0 96 57.3 96 128s57.3 128 128 128zM104 424c0 13.3 10.7 24 24 24s24-10.7 24-24-10.7-24-24-24-24 10.7-24 24zm250.4-151.6l-34.4-5.7v55c36.5 7.4 64 39.8 64 78.4v56c0 7.6-5.4 14.2-12.9 15.7l-32.2 6.4c-4.3.9-8.5-1.9-9.4-6.3l-3.1-15.7c-.9-4.3 1.9-8.6 6.3-9.4l19.3-3.9V400c0-29.6-26.9-53-57.6-47.1-22.8 4.4-38.4 25.8-38.4 49v41l19.3 3.9c4.3.9 7.1 5.1 6.3 9.4l-3.1 15.7c-.9 4.3-5.1 7.1-9.4 6.3l-31.2-4.2c-7.9-1.1-13.8-7.8-13.8-15.9v-58c0-38.6 27.5-70.9 64-78.4v-47.2c-19.6 8.6-41.2 13.6-64 13.6-29.3 0-56.4-8.5-80-22.3v104.9c23.1 6.9 40 28.1 40 53.4 0 30.9-25.1 56-56 56s-56-25.1-56-56c0-25.3 16.9-46.5 40-53.4V269.3l-18.4 3.1c-54 9-93.6 55.7-93.6 110.5V480c0 17.7 14.3 32 32 32h384c17.7 0 32-14.3 32-32v-97.1c-.1-54.8-39.7-101.5-93.7-110.5z"/></svg>