<svg xmlns="http://www.w3.org/2000/svg" viewBox="0 0 640 512"><path d="M224 32c77.32 0 140 62.68 140 140s-62.68 140-140 140S84 249.32 84 172 146.68 32 224 32zm160.373 292.093l-62.399-15.6c-65.557 47.154-145.021 36.631-195.948 0l-62.399 15.6C26.233 333.442 0 367.04 0 405.585V438c0 23.196 18.804 42 42 42h364c23.196 0 42-18.804 42-42v-32.415c0-38.545-26.233-72.143-63.627-81.492zM628 224.889h-68.889V156c0-6.627-5.373-12-12-12h-38.222c-6.627 0-12 5.373-12 12l-.002 68.887-68.887.002c-6.627 0-12 5.373-12 12v38.222c0 6.627 5.373 12 12 12l68.887.002.002 68.887c0 6.627 5.373 12 12 12h38.222c6.627 0 12-5.373 12-12l.002-68.887 68.887-.002c6.627 0 12-5.373 12-12v-38.222c0-6.627-5.373-12-12-12z"/></svg>