<svg xmlns="http://www.w3.org/2000/svg" viewBox="0 0 640 512"><path d="M384 416c0 35.346-28.654 64-64 64s-64-28.654-64-64c0-35.346 28.654-64 64-64s64 28.654 64 64zm136.659-124.443c6.465-6.465 6.245-17.065-.564-23.167-113.793-101.985-286.526-101.869-400.19 0-6.809 6.102-7.029 16.702-.564 23.167l34.006 34.006c5.927 5.927 15.464 6.32 21.769.796 82.88-72.609 207.074-72.447 289.768 0 6.305 5.524 15.842 5.132 21.769-.796l34.006-34.006zm112.11-113.718c6.385-6.385 6.254-16.816-.35-22.973-175.768-163.86-449.134-163.8-624.837 0-6.604 6.157-6.735 16.589-.35 22.973l33.966 33.966c6.095 6.095 15.891 6.231 22.224.383 144.763-133.668 368.356-133.702 513.156 0 6.333 5.848 16.129 5.712 22.224-.383l33.967-33.966z"/></svg>