<svg xmlns="http://www.w3.org/2000/svg" viewBox="0 0 512 512"><path d="M481.156 200c9.3 0 15.12 10.155 10.325 18.124C466.295 259.992 420.419 288 368 288c-79.222 0-143.501-63.974-143.997-143.079C223.505 65.469 288.548-.001 368.002 0c52.362.001 98.196 27.949 123.4 69.743C496.24 77.766 490.523 88 481.154 88H376l-40 56 40 56h105.156zm-171.649 93.003L109.255 493.255c-24.994 24.993-65.515 24.994-90.51 0-24.993-24.994-24.993-65.516 0-90.51L218.991 202.5c16.16 41.197 49.303 74.335 90.516 90.503zM104 432c0-13.255-10.745-24-24-24s-24 10.745-24 24 10.745 24 24 24 24-10.745 24-24z"/></svg>