<svg xmlns="http://www.w3.org/2000/svg" viewBox="0 0 576 512"><path d="M574.507 443.86c-5.421 21.261-24.57 36.14-46.511 36.14-32.246 0-66.511-9.99-102.1-29.734-50.64 11.626-109.151 7.877-157.96-13.437 41.144-2.919 80.361-12.339 116.331-28.705 16.322-1.22 32.674-4.32 48.631-9.593C454.404 412.365 490.663 432 527.996 432c-32-17.455-43.219-38.958-46.159-58.502 25.443-18.848 46.159-47.183 46.159-81.135 0-10.495-2.383-21.536-7.041-32.467 7.405-25.93 8.656-50.194 5.185-73.938 32.164 30.461 49.856 69.128 49.856 106.405 0 33.893-12.913 65.047-34.976 91.119 2.653 2.038 5.924 4.176 9.962 6.378 19.261 10.508 28.947 32.739 23.525 54zM240.002 80C117.068 80 48.004 152.877 48.004 210.909c0 38.196 24.859 70.072 55.391 91.276-3.527 21.988-16.991 46.179-55.391 65.815 44.8 0 88.31-22.089 114.119-37.653 25.52 7.906 51.883 11.471 77.879 11.471C362.998 341.818 432 268.976 432 210.909 432 152.882 362.943 80 240.002 80m0-48C390.193 32 480 126.026 480 210.909c0 22.745-6.506 46.394-18.816 68.391-11.878 21.226-28.539 40.294-49.523 56.674-21.593 16.857-46.798 30.045-74.913 39.197-29.855 9.719-62.405 14.646-96.746 14.646-24.449 0-48.34-2.687-71.292-8.004C126.311 404.512 85.785 416 48.004 416c-22.18 0-41.472-15.197-46.665-36.761-5.194-21.563 5.064-43.878 24.811-53.976 7.663-3.918 13.324-7.737 17.519-11.294-7.393-7.829-13.952-16.124-19.634-24.844C8.09 264.655.005 238.339.005 210.909.005 126.259 89.508 32 240.002 32z"/></svg>