<svg xmlns="http://www.w3.org/2000/svg" viewBox="0 0 512 512"><path d="M256 8C119.033 8 8 119.033 8 256s111.033 248 248 248 248-111.033 248-248S392.967 8 256 8zm0 448c-110.532 0-200-89.451-200-200 0-110.531 89.451-200 200-200 110.532 0 200 89.451 200 200 0 110.532-89.451 200-200 200zm91.326-312.131l-33.359 137.779a24.005 24.005 0 0 1-6.772 11.729l-102.64 97.779c-17.104 16.293-45.56.434-39.88-23.024l33.359-137.779a23.997 23.997 0 0 1 6.772-11.729l102.642-97.779c17.285-16.47 45.494-.175 39.878 23.024zM256 224c-17.673 0-32 14.327-32 32s14.327 32 32 32 32-14.327 32-32-14.327-32-32-32z"/></svg>