<svg xmlns="http://www.w3.org/2000/svg" viewBox="0 0 512 512"><path d="M256 56c110.532 0 200 89.451 200 200 0 110.532-89.451 200-200 200-110.532 0-200-89.451-200-200 0-110.532 89.451-200 200-200m0-48C119.033 8 8 119.033 8 256s111.033 248 248 248 248-111.033 248-248S392.967 8 256 8zm64 136c-9.535 0-18.512 2.386-26.37 6.589h.017c12.735 0 23.059 10.324 23.059 23.059 0 12.735-10.324 23.059-23.059 23.059s-23.059-10.324-23.059-23.059v-.017C266.386 181.488 264 190.465 264 200c0 30.928 25.072 56 56 56s56-25.072 56-56-25.072-56-56-56zm-128 0c-9.535 0-18.512 2.386-26.37 6.589h.017c12.735 0 23.059 10.324 23.059 23.059 0 12.735-10.324 23.059-23.059 23.059-12.735 0-23.059-10.324-23.059-23.059v-.017C138.386 181.488 136 190.465 136 200c0 30.928 25.072 56 56 56s56-25.072 56-56-25.072-56-56-56zm136 184H184c-31.776 0-31.749 48 0 48h144c31.776 0 31.749-48 0-48z"/></svg>