<svg xmlns="http://www.w3.org/2000/svg" viewBox="0 0 640 512"><path d="M320 144c-53.021 0-96 50.143-96 112 0 61.847 42.977 112 96 112 53 0 96-50.13 96-112 0-61.857-42.979-112-96-112zm48 164.428c0 7.477-3.917 11.572-11.572 11.572h-67.293c-7.656 0-11.573-4.095-11.573-11.572v-8.901c0-7.477 3.917-11.572 11.573-11.572h15.131v-39.878c0-5.163.534-10.503.534-10.503h-.356s-1.779 2.67-2.848 3.738c-4.451 4.273-10.504 4.451-15.666-1.068l-5.518-6.231c-5.342-5.341-4.984-11.216.534-16.379l21.72-19.939c4.449-4.095 8.366-5.697 14.42-5.697h12.105c7.656 0 11.75 3.916 11.75 11.572v84.384h15.488c7.655 0 11.572 4.094 11.572 11.572v8.902zM616 64H24C10.745 64 0 74.745 0 88v335c0 13.255 10.745 24 24 24h592c13.255 0 24-10.745 24-24V88c0-13.255-10.745-24-24-24zM512 400H128c0-44.183-35.817-80-80-80V192c44.183 0 80-35.817 80-80h384c0 44.183 35.817 80 80 80v128c-44.183 0-80 35.817-80 80z"/></svg>