<svg xmlns="http://www.w3.org/2000/svg" viewBox="0 0 512 512"><path d="M423.309 291.025L402.221 285C431.798 243.89 436 202.294 436 180 436 80.649 355.484 0 256 0 156.649 0 76 80.516 76 180c0 22.299 4.198 63.884 33.779 105l-21.088 6.025C21.28 310.285 0 371.59 0 408.605v25.681C0 477.138 34.862 512 77.714 512h356.571C477.138 512 512 477.138 512 434.286v-25.681c0-36.247-20.725-98.161-88.691-117.58zM256 48c72.902 0 132 59.099 132 132s-59.098 132-132 132-132-59.099-132-132S183.098 48 256 48zm208 386.286c0 16.41-13.304 29.714-29.714 29.714H77.714C61.304 464 48 450.696 48 434.286v-25.681c0-33.167 21.987-62.316 53.878-71.427l46.103-13.172C162.683 335.058 200.427 360 256 360s93.317-24.942 108.019-35.994l46.103 13.172C442.013 346.29 464 375.438 464 408.605v25.681z"/></svg>