<svg xmlns="http://www.w3.org/2000/svg" viewBox="0 0 344.76 512"><path d="M344 0c-.81 5.47-1.63 10.79-2.39 16.12-1.39 9.74-2.9 19.48-4.05 29.25-.35 2.96-1.21 4.32-4.3 4.33-20.61.11-41.21.14-61.82.53-18.76.35-37.58.28-56.23 2-13.42 1.24-23.28 12.67-18.88 26.64 8.55 27.11 27.65 69.1 36.37 89.45 65.72 154.14 61.43 156.99 84 158.56 6.67.46 13.4.07 20.43.07 1.39 9.4 2.66 18.04 4.05 27.51H225.17v-27c10.33 0 20.36-.12 30.38.06 3.52.06 5.05-.63 3.44-4.37-4.44-10.29-8.77-20.63-13.25-30.9-1.62-3.72-4.06-4.78-8.4-3.52-12.32 3.59-24.79 6.69-37.26 9.69-4.25 1.02-5.93 2.77-5.86 7.46.85 57.47.95 127.53 1 129.12.4 12.54 8.75 21.41 21.03 23.07.89.12 12.89 2.72 112.68 2.56 8.25-.01 8.41-.17 9.57 7.56 2.15 14.34 4.14 28.7 6.26 43.53-367.75 0-153.93.61-337.09 0-3.95-.01-6.08-.69-5.28-5.74 2.04-12.86 3.5-25.82 4.97-38.76.55-4.81 2.29-6.81 7.63-6.77 118.09.99 114.93.35 121.43-2.39 9.42-3.98 14.98-12.85 14.95-23.07-.12-42.93-.33-85.86-.25-128.79.01-3.87-1.16-5.99-4.56-6.84-15.64-3.92-31.31-7.71-47.58-11.7-5.23 12.27-10.39 24.37-15.66 36.7 1.83 3.35 28.38 2.93 35.28 2.93v27.64H4.34c1.03-8.61 1.77-16.81 3.23-24.88.25-1.41 3.53-3.14 5.47-3.22 8.46-.35 16.95-.29 25.43-.09 3.99.09 5.92-1.04 7.61-5.16 16.63-40.7 13.51-31.17 67.31-160.97 31.53-76.09 33.06-76.02 32.64-87.43-.69-18.56-25.37-22.26-37.65-22.11-30.04.38-38.45-.47-101.84-.47C-.62 6.11 2.37 18.54.16 5.32-.55 1.08 1.19.03 4.8.02m113.08 247.19c2.3 1.15 3.97 2.29 5.82 2.87 13.29 4.21 26.64 8.24 39.93 12.46 6.14 1.95 11.98 2.12 18.3.05 13.02-4.28 26.29-7.81 39.43-11.73 1.46-.44 2.74-1.44 3.93-2.09-6.71-17.37-13.12-34.15-19.67-50.88-8.88-22.67-17.63-60.32-26.98-82.81-1.53-.78-1.91 2.36-9.43 0-17.11 44.05-34.14 87.88-51.33 132.13z"/></svg>