<svg xmlns="http://www.w3.org/2000/svg" viewBox="0 0 640 512"><!--! Font Awesome Free 6.5.1 by @fontawesome - https://fontawesome.com License - https://fontawesome.com/license/free (Icons: CC BY 4.0, Fonts: SIL OFL 1.1, Code: MIT License) Copyright 2023 Fonticons, Inc. --><path d="M226.119,388.165a3.816,3.816,0,0,0-2.294-3.5,3.946,3.946,0,0,0-1.629-.385L72.6,384.3a19.243,19.243,0,0,1-17.924-26.025L81.585,255.692a35.72,35.72,0,0,1,32.373-26H262.525a7.07,7.07,0,0,0,6.392-5.194l10.769-41.131a3.849,3.849,0,0,0-2.237-4.937,3.755,3.755,0,0,0-1.377-.261c-.063,0-.126,0-.189.005H127.38a106.8,106.8,0,0,0-96.99,77.1L3.483,358.824A57.469,57.469,0,0,0,57.314,436q1.43,0,2.86-.072H208.742a7.131,7.131,0,0,0,6.391-5.193L225.839,389.6A3.82,3.82,0,0,0,226.119,388.165ZM306.658,81.2a3.861,3.861,0,0,0,.251-1.367A3.813,3.813,0,0,0,303.079,76c-.064,0-.128,0-.192,0h-41A7.034,7.034,0,0,0,255.5,81.2l-21.347,80.915h51.131ZM180.364,368.249H231.5L263.452,245.69H212.321ZM511.853,79.723a3.809,3.809,0,0,0-3.8-3.661c-.058,0-.137,0-.23.007h-41a7.1,7.1,0,0,0-6.584,5.129L368.91,430.634a3.54,3.54,0,0,0-.262,1.335,3.873,3.873,0,0,0,3.864,3.863c.056,0,.112,0,.169,0h41a7.068,7.068,0,0,0,6.392-5.193L511.533,81.2A3.624,3.624,0,0,0,511.853,79.723ZM324.649,384.47h-41a7.2,7.2,0,0,0-6.392,5.194L266.52,430.8a3.662,3.662,0,0,0-.268,1.374A3.783,3.783,0,0,0,270.023,436c.06,0,.166,0,.3-.012h40.905a7.036,7.036,0,0,0,6.391-5.193l10.769-41.131a3.75,3.75,0,0,0-3.445-5.208c-.108,0-.217,0-.326.014Zm311.324-308.4h-41a7.066,7.066,0,0,0-6.392,5.129l-91.46,349.436a4.073,4.073,0,0,0-.229,1.347,3.872,3.872,0,0,0,3.863,3.851c.056,0,.112,0,.169,0h40.968a7.1,7.1,0,0,0,6.392-5.193L639.68,81.2a3.624,3.624,0,0,0,.32-1.475,3.841,3.841,0,0,0-3.821-3.564c-.068,0-.137,0-.206.006ZM371.562,225.236l10.8-41.1a4.369,4.369,0,0,0,.227-1.388,3.869,3.869,0,0,0-3.861-3.842c-.057,0-.113,0-.169,0h-41.1a7.292,7.292,0,0,0-6.391,5.226l-10.834,41.1a4.417,4.417,0,0,0-.26,1.493c0,.069,0,.138,0,.206a3.776,3.776,0,0,0,3.757,3.507c.076,0,.18,0,.3-.012h41.129A7.034,7.034,0,0,0,371.562,225.236Z"/></svg>