<svg xmlns="http://www.w3.org/2000/svg" viewBox="0 0 448 342"><!-- Font Awesome Free 5.15.3 by @fontawesome - https://fontawesome.com License - https://fontawesome.com/license/free (Icons: CC BY 4.0, Fonts: SIL OFL 1.1, Code: MIT License) --><path d="M379.25092,28.3063774 C350.696915,15.2045862 320.077062,5.55176391 288.062099,0.0231916433 C287.479068,-0.0835080724 286.896669,0.183140259 286.596319,0.716449542 C282.658336,7.72046245 278.296331,16.8577693 275.241728,24.0396508 C240.807565,18.884496 206.550079,18.884496 172.82199,24.0396508 C169.766756,16.6981298 165.246373,7.72046245 161.290722,0.716449542 C160.990373,0.200934062 160.407973,-0.06571427 159.824942,0.0231916433 C127.827647,5.5340963 97.2077942,15.1869186 68.6361216,28.3063774 C68.3887751,28.4130141 68.1767639,28.5909521 68.036054,28.8218929 C9.95664132,115.591288 -5.95373757,200.227951 1.85136242,283.815284 C1.8866787,284.224163 2.11623768,284.615374 2.43409683,284.863983 C40.7532333,313.004692 77.8718622,330.088635 114.301202,341.412308 C114.884233,341.590246 115.501968,341.376973 115.872988,340.896793 C124.490363,329.128905 132.171985,316.720568 138.758216,303.671779 C139.146903,302.907655 138.775883,302.000929 137.981472,301.698686 C125.797134,297.076715 114.195197,291.44138 103.034949,285.041921 C102.1522,284.526405 102.081529,283.263802 102.893608,282.659318 C105.242138,280.899498 107.591298,279.068377 109.833822,277.219588 C110.239546,276.882011 110.804909,276.81071 111.281935,277.023983 C184.599972,310.498416 263.975475,310.498416 336.428431,277.023983 C336.905456,276.793042 337.470819,276.864343 337.894211,277.201921 C340.137366,279.050709 342.485895,280.899498 344.852092,282.659318 C345.664171,283.263802 345.611169,284.526405 344.728419,285.041921 C333.568172,291.565684 321.966234,297.076715 309.764229,301.681019 C308.969817,301.983261 308.616465,302.907655 309.005152,303.671779 C315.732724,316.702269 323.414347,329.110607 331.872712,340.879125 C332.226065,341.376973 332.861467,341.590246 333.444498,341.412308 C370.050514,330.088635 407.168891,313.004692 445.488034,284.863983 C445.823718,284.615374 446.035729,284.24183 446.071065,283.832952 C455.41218,187.19683 430.425138,103.254252 379.83332,28.8395605 C379.709647,28.5909521 379.498266,28.4130141 379.25092,28.3063774 Z M149.707083,232.91933 C127.633303,232.91933 109.445135,212.653956 109.445135,187.765979 C109.445135,162.878002 127.280582,142.612628 149.707083,142.612628 C172.309629,142.612628 190.321753,163.05594 189.9684,187.765979 C189.9684,212.653956 172.132953,232.91933 149.707083,232.91933 Z M298.568646,232.91933 C276.495497,232.91933 258.307328,212.653956 258.307328,187.765979 C258.307328,162.878002 276.142145,142.612628 298.568646,142.612628 C321.171823,142.612628 339.183315,163.05594 338.830594,187.765979 C338.830594,212.653956 321.171823,232.91933 298.568646,232.91933 Z"></svg>
