<?xml version="1.0" encoding="UTF-8" standalone="no"?>
<svg
   xmlns:dc="http://purl.org/dc/elements/1.1/"
   xmlns:cc="http://creativecommons.org/ns#"
   xmlns:rdf="http://www.w3.org/1999/02/22-rdf-syntax-ns#"
   xmlns:svg="http://www.w3.org/2000/svg"
   xmlns="http://www.w3.org/2000/svg"
   xmlns:sodipodi="http://sodipodi.sourceforge.net/DTD/sodipodi-0.dtd"
   xmlns:inkscape="http://www.inkscape.org/namespaces/inkscape"
   viewBox="0 0 336.86182 509.90524"
   version="1.1"
   id="svg4"
   sodipodi:docname="epicstore.svg"
   inkscape:version="0.92.3 (2405546, 2018-03-11)"
   width="336.86182"
   height="509.90524">
  <metadata
     id="metadata10">
    <rdf:RDF>
      <cc:Work
         rdf:about="">
        <dc:format>image/svg+xml</dc:format>
        <dc:type
           rdf:resource="http://purl.org/dc/dcmitype/StillImage" />
        <dc:title></dc:title>
      </cc:Work>
    </rdf:RDF>
  </metadata>
  <defs
     id="defs8">
    <clipPath
       id="clipPath20"
       clipPathUnits="userSpaceOnUse">
      <path
         id="path18"
         d="M 0,790.889 H 900 V 0 H 0 Z"
         inkscape:connector-curvature="0" />
    </clipPath>
  </defs>
  <sodipodi:namedview
     pagecolor="#ffffff"
     bordercolor="#666666"
     borderopacity="1"
     objecttolerance="10"
     gridtolerance="10"
     guidetolerance="10"
     inkscape:pageopacity="0"
     inkscape:pageshadow="2"
     inkscape:window-width="1920"
     inkscape:window-height="1012"
     id="namedview6"
     showgrid="false"
     inkscape:zoom="0.65186406"
     inkscape:cx="155.33744"
     inkscape:cy="155.88066"
     inkscape:window-x="0"
     inkscape:window-y="0"
     inkscape:window-maximized="1"
     inkscape:current-layer="svg4"
     fit-margin-top="0"
     fit-margin-left="0"
     fit-margin-right="0"
     fit-margin-bottom="0" />
  <g
     id="g866"
     transform="matrix(0.62534039,0,0,0.62534039,664.51453,313.49095)">
    <path
       id="path4810"
       d="m -1009.4297,-501.3125 c -18.1637,0 -31.7982,3.34653 -40.834,12.38477 -9.0358,9.03824 -12.3808,22.67606 -12.3808,40.84765 v 420.957033 2 285.982427 c 0,18.17158 3.345,31.80941 12.3808,40.84765 9.0358,9.03824 22.6703,12.38477 40.834,12.38477 h 432.25587 c 18.16321,0 31.79609,-3.34658 40.83203,-12.38477 9.03593,-9.0382 12.38282,-22.67607 12.38282,-40.84765 v -285.980474 -2 -420.958986 c 0,-18.17165 -3.34689,-31.80945 -12.38282,-40.84765 -9.03594,-9.03819 -22.66882,-12.38477 -40.83203,-12.38477 z m 0,10.5 h 432.25587 c 16.87148,0 27.21986,3.11904 33.40821,9.30859 6.18826,6.18984 9.30664,16.54337 9.30664,33.42383 v 422.957033 c 0,3.821312 -0.15702,7.329034 -0.48438,10.521485 -0.81938,7.8595246 -0.70094,13.2597887 -6.69531,20.4707026 -0.0334,0.034282 -0.0504,0.05386 -0.10156,0.097656 -0.19149,0.1639486 -0.49725,0.4152897 -0.85938,0.7050781 -0.72426,0.579555 -1.67886,1.316834 -2.61328,2.03125 -1.65639,1.2663851 -2.90589,2.1980393 -3.24805,2.4531253 -3.71766,1.829204 -6.19281,3.132794 -10.22656,4.755859 l -0.0332,0.01367 -212.96094,89.224611 -0.0781,0.0352 c -10.90794,5.00015 -14.23786,6.50594 -21.21875,6.39843 l -0.32226,0.006 -0.32617,-0.006 c -6.98089,0.10757 -10.30999,-1.3983 -21.2168,-6.39843 l -0.0781,-0.0352 -212.96288,-89.224611 -0.033,-0.01172 c -4.033,-1.623191 -6.5084,-2.92887 -10.2246,-4.757812 -0.3422,-0.255097 -1.5914,-1.1866748 -3.248,-2.4531253 -0.9346,-0.7144486 -1.8907,-1.4515644 -2.6153,-2.03125 -0.3623,-0.2898429 -0.6675,-0.5409118 -0.8593,-0.7050781 -0.048,-0.041165 -0.061,-0.056588 -0.092,-0.087891 -6.0003,-7.212983 -5.8863,-12.6125702 -6.7051,-20.4707036 v -0.0098 c -0.3272,-3.19135 -0.4824,-6.699216 -0.4824,-10.521485 V -448.08008 c 0,-16.88051 3.1184,-27.23403 9.3066,-33.42383 6.1881,-6.18979 16.5361,-9.30859 33.4082,-9.30859 z m 74.83595,645.09961 c 7.61301,0 13.87623,1.43261 18.79297,4.29883 4.91673,2.86622 13.84706,9.10851 12.40039,22.34765 l -17.08008,-0.7539 c -0.16086,-3.49009 -1.90099,-7.14892 -4.35937,-8.58203 -2.45837,-1.50854 -5.7095,-2.26368 -9.75391,-2.26368 -2.77558,0 -5.27367,0.56586 -7.49414,1.69727 -2.77558,1.43311 -4.16406,3.43158 -4.16406,5.99609 0,3.01708 3.88657,5.5057 11.6582,7.4668 11.34022,2.79079 18.59549,5.05424 21.76758,6.78906 7.77162,4.14848 11.6582,10.37102 11.6582,18.66797 0,7.76897 -3.21324,14.02937 -9.63672,18.78125 -5.94768,4.37477 -13.12325,6.5625 -21.52929,6.5625 -18.00161,0 -28.60803,-4.44694 -33.54493,-26.86133 l 16.0586,-0.17968 c 2.29977,7.76897 8.12867,11.65429 17.48633,11.65429 3.5686,0 6.70021,-0.79298 9.39648,-2.37695 3.17209,-1.88567 4.75781,-4.41215 4.75781,-7.58008 0,-3.69591 -3.88463,-6.52523 -11.65625,-8.48633 -12.29185,-3.16793 -19.54907,-5.31586 -21.76953,-6.44726 -7.77162,-3.84678 -11.65625,-9.84413 -11.65625,-17.99024 0,-7.24098 2.97225,-12.9355 8.91992,-17.08398 5.39255,-3.77134 11.97642,-5.65625 19.74805,-5.65625 z m 141.11133,0 c 11.73674,0 20.65739,4.1105 26.76367,12.33203 5.31325,7.09013 5.9707,16.44284 5.9707,28.05859 0,11.61574 -0.65745,20.96847 -5.9707,28.0586 -6.10628,8.22153 -15.02693,12.33203 -26.76367,12.33203 -11.73674,0 -20.65937,-4.1105 -26.76563,-12.33203 -5.31326,-7.09013 -5.96875,-16.44286 -5.96875,-28.0586 0,-11.61575 0.65549,-20.96846 5.96875,-28.05859 6.10626,-8.22153 15.02889,-12.33203 26.76563,-12.33203 z m -103.30078,0.9043 h 63.64062 v 15.95312 h -23.3164 v 63.01953 h -17.00977 v -63.01953 h -23.31445 z m 148.91992,0 h 30.45117 c 8.56464,0 15.3856,1.92276 20.46094,5.76953 5.55116,4.2239 8.32617,10.29697 8.32617,18.21679 0,4.90275 -1.38848,9.27627 -4.16406,13.12305 -2.77557,3.77134 -3.86959,7.60893 -8.70703,9.34375 l 19.88867,32.51953 h -19.7461 l -16.65234,-22.47461 c -1.34815,-2.18738 -2.53743,-3.62193 -3.56836,-4.30078 -1.03093,-0.67884 -2.73616,-1.01758 -5.11523,-1.01758 h -4.16407 v 27.79297 h -17.00976 z m 74.81055,0 h 56.97851 v 15.95312 h -39.96875 v 14.82031 h 34.85352 v 15.27539 h -34.85352 v 16.97071 h 39.96875 v 15.95312 h -56.97851 z m -120.42969,15.04687 c -11.73674,0 -15.60547,8.14723 -15.60547,24.43945 0,16.2922 3.86873,24.4375 15.60547,24.4375 11.73674,0 15.60351,-8.1453 15.60351,-24.4375 0,-16.29222 -3.86677,-24.43945 -15.60351,-24.43945 z m 62.39062,0.56641 v 17.31054 h 13.79883 c 7.77162,0 11.6582,-2.9409 11.6582,-8.82421 0,-5.65701 -3.88658,-8.48633 -11.6582,-8.48633 z"
       style="color:#000000;font-style:normal;font-variant:normal;font-weight:normal;font-stretch:normal;font-size:medium;line-height:normal;font-family:sans-serif;font-variant-ligatures:normal;font-variant-position:normal;font-variant-caps:normal;font-variant-numeric:normal;font-variant-alternates:normal;font-feature-settings:normal;text-indent:0;text-align:start;text-decoration:none;text-decoration-line:none;text-decoration-style:solid;text-decoration-color:#000000;letter-spacing:normal;word-spacing:normal;text-transform:none;writing-mode:lr-tb;direction:ltr;text-orientation:mixed;dominant-baseline:auto;baseline-shift:baseline;text-anchor:start;white-space:normal;shape-padding:0;clip-rule:nonzero;display:inline;overflow:visible;visibility:visible;opacity:1;isolation:auto;mix-blend-mode:normal;color-interpolation:sRGB;color-interpolation-filters:linearRGB;solid-color:#000000;solid-opacity:1;vector-effect:none;fill:#000000;fill-opacity:1;fill-rule:evenodd;stroke:none;stroke-width:10.50000095;stroke-linecap:butt;stroke-linejoin:miter;stroke-miterlimit:4;stroke-dasharray:none;stroke-dashoffset:0;stroke-opacity:1;color-rendering:auto;image-rendering:auto;shape-rendering:auto;text-rendering:auto;enable-background:accumulate"
       inkscape:connector-curvature="0" />
    <path
       inkscape:connector-curvature="0"
       d="m -606.12634,-70.833596 -0.0979,0.976118 -0.0969,1.07188 -0.19587,0.976118 -0.29164,0.975029 -0.18935,0.87818 -0.29382,0.976118 -0.38957,0.87818 -0.39067,0.781329 -0.38413,0.877092 -0.48752,0.780241 -0.48751,0.78133 -0.58001,0.780241 -0.48861,0.780241 -0.57892,0.682304 -0.68339,0.683391 -0.58001,0.585453 -0.77916,0.683391 -0.67795,0.585454 -0.78024,0.585453 -0.7748,0.480985 -0.7748,0.585453 -0.87818,0.487515 -0.87274,0.390665 -0.87165,0.487515 -0.97612,0.390665 -0.96959,0.390664 -0.96958,0.291639 -0.96959,0.293815 -0.87818,0.291638 -0.96959,0.195876 -0.87274,0.194789 -0.87165,0.194788 -0.97612,0.195877 -0.97068,0.09685 -0.87165,0.09794 -0.97611,0.09794 -1.06644,0.09794 -0.97068,0.09685 h -0.96959 -1.06752 -1.07297 -0.96959 l -0.97068,-0.09685 h -1.06644 l -0.97067,-0.09794 -0.97503,-0.09794 -1.06753,-0.09794 -0.96959,-0.194789 -0.96959,-0.09794 -0.97612,-0.194788 -0.97067,-0.194789 -0.96959,-0.195876 -0.96959,-0.194788 -0.97503,-0.291639 -0.87274,-0.195876 -0.96959,-0.292727 -0.97067,-0.292726 -0.8771,-0.390665 -0.96958,-0.292727 -0.87274,-0.291638 -0.97068,-0.390665 -0.87709,-0.390665 -0.87274,-0.390664 -0.87274,-0.480986 -0.87709,-0.390665 -0.87274,-0.488603 -0.7748,-0.486427 -0.87818,-0.488603 -0.7748,-0.487515 -0.78024,-0.487514 -0.7748,-0.585453 -0.7748,-0.585454 -0.78024,-0.585453 -0.77589,-0.585453 -0.6823,-0.585453 -0.7748,-0.682303 0.58545,-0.780241 0.67686,-0.683392 0.58545,-0.781329 0.67795,-0.780242 0.58546,-0.682303 0.57892,-0.780241 0.68339,-0.78133 0.57893,-0.682303 0.68339,-0.780242 0.58001,-0.683391 0.6823,-0.780241 0.58001,-0.78133 0.58546,-0.682303 0.67686,-0.780242 0.58545,-0.781329 0.67687,-0.682303 0.58545,-0.780242 0.7748,0.585453 0.87274,0.585454 0.78024,0.585453 0.87274,0.585453 0.78024,0.487515 0.87274,0.584364 0.77371,0.488604 0.87927,0.389576 0.77371,0.488603 0.87274,0.390665 0.87818,0.389577 0.87165,0.390664 0.87383,0.292727 0.87709,0.389577 0.96959,0.292726 0.97067,0.292727 0.87165,0.292726 0.97612,0.195877 0.96959,0.194788 0.96959,0.194788 1.06753,0.09794 0.97502,0.194788 h 0.97068 l 1.06644,0.09685 h 0.97068 1.16437 l 1.06753,-0.09685 0.97612,-0.194788 0.87165,-0.195877 0.87274,-0.194788 0.78024,-0.292727 0.67795,-0.389576 0.78024,-0.585453 0.57893,-0.683392 0.39066,-0.781329 0.29381,-0.877092 0.0958,-0.976118 v -0.194788 l -0.0958,-1.170906 -0.39066,-0.976118 -0.4886,-0.682303 -0.67687,-0.585453 -0.78132,-0.585454 -0.77481,-0.389576 -0.87165,-0.390665 -0.97611,-0.390665 -1.16438,-0.486426 -0.67795,-0.195877 -0.77371,-0.194788 -0.87818,-0.293815 -0.87274,-0.194788 -0.96959,-0.292727 -0.97612,-0.194788 -1.06644,-0.292727 -0.97067,-0.194788 -1.06753,-0.292727 -0.96959,-0.194788 -0.97612,-0.292726 -0.9685,-0.195877 -0.97067,-0.292726 -0.87818,-0.291639 -0.9685,-0.195876 -0.87383,-0.292727 -0.87165,-0.292726 -0.87818,-0.292727 -1.06753,-0.390665 -0.96959,-0.390665 -0.97067,-0.389576 -0.97503,-0.390665 -0.87165,-0.487515 -0.97068,-0.487515 -0.78024,-0.487515 -0.87274,-0.487514 -0.7748,-0.585454 -0.78024,-0.487514 -0.67687,-0.586542 -0.6823,-0.682303 -0.67795,-0.683391 -0.58545,-0.683392 -0.57893,-0.682303 -0.4886,-0.682303 -0.48207,-0.78133 -0.48752,-0.877091 -0.39066,-0.676862 -0.29273,-0.78133 -0.2862,-0.878179 -0.29272,-0.780242 -0.19588,-0.976118 -0.19479,-0.878179 -0.0979,-0.97503 -0.0968,-0.976118 -0.0979,-1.07188 v -1.074056 -0.19479 -0.97612 l 0.0979,-0.97502 0.0968,-0.87818 0.0979,-0.97612 0.19479,-0.87709 0.19588,-0.87818 0.29272,-0.87927 0.19479,-0.87709 0.38414,-0.87818 0.39066,-0.87818 0.38958,-0.87709 0.48316,-0.87927 0.48643,-0.87709 0.58001,-0.78133 0.58654,-0.78024 0.67686,-0.78025 0.68231,-0.6823 0.67795,-0.78133 0.78024,-0.68339 0.67686,-0.48751 0.78024,-0.58546 0.77589,-0.58545 0.77371,-0.48752 0.87818,-0.48751 0.87274,-0.39067 0.87165,-0.48751 0.87818,-0.38958 0.96959,-0.29381 0.96959,-0.38958 0.87818,-0.29272 0.7748,-0.19588 0.87383,-0.19479 0.87709,-0.19479 0.96959,-0.19479 0.87273,-0.19587 0.96959,-0.0969 0.97612,-0.0979 0.96959,-0.0979 0.96959,-0.0969 h 0.96959 1.07296 1.06862 1.06644 l 1.06753,0.0969 1.06752,0.0979 h 0.96959 l 1.07297,0.0979 0.96959,0.19479 1.06752,0.0979 0.97068,0.19479 0.87818,0.19479 0.96959,0.19479 0.96959,0.19588 0.87274,0.19478 0.97503,0.29273 0.87274,0.29273 0.87273,0.19587 0.97503,0.38958 0.87274,0.29273 0.87165,0.38957 0.87274,0.39067 0.97503,0.39066 0.87274,0.48752 0.7748,0.39066 0.87818,0.48752 0.87274,0.48751 0.7748,0.48861 0.87709,0.58545 0.77589,0.48643 0.78024,0.58654 0.7748,0.58545 0.77371,0.58436 -0.57892,0.78133 -0.48752,0.78025 -0.58001,0.78024 -0.58545,0.78133 -0.57892,0.87709 -0.48861,0.78024 -0.58545,0.78133 -0.58001,0.78024 -0.48643,0.78024 -0.5811,0.78133 -0.58436,0.78024 -0.48861,0.78024 -0.57892,0.87818 -0.58654,0.78025 -0.57893,0.78024 -0.48751,0.78024 -0.58001,0.78024 -0.78025,-0.58437 -0.87165,-0.4886 -0.77588,-0.48751 -0.78025,-0.58546 -0.87165,-0.38957 -0.78133,-0.48861 -0.87165,-0.39066 -0.7748,-0.38958 -0.87818,-0.39066 -0.7748,-0.38958 -0.87165,-0.29273 -0.78024,-0.39066 -1.06861,-0.29164 -0.96959,-0.29381 -0.96959,-0.29164 -0.97612,-0.19588 -0.96959,-0.19479 -0.96959,-0.19587 -0.96958,-0.0979 -0.97612,-0.0969 -0.87165,-0.0979 h -0.97068 -1.16438 l -1.06752,0.19479 -0.97612,0.19588 -0.87165,0.19478 -0.7748,0.39067 -0.68339,0.38957 -0.87274,0.78133 -0.58546,0.87818 -0.38304,0.87818 -0.099,0.97503 v 0.19588 l 0.099,1.26776 0.48098,1.07296 0.39067,0.585456 0.67686,0.683392 0.87818,0.487515 0.7748,0.487514 0.96959,0.390665 1.07297,0.390665 1.16546,0.389577 0.7748,0.194788 0.7748,0.292726 0.87818,0.194789 0.87165,0.292726 0.96959,0.195877 1.07406,0.292726 1.06752,0.291639 1.06753,0.293814 1.06644,0.194789 0.96959,0.292726 1.06753,0.292727 0.97611,0.194788 0.97068,0.292727 0.96959,0.292726 0.87165,0.292727 0.97612,0.292726 0.87274,0.292727 0.87165,0.292726 1.07296,0.384136 0.96959,0.488603 0.96959,0.389577 0.97068,0.487515 0.87818,0.488603 0.87274,0.487515 0.77371,0.487514 0.78024,0.585453 0.77589,0.487515 0.7748,0.683392 0.78024,0.682303 0.67686,0.781329 0.68231,0.682304 0.58001,0.781329 0.58545,0.877092 0.48208,0.780241 0.4886,0.879268 0.38957,0.780241 0.29273,0.877092 0.28729,0.878179 0.19479,0.87818 0.19478,0.976118 0.19479,0.976118 0.0979,0.97503 0.0979,1.072968 v 1.072968 0.194788 1.074056 z m -68.11497,19.507123 h -0.97503 -0.96958 -0.96959 -0.96959 -0.97612 -0.97068 -0.9685 -0.97067 -1.07297 -0.96959 -0.96959 -0.96959 -0.9772 -0.9685 -0.97068 -0.96959 -0.97612 -0.96959 -0.96959 -0.96958 -0.97068 -0.97503 -0.96959 -0.96959 -0.97068 -0.97611 -0.96959 -0.96959 -1.06753 -0.97503 -0.97067 -0.96959 -0.96959 -0.97503 -0.97068 -0.96959 -0.97067 -0.97503 -0.96959 -0.96959 -0.97068 -0.97612 -0.9685 -0.97067 -0.96959 -0.97503 -0.97068 -1.06753 -0.96958 -0.96959 -0.97612 -0.96959 -0.97068 -0.9685 -0.97503 -0.97067 -0.96959 v -0.976118 -0.976117 -0.97503 -0.970677 -0.976118 -0.97503 -0.975029 -0.97503 -0.976118 -0.976118 -0.97503 -0.976118 -0.976117 -0.97503 -0.976118 -0.97503 -0.975029 -0.976118 -0.87818 -0.976118 -0.97503 -0.975029 -0.976118 -0.976118 -0.97503 -0.976118 -0.976118 -0.975029 -0.97503 -0.97503 -0.976118 -0.976118 -0.975029 -0.976118 -0.976118 -0.97503 -0.976118 -0.97503 -0.975029 -0.976118 -0.97503 -0.970677 -0.975029 -0.976118 -0.976118 -0.97503 -0.97503 -0.976118 -0.975029 -0.976118 -0.976121 -0.97503 -0.97611 -0.97503 -0.87818 -0.97503 -0.97612 -0.97612 -0.97503 -0.97612 -0.97503 -0.97611 -0.97503 -0.97612 -0.97503 -0.97612 -0.97612 -0.97503 -0.97503 -0.97612 -0.97503 -0.97611 -0.97612 h 0.96959 0.97067 0.97503 0.9685 0.97068 0.96959 0.97612 0.96959 0.96958 0.97068 0.97503 0.97068 0.9685 0.97068 0.87709 0.97067 0.96959 0.97068 0.97503 0.96959 0.96959 0.97067 0.97503 0.96959 0.96959 0.97068 0.97612 0.96958 0.96959 0.96959 0.97612 0.97068 0.9685 0.96959 0.97067 0.97612 0.96959 0.96959 0.96959 0.97611 0.96959 0.96959 0.96959 0.87927 0.96959 0.96959 0.97067 0.97503 0.96959 0.96959 0.96959 0.97612 0.96959 0.96958 0.97068 0.97503 0.97068 0.96959 v 0.97612 0.87818 0.97503 0.97611 0.97503 0.87818 0.97612 0.97612 0.87709 0.97612 0.97503 0.87927 0.97503 0.97503 0.97611 0.87818 0.97612 h -0.96959 -0.97068 -0.97503 -0.97068 -0.96958 -0.96959 -0.87818 -0.96959 -0.96959 -0.97068 -0.97503 -0.96959 -0.97067 -0.96959 -0.97612 -0.96959 -0.96959 -0.96959 -0.97611 -0.87165 -0.97068 -0.96959 -0.97612 -0.9685 -0.97067 -0.96959 -0.97612 -0.96959 -0.96959 -0.96959 -0.97612 -0.97067 -0.87165 -0.96959 -0.97503 -0.97068 -0.96959 -0.97067 -0.97503 v 0.97503 0.97503 0.97503 0.97612 0.97612 0.87818 0.975026 0.976118 0.975029 0.976118 0.97503 0.976118 h 0.97503 0.97067 0.96959 0.97068 0.97503 0.96959 0.96959 0.97067 0.87818 0.96959 0.96959 0.96959 0.97612 0.96959 0.97067 0.9685 0.97612 0.96959 0.97068 0.96958 0.97503 0.96959 0.97068 0.97068 0.97503 0.96959 0.87273 0.96959 0.97503 0.97068 0.96959 0.96959 0.97503 0.97067 0.96959 v 0.975029 0.87818 0.970677 0.97503 0.878179 0.97503 0.976118 0.87818 0.976118 0.975029 0.976118 0.877092 0.975029 0.976118 0.879268 0.97503 h -0.96959 -0.97067 -0.97503 -0.96959 -0.96959 -0.97068 -0.97503 -0.96959 -0.87273 -0.96959 -0.97503 -0.97068 -0.97068 -0.96959 -0.97503 -0.96958 -0.97068 -0.96959 -0.97612 -0.9685 -0.97067 -0.96959 -0.97612 -0.96959 -0.96959 -0.96959 -0.87818 -0.97067 -0.96959 -0.96959 -0.97503 -0.97068 -0.96959 -0.97067 -0.97503 v 0.97503 1.074056 0.975029 0.976118 1.072968 0.976118 0.97503 1.072968 0.97503 0.976118 1.072967 0.97503 h 0.97503 0.97067 0.96959 0.97068 0.97503 0.96959 0.96959 0.97067 0.97503 1.06753 0.96959 0.96959 0.97611 0.97068 0.96959 0.96959 0.97503 0.97068 0.96958 0.96959 0.96959 0.97612 0.96959 0.97068 0.9685 0.9772 0.96959 0.96959 0.96959 1.07297 0.97067 0.9685 0.97068 0.97612 0.96959 0.96959 0.96958 0.97503 0.97068 v 0.976118 0.87818 0.976118 0.975029 0.976118 0.87818 0.97503 0.975029 0.879268 0.97503 0.97503 0.879268 0.969588 0.97503 0.97503 0.879267 0.976118 z m -70.96605,0 h -0.96959 -0.97068 -1.07188 -0.96959 -0.97067 -0.96959 -0.97612 -0.96959 -1.06753 -0.96959 -0.97067 -0.97503 -0.96959 -0.96959 -1.06753 -0.97611 -0.96959 -0.97068 v -0.976118 -0.976117 -0.97503 -0.976118 -0.981559 -0.97503 -0.976118 -0.976118 -0.975029 -0.97503 -0.976118 -0.980471 -0.976117 -0.976118 -0.97503 -0.976118 -0.981559 -0.976118 -0.97503 -0.975029 -0.976118 -0.97503 -0.981559 -0.97503 -0.976117 -0.976118 -0.97503 -0.976118 -0.981559 -0.976118 -0.97503 -0.975029 -0.97503 -0.976118 -0.981559 -0.975029 -0.976118 -0.97503 -0.976118 -0.981559 -0.97503 -0.976118 -0.976117 l -0.48643,0.780241 -0.58001,0.884709 -0.4886,0.780241 -0.57893,0.78133 -0.48751,0.877091 -0.58654,0.78133 -0.48099,0.780241 -0.4886,0.883621 -0.57892,0.780241 -0.48861,0.780242 -0.58436,0.781329 -0.48208,0.883621 -0.58545,0.780242 -0.48207,0.780241 -0.48861,0.87818 -0.58545,0.785682 -0.48207,0.78133 -0.58546,0.877091 -0.48098,0.78133 -0.58545,0.780241 -0.48208,0.883621 -0.4886,0.781329 -0.58437,0.780242 -0.48207,0.878179 -0.58545,0.785683 -0.48208,0.780241 -0.58545,0.78133 -0.4886,0.877091 -0.48208,0.785683 -0.58436,0.781329 -0.48208,0.87818 -0.58545,0.780241 -0.48751,0.780242 -0.58002,0.884709 -0.48751,0.780241 h -0.38522 l -0.58437,-0.87818 -0.4886,-0.78677 -0.58001,-0.87818 -0.48752,-0.780241 -0.58001,-0.877092 -0.48752,-0.78677 -0.57892,-0.87818 -0.4886,-0.78133 -0.58546,-0.877091 -0.48207,-0.780241 -0.58545,-0.884709 -0.48099,-0.780242 -0.58545,-0.878179 -0.48861,-0.780242 -0.57892,-0.88362 -0.4886,-0.780242 -0.57893,-0.87818 -0.58545,-0.780241 -0.48751,-0.883621 -0.58002,-0.780241 -0.48751,-0.87818 -0.58001,-0.780241 -0.48752,-0.884709 -0.58001,-0.780241 -0.48752,-0.87818 -0.58545,-0.780241 -0.48207,-0.87818 -0.58546,-0.786771 -0.48207,-0.877091 -0.58545,-0.78133 -0.48752,-0.878179 -0.57892,-0.779154 -0.48969,-0.884709 -0.57893,-0.780241 v 0.97503 0.976118 0.976118 0.98047 0.976118 0.97503 0.976118 0.976118 0.98047 0.976118 0.87818 0.97503 0.976118 0.975029 0.981559 0.976118 0.97503 0.97503 0.976118 0.976117 0.980471 0.976118 0.976118 0.97503 0.976118 0.975029 0.981559 0.97503 0.976118 0.97503 0.976117 0.980471 0.879268 0.97503 0.975029 0.976118 0.976118 0.97503 0.981559 0.976118 0.97503 0.976117 0.976118 h -0.96958 -0.97503 -0.97068 -0.96959 -0.96959 -0.97503 -0.97068 -0.96958 -0.97068 -0.97503 -0.96959 -0.97068 -0.96958 -0.97503 -0.96959 -0.97068 -0.97068 -0.97503 -0.96959 v -0.976118 -0.976117 -0.97503 -0.970677 -0.976118 -0.97503 -0.975029 -0.97503 -0.976118 -0.976118 -0.97503 -0.976118 -0.976117 -0.97503 -0.976118 -0.97503 -0.975029 -0.976118 -0.87818 -0.976118 -0.97503 -0.975029 -0.976118 -0.976118 -0.97503 -0.976118 -0.976118 -0.975029 -0.97503 -0.97503 -0.976118 -0.976118 -0.975029 -0.976118 -0.976118 -0.97503 -0.976118 -0.97503 -0.975029 -0.976118 -0.97503 -0.970677 -0.975029 -0.976118 -0.976118 -0.97503 -0.97503 -0.976118 -0.975029 -0.976118 -0.976121 -0.97503 -0.97611 -0.97503 -0.87818 -0.97503 -0.97612 -0.97612 -0.97503 -0.97612 -0.97503 -0.97611 -0.97503 -0.97612 -0.97503 -0.97612 -0.97612 -0.97503 -0.97503 -0.97612 -0.97503 -0.97611 -0.97612 h 0.96959 0.97503 0.87383 0.9685 0.97068 0.97503 0.87274 0.96958 0.97612 0.96959 0.87274 0.96959 0.97612 0.96958 0.87166 0.96958 0.97612 0.97068 0.87165 0.96959 0.97612 l 0.48207,0.78133 0.48751,0.87709 0.57893,0.7748 0.4886,0.87818 0.48752,0.78024 0.48207,0.87927 0.48751,0.77371 0.58111,0.87927 0.48642,0.78024 0.4886,0.78024 0.48208,0.87165 0.48751,0.78133 0.58002,0.87709 0.48751,0.78133 0.48752,0.87165 0.48207,0.78025 0.58545,0.78024 0.48861,0.87382 0.48098,0.77916 0.48752,0.87818 0.48316,0.78133 0.58545,0.87165 0.48752,0.78133 0.48098,0.87709 0.4886,0.7748 0.48208,0.78024 0.58545,0.87818 0.48752,0.781329 0.48207,0.878179 0.48752,0.774801 0.48207,0.878179 0.58654,0.780242 0.48752,0.87165 0.48207,0.78133 0.48751,-0.78133 0.48752,-0.87165 0.58001,-0.780242 0.48643,-0.878179 0.48316,-0.774801 0.48751,-0.878179 0.58002,-0.781329 0.48751,-0.87818 0.4886,-0.78024 0.48099,-0.7748 0.58545,-0.87709 0.48208,-0.78133 0.4886,-0.87165 0.48643,-0.78133 0.58001,-0.87818 0.48751,-0.77916 0.48861,-0.87382 0.48098,-0.78024 0.48969,-0.78025 0.57893,-0.87165 0.48751,-0.78133 0.48752,-0.87709 0.48316,-0.78133 0.58436,-0.87165 0.48317,-0.78024 0.48642,-0.78024 0.48861,-0.87927 0.57892,-0.77371 0.4886,-0.87927 0.48099,-0.78024 0.4886,-0.87818 0.58545,-0.7748 0.48208,-0.87709 0.48751,-0.78133 h 0.96959 0.97068 0.87709 0.97068 0.96959 0.96958 0.87818 0.97068 0.9685 0.97068 0.87818 0.96959 0.96959 0.97067 0.87709 0.97068 0.96959 0.96959 0.87818 0.96959 0.96959 v 0.97612 0.97611 0.97503 0.97612 0.97503 0.97503 0.97612 0.97612 0.97503 0.97612 0.97503 0.97611 0.97503 0.97612 0.97503 0.97612 0.97612 0.97503 0.87818 0.97503 0.97611 0.97503 0.976121 0.976118 0.975029 0.976118 0.97503 0.97503 0.976118 0.976118 0.975029 0.970677 0.97503 0.976118 0.975029 0.97503 0.976118 0.97503 0.976118 0.976118 0.975029 0.976118 0.976118 0.97503 0.97503 0.975029 0.976118 0.976118 0.97503 0.976118 0.976118 0.975029 0.97503 0.976118 0.87818 0.976118 0.975029 0.97503 0.976118 0.97503 0.976117 0.976118 0.97503 0.976118 0.976118 0.97503 0.975029 0.97503 0.976118 0.970677 0.97503 0.976117 0.976118 z m -112.6932,-29.262861 -0.29272,-0.883621 -0.38414,-0.976118 -0.39066,-0.878179 -0.29273,-0.883621 -0.38414,-0.87818 -0.38957,-0.976118 -0.29382,-0.88362 -0.39066,-0.87818 -0.38305,-0.877091 -0.29381,-0.883621 -0.39067,-0.976118 -0.2862,-0.87818 -0.39066,-0.88362 -0.39067,-0.87818 -0.29163,-0.87818 -0.38523,-0.98047 -0.38958,-0.879268 -0.29272,-0.877092 -0.39067,-0.88362 -0.38413,-0.976118 -0.29273,-0.883621 -0.39066,-0.87818 -0.38414,0.87818 -0.29164,0.883621 -0.39066,0.976118 -0.39067,0.88362 -0.28728,0.877092 -0.38958,0.879268 -0.39066,0.98047 -0.38414,0.87818 -0.29381,0.87818 -0.38958,0.88362 -0.39067,0.87818 -0.28728,0.976118 -0.38958,0.883621 -0.39066,0.877091 -0.29164,0.87818 -0.38522,0.88362 -0.39067,0.976118 -0.38958,0.87818 -0.28619,0.883621 -0.39067,0.878179 -0.39066,0.976118 -0.29273,0.883621 -0.38414,0.87818 h 0.96959 0.96959 0.97068 0.97503 0.96959 0.96959 0.97067 0.97612 0.87165 0.96959 0.97612 0.96959 0.96959 0.97067 0.96959 0.97503 0.96959 z m 30.50233,29.262861 h -0.97503 -0.87383 -0.9685 -0.97612 -0.96959 -0.97067 -0.87165 -0.97612 -0.96959 -0.96959 -0.97068 -0.97503 -0.87273 -0.96959 -0.97068 -0.97503 -0.96959 -0.87274 -0.96959 -0.97503 l -0.38522,-0.879267 -0.29273,-0.87818 -0.38957,-0.87818 -0.39067,-0.975029 -0.28728,-0.872739 -0.38958,-0.877092 -0.39066,-0.878179 -0.28729,-0.87818 -0.38958,-0.87818 -0.39066,-0.878179 -0.29164,-0.87818 -0.38522,-0.97503 -0.39067,-0.878179 -0.29272,-0.87818 -0.39067,-0.87818 h -0.96959 -0.96959 -0.96959 -0.96958 -0.87818 -0.97068 -0.96959 -0.97503 -0.96959 -0.97067 -0.96959 -0.96959 -0.97612 -0.96959 -0.87165 -0.97612 -0.97067 -0.96959 -0.96959 -0.97503 -0.97068 -0.96959 -0.96959 -0.96958 -0.87927 -0.9685 -0.97068 -0.97612 -0.96959 l -0.38413,0.87818 -0.29273,0.87818 -0.39066,0.878179 -0.38958,0.97503 -0.28728,0.87818 -0.38958,0.878179 -0.39067,0.87818 -0.29272,0.87818 -0.38414,0.878179 -0.39066,0.877092 -0.29273,0.872739 -0.38522,0.975029 -0.38958,0.87818 -0.29273,0.87818 -0.39066,0.879267 h -0.96959 -0.96959 -0.96959 -0.97612 -0.96958 -1.06753 -0.96959 -0.97068 -0.97503 -0.96959 -0.96958 -0.97068 -0.97612 -0.9685 -0.96959 -1.06752 -0.97612 -0.96959 -0.97068 -0.96959 l 0.38414,-0.879267 0.39066,-0.87818 0.38958,-0.87818 0.38522,-0.975029 0.29273,-0.872739 0.39067,-0.877092 0.38957,-0.878179 0.38414,-0.87818 0.39066,-0.87818 0.39067,-0.976117 0.38413,-0.87818 0.39067,-0.877092 0.29164,-0.878179 0.39066,-0.87818 0.38414,-0.87818 0.39066,-0.975029 0.38958,-0.87818 0.38522,-0.879268 0.39067,-0.877091 0.38957,-0.87818 0.29273,-0.87818 0.38413,-0.976118 0.39067,-0.877091 0.39066,-0.87818 0.38414,-0.878179 0.39066,-0.87818 0.39067,-0.87818 0.38414,-0.976118 0.29272,-0.877091 0.39067,-0.87818 0.38957,-0.878179 0.38523,-0.87818 0.38957,-0.87818 0.38958,-0.975029 0.38522,-0.87818 0.38958,-0.87818 0.29273,-0.878179 0.39066,-0.877092 0.38414,-0.878179 0.39066,-0.976118 0.39067,-0.87818 0.38413,-0.87818 0.38958,-0.878179 0.39066,-0.877092 0.29273,-0.879268 0.38522,-0.87165 0.38958,-0.976118 0.38958,-0.877091 0.38522,-0.879268 0.38958,-0.87818 0.39066,-0.877091 0.38414,-0.87818 0.29272,-0.976118 0.39067,-0.877091 0.38958,-0.878176 0.38522,-0.87818 0.39067,-0.87818 0.38957,-0.87818 0.38523,-0.97612 0.38957,-0.87709 0.29273,-0.87818 0.38958,-0.87818 0.38522,-0.87818 0.38958,-0.87818 0.39066,-0.97503 0.38414,-0.87818 0.39066,-0.87818 0.39067,-0.87818 0.28619,-0.87709 0.39067,-0.87927 0.39066,-0.97503 0.39067,-0.87818 0.38413,-0.87818 0.39067,-0.87818 0.38957,-0.87818 0.38414,-0.87709 0.29381,-0.97612 0.38958,-0.87818 0.39067,-0.87818 0.38413,-0.87818 h 0.96959 0.87818 0.96959 0.96959 0.97612 0.87165 0.96958 0.97068 0.97612 0.87274 0.9685 0.97068 0.97502 0.87274 0.96959 0.96959 0.97612 0.87165 0.97068 l 0.38957,0.87818 0.39067,0.87818 0.38522,0.87818 0.38958,0.97612 0.29272,0.87709 0.38414,0.87818 0.39067,0.87818 0.38957,0.87818 0.39067,0.87818 0.38413,0.97503 0.39067,0.87927 0.39066,0.87709 0.2862,0.87818 0.39066,0.87818 0.39067,0.87818 0.39066,0.97503 0.38414,0.87818 0.38958,0.87818 0.39066,0.87818 0.38414,0.87818 0.29272,0.87709 0.38958,0.97612 0.38522,0.87818 0.39067,0.87818 0.38957,0.87818 0.39067,0.878176 0.38413,0.877091 0.38958,0.976118 0.29382,0.87818 0.38413,0.877091 0.38958,0.87818 0.39066,0.879268 0.39067,0.877091 0.38413,0.976118 0.39067,0.87165 0.38957,0.879268 0.28729,0.877092 0.38958,0.878179 0.39066,0.87818 0.38523,0.87818 0.38957,0.976118 0.39067,0.878179 0.39066,0.877092 0.38414,0.878179 0.29272,0.87818 0.38958,0.87818 0.38522,0.975029 0.38958,0.87818 0.39067,0.87818 0.38957,0.878179 0.38523,0.87818 0.39066,0.877091 0.29164,0.976118 0.38522,0.87818 0.38958,0.87818 0.39066,0.878179 0.38414,0.87818 0.39066,0.877091 0.39067,0.976118 0.39066,0.87818 0.2862,0.87818 0.39067,0.877091 0.39066,0.879268 0.38414,0.87818 0.38957,0.975029 0.39067,0.87818 0.38958,0.87818 0.38413,0.878179 0.29382,0.877092 0.39066,0.87818 0.38414,0.976117 0.38957,0.87818 0.38958,0.87818 0.38522,0.878179 0.38958,0.877092 0.39066,0.872739 0.29382,0.975029 0.38305,0.87818 0.39066,0.87818 0.38958,0.879267 z m -85.08984,-9.069082 -0.78025,0.585453 -0.67795,0.488603 -0.78024,0.585454 -0.7748,0.487514 -0.7748,0.585453 -0.78024,0.487515 -0.7748,0.488603 -0.87818,0.486427 -0.87274,0.488603 -0.87274,0.487515 -0.87709,0.384136 -0.87274,0.488603 -0.96959,0.389576 -0.87165,0.390665 -0.97611,0.389577 -0.87165,0.390664 -0.87383,0.292727 -0.87709,0.292727 -0.87274,0.293814 -0.96959,0.291639 -0.87165,0.293814 -0.97612,0.194789 -0.87274,0.194788 -0.96959,0.194788 -0.97503,0.194789 -0.97067,0.09794 -1.06753,0.09794 -0.96959,0.09794 -1.06753,0.09685 -0.97611,0.09794 -1.06644,0.09685 h -1.06753 -1.06861 -1.06644 -0.97612 l -0.96959,-0.09685 -1.06753,-0.09794 -0.96958,-0.09685 -0.96959,-0.09794 -0.97612,-0.09794 -0.96959,-0.194788 -0.97068,-0.195877 -0.87165,-0.194788 -0.97503,-0.194789 -0.87274,-0.292726 -0.96958,-0.194788 -0.87818,-0.293815 -0.87274,-0.389577 -0.87274,-0.292726 -0.9685,-0.390665 -0.87818,-0.389577 -0.87274,-0.389576 -0.87165,-0.390665 -0.87927,-0.487515 -0.77371,-0.483162 -0.87274,-0.487515 -0.78024,-0.488603 -0.7748,-0.486427 -0.78024,-0.586541 -0.7748,-0.584365 -0.77589,-0.585453 -0.6823,-0.585453 -0.67687,-0.585453 -0.68339,-0.683391 -0.67686,-0.584365 -0.68339,-0.683392 -0.67686,-0.683391 -0.58546,-0.682303 -0.58001,-0.780242 -0.58545,-0.683391 -0.48752,-0.780241 -0.58001,-0.78133 -0.48643,-0.779153 -0.48316,-0.78133 -0.48751,-0.87818 -0.48752,-0.780241 -0.38413,-0.87818 -0.39067,-0.878179 -0.38957,-0.87818 -0.38523,-0.877091 -0.29272,-0.780242 -0.39067,-0.879268 -0.19479,-0.878179 -0.28728,-0.877092 -0.19479,-0.975029 -0.29273,-0.879268 -0.19479,-0.97503 -0.0979,-0.87818 -0.19588,-0.976118 -0.0958,-0.877091 -0.099,-0.976118 -0.0914,-0.976118 -0.0969,-0.97503 v -1.072968 -0.976117 -0.194789 -0.976118 l 0.0969,-1.072968 v -0.975029 l 0.0914,-0.976118 0.099,-1.072968 0.19478,-0.969589 0.0969,-0.976118 0.19478,-0.878179 0.29273,-0.97503 0.19588,-0.976118 0.28619,-0.87818 0.29273,-0.975029 0.29273,-0.87818 0.39066,-0.976116 0.38523,-0.8771 0.38957,-0.87818 0.39067,-0.87817 0.38413,-0.87818 0.48752,-0.87818 0.48751,-0.78025 0.48316,-0.78133 0.48643,-0.78024 0.4886,-0.78024 0.57893,-0.78024 0.58545,-0.78024 0.58001,-0.78024 0.58546,-0.68448 0.67686,-0.6823 0.58545,-0.6834 0.67795,-0.68121 0.6823,-0.68448 0.67687,-0.58437 0.78024,-0.68339 0.67795,-0.58545 0.7748,-0.58545 0.78024,-0.48752 0.7748,-0.58545 0.78133,-0.48752 0.77371,-0.48751 0.87274,-0.4886 0.87818,-0.48752 0.87165,-0.48751 0.87274,-0.39067 0.87709,-0.38958 0.97068,-0.4886 0.7748,-0.29164 0.96959,-0.29381 0.87927,-0.38958 0.87165,-0.19587 0.87165,-0.29273 0.97503,-0.19479 0.87273,-0.29273 0.96959,-0.19478 0.97068,-0.0979 0.97503,-0.19479 0.97068,-0.0979 0.9685,-0.0969 0.97067,-0.0979 0.97612,-0.0979 h 1.06753 0.96959 1.06644 1.06752 l 1.07406,0.0979 1.06753,0.0979 h 0.96959 l 0.96958,0.0969 1.06753,0.19588 0.87818,0.0969 0.96959,0.19587 0.97068,0.19479 0.87709,0.19479 0.87165,0.19479 0.87382,0.19588 0.87818,0.29272 0.87166,0.19479 0.7748,0.29273 0.87818,0.29272 0.87273,0.38958 0.87165,0.39066 0.87818,0.39067 0.87274,0.48751 0.87165,0.39067 0.78133,0.48751 0.87165,0.48752 0.7748,0.48751 0.87818,0.48861 0.7748,0.58436 0.7748,0.4886 0.78025,0.58546 0.7748,0.58545 0.78024,0.6823 0.7748,0.58546 -0.58546,0.78133 -0.67686,0.6823 -0.58545,0.78024 -0.67686,0.78024 -0.58546,0.78133 -0.58001,0.68231 -0.68339,0.78024 -0.57892,0.78024 -0.58546,0.68448 -0.67795,0.78024 -0.58436,0.78024 -0.67795,0.78024 -0.58546,0.68339 -0.57892,0.78025 -0.6823,0.78024 -0.5811,0.78024 -0.68231,0.68339 -0.58001,0.780243 -0.78024,-0.585453 -0.7748,-0.68231 -0.78024,-0.4886 -0.7748,-0.58545 -0.7748,-0.48752 -0.78024,-0.4886 -0.77589,-0.48643 -0.87165,-0.4886 -0.78024,-0.38958 -0.7748,-0.39066 -0.78025,-0.29273 -0.87273,-0.29272 -0.87165,-0.29273 -0.87818,-0.19479 -0.96959,-0.19588 -0.96959,-0.19478 -0.97068,-0.0969 -1.06753,-0.0979 -1.07296,-0.0968 h -1.06753 -0.96959 l -0.96959,0.0968 -0.87818,0.0979 -0.96959,0.19478 -0.87273,0.19588 -0.87818,0.29164 -0.87165,0.29273 -0.87274,0.39066 -0.87274,0.38958 -0.78024,0.48751 -0.77372,0.48861 -0.78133,0.4886 -0.67686,0.58436 -0.68339,0.58546 -0.67686,0.58545 -0.58545,0.6823 -0.67687,0.68339 -0.58545,0.780248 -0.48316,0.683391 -0.48752,0.780241 -0.48098,0.87818 -0.48861,0.780241 -0.38957,0.87818 -0.29273,0.87818 -0.38522,0.878179 -0.29273,0.97503 -0.19479,0.970677 -0.19479,0.877091 -0.19587,1.074057 -0.0969,0.975029 -0.0914,0.97503 v 1.074056 0.194789 0.976117 l 0.0914,0.97503 0.0969,0.87818 0.0979,0.976118 0.19478,0.877091 0.19588,0.879268 0.19479,0.877092 0.29273,0.878179 0.28728,0.780242 0.39067,0.975029 0.38957,0.879268 0.48208,0.87818 0.48751,0.780241 0.48752,0.780242 0.58001,0.781329 0.58545,0.682303 0.67686,0.683392 0.58655,0.682303 0.67577,0.585453 0.78133,0.585453 0.7748,0.585453 0.77371,0.487515 0.78024,0.487515 0.87383,0.390665 0.87165,0.390665 0.87709,0.389576 0.97068,0.292727 0.96959,0.292726 0.97612,0.195877 0.96958,0.194788 0.96959,0.09685 1.06753,0.09794 h 1.06753 1.16437 l 1.07406,-0.09794 1.06753,-0.09685 0.96959,-0.09794 0.96958,-0.195877 0.97612,-0.194788 0.96959,-0.291638 0.87165,-0.195877 0.87383,-0.389576 0.78024,-0.390665 0.87165,-0.390665 0.6823,-0.389577 0.77589,-0.488603 v -0.975029 -0.97503 -0.976118 -0.97503 -1.074056 -0.97503 -0.976118 -0.975029 -0.976118 h -0.97068 -0.87709 -0.97067 -0.96959 -0.96959 -0.87818 -0.97068 -0.96959 -0.96959 -0.87709 -0.97067 -0.96959 -0.97068 -0.87709 -0.97068 v -0.97503 -0.87818 -0.976117 -0.97503 -0.976118 -0.87818 -0.975029 -0.976118 -0.97503 -0.879268 -0.97503 -0.975029 -0.976118 -0.87818 -0.969589 h 0.97068 0.97503 0.97068 0.9685 0.97067 0.96959 0.97612 0.96959 0.96959 0.97067 0.97503 0.96959 0.96959 0.96959 0.97612 0.97067 0.96959 0.96959 0.97503 0.97068 0.96959 0.96959 0.97503 0.97067 0.96959 0.96959 0.97612 0.96959 0.97067 0.96959 0.97503 0.96959 0.97068 v 0.969589 0.97503 0.976118 0.878179 0.97503 0.976118 0.97503 0.976118 0.976118 0.877091 0.976118 0.976118 0.97503 0.976117 0.97503 0.976118 0.877091 0.976118 0.976118 0.976118 0.97503 0.976118 0.97503 0.878179 0.97503 0.976118 0.976118 0.975029 0.97503 0.879268 0.97503 0.975029 0.976118 z"
       style="fill:#000000;fill-opacity:1;fill-rule:nonzero;stroke:none;stroke-width:10.50000095;stroke-miterlimit:4;stroke-dasharray:none"
       id="path28" />
    <g
       transform="matrix(1.0882028,0,0,-1.0882028,-943.7257,-283.01617)"
       id="g30"
       style="stroke-width:9.64893723;stroke-miterlimit:4;stroke-dasharray:none">
      <path
         id="path32"
         style="fill:#000000;fill-opacity:1;fill-rule:nonzero;stroke:none;stroke-width:9.64893723;stroke-miterlimit:4;stroke-dasharray:none"
         d="M 0,0 H 38.683 V 29.922 H 0 V 91.008 H 40.223 V 120.93 H -32.849 V -95.021 h 73.684 v 29.923 H 0 Z"
         inkscape:connector-curvature="0" />
    </g>
    <g
       transform="matrix(1.0882028,0,0,-1.0882028,-642.21158,-275.96233)"
       id="g34"
       style="stroke-width:9.64893723;stroke-miterlimit:4;stroke-dasharray:none">
      <path
         id="path36"
         style="fill:#000000;fill-opacity:1;fill-rule:nonzero;stroke:none;stroke-width:9.64893723;stroke-miterlimit:4;stroke-dasharray:none"
         d="m 0,0 v -48.744 c 0,-8.639 -3.993,-12.647 -12.278,-12.647 h -6.144 c -8.595,0 -12.588,4.008 -12.588,12.647 V 87.618 c 0,8.638 3.993,12.646 12.588,12.646 h 5.527 c 8.29,0 12.283,-4.008 12.283,-12.646 V 45.349 h 32.233 v 44.12 c 0,26.837 -12.895,39.795 -39.6,39.795 H -23.948 C -50.654,129.264 -63.86,116 -63.86,89.158 V -50.284 c 0,-26.843 13.206,-40.106 39.912,-40.106 h 16.274 c 26.712,0 39.911,13.263 39.911,40.106 V 0 Z"
         inkscape:connector-curvature="0" />
    </g>
    <path
       id="path38"
       style="fill:#000000;fill-opacity:1;fill-rule:nonzero;stroke:none;stroke-width:10.50000095;stroke-miterlimit:4;stroke-dasharray:none"
       d="m -766.34821,-179.61361 h 35.75182 v -234.99957 h -35.75182 z"
       inkscape:connector-curvature="0" />
    <g
       transform="matrix(1.0882028,0,0,-1.0882028,-818.22207,-310.20676)"
       id="g40"
       style="stroke-width:9.64893723;stroke-miterlimit:4;stroke-dasharray:none">
      <path
         id="path42"
         style="fill:#000000;fill-opacity:1;fill-rule:nonzero;stroke:none;stroke-width:9.64893723;stroke-miterlimit:4;stroke-dasharray:none"
         d="m 0,0 c 0,-8.639 -3.987,-12.652 -12.277,-12.652 h -13.511 v 79.596 h 13.511 C -3.987,66.944 0,62.935 0,54.298 Z m -7.061,95.944 h -51.577 v -215.952 h 32.85 v 78.362 h 18.727 c 26.711,0 39.911,13.263 39.911,40.1 v 57.384 c 0,26.842 -13.2,40.106 -39.911,40.106"
         inkscape:connector-curvature="0" />
    </g>
    <g
       transform="matrix(1.0882028,0,0,-1.0882028,-895.13973,32.872239)"
       id="g44"
       style="stroke-width:9.64893723;stroke-miterlimit:4;stroke-dasharray:none">
      <path
         id="path46"
         style="fill:#000000;fill-opacity:1;fill-rule:evenodd;stroke:none;stroke-width:9.64893723;stroke-miterlimit:4;stroke-dasharray:none"
         d="M 0,0 H 188.054 L 92.068,-31.654 Z"
         inkscape:connector-curvature="0" />
    </g>
  </g>
</svg>
