<?xml version="1.0" encoding="UTF-8"?>
<svg xmlns="http://www.w3.org/2000/svg" xmlns:xlink="http://www.w3.org/1999/xlink" viewBox="0 0 144 144" width="144px" height="144px">
<g id="surface1496824">
<path style=" stroke:none;fill-rule:nonzero;fill:rgb(20%,20%,20%);fill-opacity:1;" d="M 24 111 L 69.703125 25.308594 C 70.664062 23.503906 73.269531 23.535156 74.183594 25.367188 L 90 57 Z M 24 111 "/>
<path style=" stroke:none;fill-rule:nonzero;fill:rgb(20%,20%,20%);fill-opacity:1;" d="M 24 110.976562 L 40.636719 8.378906 C 41.074219 5.695312 44.679688 5.113281 45.9375 7.523438 L 78 68.976562 Z M 24 110.976562 "/>
<path style=" stroke:none;fill-rule:nonzero;fill:rgb(0%,0%,0%);fill-opacity:1;" d="M 24.023438 110.957031 L 24.625 110.488281 L 77.210938 67.464844 L 62.378906 39.035156 Z M 24.023438 110.957031 "/>
<path style=" stroke:none;fill-rule:nonzero;fill:rgb(0%,0%,0%);fill-opacity:1;" d="M 24 111 L 103.996094 33.859375 C 105.675781 32.242188 108.472656 33.199219 108.816406 35.503906 L 120 111 L 75 137.230469 C 73.171875 138.253906 70.945312 138.253906 69.117188 137.230469 Z M 24 111 "/>
</g>
</svg>
