<svg xmlns="http://www.w3.org/2000/svg" viewBox="0 0 512 512"><!--! Font Awesome Free 6.1.1 by @fontawesome - https://fontawesome.com License - https://fontawesome.com/license/free (Icons: CC BY 4.0, Fonts: SIL OFL 1.1, Code: MIT License) Copyright 2022 Fonticons, Inc. --><path d="M510.486,284.482l-27.262-83.963c.012.038.016.077.028.115-.013-.044-.021-.088-.033-.132v-.01L429.1,33.871a21.328,21.328,0,0,0-20.445-14.6A21.038,21.038,0,0,0,388.466,34L337.094,192.154H175L123.533,33.989A21.033,21.033,0,0,0,103.35,19.274h-.113A21.467,21.467,0,0,0,82.86,34L28.888,200.475l-.008.021v0c-.013.042-.019.084-.033.127.012-.038.017-.077.029-.115L1.514,284.482a30.6,30.6,0,0,0,11.117,34.283L248.893,490.427c.035.026.074.041.109.067.1.072.2.146.3.214-.1-.065-.187-.136-.282-.2l0,0c.015.012.033.02.05.031s.027.015.041.024l.006,0a11.992,11.992,0,0,0,1.137.7c.054.03.1.068.157.1l0,0c.033.016.064.038.1.054s.053.02.077.032.038.015.056.023c.044.021.092.034.136.057.205.1.421.178.633.264.2.082.389.177.592.248l.025.011c.034.012.064.028.1.04s.083.032.125.046l.05.012c.053.016.11.024.163.039.019.006.042.009.063.015.284.086.579.148.872.213.115.026.225.062.341.083.017,0,.032.009.05.012.038.008.073.021.112.027.062.011.122.031.186.04.049.007.1,0,.151.012h.033a11.918,11.918,0,0,0,1.7.136h.019a11.971,11.971,0,0,0,1.7-.136h.033c.05-.008.1,0,.153-.012s.124-.029.187-.04c.038-.006.073-.019.11-.027.017,0,.032-.009.049-.012.118-.023.231-.059.349-.084.288-.064.578-.126.861-.21.019-.006.039-.008.059-.014.055-.017.113-.024.169-.041.016-.006.035-.007.051-.012.044-.013.086-.032.129-.047s.063-.028.1-.041l.026-.01c.214-.076.417-.175.627-.261s.394-.154.584-.245c.047-.023.1-.036.142-.059.018-.009.04-.015.058-.024s.053-.02.078-.033.068-.04.1-.056l0,0c.056-.028.106-.069.161-.1a12.341,12.341,0,0,0,1.132-.695c.029-.02.062-.035.092-.056.008-.006.017-.009.024-.015.035-.026.076-.043.11-.068l236.3-171.666A30.6,30.6,0,0,0,510.486,284.482ZM408.8,49.48l46.342,142.674H362.46Zm-305.6,0,46.428,142.675H56.948ZM26.817,299.251a6.526,6.526,0,0,1-2.361-7.308l20.34-62.42L193.835,420.6Zm38.245-82.972h92.411L223.354,419.22Zm183.416,273.83c-.047-.038-.092-.079-.138-.118-.009-.008-.018-.018-.028-.026-.091-.075-.18-.152-.268-.231-.172-.15-.341-.3-.5-.462.014.012.029.022.043.035l.055.046a12.191,12.191,0,0,0,1.091.929l.012.011c.018.013.033.03.051.045C248.689,490.263,248.58,490.19,248.478,490.109Zm7.514-48.482L217.226,322.21,182.839,216.279H329.253Zm7.935,48.107c-.091.079-.178.157-.27.233l-.032.028c-.047.038-.091.079-.136.117-.1.08-.209.152-.313.229.018-.013.033-.032.053-.044l.009-.009a11.69,11.69,0,0,0,1.086-.926c.014-.013.03-.024.044-.036s.038-.03.054-.047C264.262,489.435,264.1,489.586,263.927,489.734Zm90.7-273.455h92.4l-18.91,24.23-139.468,178.7Zm130.567,82.967L318.2,420.563,467.284,229.538l20.258,62.393A6.528,6.528,0,0,1,485.189,299.246Z"/></svg>