<svg xmlns="http://www.w3.org/2000/svg" viewBox="0 0 448 512"><path d="M195.21 430.7a17.8 17.8 0 1 1-17.8-17.8 17.84 17.84 0 0 1 17.8 17.8zM288 412.8a17.8 17.8 0 1 0 17.8 17.8 17.84 17.84 0 0 0-17.8-17.8zm142.3-36c0 38.9-7.6 73.9-22.2 103h-27.3c23.5-38.7 30.5-94.8 22.4-134.3-16.1 29.5-52.1 38.6-85.9 28.8-127.8-37.5-192.5 19.7-234.6 50.3l18.9-59.3-39.9 42.3a173.31 173.31 0 0 0 31.2 72.3H64.11a197.27 197.27 0 0 1-22.2-51.3l-23.8 25.2c0-74.9-5.5-147.6 61.5-215.2a210.67 210.67 0 0 1 69.1-46.7c-6.8-13.5-9.5-29.2-7.8-46L121 144.7a32.68 32.68 0 0 1-30.6-34.4v-.1L92 84a32.75 32.75 0 0 1 32.5-30.6c1.3 0-.3-.1 28.2 1.7a32 32 0 0 1 22.8 11.4C182.61 56.1 190 46 200.11 32l20.6 12.1c-13.6 29-9.1 36.2-9 36.3 3.9 0 13.9-.5 32.4 5.7a76.19 76.19 0 0 1 46.1 102.3c19 6.1 51.3 19.9 82.4 51.8 36.6 37.6 57.7 87.4 57.7 136.6zM146 122.1a162.36 162.36 0 0 1 13.1-29.4c.1-2 2.2-13.1-7.8-13.8-28.5-1.8-26.3-1.6-26.7-1.6a8.57 8.57 0 0 0-8.6 8.1l-1.6 26.2a8.68 8.68 0 0 0 8.1 9.1zm25.8 61.8a52.3 52.3 0 0 0 22.3 20c0-21.2 28.5-41.9 52.8-17.5l8.4 10.3c20.8-18.8 19.4-45.3 12.1-60.9-13.8-29.1-46.9-32-54.3-31.7a24.24 24.24 0 0 1-23.7-15.3c-13.69 21.2-37.19 62.5-17.59 95.1zm82.9 68.4L235 268.4a4.46 4.46 0 0 0-.6 6.3l8.9 10.9a4.48 4.48 0 0 0 6.3.6l19.6-16 5.5 6.8c4.9 6 13.8-1.4 9-7.3-63.6-78.3-41.5-51.1-55.3-68.1-4.7-6-13.9 1.4-9 7.3 1.9 2.3 18.4 22.6 19.8 24.3l-9.6 7.9c-4.6 3.8 2.6 13.3 7.4 9.4l9.7-8 8 9.8zM373.11 278c-16.9-23.7-42.6-46.7-73.4-60.4a213.21 213.21 0 0 0-22.9-8.6 62.47 62.47 0 0 1-6.4 6.2l31.9 39.2a29.81 29.81 0 0 1-4.2 41.9c-1.3 1.1-13.1 10.7-29 4.9-2.9 2.3-10.1 9.9-22.2 9.9a28.42 28.42 0 0 1-22.1-10.5l-8.9-10.9a28.52 28.52 0 0 1-5-26.8 28.56 28.56 0 0 1-4.6-30c-7.2-1.3-26.7-6.2-42.7-21.4-55.8 20.7-88 64.4-101.3 91.2-14.9 30.2-18.8 60.9-19.9 90.2 8.2-8.7-3.9 4.1 114-120.9l-29.9 93.6c57.8-31.1 124-36 197.4-14.4 23.6 6.9 45.1 1.6 56-13.9 11.1-15.6 8.5-37.7-6.8-59.3zm-244.5-170.9l15.6 1 1-15.6-15.6-1z"/></svg>