<?xml version="1.0" standalone="no"?>
<!DOCTYPE svg PUBLIC "-//W3C//DTD SVG 20010904//EN"
 "http://www.w3.org/TR/2001/REC-SVG-20010904/DTD/svg10.dtd">
<svg version="1.0" xmlns="http://www.w3.org/2000/svg"
 width="192.000000pt" height="192.000000pt" viewBox="0 0 192.000000 192.000000"
 preserveAspectRatio="xMidYMid meet">

<g transform="translate(0.000000,192.000000) scale(0.100000,-0.100000)"
fill="#000000" stroke="none">
<path d="M947 1888 c-4 -15 -49 -68 -100 -120 -98 -98 -153 -171 -206 -276
-96 -189 -140 -444 -111 -632 32 -199 123 -366 292 -533 54 -54 103 -110 109
-125 6 -15 14 -62 17 -106 6 -69 10 -80 30 -87 22 -8 22 -7 22 69 1 127 5 136
121 253 118 118 184 219 229 351 58 169 64 374 15 542 -59 202 -135 338 -270
485 -47 52 -99 119 -114 149 -26 52 -28 54 -34 30z"/>
</g>
</svg>
