<?xml version="1.0" standalone="no"?>
<!DOCTYPE svg PUBLIC "-//W3C//DTD SVG 20010904//EN"
 "http://www.w3.org/TR/2001/REC-SVG-20010904/DTD/svg10.dtd">
<svg version="1.0" xmlns="http://www.w3.org/2000/svg"
 width="200.000000pt" height="200.000000pt" viewBox="0 0 200.000000 200.000000"
 preserveAspectRatio="xMidYMid meet">
<metadata>
Created by potrace 1.16, written by Peter Selinger 2001-2019
</metadata>
<g transform="translate(0.000000,200.000000) scale(0.100000,-0.100000)"
fill="#000000" stroke="none">
<path d="M0 1000 l0 -1000 1000 0 1000 0 0 1000 0 1000 -1000 0 -1000 0 0
-1000z m1070 325 c17 -9 30 -21 30 -28 0 -6 24 -21 52 -32 41 -15 57 -29 74
-58 37 -67 80 -313 72 -417 -8 -114 -57 -135 -313 -135 -161 0 -173 1 -220 25
-68 34 -80 75 -65 210 17 153 40 263 63 305 35 62 61 74 183 90 l109 14 -85
-4 -85 -5 28 25 c33 30 110 34 157 10z m-296 -38 c17 -13 17 -15 -8 -42 -15
-16 -29 -39 -32 -52 -8 -30 -17 -29 -35 3 -7 14 -26 37 -41 50 l-28 23 27 15
c35 19 93 20 117 3z m555 2 c34 -12 40 -26 16 -35 -9 -4 -27 -26 -42 -51 l-26
-45 -14 33 c-8 19 -23 44 -35 56 -17 19 -19 25 -8 38 15 18 64 20 109 4z
m-682 -61 c11 -13 30 -41 41 -64 20 -39 20 -41 3 -145 l-18 -104 -27 115 c-32
131 -43 220 -29 220 5 0 19 -10 30 -22z m723 -118 c-20 -97 -42 -170 -50 -165
-4 2 -13 45 -19 94 -12 83 -11 92 7 127 11 22 31 50 44 64 l23 25 3 -45 c2
-25 -1 -70 -8 -100z"/>
</g>
</svg>
