<svg xmlns="http://www.w3.org/2000/svg" viewBox="0 0 512 512"><!--! Font Awesome Free 6.5.1 by @fontawesome - https://fontawesome.com License - https://fontawesome.com/license/free (Icons: CC BY 4.0, Fonts: SIL OFL 1.1, Code: MIT License) Copyright 2023 Fonticons, Inc. --><path d="M194.6 7.5l5.8 23.3C177.7 36.3 156 45.3 136 57.4L123.7 36.8c22-13.3 45.9-23.2 70.9-29.3zm122.9 0l-5.8 23.3C334.3 36.3 356 45.3 376 57.4l12.4-20.6c-22-13.3-46-23.2-71-29.3zM36.8 123.7c-13.3 22-23.2 45.9-29.3 70.9l23.3 5.8C36.3 177.7 45.3 156 57.4 136L36.8 123.7zM24 256c0-11.6 .9-23.3 2.6-34.8L2.9 217.6c-3.8 25.4-3.8 51.3 0 76.7l23.7-3.6C24.9 279.3 24 267.6 24 256zM388.3 475.2L376 454.6c-20 12.1-41.6 21-64.2 26.6l5.8 23.3c24.9-6.2 48.8-16 70.8-29.3zM488 256c0 11.6-.9 23.3-2.6 34.8l23.7 3.6c3.8-25.4 3.8-51.3 0-76.7l-23.7 3.6c1.7 11.5 2.6 23.1 2.6 34.8zm16.5 61.4l-23.3-5.8c-5.6 22.7-14.5 44.3-26.6 64.3l20.6 12.4c13.3-22 23.2-46 29.3-71zm-213.8 168c-23 3.5-46.5 3.5-69.5 0l-3.6 23.7c25.4 3.8 51.3 3.8 76.7 0l-3.6-23.7zm152-91.8c-13.8 18.7-30.4 35.3-49.2 49.1l14.2 19.3c20.7-15.2 39-33.4 54.2-54.1l-19.3-14.4zM393.6 69.2c18.8 13.8 35.3 30.4 49.2 49.2L462.1 104C446.9 83.4 428.6 65.1 408 49.9L393.6 69.2zM69.2 118.4c13.8-18.8 30.4-35.3 49.2-49.2L104 49.9C83.4 65.1 65.1 83.4 49.9 104l19.3 14.4zm406 5.3L454.6 136c12.1 20 21 41.6 26.6 64.2l23.3-5.8c-6.2-24.9-16-48.8-29.3-70.8zm-254-97.1c23-3.5 46.5-3.5 69.5 0l3.6-23.7C268.9-1 243.1-1 217.6 2.9l3.6 23.7zM81.6 468.4L32 480l11.6-49.6L20.2 425 8.6 474.5c-.9 4-.8 8.1 .3 12.1s3.2 7.5 6.1 10.4s6.5 5 10.4 6.1s8.1 1.2 12.1 .3L87 492l-5.4-23.6zM25.2 403.6L48.6 409l8-34.4c-11.7-19.6-20.4-40.8-25.8-63L7.5 317.4c5.2 21.2 13.2 41.7 23.6 60.8l-5.9 25.3zm112 52l-34.4 8 5.4 23.4 25.3-5.9c19.2 10.4 39.6 18.4 60.8 23.6l5.8-23.3c-22.1-5.5-43.3-14.3-62.8-26l-.2 .2zM256 48c-37.2 0-73.6 10-105.6 28.9s-58.4 46-76.3 78.6s-26.9 69.3-25.8 106.4s12 73.3 31.8 104.8L60 452l85.3-20c27.3 17.2 58.2 27.8 90.3 31s64.5-1.1 94.6-12.6s57.2-29.8 79-53.6s37.8-52.2 46.8-83.2s10.5-63.6 4.7-95.3s-19-61.6-38.4-87.4s-44.5-46.7-73.4-61S288.3 48 256 48z"/></svg>