<svg xmlns="http://www.w3.org/2000/svg" viewBox="0 0 448 512"><!--! Font Awesome Free 6.1.2 by @fontawesome - https://fontawesome.com License - https://fontawesome.com/license/free (Icons: CC BY 4.0, Fonts: SIL OFL 1.1, Code: MIT License) Copyright 2022 Fonticons, Inc. --><path d="M48 32H400C426.5 32 448 53.5 448 80V432C448 458.5 426.5 480 400 480H48C21.5 480 0 458.5 0 432V80C0 53.5 21.5 32 48 32zM382.1 224.9L337.5 108.5C336.6 106.2 334.9 104.2 332.9 102.9C331.3 101.9 329.5 101.3 327.7 101.1C325.9 100.9 324 101.2 322.3 101.8C320.6 102.5 319 103.5 317.8 104.9C316.6 106.3 315.7 107.9 315.2 109.7L285 201.9H162.1L132.9 109.7C132.4 107.9 131.4 106.3 130.2 104.9C128.1 103.6 127.4 102.5 125.7 101.9C123.1 101.2 122.1 100.1 120.3 101.1C118.5 101.3 116.7 101.9 115.1 102.9C113.1 104.2 111.5 106.2 110.6 108.5L65.94 224.9L65.47 226.1C59.05 242.9 58.26 261.3 63.22 278.6C68.18 295.9 78.62 311.1 92.97 321.9L93.14 322L93.52 322.3L161.4 373.2L215.6 414.1C217.1 415.1 220.9 416.9 223.9 416.9C226.9 416.9 229.9 415.1 232.3 414.1L286.4 373.2L354.8 322L355 321.9C369.4 311 379.8 295.8 384.8 278.6C389.7 261.3 388.1 242.9 382.5 226.1L382.1 224.9z"/></svg>