<?xml version="1.0" standalone="no"?>
<!DOCTYPE svg PUBLIC "-//W3C//DTD SVG 20010904//EN"
 "http://www.w3.org/TR/2001/REC-SVG-20010904/DTD/svg10.dtd">
<svg version="1.0" xmlns="http://www.w3.org/2000/svg"
 width="225.000000pt" height="225.000000pt" viewBox="0 0 225.000000 225.000000"
 preserveAspectRatio="xMidYMid meet">

<g transform="translate(0.000000,225.000000) scale(0.100000,-0.100000)"
fill="#000000" stroke="none">
<path d="M972 1785 c-202 -46 -328 -170 -397 -395 -6 -20 6 -12 58 37 87 81
152 107 257 101 102 -6 139 -28 276 -158 133 -126 200 -173 298 -209 65 -24
85 -26 221 -26 120 0 161 4 205 19 161 54 267 161 330 333 l29 80 -57 -56
c-85 -85 -135 -106 -252 -106 -124 0 -141 9 -298 156 -198 185 -289 228 -492
235 -77 2 -136 -1 -178 -11z"/>
<path d="M390 1105 c-84 -24 -155 -62 -214 -116 -68 -62 -109 -125 -146 -226
l-29 -80 57 56 c76 76 137 104 231 109 81 5 138 -8 187 -42 17 -11 81 -68 143
-126 180 -170 279 -218 471 -227 303 -15 500 122 585 407 6 20 -5 13 -58 -37
-87 -81 -152 -107 -257 -101 -102 6 -139 28 -276 158 -203 193 -286 232 -504
237 -98 2 -150 -1 -190 -12z"/>
</g>
</svg>
