<?xml version="1.0" encoding="utf-8"?>
<!-- Generator: Adobe Illustrator 25.0.0, SVG Export Plug-In . SVG Version: 6.00 Build 0)  -->
<svg version="1.1" id="Calque_1" xmlns="http://www.w3.org/2000/svg" xmlns:xlink="http://www.w3.org/1999/xlink" x="0px" y="0px"
	 viewBox="0 0 518.3 518.3" style="enable-background:new 0 0 518.3 518.3;" xml:space="preserve">
<path d="M0,261c2-8,3-16,6-23c9-26,26-45,51-57c3-1.2,5.3-3.8,6-7c13.3-45.9,36.2-88.5,67-125c1.7-2,3.7-3.7,6-5
	c126.2-67.4,283.1-19.8,350.5,106.4C510.4,195,520.6,245.6,516,296c-13,96-66,160-156,194c-37,14-76,16-115,12
	c-12.1-1.3-24.1-3.3-36-6l23,1c60,2,115-12,163-50c47-37,76-85,84-145c16.2-115.5-59.8-223.9-174-248c-36.5-7.7-74.4-6-110,5
	c-2.2,0.5-4.3,1.5-6,3c-31.1,30.3-55,67.2-70,108v1l27,10c50.1,23.2,71.9,82.7,48.7,132.8c-14.6,31.4-44.3,53-78.7,57.2
	C60.9,379.9,9.1,342.4,0.2,287.4c-0.1-0.5-0.1-0.9-0.2-1.4l-1-4L0,261z"/>
<path d="M266,459c10-9,12-19,14-30c1-2,3-6,5-7c10-5,14-13,12-24c-0.6-3.3,0.6-6.7,3-9c4-5,6-11,3-17l-3-13l18-8
	c3.6-1.6,6.9-3.6,10-6c10-8,11-16,6-27l-28-52l-7-17c-1-4,0-7,4-10c12-11,15-25,13-40c-5-38-17-73-41-103l-5-6c-1.9-1.8-3.6-3.8-5-6
	c64,4,115,30,150,83c42,65,44,132,6,199C384,431,317,458,266,459z"/>
<path d="M152,426l33,2c3.7,0.4,7.4,0,11-1c11-4,18-11,18-23c0-8,4-13,11-17c6-2,6-5,2-10l-4-4l-5-4l12-3c5-2,6-5,4-10
	c-0.7-1.3-1.4-2.6-2-4c-4-13-2-17,10-20c8-3,15-6,21-14l-16-28c-6-12.1-11.3-24.4-16-37c-3-8-1-15,7-20c7-5,8-13,7-21
	c-4-37-15-71-44-96c-6-6-14-10-22-15l34-12c7-2,11,0,16,4c27,25,43,55,49,91c1.6,9.6,2.6,19.3,3,29c0,7-3,12-8,16c-9,6-10,14-8,23
	c3,15,11,28,18,41l16,29c2,4,2,6-1,8c-6,6-13,9-21,12c-13,3-14,4-11,18c0.7,3.1,1.7,6.1,3,9c2,6,1,9-5,11l-13,4l9,8c6,6,5,9-2,13
	c-7,3-11,9-12,17c-3,23-20,34-43,29C185,446,168,437,152,426z"/>
</svg>
