<svg xmlns="http://www.w3.org/2000/svg" viewBox="0 0 496 512"><path d="M202.45 108.42v81.61H38.94l48.22 61.91h114.73v196.75h64.61V252.96h83.27v-62.69h-83.18V171.1h145.62v-62.68H202.45zm4.86 6h197.77v50.68H259.44v30.93h83.18v50.93h-83.26v195.73h-52.73V245.94H89.86l-39.95-49.91h157.4v-81.61zM247.99 8.8C111.03 8.8 0 119.83 0 256.8s111.03 248 247.99 248S496 393.76 496 256.8 384.96 8.8 247.99 8.8zm.02 13.24c129.66 0 234.76 105.12 234.76 234.78s-105.1 234.76-234.76 234.76S13.23 386.47 13.23 256.81 118.35 22.04 248.01 22.04zm0 7.89c-125.3 0-226.89 101.57-226.89 226.87s101.59 226.89 226.89 226.89S474.88 382.1 474.88 256.8 373.31 29.93 248.01 29.93zm-.02 13.3c117.95 0 213.56 95.62 213.56 213.56s-95.62 213.56-213.56 213.56S34.43 374.75 34.43 256.8 130.04 43.23 247.99 43.23zm-73.32 104.8l15.66 18.05-22.16-9.45-12.33 20.47 2.15-23.99-23.28-5.4 23.48-5.37-2.06-23.81 12.37 20.67 22.01-9.32-15.84 18.15zm-47.14-46.54l8.01 12.4 12.69-5.86-9.32 11.45 9.5 10.25-13.77-5.32-6.82 12.2.81-14.74-13.71-2.71 14.27-3.78-1.66-13.89zm250.77 75.59l11.99 19.56 20.88-9.11-14.9 17.45 15.11 17.04-21.2-8.78-11.54 19.64 1.8-22.87-22.24-4.9 22.31-5.36-2.21-22.67zm-107.05 98.45l13.86-3.22-1.28-14.17 7.35 12.18 13.08-5.59-9.31 10.75 9.36 10.71-13.1-5.54-7.29 12.21 1.22-14.17-13.89-3.16zm-125.43 6.5l23.73-3.87-1.73-24.53 11.01 21.38 22.79-9.22-16.93 17.08 15.81 18.83-21.47-10.82-13.02 20.86 3.66-23.77-23.85-5.94zm63.44-165.66v81.61H54.16l36.72 46.01h117.7v196.75h48.82V245.01h83.27v-47.03H257.4v-34.83h145.73v-46.78H209.26zm10.86 11.2h171.8v24.36H246.88v56.23h82.93v23.94h-82.93v197.42h-26.76V232.1H96.31l-20.09-23.94h143.9v-80.59z"/></svg>