<?xml version="1.0" encoding="UTF-8" standalone="no"?>
<svg
   xmlns:dc="http://purl.org/dc/elements/1.1/"
   xmlns:cc="http://creativecommons.org/ns#"
   xmlns:rdf="http://www.w3.org/1999/02/22-rdf-syntax-ns#"
   xmlns:svg="http://www.w3.org/2000/svg"
   xmlns="http://www.w3.org/2000/svg"
   xmlns:sodipodi="http://sodipodi.sourceforge.net/DTD/sodipodi-0.dtd"
   xmlns:inkscape="http://www.inkscape.org/namespaces/inkscape"
   viewBox="0 0 448 512"
   version="1.1"
   id="svg2050"
   sodipodi:docname="yandex-zen.svg"
   inkscape:version="0.92.4 (5da689c313, 2019-01-14)">
  <metadata
     id="metadata2056">
    <rdf:RDF>
      <cc:Work
         rdf:about="">
        <dc:format>image/svg+xml</dc:format>
        <dc:type
           rdf:resource="http://purl.org/dc/dcmitype/StillImage" />
        <dc:title></dc:title>
      </cc:Work>
    </rdf:RDF>
  </metadata>
  <defs
     id="defs2054" />
  <sodipodi:namedview
     pagecolor="#ffffff"
     bordercolor="#666666"
     borderopacity="1"
     objecttolerance="10"
     gridtolerance="10"
     guidetolerance="10"
     inkscape:pageopacity="0"
     inkscape:pageshadow="2"
     inkscape:window-width="1858"
     inkscape:window-height="1177"
     id="namedview2052"
     showgrid="false"
     inkscape:zoom="1.3037281"
     inkscape:cx="255.50468"
     inkscape:cy="159.81706"
     inkscape:window-x="-8"
     inkscape:window-y="-8"
     inkscape:window-maximized="1"
     inkscape:current-layer="svg2050" />
  <path
     style="fill:#000000;fill-opacity:1;stroke-width:0.46805573"
     d="m 291.0966,209.2026 c -3.05001,-1.04509 -7.70065,-2.61345 -10.33476,-3.48526 -9.08737,-3.0076 -14.89089,-4.93735 -20.66949,-6.87286 -3.18865,-1.06803 -8.74672,-2.92744 -12.3513,-4.13202 -3.60455,-1.20458 -8.82234,-3.0013 -11.59507,-3.99273 -2.77275,-0.99142 -7.50428,-2.5763 -10.51453,-3.52194 -3.01027,-0.94563 -5.95062,-1.93958 -6.53414,-2.20876 -0.58352,-0.26921 -3.33837,-1.22466 -6.1219,-2.12326 -13.83377,-4.46589 -16.26667,-5.26861 -17.67774,-5.83272 -0.83921,-0.33551 -3.22125,-1.13228 -5.29341,-1.77062 -2.07217,-0.63835 -4.90188,-1.59935 -6.28825,-2.13558 -1.38636,-0.53624 -3.42811,-1.2231 -4.53721,-1.52636 -1.10908,-0.30326 -4.39857,-1.38247 -7.30994,-2.39826 -2.91137,-1.01578 -6.54114,-2.19069 -8.06615,-2.61089 -1.525,-0.42023 -3.00824,-0.92327 -3.29609,-1.11788 -0.28783,-0.19462 -2.89672,-1.12299 -5.79753,-2.06305 -2.90082,-0.94007 -8.33682,-2.73301 -12.08001,-3.98433 -3.7432,-1.25132 -9.24457,-3.06713 -12.22526,-4.03514 l -5.41944,-1.76001 v -24.7273 -24.72728 l 1.1343,0.28929 c 0.62386,0.15911 2.94918,0.94611 5.16736,1.74889 2.21821,0.80278 5.84796,2.04544 8.06616,2.76148 2.21819,0.71604 6.98226,2.30689 10.58682,3.53522 3.60457,1.22834 8.82234,2.98839 11.59509,3.91123 2.77273,0.92285 7.99052,2.68281 11.59509,3.91104 3.60456,1.22821 8.93577,3.00457 11.84714,3.94744 2.91138,0.94286 5.98004,1.98879 6.81926,2.32429 0.83921,0.33548 3.22124,1.13263 5.2934,1.77141 2.07217,0.63879 4.73215,1.53537 5.91106,1.9924 1.17895,0.45705 4.01469,1.41631 6.30169,2.13173 2.287,0.71541 4.61191,1.49634 5.16645,1.73537 0.55455,0.23905 3.67388,1.31085 6.93184,2.38179 3.25797,1.07093 8.53248,2.82713 11.72112,3.90267 l 11.5951,3.91103 11.59507,3.91103 c 3.18866,1.07554 8.46315,2.85491 11.72113,3.95418 3.25797,1.09926 8.30562,2.76569 11.21699,3.70316 2.91137,0.93747 5.86056,1.96716 6.55374,2.28819 0.69318,0.32103 3.41551,1.22998 6.04962,2.01986 2.6341,0.7899 5.07284,1.62248 5.41944,1.85019 0.49089,0.32251 0.63017,5.78095 0.63017,24.69612 0,19.14495 -0.13333,24.27854 -0.63017,24.26528 -0.3466,-0.009 -3.12563,-0.87193 -6.17565,-1.91704 z"
     id="path1383"
     inkscape:connector-curvature="0" />
  <path
     style="fill:#000000;fill-opacity:1;stroke-width:0.46805573"
     d="m 294.1214,376.44857 c -1.66363,-0.60685 -5.17997,-1.77592 -7.81407,-2.59795 -2.6341,-0.82199 -5.19448,-1.69575 -5.68972,-1.94168 -0.49525,-0.24592 -3.10414,-1.13071 -5.79755,-1.96626 -2.6934,-0.83551 -5.57767,-1.7931 -6.40949,-2.12792 -0.83183,-0.33488 -3.66758,-1.29656 -6.30168,-2.1371 -2.63411,-0.84053 -7.73846,-2.53369 -11.34303,-3.76258 -3.60455,-1.22889 -8.98368,-2.99325 -11.9536,-3.92088 -2.96992,-0.92758 -5.80567,-1.89381 -6.30168,-2.14717 -0.49601,-0.25335 -3.28385,-1.21966 -6.19523,-2.14736 -2.91136,-0.92771 -7.9023,-2.56163 -11.09094,-3.63095 -3.18866,-1.06931 -8.29301,-2.75879 -11.34303,-3.75436 -3.05,-0.99559 -6.22605,-2.07971 -7.05787,-2.40918 -0.83183,-0.32945 -3.66758,-1.28453 -6.30169,-2.12238 -7.48975,-2.38236 -14.00799,-4.55298 -18.4009,-6.12765 -2.21818,-0.79512 -5.28079,-1.78575 -6.80579,-2.20139 -1.52502,-0.41565 -3.0021,-0.91054 -3.2824,-1.09977 -0.2803,-0.18923 -3.22948,-1.21965 -6.55375,-2.28984 -3.32425,-1.07018 -8.76641,-2.86482 -12.0937,-3.98809 -3.3273,-1.12327 -8.38943,-2.8045 -11.2492,-3.73606 -2.85975,-0.93156 -5.63881,-1.89638 -6.17564,-2.14404 -0.94763,-0.43716 -0.97606,-1.16485 -0.97606,-24.98758 0,-13.49553 0.19599,-24.5373 0.43552,-24.5373 0.58868,0 11.00124,3.42095 29.05633,9.54623 3.60456,1.22286 8.59549,2.8889 11.09095,3.70229 2.49547,0.81341 7.37296,2.44397 10.83889,3.62347 14.62584,4.97739 24.61096,8.40081 26.97117,9.24712 1.38637,0.49711 4.78927,1.65014 7.56203,2.56228 2.77273,0.91214 7.76366,2.57771 11.09095,3.70128 3.32728,1.12354 8.43164,2.80781 11.34301,3.7428 2.91138,0.93499 5.86056,1.96265 6.55376,2.28369 0.69318,0.32103 3.4155,1.22997 6.04959,2.01985 2.63411,0.78989 5.04288,1.60103 5.35285,1.80253 0.30995,0.2015 3.13994,1.15858 6.28887,2.12685 3.14893,0.96826 5.95794,1.9131 6.24225,2.09965 0.28431,0.18653 2.89896,1.07872 5.81034,1.9826 2.91138,0.9039 5.52028,1.79573 5.79756,1.98187 0.27726,0.18612 2.87124,1.04736 5.76437,1.91383 2.89312,0.86649 5.50203,1.74033 5.79753,1.94188 0.29552,0.20154 2.86263,1.09729 5.70468,1.99055 l 5.16739,1.62413 v 24.50433 c 0,13.4774 -0.17015,24.4997 -0.37811,24.494 -0.20796,-0.006 -1.73926,-0.50683 -3.40291,-1.11374 z"
     id="path1385"
     inkscape:connector-curvature="0" />
  <path
     style="fill:#ffffff;fill-opacity:1;stroke-width:0.46805573"
     d="m 182.20361,289.03659 c -5.22066,-1.7832 -7.54406,-2.5651 -21.92983,-7.38018 -3.18866,-1.06729 -8.29302,-2.77585 -11.34303,-3.79682 -3.05001,-1.02097 -8.26779,-2.78042 -11.59509,-3.90989 -3.32728,-1.12948 -7.5242,-2.52065 -9.32648,-3.09151 -1.80228,-0.57085 -2.97728,-1.04203 -2.61112,-1.04708 0.56899,-0.007 3.73288,-2.07591 6.66222,-4.35474 0.46084,-0.35852 2.29005,-1.67787 4.06491,-2.93191 8.42561,-5.95318 21.71605,-15.37616 34.23127,-24.27012 4.57501,-3.25124 9.88252,-7.01623 11.79446,-8.36663 1.91193,-1.3504 4.42755,-3.13972 5.59028,-3.97624 1.16272,-0.83652 5.02819,-3.57424 8.58995,-6.08382 3.56177,-2.50958 7.42019,-5.24731 8.57427,-6.08384 1.1541,-0.83653 3.63439,-2.59649 5.51178,-3.91103 1.87737,-1.31454 7.07321,-4.99904 11.54629,-8.18777 4.47309,-3.18875 9.42542,-6.70868 11.00522,-7.82208 1.57978,-1.1134 2.88771,-2.31768 2.90648,-2.6762 0.0243,-0.46421 0.14406,-0.50282 0.41603,-0.13411 0.21002,0.28475 2.19157,1.10665 4.40345,1.82646 2.21186,0.7198 6.97076,2.30931 10.57533,3.53225 3.60455,1.22293 8.82235,2.96888 11.5951,3.87988 2.77272,0.91099 8.10393,2.68455 11.84714,3.94123 12.50028,4.19663 18.38151,6.1462 20.69787,6.86112 l 2.29698,0.70892 -2.09117,1.53386 c -1.15014,0.84364 -2.97779,2.15538 -4.06145,2.91501 -1.08365,0.75961 -5.25976,3.76148 -9.28022,6.6708 -8.99434,6.50856 -13.6046,9.80182 -16.10339,11.50323 -1.05306,0.71701 -7.3125,5.21471 -13.90989,9.99486 -6.59737,4.78014 -12.85277,9.27784 -13.90088,9.99485 -1.04812,0.71703 -2.98743,2.08589 -4.30957,3.04193 -1.32212,0.95602 -6.04217,4.33737 -10.48896,7.51409 -4.44681,3.17671 -10.35369,7.42011 -13.12643,9.42976 -2.77275,2.00967 -8.78455,6.32774 -13.35956,9.59575 -4.57501,3.26801 -8.54508,6.1741 -8.82235,6.45797 -0.37954,0.38858 -1.87464,0.048 -6.04961,-1.378 z"
     id="path1387"
     inkscape:connector-curvature="0" />
  <path
     style="fill:#ffffff;fill-opacity:1;stroke-width:0.46805573"
     d="m 156.2407,280.20611 c -16.22052,-5.47177 -29.67526,-10.00607 -29.89943,-10.07624 -0.49978,-0.15644 1.48681,-1.58104 60.39955,-43.3133 26.06373,-18.46287 47.8524,-34.04326 48.41927,-34.62308 l 1.03065,-1.05421 2.05965,0.85778 c 1.13281,0.47177 7.0211,2.50662 13.0851,4.52187 6.06401,2.01527 18.44399,6.13136 27.51107,9.14692 9.06708,3.01554 16.96813,5.63667 17.55789,5.82473 0.92203,0.29401 -4.47844,4.31743 -38.54349,28.71534 -21.78864,15.60539 -46.36393,33.23807 -54.61174,39.18375 -11.04311,7.96075 -15.32822,10.80435 -16.25633,10.7877 -0.69319,-0.0123 -14.53167,-4.49949 -30.75219,-9.97126 z"
     id="path1389"
     inkscape:connector-curvature="0" />
  <path
     style="fill:#000000;fill-opacity:1;stroke-width:0.46805573"
     d="m 270.42709,202.03772 c -14.14095,-4.7472 -31.60921,-10.62753 -38.81832,-13.06739 -12.60968,-4.26762 -39.78039,-13.37043 -53.43823,-17.903 -11.93856,-3.96199 -16.47629,-5.47243 -34.78526,-11.57871 l -18.14883,-6.05286 -0.13023,-24.38315 c -0.10141,-18.97772 0.006,-24.38315 0.4857,-24.38315 0.33876,0 5.16144,1.55115 10.71705,3.447 5.55561,1.89586 17.47408,5.91986 26.48547,8.94222 16.35822,5.48645 30.77868,10.34445 44.11175,14.86047 3.88184,1.31482 21.00979,7.07737 38.06214,12.80567 17.05234,5.72832 34.74744,11.68421 39.32246,13.23532 4.57502,1.55111 9.33908,3.16469 10.58682,3.58572 l 2.2686,0.76553 0.33631,10.398 c 0.44854,13.86784 -0.0554,37.99807 -0.79311,37.97607 -0.3033,-0.009 -12.12135,-3.90053 -26.26232,-8.64774 z"
     id="path1395"
     inkscape:connector-curvature="0" />
  <path
     style="fill:#ffffff;fill-opacity:1;stroke-width:0.46805573"
     d="m 184.72428,289.77163 c -0.55454,-0.21768 -13.93876,-4.71796 -29.74268,-10.00061 -15.80394,-5.28264 -28.79519,-9.65719 -28.86947,-9.72121 -0.16259,-0.14016 10.06108,-7.45586 48.02533,-34.36516 52.43461,-37.16599 57.45407,-40.74905 59.80328,-42.68969 2.30427,-1.90354 2.34974,-1.91849 3.82867,-1.25924 1.64833,0.73475 9.91827,3.52665 38.7073,13.06749 10.53641,3.49183 19.57727,6.49883 20.0908,6.68221 0.75528,0.26973 -5.54605,4.98118 -32.9727,24.65348 -18.6485,13.37601 -43.22931,31.01453 -54.624,39.19669 -21.20993,15.2302 -21.61262,15.46995 -24.24653,14.43604 z"
     id="path1397"
     inkscape:connector-curvature="0" />
  <path
     style="fill:#ffffff;fill-opacity:1;stroke-width:0.46805573"
     d="m 183.96808,123.14521 c -11.789,-3.99541 -16.83874,-5.67998 -21.67776,-7.23158 -2.91139,-0.93351 -5.70456,-1.89909 -6.20707,-2.14572 -0.86476,-0.42445 -3.77612,-1.40135 -16.73105,-5.6141 -3.05001,-0.99181 -6.45292,-2.16273 -7.56202,-2.60203 -1.10909,-0.43929 -2.87058,-1.0534 -3.9144,-1.36468 -1.04383,-0.31126 -1.83783,-0.69905 -1.76448,-0.86176 0.0733,-0.16269 20.43742,-14.336651 45.25342,-31.49767 24.81601,-17.161026 47.38863,-32.828754 50.16135,-34.817179 l 5.04136,-3.61531 4.03307,0.258199 c 2.21818,0.142007 5.73452,0.42074 7.81408,0.619397 6.5274,0.623568 29.3364,4.075299 30.29138,4.584059 0.2369,0.126202 3.99425,1.015498 8.34968,1.976216 4.35543,0.960721 8.31274,1.928416 8.794,2.150435 0.48126,0.22202 2.73641,0.910537 5.01145,1.530036 2.27504,0.619497 3.9393,1.280437 3.69837,1.468759 -0.24093,0.188317 -2.02607,1.484915 -3.96699,2.881326 -12.35938,8.892079 -95.4546,71.459872 -98.28245,74.003252 -1.12603,1.01274 -2.44169,1.77891 -3.02481,1.76148 -0.56759,-0.0169 -2.9603,-0.68438 -5.31713,-1.48313 z"
     id="path1401"
     inkscape:connector-curvature="0" />
  <path
     style="fill:#000000;fill-opacity:1;stroke-width:0.46805573"
     d="m 183.46396,455.7801 c -5.5636,-0.64204 -19.027,-2.58135 -23.69432,-3.41305 -10.35932,-1.84601 -31.77925,-7.3481 -35.93313,-9.2301 l -1.39994,-0.63428 1.56493,-0.9973 c 1.7646,-1.12457 11.44481,-8.34774 66.77283,-49.82447 21.35032,-16.00532 40.22935,-30.1512 41.95338,-31.43533 l 3.13459,-2.33475 4.17491,1.22239 c 2.2962,0.67234 4.41042,1.37029 4.69825,1.55107 0.28785,0.18079 3.01017,1.13941 6.04961,2.13027 6.72024,2.19087 16.10135,5.30419 24.0532,7.98266 3.25797,1.09739 8.58919,2.88648 11.84716,3.97572 3.25797,1.08924 6.88774,2.30469 8.06614,2.70106 1.17842,0.3964 2.13396,0.82516 2.12344,0.95285 -0.0105,0.1277 -0.86125,0.73684 -1.8905,1.35366 -1.90123,1.13934 -65.84137,46.56207 -92.7226,65.86965 -8.09983,5.81776 -15.01907,10.54896 -15.3761,10.51383 -0.35701,-0.0351 -1.89685,-0.20787 -3.42185,-0.38388 z"
     id="path1403"
     inkscape:connector-curvature="0" />
  <path
     style="fill:#000000;fill-opacity:1;stroke-width:0.46805573"
     d="m 183.96808,289.56858 c -0.97045,-0.33707 -13.78807,-4.63202 -28.48359,-9.54433 -14.6955,-4.9123 -27.3709,-9.18232 -28.16751,-9.48892 l -1.44838,-0.55748 8.50626,-6.08882 c 4.67845,-3.34885 28.46999,-20.24895 52.8701,-37.55577 24.40009,-17.30681 45.41273,-32.30748 46.69474,-33.33482 l 2.33093,-1.86789 2.45834,0.91872 c 1.35209,0.50532 15.04751,5.11935 30.43426,10.25342 15.38675,5.13406 28.04527,9.39445 28.13005,9.46752 0.11964,0.10314 -86.96678,62.74406 -105.30309,75.74414 -4.06366,2.88105 -4.97201,3.11365 -8.02211,2.05423 z"
     id="path1405"
     inkscape:connector-curvature="0" />
  <path
     style="fill:#000000;fill-opacity:1;stroke-width:0.46805573"
     d="m 171.61679,118.76313 c -8.87276,-2.9897 -21.35697,-7.18006 -27.74266,-9.31188 -6.38571,-2.13183 -12.92,-4.3753 -14.52067,-4.98549 l -2.91027,-1.10943 4.18591,-2.94934 c 2.30224,-1.62213 19.38555,-13.486219 37.96288,-26.364647 45.11499,-31.27519 56.6543,-39.335082 56.99378,-39.808573 1.15742,-1.614283 31.07501,2.096753 47.86614,5.937411 8.84757,2.023716 20.41812,5.298048 20.41656,5.777647 -4.9e-4,0.149838 -2.66611,2.224409 -5.92358,4.610155 -13.05661,9.562548 -77.29406,57.906287 -95.43023,71.818767 -1.40529,1.07801 -2.89841,1.84154 -3.58657,1.83405 -0.64844,-0.007 -8.43852,-2.45895 -17.31129,-5.44867 z"
     id="path1407"
     inkscape:connector-curvature="0" />
  <path
     inkscape:connector-curvature="0"
     style="fill:#000000;fill-opacity:1;stroke-width:0.46805573"
     d="m 225.97471,34.145535 -1.9724,1.518154 c -1.08469,0.834916 -23.19218,16.263414 -49.12831,34.284709 -2.00651,1.394192 -3.72638,2.595456 -5.66951,3.947386 -21.62863,15.016856 -39.73781,27.614826 -40.55883,28.223536 l -1.63185,1.21032 2.38808,0.91204 c 0.0297,0.0113 0.22099,0.0764 0.26203,0.0915 0.37701,0.15434 0.7814,0.31153 1.21505,0.46507 3.27865,1.16078 39.97349,13.49252 51.07306,17.1638 2.77928,0.91926 4.55559,1.4457 5.84972,1.63251 1.37704,0.23482 2.17101,0.047 3.12994,-0.52892 0.0455,-0.0269 0.0922,-0.0562 0.13821,-0.0848 0.0893,-0.056 0.17291,-0.10135 0.26645,-0.16392 0.4882,-0.32655 4.42535,-3.2762 9.39426,-7.01705 6.61707,-4.96464 15.88832,-11.93952 26.34085,-19.82175 18.85821,-14.220948 41.49716,-31.231229 50.30798,-37.801336 3.8361,-2.860525 6.69358,-5.008156 8.91554,-6.704462 5.58684,-4.179038 6.83107,-5.287002 6.32844,-5.713323 -0.014,-0.01352 -0.0215,-0.03045 -0.0398,-0.04192 -0.56827,-0.35818 -3.40238,-1.225997 -7.07031,-2.229103 -0.17265,-0.04781 -0.3436,-0.09459 -0.51962,-0.142952 -0.2972,-0.08053 -0.58432,-0.159187 -0.89111,-0.241112 -3.53652,-0.958936 -7.55891,-1.980872 -10.90232,-2.73515 -3.48481,-0.786189 -7.40966,-1.552826 -11.45507,-2.268176 -10.8043,-1.948213 -22.01329,-3.382826 -29.42438,-3.691021 z"
     id="path1409" />
  <path
     style="fill:#ffffff;fill-opacity:1;stroke-width:0.6619308"
     d="m 179.62113,455.09971 c -12.47231,-1.72922 -24.84985,-3.88168 -31.72643,-5.51722 -9.01464,-2.14407 -22.37526,-5.86616 -23.74741,-6.61578 -0.66705,-0.3644 1.16164,-2.06781 6.41656,-5.97697 4.04224,-3.00705 29.41009,-21.98801 56.37302,-42.17985 l 49.02352,-36.71249 4.448,1.43095 c 3.42037,1.10036 45.40446,15.14953 54.57927,18.26392 1.51529,0.5144 0.4935,1.37591 -12.47669,10.52006 -7.76992,5.47786 -29.68735,21.04428 -48.70538,34.59204 -48.24993,34.37143 -46.07427,32.89423 -48.32398,32.81089 -1.06657,-0.0395 -3.7038,-0.31648 -5.86048,-0.61555 z"
     id="path1417"
     inkscape:connector-curvature="0" />
  <path
     style="fill:#ffffff;fill-opacity:1;stroke-width:0.6619308"
     d="m 170.70921,118.1631 c -9.41098,-3.14862 -23.10924,-7.77417 -30.44057,-10.27901 l -13.32968,-4.55424 31.83569,-22.120449 c 17.50964,-12.166255 39.8462,-27.720629 49.63682,-34.565288 l 17.80112,-12.44483 3.61826,0.0096 c 4.81552,0.01278 21.03328,2.025253 31.96486,3.966518 12.92988,2.296126 31.18502,6.968869 31.18502,7.982387 0,0.145963 -9.70507,7.531444 -21.56685,16.412173 -11.86175,8.880736 -34.4,25.840552 -50.08497,37.688489 -28.89652,21.82751 -31.46567,23.68115 -32.77627,23.64795 -0.40289,-0.0102 -8.43244,-2.59469 -17.84343,-5.74331 z"
     id="path1419"
     inkscape:connector-curvature="0" />
  <ellipse
     style="opacity:0.04200003;fill:#000000;fill-opacity:1;stroke-width:1.09438229"
     id="path3835"
     cx="224.3416"
     cy="249.13269"
     rx="222.17213"
     ry="216.02155"
     transform="matrix(0.99999736,0.00229977,0,1,0,0)" />
</svg>
