<svg xmlns="http://www.w3.org/2000/svg" viewBox="0 0 512 512"><path d="M261.2 136.1c-14 57.5-13.1 54.4-25.8 107-1.6 6.5-4.1 8.4-10.7 8.5h-14.4c-5.8-.1-8.2-1.6-9.9-7.3-12.3-39.4-28.8-94.1-39.9-130.7-4.1-13.5-1.4-13.2 9.3-12.9 3.7.1 7.3 0 11 0 5.1.1 7.7 2 9.1 7.1 3.6 12.9 6 22.8 26.6 104.1.4 1.6.9 3.1 1.4 4.6h1.1c.5-2 1.1-3.9 1.6-5.9 7.8-32.9 15.5-65.9 23.3-98.8 2.4-10.2 6.7-11.2 17-11.2h7.6c6.9.1 9 1.5 10.7 8.3 6 23.4 23.5 101.8 26.7 110.4 5.1-18.3-1.8 7.9 28.5-109 2.1-8.1 4.1-9.7 12.3-9.7h12.7c5.4.1 7 1.8 5.7 7.1-2.4 9.5-2.9 9.9-41.3 132.9-3.1 9.9-4.2 10.8-14.6 10.8h-10.6c-7.3 0-9.2-1.3-11-8.4-4.3-16.2-23.3-95.7-26.4-106.9zM125.4 247.3c4.2 5.8 8.1 6.3 14.1 2.4l6.3-4.2c6.8-4.5 7.3-6.3 3.6-13.5-4.3-8.4-6.4-17.3-6.3-26.9 0-3.1.6-55.7-.9-66.8-2.7-19.3-12.5-32.8-31.7-38.7-10.7-3.4-21.7-3.3-32.7-3-15.1.4-29.4 4.6-42.8 11.4-1.8.9-3.7 3.1-4.1 4.9-.8 3.9-1.1 8.1-.7 12.1.6 5.9 2.6 7 8.2 5.1 5.1-1.7 10-3.9 15.1-5.4 14.5-4.4 29.2-6.4 44.1-1.7 7.1 2.2 11.7 6.9 14.3 13.8 3 7.9 2.4 16.1 2.4 24.2 0 5.5-.1 5.5-5.5 4.5-13.9-2.6-27.7-5-41.9-3.1-15.2 2.1-28.6 7.3-38.2 20-9.1 12-10 25.6-7.4 39.5 2.8 15 11.8 25.7 26.4 30.4 20.6 6.7 40.1 3.3 57.7-9.5 3.8-2.8 7.2-6.2 11.1-9.5 3.1 5 5.8 9.7 8.9 14zm-15.3-61.6c3 .4 4.5 1.9 4.3 5.1-.2 3.8.1 7.6-.3 11.4-1.2 11.7-7.7 19.7-17.9 24.9-8.2 4.2-16.9 5.8-26.1 5-15.2-1.3-21-13.1-19.6-26.3C51.8 193.2 59 186.2 72 184c13.8-2.4 16-1.1 38.1 1.7zm348.8 65.1c21.3-8.6 32.9-26.2 29.2-50-2.2-14.6-11.8-24.2-25.2-29.5-14.7-5.9-33.8-10.3-48.1-18.2-4.4-2.4-7.4-6.3-7.6-11.9-.4-11.1 4.2-17.2 15.4-19.8 9.3-2.1 18.8-2.2 28.1-.4 7.3 1.4 14.3 4.2 21.4 6.3 2.8.9 5.9 2.1 7.8-1.6 3.8-7.3.4-18.7-7.3-21.8-22.5-9-45.5-11.6-68.2-1.6-14.6 6.4-24.6 17.4-26 34.2-1.6 19.3 6.9 33.4 24.1 41.7 7.7 3.7 16.1 5.9 24.2 8.9 8.1 3 16.2 5.8 24.1 9.1 12.3 5.3 11.6 24.2 1.2 30-27.7 15.3-64.9-2.4-69.2-3.8-3.3-1.1-5.3.2-6.3 3.7-3 11.3.7 18.8 11.6 22.7 21.7 7.9 49.6 10.5 70.8 2zM296 413.5c50.8-5.8 98.7-20.8 142.7-47 8-4.7 15.5-10.3 23.1-15.7 7.3-5.2 3.2-18.4-11.3-12.2-54.4 23.2-111.2 36.1-170.2 38.9-30.5 1.5-60.8-.3-91.1-4.7-63.1-9.2-122.4-29.2-177.6-61.2-2.1-1.2-4.2-2.5-6.5-3-4.9-1.1-7.7 4.7-2.4 9.7 24 22.1 50.3 40.8 79.1 55.7 53.7 27.7 110.5 42.7 171.2 42 14.4-.8 28.8-.9 43-2.5zm174.7-92.2c14.8.8 19.4 5.9 15.7 20.2-3.8 14.8-9.3 29.2-13.9 43.8-.9 2.9-4.2 6.3-.8 8.8 3.7 2.6 6.5-1 9-3.3 10.2-9.5 17.4-21 22.5-33.8 5.4-13.4 9.3-27.2 8.7-41.9-.2-6.2-1.8-8.8-7.8-10.5-5.4-1.5-11-2.8-16.5-3.2-21.6-1.8-42.5.5-62 10.6-3.1 1.6-6 3.7-8.7 5.9-1.1.9-3.2 5.3 2.4 6.1 1.9.3 3.9-.1 5.9-.3 16.9-1.6 28.6-3.3 45.5-2.4z"/></svg>