<svg xmlns="http://www.w3.org/2000/svg" viewBox="0 0 496 512"><path d="M254.8 214.8l-33.2 17.3c-9.4-19.6-25.2-19.9-27.5-19.9-22.1 0-33.2 14.6-33.2 43.8 0 23.6 9.2 43.8 33.2 43.8 14.5 0 24.7-7.1 30.6-21.3l30.6 15.5c-6.2 11.5-25.7 39-65.1 39-22.6 0-74-10.3-74-77.1 0-58.7 43-77.1 72.6-77.1 30.8.2 52.7 12.1 66 36zm143.1 0l-32.8 17.3c-9.5-19.8-25.7-19.9-27.9-19.9-22.1 0-33.2 14.6-33.2 43.8 0 23.6 9.2 43.8 33.2 43.8 14.5 0 24.6-7.1 30.5-21.3l31 15.5c-2.1 3.7-21.4 39-65.1 39-22.7 0-74-9.9-74-77.1 0-58.7 43-77.1 72.6-77.1 30.8.2 52.7 12.1 65.7 36zM247.6 8C389.4 8 496 118.1 496 256c0 147.1-118.5 248-248.4 248C113.6 504 0 394.5 0 256 0 123.1 104.7 8 247.6 8zm.8 44.7C130.2 52.7 44.7 150.6 44.7 256c0 109.8 91.2 202.8 203.7 202.8 103.2 0 202.8-81.1 202.8-202.8.1-113.8-90.2-203.3-202.8-203.3z"/></svg>