<svg xmlns="http://www.w3.org/2000/svg" viewBox="0 0 512 512"><path d="M255.547 8C392.884 8 504 114.439 504 256.004 504 405.979 381.106 504 255.562 504 122.319 504 8 394.557 8 256.004 8 124.825 113.486 8 255.547 8zm.899 44.734c-120.341 0-203.727 100.568-203.727 203.278 0 106.515 88.984 202.394 203.727 202.394 101.528 0 202.821-79.442 202.821-202.387-.001-114.773-91.773-203.285-202.821-203.285zm-3.108 162.093l-33.225 17.275c-5.395-11.203-15.25-19.926-27.459-19.926-22.134 0-33.217 14.609-33.217 43.842 0 23.842 9.446 43.842 33.217 43.842 14.469 0 24.653-7.091 30.566-21.259l30.551 15.5c-12.813 23.899-36.887 38.975-65.101 38.975-43.162 0-73.959-27.272-73.959-77.052 0-49.541 32.706-77.059 72.634-77.059 30.714-.013 52.701 11.946 65.993 35.862zm143.044 0l-32.775 17.275c-5.517-11.482-15.324-19.926-27.9-19.926-22.142 0-33.225 14.609-33.225 43.842 0 23.906 9.502 43.842 33.225 43.842 14.454 0 24.645-7.091 30.543-21.259l31 15.5c-13.363 23.869-37.451 38.975-65.086 38.975-43.439 0-73.959-26.988-73.959-77.052 0-49.523 32.698-77.059 72.626-77.059 30.706-.013 52.569 11.946 65.551 35.862z"/></svg>