<svg xmlns="http://www.w3.org/2000/svg" viewBox="0 0 640 512"><!--! Font Awesome Free 6.5.0 by @fontawesome - https://fontawesome.com License - https://fontawesome.com/license/free (Icons: CC BY 4.0, Fonts: SIL OFL 1.1, Code: MIT License) Copyright 2023 Fonticons, Inc. --><path d="M176 8c-6.6 0-12.4 4-14.9 10.1l-29.4 74L55.6 68.9c-6.3-1.9-13.1 .2-17.2 5.3s-4.6 12.2-1.4 17.9l39.5 69.1L10.9 206.4c-5.4 3.7-8 10.3-6.5 16.7s6.7 11.2 13.1 12.2l78.7 12.2L90.6 327c-.5 6.5 3.1 12.7 9 15.5s12.9 1.8 17.8-2.6l35.3-32.5 9.5-35.4 10.4-38.6c8-29.9 30.5-52.1 57.9-60.9l41-59.2c11.3-16.3 26.4-28.9 43.5-37.2c-.4-.6-.8-1.2-1.3-1.8c-4.1-5.1-10.9-7.2-17.2-5.3L220.3 92.1l-29.4-74C188.4 12 182.6 8 176 8zM367.7 161.5l135.6 36.3c6.5 1.8 11.3 7.4 11.8 14.2l4.6 56.5-201.5-54 32.2-46.6c3.8-5.6 10.8-8.1 17.3-6.4zm-69.9-30l-47.9 69.3c-21.6 3-40.3 18.6-46.3 41l-10.4 38.6-16.6 61.8-8.3 30.9c-4.6 17.1 5.6 34.6 22.6 39.2l15.5 4.1c17.1 4.6 34.6-5.6 39.2-22.6l8.3-30.9 247.3 66.3-8.3 30.9c-4.6 17.1 5.6 34.6 22.6 39.2l15.5 4.1c17.1 4.6 34.6-5.6 39.2-22.6l8.3-30.9L595 388l10.4-38.6c6-22.4-2.5-45.2-19.6-58.7l-6.8-84c-2.7-33.7-26.4-62-59-70.8L384.2 99.7c-32.7-8.8-67.3 4-86.5 31.8zm-17 131a24 24 0 1 1 -12.4 46.4 24 24 0 1 1 12.4-46.4zm217.9 83.2A24 24 0 1 1 545 358.1a24 24 0 1 1 -46.4-12.4z"/></svg>