<svg xmlns="http://www.w3.org/2000/svg" viewBox="0 0 512 512"><!--! Font Awesome Free 6.4.2 by @fontawesome - https://fontawesome.com License - https://fontawesome.com/license/free (Icons: CC BY 4.0, Fonts: SIL OFL 1.1, Code: MIT License) Copyright 2023 Fonticons, Inc. --><path d="M278.5 215.6L23 471c-9.4 9.4-9.4 24.6 0 33.9s24.6 9.4 33.9 0l74.8-74.8c7.4 4.6 15.3 8.2 23.8 10.5C200.3 452.8 270 454.5 338 409.4c12.2-8.1 5.8-25.4-8.8-25.4l-16.1 0c-5.1 0-9.2-4.1-9.2-9.2c0-4.1 2.7-7.6 6.5-8.8l97.7-29.3c3.4-1 6.4-3.1 8.4-6.1c4.4-6.4 8.6-12.9 12.6-19.6c6.2-10.3-1.5-23-13.5-23l-38.6 0c-5.1 0-9.2-4.1-9.2-9.2c0-4.1 2.7-7.6 6.5-8.8l80.9-24.3c4.6-1.4 8.4-4.8 10.2-9.3C494.5 163 507.8 86.1 511.9 36.8c.8-9.9-3-19.6-10-26.6s-16.7-10.8-26.6-10C391.5 7 228.5 40.5 137.4 131.6C57.3 211.7 56.7 302.3 71.3 356.4c2.1 7.9 12 9.6 17.8 3.8L253.6 195.8c6.2-6.2 16.4-6.2 22.6 0c5.4 5.4 6.1 13.6 2.2 19.8z"/></svg>