<svg xmlns="http://www.w3.org/2000/svg" viewBox="0 0 576 512"><!--! Font Awesome Free 6.5.0 by @fontawesome - https://fontawesome.com License - https://fontawesome.com/license/free (Icons: CC BY 4.0, Fonts: SIL OFL 1.1, Code: MIT License) Copyright 2023 Fonticons, Inc. --><path d="M224 0H352c17.7 0 32 14.3 32 32h75.1c20.6 0 31.6 24.3 18.1 39.8L456 96H120L98.8 71.8C85.3 56.3 96.3 32 116.9 32H192c0-17.7 14.3-32 32-32zM96 128H480c17.7 0 32 14.3 32 32V283.5c0 13.3-4.2 26.3-11.9 37.2l-51.4 71.9c-1.9 1.1-3.7 2.2-5.5 3.5c-15.5 10.7-34 18-51 19.9H375.6c-17.1-1.8-35-9-50.8-19.9c-22.1-15.5-51.6-15.5-73.7 0c-14.8 10.2-32.5 18-50.6 19.9H183.9c-17-1.8-35.6-9.2-51-19.9c-1.8-1.3-3.7-2.4-5.6-3.5L75.9 320.7C68.2 309.8 64 296.8 64 283.5V160c0-17.7 14.3-32 32-32zm32 64v96H448V192H128zM306.5 421.9C329 437.4 356.5 448 384 448c26.9 0 55.3-10.8 77.4-26.1l0 0c11.9-8.5 28.1-7.8 39.2 1.7c14.4 11.9 32.5 21 50.6 25.2c17.2 4 27.9 21.2 23.9 38.4s-21.2 27.9-38.4 23.9c-24.5-5.7-44.9-16.5-58.2-25C449.5 501.7 417 512 384 512c-31.9 0-60.6-9.9-80.4-18.9c-5.8-2.7-11.1-5.3-15.6-7.7c-4.5 2.4-9.7 5.1-15.6 7.7c-19.8 9-48.5 18.9-80.4 18.9c-33 0-65.5-10.3-94.5-25.8c-13.4 8.4-33.7 19.3-58.2 25c-17.2 4-34.4-6.7-38.4-23.9s6.7-34.4 23.9-38.4c18.1-4.2 36.2-13.3 50.6-25.2c11.1-9.4 27.3-10.1 39.2-1.7l0 0C136.7 437.2 165.1 448 192 448c27.5 0 55-10.6 77.5-26.1c11.1-7.9 25.9-7.9 37 0z"/></svg>