<svg xmlns="http://www.w3.org/2000/svg" viewBox="0 0 576 512"><!--! Font Awesome Free 6.4.2 by @fontawesome - https://fontawesome.com License - https://fontawesome.com/license/free (Icons: CC BY 4.0, Fonts: SIL OFL 1.1, Code: MIT License) Copyright 2023 Fonticons, Inc. --><path d="M275.2 38.4c-10.6-8-25-8.5-36.3-1.5S222 57.3 224.6 70.3l9.7 48.6c-19.4 9-36.9 19.9-52.4 31.5c-15.3 11.5-29 23.9-40.7 36.3L48.1 132.4c-12.5-7.3-28.4-5.3-38.7 4.9S-3 163.3 4.2 175.9L50 256 4.2 336.1c-7.2 12.6-5 28.4 5.3 38.6s26.1 12.2 38.7 4.9l93.1-54.3c11.8 12.3 25.4 24.8 40.7 36.3c15.5 11.6 33 22.5 52.4 31.5l-9.7 48.6c-2.6 13 3.1 26.3 14.3 33.3s25.6 6.5 36.3-1.5l77.6-58.2c54.9-4 101.5-27 137.2-53.8c39.2-29.4 67.2-64.7 81.6-89.5c5.8-9.9 5.8-22.2 0-32.1c-14.4-24.8-42.5-60.1-81.6-89.5c-35.8-26.8-82.3-49.8-137.2-53.8L275.2 38.4zM384 256a32 32 0 1 1 64 0 32 32 0 1 1 -64 0z"/></svg>