<svg xmlns="http://www.w3.org/2000/svg" viewBox="0 0 512 512"><!--! Font Awesome Free 6.5.0 by @fontawesome - https://fontawesome.com License - https://fontawesome.com/license/free (Icons: CC BY 4.0, Fonts: SIL OFL 1.1, Code: MIT License) Copyright 2023 Fonticons, Inc. --><path d="M32 96C14.3 96 0 110.3 0 128s14.3 32 32 32l208 0 0-64L32 96zM192 288c-17.7 0-32 14.3-32 32s14.3 32 32 32l64 0c17.7 0 32-14.3 32-32s-14.3-32-32-32l-64 0zm-64-64c0 17.7 14.3 32 32 32l48 0c17.7 0 32-14.3 32-32s-14.3-32-32-32l-48 0c-17.7 0-32 14.3-32 32zm96 160c-17.7 0-32 14.3-32 32s14.3 32 32 32l64 0c17.7 0 32-14.3 32-32s-14.3-32-32-32l-64 0zm88-96l-.6 0c5.4 9.4 8.6 20.3 8.6 32c0 13.2-4 25.4-10.8 35.6c24.9 8.7 42.8 32.5 42.8 60.4c0 11.7-3.1 22.6-8.6 32l8.6 0c88.4 0 160-71.6 160-160l0-61.7c0-42.4-16.9-83.1-46.9-113.1l-11.6-11.6C429.5 77.5 396.9 64 363 64l-27 0c-35.3 0-64 28.7-64 64l0 88c0 22.1 17.9 40 40 40s40-17.9 40-40l0-56c0-8.8 7.2-16 16-16s16 7.2 16 16l0 56c0 39.8-32.2 72-72 72z"/></svg>