<svg xmlns="http://www.w3.org/2000/svg" viewBox="0 0 576 512"><!--! Font Awesome Free 6.4.2 by @fontawesome - https://fontawesome.com License - https://fontawesome.com/license/free (Icons: CC BY 4.0, Fonts: SIL OFL 1.1, Code: MIT License) Copyright 2023 Fonticons, Inc. --><path d="M0 128C0 75 43 32 96 32H480c53 0 96 43 96 96V384c0 53-43 96-96 96H96c-53 0-96-43-96-96V128zm176 48v56c0 13.3 10.7 24 24 24h48c13.3 0 24-10.7 24-24V176c0-26.5-21.5-48-48-48s-48 21.5-48 48zm176-48c-26.5 0-48 21.5-48 48v56c0 13.3 10.7 24 24 24h48c13.3 0 24-10.7 24-24V176c0-26.5-21.5-48-48-48zM48 208v24c0 13.3 10.7 24 24 24h48c13.3 0 24-10.7 24-24V208c0-26.5-21.5-48-48-48s-48 21.5-48 48zM96 384c26.5 0 48-21.5 48-48V312c0-13.3-10.7-24-24-24H72c-13.3 0-24 10.7-24 24v24c0 26.5 21.5 48 48 48zm80-48c0 26.5 21.5 48 48 48s48-21.5 48-48V312c0-13.3-10.7-24-24-24H200c-13.3 0-24 10.7-24 24v24zm176 48c26.5 0 48-21.5 48-48V312c0-13.3-10.7-24-24-24H328c-13.3 0-24 10.7-24 24v24c0 26.5 21.5 48 48 48zm80-176v24c0 13.3 10.7 24 24 24h48c13.3 0 24-10.7 24-24V208c0-26.5-21.5-48-48-48s-48 21.5-48 48zm48 176c26.5 0 48-21.5 48-48V312c0-13.3-10.7-24-24-24H456c-13.3 0-24 10.7-24 24v24c0 26.5 21.5 48 48 48z"/></svg>