<svg xmlns="http://www.w3.org/2000/svg" viewBox="0 0 640 512"><!--! Font Awesome Free 6.5.0 by @fontawesome - https://fontawesome.com License - https://fontawesome.com/license/free (Icons: CC BY 4.0, Fonts: SIL OFL 1.1, Code: MIT License) Copyright 2023 Fonticons, Inc. --><path d="M48 48h88c13.3 0 24-10.7 24-24s-10.7-24-24-24H32C14.3 0 0 14.3 0 32V136c0 13.3 10.7 24 24 24s24-10.7 24-24V48zM175.8 224a48 48 0 1 0 0-96 48 48 0 1 0 0 96zm-26.5 32C119.9 256 96 279.9 96 309.3c0 14.7 11.9 26.7 26.7 26.7h56.1c8-34.1 32.8-61.7 65.2-73.6c-7.5-4.1-16.2-6.4-25.3-6.4H149.3zm368 80c14.7 0 26.7-11.9 26.7-26.7c0-29.5-23.9-53.3-53.3-53.3H421.3c-9.2 0-17.8 2.3-25.3 6.4c32.4 11.9 57.2 39.5 65.2 73.6h56.1zm-89.4 0c-8.6-24.3-29.9-42.6-55.9-47c-3.9-.7-7.9-1-12-1H280c-4.1 0-8.1 .3-12 1c-26 4.4-47.3 22.7-55.9 47c-2.7 7.5-4.1 15.6-4.1 24c0 13.3 10.7 24 24 24H408c13.3 0 24-10.7 24-24c0-8.4-1.4-16.5-4.1-24zM464 224a48 48 0 1 0 0-96 48 48 0 1 0 0 96zm-80-32a64 64 0 1 0 -128 0 64 64 0 1 0 128 0zM504 48h88v88c0 13.3 10.7 24 24 24s24-10.7 24-24V32c0-17.7-14.3-32-32-32H504c-13.3 0-24 10.7-24 24s10.7 24 24 24zM48 464V376c0-13.3-10.7-24-24-24s-24 10.7-24 24V480c0 17.7 14.3 32 32 32H136c13.3 0 24-10.7 24-24s-10.7-24-24-24H48zm456 0c-13.3 0-24 10.7-24 24s10.7 24 24 24H608c17.7 0 32-14.3 32-32V376c0-13.3-10.7-24-24-24s-24 10.7-24 24v88H504z"/></svg>