<svg xmlns="http://www.w3.org/2000/svg" viewBox="0 0 448 512"><!--! Font Awesome Free 6.4.2 by @fontawesome - https://fontawesome.com License - https://fontawesome.com/license/free (Icons: CC BY 4.0, Fonts: SIL OFL 1.1, Code: MIT License) Copyright 2023 Fonticons, Inc. --><path d="M240 80H342.7c-7.9-19.5-20.4-36.5-36.2-49.9L240 80zm37.7-68.2C261.3 4.2 243.2 0 224 0c-53.7 0-99.7 33.1-118.7 80h81.4l91-68.2zM224 256c70.7 0 128-57.3 128-128c0-5.4-.3-10.8-1-16H97c-.7 5.2-1 10.6-1 16c0 70.7 57.3 128 128 128zM124 312.4c-9.7 3.1-19.1 7-28 11.7V512H243.7L181.5 408.2 124 312.4zm33-7.2L204.3 384H272c44.2 0 80 35.8 80 80c0 18-6 34.6-16 48h82.3c16.4 0 29.7-13.3 29.7-29.7C448 383.8 368.2 304 269.7 304H178.3c-7.2 0-14.3 .4-21.3 1.3zM0 482.3C0 498.7 13.3 512 29.7 512H64V345.4C24.9 378.1 0 427.3 0 482.3zM320 464c0-26.5-21.5-48-48-48H223.5l57.1 95.2C303 507.2 320 487.6 320 464z"/></svg>