<svg xmlns="http://www.w3.org/2000/svg" viewBox="0 0 448 512"><!--! Font Awesome Free 6.2.0 by @fontawesome - https://fontawesome.com License - https://fontawesome.com/license/free (Icons: CC BY 4.0, Fonts: SIL OFL 1.1, Code: MIT License) Copyright 2022 Fonticons, Inc. --><path d="M64 64c0-17.7 14.3-32 32-32H336c13.2 0 25 8.1 29.8 20.4s1.5 26.3-8.2 35.2L226.3 208H248c75.1 0 136 60.9 136 136s-60.9 136-136 136H169.4c-42.4 0-81.2-24-100.2-61.9l-1.9-3.8c-7.9-15.8-1.5-35 14.3-42.9s35-1.5 42.9 14.3l1.9 3.8c8.1 16.3 24.8 26.5 42.9 26.5H248c39.8 0 72-32.2 72-72s-32.2-72-72-72H144c-13.2 0-25-8.1-29.8-20.4s-1.5-26.3 8.2-35.2L253.7 96H96C78.3 96 64 81.7 64 64z"/></svg>