<svg xmlns="http://www.w3.org/2000/svg" viewBox="0 0 320 512"><!--! Font Awesome Free 6.1.1 by @fontawesome - https://fontawesome.com License - https://fontawesome.com/license/free (Icons: CC BY 4.0, Fonts: SIL OFL 1.1, Code: MIT License) Copyright 2022 Fonticons, Inc. --><path d="M267.5 249.2C290 226.1 304 194.7 304 160c0-70.58-57.42-128-128-128h-32c-70.58 0-128 57.42-128 128c0 34.7 13.99 66.12 36.48 89.19C20.83 272.5 0 309.8 0 352c0 70.58 57.42 128 128 128h64c70.58 0 128-57.42 128-128C320 309.8 299.2 272.5 267.5 249.2zM144 96.01h32c35.3 0 64 28.7 64 64s-28.7 64-64 64h-32c-35.3 0-64-28.7-64-64S108.7 96.01 144 96.01zM192 416H128c-35.3 0-64-28.7-64-64s28.7-64 64-64h64c35.3 0 64 28.7 64 64S227.3 416 192 416z"/></svg>