<svg xmlns="http://www.w3.org/2000/svg" viewBox="0 0 512 512"><!--! Font Awesome Free 6.3.0 by @fontawesome - https://fontawesome.com License - https://fontawesome.com/license/free (Icons: CC BY 4.0, Fonts: SIL OFL 1.1, Code: MIT License) Copyright 2023 Fonticons, Inc. --><path d="M32 32C14.3 32 0 46.3 0 64S14.3 96 32 96H480c17.7 0 32-14.3 32-32s-14.3-32-32-32H32zm0 384c-17.7 0-32 14.3-32 32s14.3 32 32 32H96h64V352c0-53 43-96 96-96s96 43 96 96V480h64 64c17.7 0 32-14.3 32-32s-14.3-32-32-32V128H32V416z"/></svg>