<svg xmlns="http://www.w3.org/2000/svg" viewBox="0 0 640 512"><!--! Font Awesome Free 6.2.1 by @fontawesome - https://fontawesome.com License - https://fontawesome.com/license/free (Icons: CC BY 4.0, Fonts: SIL OFL 1.1, Code: MIT License) Copyright 2022 Fonticons, Inc. --><path d="M64 96l512 0c17.7 0 32-14.3 32-32s-14.3-32-32-32L64 32C46.3 32 32 46.3 32 64s14.3 32 32 32zM41.4 233.4c-12.5 12.5-12.5 32.8 0 45.3s32.8 12.5 45.3 0L128 237.3 128 448c0 17.7 14.3 32 32 32s32-14.3 32-32l0-210.7 41.4 41.4c12.5 12.5 32.8 12.5 45.3 0s12.5-32.8 0-45.3l-96-96c-12.5-12.5-32.8-12.5-45.3 0l-96 96zm320 45.3c12.5 12.5 32.8 12.5 45.3 0L448 237.3 448 448c0 17.7 14.3 32 32 32s32-14.3 32-32l0-210.7 41.4 41.4c12.5 12.5 32.8 12.5 45.3 0s12.5-32.8 0-45.3l-96-96c-12.5-12.5-32.8-12.5-45.3 0l-96 96c-12.5 12.5-12.5 32.8 0 45.3z"/></svg>