<svg xmlns="http://www.w3.org/2000/svg" viewBox="0 0 576 512"><!--! Font Awesome Free 6.1.0 by @fontawesome - https://fontawesome.com License - https://fontawesome.com/license/free (Icons: CC BY 4.0, Fonts: SIL OFL 1.1, Code: MIT License) Copyright 2022 Fonticons, Inc. --><path d="M416 288h-95.1c-17.67 0-32 14.33-32 32s14.33 32 32 32H416c17.67 0 32-14.33 32-32S433.7 288 416 288zM352 416h-32c-17.67 0-32 14.33-32 32s14.33 32 32 32h32c17.67 0 31.1-14.33 31.1-32S369.7 416 352 416zM480 160h-159.1c-17.67 0-32 14.33-32 32s14.33 32 32 32H480c17.67 0 32-14.33 32-32S497.7 160 480 160zM544 32h-223.1c-17.67 0-32 14.33-32 32s14.33 32 32 32H544c17.67 0 32-14.33 32-32S561.7 32 544 32zM151.6 41.95c-12.12-13.26-35.06-13.26-47.19 0l-87.1 96.09C4.475 151.1 5.35 171.4 18.38 183.3c6.141 5.629 13.89 8.414 21.61 8.414c8.672 0 17.3-3.504 23.61-10.39L96 145.9v302C96 465.7 110.3 480 128 480s32-14.33 32-32.03V145.9L192.4 181.3C204.4 194.3 224.6 195.3 237.6 183.3c13.03-11.95 13.9-32.22 1.969-45.27L151.6 41.95z"/></svg>