<svg xmlns="http://www.w3.org/2000/svg" viewBox="0 0 576 512"><!--! Font Awesome Free 6.2.0 by @fontawesome - https://fontawesome.com License - https://fontawesome.com/license/free (Icons: CC BY 4.0, Fonts: SIL OFL 1.1, Code: MIT License) Copyright 2022 Fonticons, Inc. --><path d="M112 0C85.5 0 64 21.5 64 48V256H48c-26.5 0-48 21.5-48 48v96c0 8 2 15.6 5.4 22.2c3.8-1.7 7.8-3.1 12-4.1c13.1-3.1 26.7-9.8 37.3-18.6c22.2-18.7 54.3-20.1 78.1-3.4c18 12.4 40.1 20.3 59.2 20.3c21.1 0 42-8.5 59.2-20.3c22.1-15.5 51.6-15.5 73.7 0c18.4 12.7 39.6 20.3 59.2 20.3c19 0 41.2-7.9 59.2-20.3c23.8-16.7 55.8-15.3 78.1 3.4c10.6 8.8 24.2 15.6 37.3 18.6c4.2 1 8.2 2.4 12 4.1C574 415.6 576 408 576 400V304c0-26.5-21.5-48-48-48H480l0-146.7 25.4 25.4c12.5 12.5 32.8 12.5 45.3 0s12.5-32.8 0-45.3l-80-80c-12.5-12.5-32.8-12.5-45.3 0l-80 80c-12.5 12.5-12.5 32.8 0 45.3s32.8 12.5 45.3 0L416 109.3 416 256H288V48c0-26.5-21.5-48-48-48H112zM306.5 421.9c-11.1-7.9-25.9-7.9-37 0C247 437.4 219.5 448 192 448c-26.9 0-55.3-10.8-77.4-26.1l0 0c-11.9-8.5-28.1-7.8-39.2 1.7c-14.4 11.9-32.5 21-50.6 25.2c-17.2 4-27.9 21.2-23.9 38.4s21.2 27.9 38.4 23.9c24.5-5.7 44.9-16.5 58.2-25C126.5 501.7 159 512 192 512c31.9 0 60.6-9.9 80.4-18.9c5.8-2.7 11.1-5.3 15.6-7.7c4.5 2.4 9.7 5.1 15.6 7.7c19.8 9 48.6 18.9 80.4 18.9c33 0 65.5-10.3 94.5-25.8c13.4 8.4 33.7 19.3 58.2 25c17.2 4 34.4-6.7 38.4-23.9s-6.7-34.4-23.9-38.4c-18.1-4.2-36.2-13.3-50.6-25.2c-11.1-9.4-27.3-10.1-39.2-1.7l0 0C439.4 437.2 410.9 448 384 448c-27.5 0-55-10.6-77.5-26.1z"/></svg>