<svg xmlns="http://www.w3.org/2000/svg" viewBox="0 0 384 512"><!--! Font Awesome Free 6.0.0 by @fontawesome - https://fontawesome.com License - https://fontawesome.com/license/free (Icons: CC BY 4.0, Fonts: SIL OFL 1.1, Code: MIT License) Copyright 2022 Fonticons, Inc. --><path d="M342.6 374.6l-128 128C208.4 508.9 200.2 512 191.1 512s-16.38-3.125-22.63-9.375l-127.1-128c-12.5-12.5-12.5-32.75 0-45.25s32.75-12.5 45.25 0L160 402.8V80C160 71.19 152.8 64 144 64H32C14.33 64 0 49.69 0 32s14.33-32 32-32h112C188.1 0 224 35.88 224 80v322.8l73.37-73.38c12.5-12.5 32.75-12.5 45.25 0S355.1 362.1 342.6 374.6z"/></svg>