<svg xmlns="http://www.w3.org/2000/svg" viewBox="0 0 640 512"><!--! Font Awesome Free 6.2.0 by @fontawesome - https://fontawesome.com License - https://fontawesome.com/license/free (Icons: CC BY 4.0, Fonts: SIL OFL 1.1, Code: MIT License) Copyright 2022 Fonticons, Inc. --><path d="M576 416L64 416c-17.7 0-32 14.3-32 32s14.3 32 32 32l512 0c17.7 0 32-14.3 32-32s-14.3-32-32-32zm22.6-137.4c12.5-12.5 12.5-32.8 0-45.3s-32.8-12.5-45.3 0L512 274.7 512 64c0-17.7-14.3-32-32-32s-32 14.3-32 32l0 210.7-41.4-41.4c-12.5-12.5-32.8-12.5-45.3 0s-12.5 32.8 0 45.3l96 96c12.5 12.5 32.8 12.5 45.3 0l96-96zm-320-45.3c-12.5-12.5-32.8-12.5-45.3 0L192 274.7 192 64c0-17.7-14.3-32-32-32s-32 14.3-32 32l0 210.7L86.6 233.4c-12.5-12.5-32.8-12.5-45.3 0s-12.5 32.8 0 45.3l96 96c12.5 12.5 32.8 12.5 45.3 0l96-96c12.5-12.5 12.5-32.8 0-45.3z"/></svg>