<svg xmlns="http://www.w3.org/2000/svg" viewBox="0 0 512 512"><!--! Font Awesome Free 6.2.1 by @fontawesome - https://fontawesome.com License - https://fontawesome.com/license/free (Icons: CC BY 4.0, Fonts: SIL OFL 1.1, Code: MIT License) Copyright 2022 Fonticons, Inc. --><path d="M329.4 9.4c12.5-12.5 32.8-12.5 45.3 0l96 96c12.5 12.5 12.5 32.8 0 45.3l-96 96c-12.5 12.5-32.8 12.5-45.3 0s-12.5-32.8 0-45.3L370.7 160H160c-35.3 0-64 28.7-64 64v32c0 17.7-14.3 32-32 32s-32-14.3-32-32V224C32 153.3 89.3 96 160 96H370.7L329.4 54.6c-12.5-12.5-12.5-32.8 0-45.3zm-96 256c12.5-12.5 32.8-12.5 45.3 0l96 96c12.5 12.5 12.5 32.8 0 45.3l-96 96c-12.5 12.5-32.8 12.5-45.3 0s-12.5-32.8 0-45.3L274.7 416H128c-17.7 0-32 14.3-32 32v32c0 17.7-14.3 32-32 32s-32-14.3-32-32V448c0-53 43-96 96-96H274.7l-41.4-41.4c-12.5-12.5-12.5-32.8 0-45.3z"/></svg>