<svg xmlns="http://www.w3.org/2000/svg" viewBox="0 0 576 512"><!--! Font Awesome Free 6.1.2 by @fontawesome - https://fontawesome.com License - https://fontawesome.com/license/free (Icons: CC BY 4.0, Fonts: SIL OFL 1.1, Code: MIT License) Copyright 2022 Fonticons, Inc. --><path d="M170.8 280H213.2L192 237.7L170.8 280zM512 32H64C28.65 32 0 60.65 0 96v320c0 35.35 28.65 64 64 64h448c35.35 0 64-28.65 64-64V96C576 60.65 547.3 32 512 32zM274.7 349.5C271.3 351.2 267.6 352 264 352c-8.812 0-17.28-4.859-21.5-13.27L233.2 320H150.8l-9.367 18.73c-5.906 11.86-20.31 16.7-32.19 10.73c-11.88-5.938-16.69-20.34-10.75-32.2l72-144c8.125-16.25 34.81-16.25 42.94 0l72 144C291.4 329.1 286.6 343.5 274.7 349.5zM384 352h-56c-13.25 0-24-10.75-24-24v-144C304 170.8 314.8 160 328 160H384c52.94 0 96 43.06 96 96S436.9 352 384 352zM384 208h-32v96h32c26.47 0 48-21.53 48-48S410.5 208 384 208z"/></svg>