<svg xmlns="http://www.w3.org/2000/svg" viewBox="0 0 512 512"><!--! Font Awesome Free 6.3.0 by @fontawesome - https://fontawesome.com License - https://fontawesome.com/license/free (Icons: CC BY 4.0, Fonts: SIL OFL 1.1, Code: MIT License) Copyright 2023 Fonticons, Inc. --><path d="M493.6 445c-11.2 5.3-24.5 3.6-34.1-4.4L288 297.7V416c0 12.4-7.2 23.7-18.4 29s-24.5 3.6-34.1-4.4L64 297.7V416c0 17.7-14.3 32-32 32s-32-14.3-32-32V96C0 78.3 14.3 64 32 64s32 14.3 32 32V214.3L235.5 71.4c9.5-7.9 22.8-9.7 34.1-4.4S288 83.6 288 96V214.3L459.5 71.4c9.5-7.9 22.8-9.7 34.1-4.4S512 83.6 512 96V416c0 12.4-7.2 23.7-18.4 29z"/></svg>