<svg xmlns="http://www.w3.org/2000/svg" viewBox="0 0 512 512"><!--! Font Awesome Free 6.1.2 by @fontawesome - https://fontawesome.com License - https://fontawesome.com/license/free (Icons: CC BY 4.0, Fonts: SIL OFL 1.1, Code: MIT License) Copyright 2022 Fonticons, Inc. --><path d="M96 304C96 312.8 103.3 320 112 320h117.5l-96-96H112C103.3 224 96 231.3 96 240V304zM256 0C114.6 0 0 114.6 0 256s114.6 256 256 256s256-114.6 256-256S397.4 0 256 0zM256 448c-105.9 0-192-86.13-192-192c0-41.38 13.25-79.75 35.75-111.1l267.4 267.4C335.8 434.8 297.4 448 256 448zM301.2 256H384v32h-50.81L301.2 256zM412.3 367.1L365.2 320H400c8.75 0 16-7.25 16-16v-64C416 231.3 408.8 224 400 224h-130.8L144.9 99.75C176.3 77.25 214.6 64 256 64C361.9 64 448 150.1 448 256C448 297.4 434.8 335.8 412.3 367.1zM320.6 128C305 128 292 116.8 289.3 102.1C288.5 98.5 285.3 96 281.5 96h-16.25c-5 0-8.625 4.5-8 9.375C261.9 136.3 288.5 160 320.6 160C336.3 160 349.3 171.3 352 185.9C352.8 189.5 356 192 359.8 192h16.17c5 0 8.708-4.5 7.958-9.375C379.3 151.7 352.8 128 320.6 128z"/></svg>