<svg xmlns="http://www.w3.org/2000/svg" viewBox="0 0 512 512"><!--! Font Awesome Free 6.5.1 by @fontawesome - https://fontawesome.com License - https://fontawesome.com/license/free (Icons: CC BY 4.0, Fonts: SIL OFL 1.1, Code: MIT License) Copyright 2023 Fonticons, Inc. --><path d="M96 77.3c0-7.3 5.9-13.3 13.3-13.3c3.5 0 6.9 1.4 9.4 3.9l14.9 14.9C130 91.8 128 101.7 128 112c0 19.9 7.2 38 19.2 52c-5.3 9.2-4 21.1 3.8 29c9.4 9.4 24.6 9.4 33.9 0L289 89c9.4-9.4 9.4-24.6 0-33.9c-7.9-7.9-19.8-9.1-29-3.8C246 39.2 227.9 32 208 32c-10.3 0-20.2 2-29.2 5.5L163.9 22.6C149.4 8.1 129.7 0 109.3 0C66.6 0 32 34.6 32 77.3V256c-17.7 0-32 14.3-32 32s14.3 32 32 32H480c17.7 0 32-14.3 32-32s-14.3-32-32-32H96V77.3zM32 352v16c0 28.4 12.4 54 32 71.6V480c0 17.7 14.3 32 32 32s32-14.3 32-32V464H384v16c0 17.7 14.3 32 32 32s32-14.3 32-32V439.6c19.6-17.6 32-43.1 32-71.6V352H32z"/></svg>