<svg xmlns="http://www.w3.org/2000/svg" viewBox="0 0 576 512"><!--! Font Awesome Free 6.2.1 by @fontawesome - https://fontawesome.com License - https://fontawesome.com/license/free (Icons: CC BY 4.0, Fonts: SIL OFL 1.1, Code: MIT License) Copyright 2022 Fonticons, Inc. --><path d="M0 176c0-44.2 35.8-80 80-80H464c44.2 0 80 35.8 80 80v16c17.7 0 32 14.3 32 32v64c0 17.7-14.3 32-32 32v16c0 44.2-35.8 80-80 80H80c-44.2 0-80-35.8-80-80V176zm80-16c-8.8 0-16 7.2-16 16V336c0 8.8 7.2 16 16 16H464c8.8 0 16-7.2 16-16V176c0-8.8-7.2-16-16-16H80zm368 32V320H96V192H448z"/></svg>