<svg xmlns="http://www.w3.org/2000/svg" viewBox="0 0 640 512"><!--! Font Awesome Free 6.2.1 by @fontawesome - https://fontawesome.com License - https://fontawesome.com/license/free (Icons: CC BY 4.0, Fonts: SIL OFL 1.1, Code: MIT License) Copyright 2022 Fonticons, Inc. --><path d="M483.2 9.6L524 64h92c13.3 0 24 10.7 24 24s-10.7 24-24 24H512c-7.6 0-14.7-3.6-19.2-9.6L468.7 70.3l-47 99.9c-3.7 7.8-11.3 13.1-19.9 13.7s-16.9-3.4-21.7-10.6L339.2 112H216c-13.3 0-24-10.7-24-24s10.7-24 24-24H352c8 0 15.5 4 20 10.7l24.4 36.6 45.9-97.5C445.9 6.2 453.2 1 461.6 .1s16.6 2.7 21.6 9.5zM320 160h12.7l20.7 31.1c11.2 16.8 30.6 26.3 50.7 24.8s37.9-13.7 46.5-32L461.9 160H544c53 0 96 43 96 96V480c0 17.7-14.3 32-32 32s-32-14.3-32-32V448H352 320 64v32c0 17.7-14.3 32-32 32s-32-14.3-32-32V96C0 78.3 14.3 64 32 64s32 14.3 32 32V352H288V192c0-17.7 14.3-32 32-32zM176 320c-44.2 0-80-35.8-80-80s35.8-80 80-80s80 35.8 80 80s-35.8 80-80 80z"/></svg>