<svg xmlns="http://www.w3.org/2000/svg" viewBox="0 0 512 512"><!--! Font Awesome Free 6.3.0 by @fontawesome - https://fontawesome.com License - https://fontawesome.com/license/free (Icons: CC BY 4.0, Fonts: SIL OFL 1.1, Code: MIT License) Copyright 2023 Fonticons, Inc. --><path d="M0 64C0 28.7 28.7 0 64 0h64 32H470.1c21.1 0 36.4 20.1 30.9 40.4L494.5 64H336c-8.8 0-16 7.2-16 16s7.2 16 16 16H485.8l-17.5 64H336c-8.8 0-16 7.2-16 16s7.2 16 16 16H459.6l-17.5 64H336c-8.8 0-16 7.2-16 16s7.2 16 16 16h97.5L416 352H160l-8.7-96H64c-35.3 0-64-28.7-64-64V64zM145.5 192L133.8 64H64V192h81.5zM144 384H432c26.5 0 48 21.5 48 48v32c0 26.5-21.5 48-48 48H144c-26.5 0-48-21.5-48-48V432c0-26.5 21.5-48 48-48zm144 96a32 32 0 1 0 0-64 32 32 0 1 0 0 64z"/></svg>