<svg xmlns="http://www.w3.org/2000/svg" viewBox="0 0 448 512"><!--! Font Awesome Free 6.3.0 by @fontawesome - https://fontawesome.com License - https://fontawesome.com/license/free (Icons: CC BY 4.0, Fonts: SIL OFL 1.1, Code: MIT License) Copyright 2023 Fonticons, Inc. --><path d="M32 416a32 32 0 1 0 0 64 32 32 0 1 0 0-64zm96 64a32 32 0 1 0 0-64 32 32 0 1 0 0 64zm0-384a32 32 0 1 0 0-64 32 32 0 1 0 0 64zm0 128a32 32 0 1 0 0 64 32 32 0 1 0 0-64zM320 480a32 32 0 1 0 0-64 32 32 0 1 0 0 64zm0-448a32 32 0 1 0 0 64 32 32 0 1 0 0-64zm0 256a32 32 0 1 0 0-64 32 32 0 1 0 0 64zM224 416a32 32 0 1 0 0 64 32 32 0 1 0 0-64zm0-320a32 32 0 1 0 0-64 32 32 0 1 0 0 64zm0 128a32 32 0 1 0 0 64 32 32 0 1 0 0-64zM416 480a32 32 0 1 0 0-64 32 32 0 1 0 0 64zm0-384a32 32 0 1 0 0-64 32 32 0 1 0 0 64zM32 32a32 32 0 1 0 0 64 32 32 0 1 0 0-64zM416 288a32 32 0 1 0 0-64 32 32 0 1 0 0 64zM32 224a32 32 0 1 0 0 64 32 32 0 1 0 0-64zM224 384a32 32 0 1 0 0-64 32 32 0 1 0 0 64zm192-64a32 32 0 1 0 0 64 32 32 0 1 0 0-64zM32 384a32 32 0 1 0 0-64 32 32 0 1 0 0 64zM416 128a32 32 0 1 0 0 64 32 32 0 1 0 0-64zM32 192a32 32 0 1 0 0-64 32 32 0 1 0 0 64zm192-64a32 32 0 1 0 0 64 32 32 0 1 0 0-64z"/></svg>