<svg xmlns="http://www.w3.org/2000/svg" viewBox="0 0 576 512"><!--! Font Awesome Free 6.2.0 by @fontawesome - https://fontawesome.com License - https://fontawesome.com/license/free (Icons: CC BY 4.0, Fonts: SIL OFL 1.1, Code: MIT License) Copyright 2022 Fonticons, Inc. --><path d="M160 48c0-26.5 21.5-48 48-48h48V80c0 8.8 7.2 16 16 16h32c8.8 0 16-7.2 16-16V0h48c26.5 0 48 21.5 48 48V176c0 26.5-21.5 48-48 48H208c-26.5 0-48-21.5-48-48V48zM48 288H96v80c0 8.8 7.2 16 16 16h32c8.8 0 16-7.2 16-16V288h48c26.5 0 48 21.5 48 48V464c0 26.5-21.5 48-48 48H48c-26.5 0-48-21.5-48-48V336c0-26.5 21.5-48 48-48zm320 0h48v80c0 8.8 7.2 16 16 16h32c8.8 0 16-7.2 16-16V288h48c26.5 0 48 21.5 48 48V464c0 26.5-21.5 48-48 48H368c-26.5 0-48-21.5-48-48V336c0-26.5 21.5-48 48-48z"/></svg>