<svg xmlns="http://www.w3.org/2000/svg" viewBox="0 0 512 512"><!--! Font Awesome Free 6.0.0 by @fontawesome - https://fontawesome.com License - https://fontawesome.com/license/free (Icons: CC BY 4.0, Fonts: SIL OFL 1.1, Code: MIT License) Copyright 2022 Fonticons, Inc. --><path d="M464 96h-88l-12.38-32.88C356.6 44.38 338.8 32 318.8 32h-125.5c-20 0-38 12.38-45 31.12L136 96H48C21.5 96 0 117.5 0 144v288C0 458.5 21.5 480 48 480h416c26.5 0 48-21.5 48-48v-288C512 117.5 490.5 96 464 96zM356.9 366.8C332.4 398.1 295.7 416 256 416c-31.78 0-61.37-11.94-84.58-32.61l-19.28 19.29C143.2 411.6 128 405.3 128 392.7V316.3c0-5.453 4.359-9.838 9.775-9.99h76.98c12.35 .3027 18.47 15.27 9.654 24.09l-19.27 19.28C219.3 361.4 237.1 368 256 368c24.8 0 47.78-11.22 63.08-30.78c8.172-10.44 23.25-12.28 33.69-4.125S365.1 356.3 356.9 366.8zM384 259.7c0 5.453-4.359 9.838-9.775 9.99h-76.98c-12.35-.3027-18.47-15.27-9.654-24.09l19.27-19.28C292.7 214.6 274.9 208 256 208c-24.8 0-47.78 11.22-63.08 30.78C184.8 249.2 169.7 251.1 159.2 242.9C148.8 234.8 146.9 219.7 155.1 209.2C179.6 177.9 216.3 160 256 160c31.78 0 61.37 11.94 84.58 32.61l19.28-19.29C368.8 164.4 384 170.7 384 183.3V259.7z"/></svg>