<svg xmlns="http://www.w3.org/2000/svg" viewBox="0 0 576 512"><!--! Font Awesome Free 6.1.2 by @fontawesome - https://fontawesome.com License - https://fontawesome.com/license/free (Icons: CC BY 4.0, Fonts: SIL OFL 1.1, Code: MIT License) Copyright 2022 Fonticons, Inc. --><path d="M555.3 300.1L424.3 112.8C401.9 81 366.4 64 330.4 64c-22.63 0-45.5 6.75-65.5 20.75C245.2 98.5 231.2 117.5 223.4 138.5C220.5 79.25 171.1 32 111.1 32c-61.88 0-111.1 50.08-111.1 111.1L-.0028 368c0 61.88 50.12 112 112 112s112-50.13 112-112L223.1 218.9C227.2 227.5 231.2 236 236.7 243.9l131.3 187.4C390.3 463 425.8 480 461.8 480c22.75 0 45.5-6.75 65.5-20.75C579 423.1 591.5 351.8 555.3 300.1zM159.1 256H63.99V144c0-26.5 21.5-48 48-48s48 21.5 48 48V256zM354.8 300.9l-65.5-93.63c-7.75-11-10.75-24.5-8.375-37.63c2.375-13.25 9.75-24.87 20.75-32.5C310.1 131.1 320.1 128 330.4 128c16.5 0 31.88 8 41.38 21.5l65.5 93.75L354.8 300.9z"/></svg>