<svg xmlns="http://www.w3.org/2000/svg" viewBox="0 0 576 512"><!--! Font Awesome Free 6.2.0 by @fontawesome - https://fontawesome.com License - https://fontawesome.com/license/free (Icons: CC BY 4.0, Fonts: SIL OFL 1.1, Code: MIT License) Copyright 2022 Fonticons, Inc. --><path d="M24 0C10.7 0 0 10.7 0 24S10.7 48 24 48H76.1l60.3 316.5c2.2 11.3 12.1 19.5 23.6 19.5H488c13.3 0 24-10.7 24-24s-10.7-24-24-24H179.9l-9.1-48h317c14.3 0 26.9-9.5 30.8-23.3l54-192C578.3 52.3 563 32 541.8 32H122l-2.4-12.5C117.4 8.2 107.5 0 96 0H24zM176 512c26.5 0 48-21.5 48-48s-21.5-48-48-48s-48 21.5-48 48s21.5 48 48 48zm336-48c0-26.5-21.5-48-48-48s-48 21.5-48 48s21.5 48 48 48s48-21.5 48-48zM252 160c0-11 9-20 20-20h44V96c0-11 9-20 20-20s20 9 20 20v44h44c11 0 20 9 20 20s-9 20-20 20H356v44c0 11-9 20-20 20s-20-9-20-20V180H272c-11 0-20-9-20-20z"/></svg>