<svg xmlns="http://www.w3.org/2000/svg" viewBox="0 0 448 512"><!--! Font Awesome Free 6.1.1 by @fontawesome - https://fontawesome.com License - https://fontawesome.com/license/free (Icons: CC BY 4.0, Fonts: SIL OFL 1.1, Code: MIT License) Copyright 2022 Fonticons, Inc. --><path d="M445.1 338.6l-14.77-32C425.1 295.3 413.7 288 401.2 288H46.76C34.28 288 22.94 295.3 17.7 306.6l-14.77 32c-4.563 9.906-3.766 21.47 2.109 30.66S21.09 384 31.1 384l.001 112c0 8.836 7.164 16 16 16h32c8.838 0 16-7.164 16-16V384h256v112c0 8.836 7.164 16 16 16h31.1c8.838 0 16-7.164 16-16L416 384c10.91 0 21.08-5.562 26.95-14.75S449.6 348.5 445.1 338.6zM111.1 128c0-29.48 16.2-54.1 40-68.87L151.1 256h48l.0092-208h48L247.1 256h48l.0093-196.9C319.8 73 335.1 98.52 335.1 128l-.0094 128h48.03l-.0123-128c0-70.69-57.31-128-128-128H191.1C121.3 0 63.98 57.31 63.98 128l.0158 128h47.97L111.1 128z"/></svg>