<svg xmlns="http://www.w3.org/2000/svg" viewBox="0 0 448 512"><!--! Font Awesome Free 6.1.2 by @fontawesome - https://fontawesome.com License - https://fontawesome.com/license/free (Icons: CC BY 4.0, Fonts: SIL OFL 1.1, Code: MIT License) Copyright 2022 Fonticons, Inc. --><path d="M367.1 448H79.97c-26.51 0-48.01 21.49-48.01 47.1C31.96 504.8 39.13 512 47.96 512h352c8.838 0 16-7.163 16-16C416 469.5 394.5 448 367.1 448zM416.1 160h-160V112h16.01c17.6 0 31.98-14.4 31.98-32C303.1 62.4 289.6 48 272 48h-16.01V32C256 14.4 241.6 0 223.1 0C206.4 0 191.1 14.4 191.1 32.01V48H175.1c-17.6 0-32.01 14.4-32.01 32C143.1 97.6 158.4 112 175.1 112h16.01V160h-160C17.34 160 0 171.5 0 192C0 195.2 .4735 198.4 1.437 201.5L74.46 416h299.1l73.02-214.5C447.5 198.4 448 195.2 448 192C448 171.6 430.1 160 416.1 160z"/></svg>