<svg xmlns="http://www.w3.org/2000/svg" viewBox="0 0 384 512"><!--! Font Awesome Free 6.2.0 by @fontawesome - https://fontawesome.com License - https://fontawesome.com/license/free (Icons: CC BY 4.0, Fonts: SIL OFL 1.1, Code: MIT License) Copyright 2022 Fonticons, Inc. --><path d="M0 204.2V48c0-8.8 7.2-16 16-16H72c8.8 0 16 7.2 16 16V88c0 4.4 3.6 8 8 8h32c4.4 0 8-3.6 8-8V48c0-8.8 7.2-16 16-16h80c8.8 0 16 7.2 16 16V88c0 4.4 3.6 8 8 8h32c4.4 0 8-3.6 8-8V48c0-8.8 7.2-16 16-16h56c8.8 0 16 7.2 16 16V204.2c0 12.1-6.8 23.2-17.7 28.6l-28.6 14.3c-10.8 5.4-17.7 16.5-17.5 28.6C322.2 360.7 336 416 336 416H48s13.8-55.3 15.8-140.2c.3-12.1-6.6-23.2-17.5-28.6L17.7 232.8C6.8 227.4 0 216.3 0 204.2zM176 320h32c8.8 0 16-7.2 16-16V256c0-17.7-14.3-32-32-32s-32 14.3-32 32v48c0 8.8 7.2 16 16 16zM32 448H352c17.7 0 32 14.3 32 32s-14.3 32-32 32H32c-17.7 0-32-14.3-32-32s14.3-32 32-32z"/></svg>