<svg xmlns="http://www.w3.org/2000/svg" viewBox="0 0 320 512"><!--! Font Awesome Free 6.0.0 by @fontawesome - https://fontawesome.com License - https://fontawesome.com/license/free (Icons: CC BY 4.0, Fonts: SIL OFL 1.1, Code: MIT License) Copyright 2022 Fonticons, Inc. --><path d="M272 448h-224C21.49 448 0 469.5 0 496C0 504.8 7.164 512 16 512h288c8.836 0 16-7.164 16-16C320 469.5 298.5 448 272 448zM8 287.9c0 51.63 22.12 73.88 56 84.63V416h192v-43.5c33.88-10.75 56-33 56-84.63c0-30.62-10.75-67.13-26.75-102.5L185 285.6c-1.565 1.565-3.608 2.349-5.651 2.349c-2.036 0-4.071-.7787-5.63-2.339l-11.35-11.27c-1.56-1.56-2.339-3.616-2.339-5.672c0-2.063 .7839-4.128 2.349-5.693l107.9-107.9C249.5 117.3 223.8 83 199.4 62.5C213.4 59.13 224 47 224 32c0-17.62-14.38-32-32-32H128C110.4 0 96 14.38 96 32c0 15 10.62 27.12 24.62 30.5C67.75 106.8 8 214.5 8 287.9z"/></svg>