<svg xmlns="http://www.w3.org/2000/svg" viewBox="0 0 320 512"><!--! Font Awesome Free 6.0.0 by @fontawesome - https://fontawesome.com License - https://fontawesome.com/license/free (Icons: CC BY 4.0, Fonts: SIL OFL 1.1, Code: MIT License) Copyright 2022 Fonticons, Inc. --><path d="M105.1 224H80C71.12 224 64 231.1 64 240v32c0 8.875 7.125 15.1 16 15.1L96 288v5.5C96 337.5 91.88 380.1 72 416h176C228.1 380.1 224 337.5 224 293.5V288l16-.0001c8.875 0 16-7.125 16-15.1v-32C256 231.1 248.9 224 240 224h-25.12C244.3 205.6 264 173.2 264 136C264 78.5 217.5 32 159.1 32S56 78.5 56 136C56 173.2 75.74 205.6 105.1 224zM272 448H47.1C21.49 448 0 469.5 0 495.1C0 504.8 7.163 512 16 512h288c8.837 0 16-7.163 16-16C320 469.5 298.5 448 272 448z"/></svg>