<svg xmlns="http://www.w3.org/2000/svg" viewBox="0 0 512 512"><!--! Font Awesome Free 6.2.0 by @fontawesome - https://fontawesome.com License - https://fontawesome.com/license/free (Icons: CC BY 4.0, Fonts: SIL OFL 1.1, Code: MIT License) Copyright 2022 Fonticons, Inc. --><path d="M256 512c141.4 0 256-114.6 256-256S397.4 0 256 0S0 114.6 0 256S114.6 512 256 512zM385 215c9.4 9.4 9.4 24.6 0 33.9s-24.6 9.4-33.9 0l-71-71V392c0 13.3-10.7 24-24 24s-24-10.7-24-24V177.9l-71 71c-9.4 9.4-24.6 9.4-33.9 0s-9.4-24.6 0-33.9L239 103c9.4-9.4 24.6-9.4 33.9 0L385 215z"/></svg>