<svg xmlns="http://www.w3.org/2000/svg" viewBox="0 0 512 512"><!--! Font Awesome Free 6.2.1 by @fontawesome - https://fontawesome.com License - https://fontawesome.com/license/free (Icons: CC BY 4.0, Fonts: SIL OFL 1.1, Code: MIT License) Copyright 2022 Fonticons, Inc. --><path d="M256 448C150 448 64 362 64 256S150 64 256 64s192 86 192 192s-86 192-192 192zm0 64c141.4 0 256-114.6 256-256S397.4 0 256 0S0 114.6 0 256S114.6 512 256 512zM200 256c0-20.7 11.3-38.8 28-48.5l-36-62.3c-8.8-15.3-28.7-20.8-42-9c-25.6 22.6-43.9 53.3-50.9 88.1C95.7 241.5 110.3 256 128 256l72 0zm28 48.5l-36 62.4c-8.8 15.3-3.6 35.2 13.1 40.8c16 5.4 33.1 8.3 50.9 8.3s34.9-2.9 50.9-8.3c16.7-5.6 21.9-25.5 13.1-40.8l-36-62.4c-8.2 4.8-17.8 7.5-28 7.5s-19.8-2.7-28-7.5zM312 256l72 0c17.7 0 32.3-14.5 28.8-31.8c-7-34.8-25.3-65.5-50.9-88.1c-13.2-11.7-33.1-6.3-42 9l-36 62.3c16.7 9.7 28 27.8 28 48.5zm-56 32c17.7 0 32-14.3 32-32s-14.3-32-32-32s-32 14.3-32 32s14.3 32 32 32z"/></svg>