<svg xmlns="http://www.w3.org/2000/svg" viewBox="0 0 512 512"><!--! Font Awesome Free 6.3.0 by @fontawesome - https://fontawesome.com License - https://fontawesome.com/license/free (Icons: CC BY 4.0, Fonts: SIL OFL 1.1, Code: MIT License) Copyright 2023 Fonticons, Inc. --><path d="M0 448c0 35.3 28.7 64 64 64H288c35.3 0 64-28.7 64-64V384H224c-53 0-96-43-96-96V160H64c-35.3 0-64 28.7-64 64V448zm224-96H448c35.3 0 64-28.7 64-64V64c0-35.3-28.7-64-64-64H224c-35.3 0-64 28.7-64 64V288c0 35.3 28.7 64 64 64z"/></svg>