<svg xmlns="http://www.w3.org/2000/svg" viewBox="0 0 576 512"><!--! Font Awesome Free 6.1.1 by @fontawesome - https://fontawesome.com License - https://fontawesome.com/license/free (Icons: CC BY 4.0, Fonts: SIL OFL 1.1, Code: MIT License) Copyright 2022 Fonticons, Inc. --><path d="M342.7 352.7c5.75-9.625 9.25-20.75 9.25-32.75c0-35.25-28.75-64-63.1-64c-17.25 0-32.75 6.875-44.25 17.87C227.4 244.2 196.2 223.1 159.1 223.1c-53 0-96 43.06-96 96.06c0 2 .5029 3.687 .6279 5.687c-37.5 13-64.62 48.38-64.62 90.25C-.0048 468.1 42.99 512 95.99 512h239.1c44.25 0 79.1-35.75 79.1-80C415.1 390.1 383.7 356.2 342.7 352.7zM565.2 298.4c-93 17.75-178.5-53.62-178.5-147.6c0-54.25 28.1-104 76.12-130.9c7.375-4.125 5.375-15.12-2.75-16.63C448.4 1.125 436.7 0 424.1 0c-105.9 0-191.9 85.88-191.9 192c0 8.5 .625 16.75 1.75 25c5.875 4.25 11.62 8.875 16.75 14.25C262.1 226.5 275.2 224 287.1 224c52.88 0 95.1 43.13 95.1 96c0 3.625-.25 7.25-.625 10.75c23.62 10.75 42.37 29.5 53.5 52.5c54.38-3.375 103.7-29.25 137.1-70.37C579.2 306.4 573.5 296.8 565.2 298.4z"/></svg>