<svg xmlns="http://www.w3.org/2000/svg" viewBox="0 0 640 512"><!--! Font Awesome Free 6.4.2 by @fontawesome - https://fontawesome.com License - https://fontawesome.com/license/free (Icons: CC BY 4.0, Fonts: SIL OFL 1.1, Code: MIT License) Copyright 2023 Fonticons, Inc. --><path d="M495.8 0c5.5 0 10.9 .2 16.3 .7c7 .6 12.8 5.7 14.3 12.5s-1.6 13.9-7.7 17.3c-44.4 25.2-74.4 73-74.4 127.8c0 81 65.5 146.6 146.2 146.6c8.6 0 17-.7 25.1-2.1c6.9-1.2 13.8 2.2 17 8.5s1.9 13.8-3.1 18.7c-34.5 33.6-81.7 54.4-133.6 54.4c-9.3 0-18.4-.7-27.4-1.9c-11.2-22.6-29.8-40.9-52.6-51.7c-2.7-58.5-50.3-105.3-109.2-106.7c-1.7-10.4-2.6-21-2.6-31.8C304 86.1 389.8 0 495.8 0zM447.9 431.9c0 44.2-35.8 80-80 80H96c-53 0-96-43-96-96c0-47.6 34.6-87 80-94.6l0-1.3c0-53 43-96 96-96c34.9 0 65.4 18.6 82.2 46.4c13-9.1 28.8-14.4 45.8-14.4c44.2 0 80 35.8 80 80c0 5.9-.6 11.7-1.9 17.2c37.4 6.7 65.8 39.4 65.8 78.7z"/></svg>