<svg xmlns="http://www.w3.org/2000/svg" viewBox="0 0 576 512"><!--! Font Awesome Free 6.1.2 by @fontawesome - https://fontawesome.com License - https://fontawesome.com/license/free (Icons: CC BY 4.0, Fonts: SIL OFL 1.1, Code: MIT License) Copyright 2022 Fonticons, Inc. --><path d="M350.5 225.5c-6.876-37.25-39.25-65.5-78.51-65.5c-12.25 0-23.88 2.1-34.25 7.1C220.3 143.9 192.1 128 160 128c-53.01 0-96.01 42.1-96.01 95.1c0 .5 .25 1.125 .25 1.625C27.63 232.9 0 265.3 0 304c0 44.25 35.75 79.1 80.01 79.1h256c44.25 0 80.01-35.75 80.01-79.1C416 264.8 387.8 232.3 350.5 225.5zM567.9 223.8C497.6 237.1 432.9 183.5 432.9 113c0-40.63 21.88-78 57.5-98.13c5.501-3.125 4.077-11.37-2.173-12.5C479.6 .7538 470.8 0 461.8 0c-77.88 0-141.1 61.25-144.4 137.9c26.75 11.88 48.26 33.88 58.88 61.75c37.13 14.25 64.01 47.38 70.26 86.75c5.126 .5 10.05 1.522 15.3 1.522c44.63 0 85.46-20.15 112.5-53.27C578.6 229.8 574.2 222.6 567.9 223.8zM340.1 426.7l-32 48c-7.345 11.03-4.376 25.94 6.657 33.28C318.8 510.7 323.4 512 327.1 512c7.751 0 15.38-3.75 20-10.69l32-48c7.345-11.03 4.376-25.94-6.657-33.28C362.3 412.7 347.4 415.7 340.1 426.7zM244 426.7l-32 48c-7.345 11.03-4.376 25.94 6.657 33.28C222.8 510.7 227.4 512 231.1 512c7.751 0 15.38-3.75 20-10.69l32-48c7.345-11.03 4.376-25.94-6.657-33.28C266.3 412.7 251.4 415.7 244 426.7zM148 426.7l-32 48c-7.345 11.03-4.376 25.94 6.657 33.28C126.8 510.7 131.4 512 135.1 512c7.751 0 15.38-3.75 20-10.69l32-48c7.345-11.03 4.376-25.94-6.657-33.28C170.3 412.7 155.4 415.7 148 426.7zM52.03 426.7l-32 48c-7.345 11.03-4.376 25.94 6.657 33.28C30.78 510.7 35.41 512 39.97 512c7.751 0 15.38-3.75 20-10.69l32-48c7.345-11.03 4.376-25.94-6.657-33.28C74.25 412.7 59.41 415.7 52.03 426.7z"/></svg>