<svg xmlns="http://www.w3.org/2000/svg" viewBox="0 0 448 512"><!--! Font Awesome Free 6.2.1 by @fontawesome - https://fontawesome.com License - https://fontawesome.com/license/free (Icons: CC BY 4.0, Fonts: SIL OFL 1.1, Code: MIT License) Copyright 2022 Fonticons, Inc. --><path d="M80 104c-13.3 0-24-10.7-24-24s10.7-24 24-24s24 10.7 24 24s-10.7 24-24 24zm32.4 49.2c28-12.4 47.6-40.5 47.6-73.2c0-44.2-35.8-80-80-80S0 35.8 0 80c0 32.8 19.7 61 48 73.3V358.7C19.7 371 0 399.2 0 432c0 44.2 35.8 80 80 80s80-35.8 80-80c0-32.8-19.7-61-48-73.3V272c26.7 20.1 60 32 96 32h86.7c12.3 28.3 40.5 48 73.3 48c44.2 0 80-35.8 80-80s-35.8-80-80-80c-32.8 0-61 19.7-73.3 48H208c-49.9 0-91-38.1-95.6-86.8zM80 456c-13.3 0-24-10.7-24-24s10.7-24 24-24s24 10.7 24 24s-10.7 24-24 24zM392 272c0 13.3-10.7 24-24 24s-24-10.7-24-24s10.7-24 24-24s24 10.7 24 24z"/></svg>