<svg xmlns="http://www.w3.org/2000/svg" viewBox="0 0 640 512"><!--! Font Awesome Free 6.1.1 by @fontawesome - https://fontawesome.com License - https://fontawesome.com/license/free (Icons: CC BY 4.0, Fonts: SIL OFL 1.1, Code: MIT License) Copyright 2022 Fonticons, Inc. --><path d="M634 276.8l-9.999-13.88L624 185.7c0-11.88-12.5-19.49-23.12-14.11c-10.88 5.375-19.5 13.5-26.38 23l-65.75-90.92C490.6 78.71 461.8 64 431 64H112C63.37 64 24 103.4 24 152v86.38C9.5 250.1 0 267.9 0 288v32h8c35.38 0 64-28.62 64-64L72 152c0-16.88 10.5-31.12 25.38-37C96.5 119.1 96 123.5 96 128l.0002 304c0 8.875 7.126 16 16 16h63.1c8.875 0 16-7.125 16-16l.0006-112c9.375 9.375 20.25 16.5 32 21.88V368c0 8.875 7.252 16 16 16c8.875 0 15.1-7.125 15.1-16v-17.25c9.125 1 12.88 2.25 32-.125V368c0 8.875 7.25 16 16 16c8.875 0 16-7.125 16-16v-26.12C331.8 336.5 342.6 329.2 352 320l-.0012 112c0 8.875 7.125 16 15.1 16h64c8.75 0 16-7.125 16-16V256l31.1 32l.0006 41.55c0 12.62 3.752 24.95 10.75 35.45l41.25 62C540.8 440.1 555.5 448 571.4 448c22.5 0 41.88-15.88 46.25-38l21.75-108.6C641.1 292.8 639.1 283.9 634 276.8zM377.3 167.4l-22.88 22.75C332.5 211.8 302.9 224 272.1 224S211.5 211.8 189.6 190.1L166.8 167.4C151 151.8 164.4 128 188.9 128h166.2C379.6 128 393 151.8 377.3 167.4zM576 352c-8.875 0-16-7.125-16-16s7.125-16 16-16s16 7.125 16 16S584.9 352 576 352z"/></svg>