<svg xmlns="http://www.w3.org/2000/svg" viewBox="0 0 512 512"><!--! Font Awesome Free 6.2.0 by @fontawesome - https://fontawesome.com License - https://fontawesome.com/license/free (Icons: CC BY 4.0, Fonts: SIL OFL 1.1, Code: MIT License) Copyright 2022 Fonticons, Inc. --><path d="M238.5 53.1C251 39.6 268.6 32 287 32c28.9 0 54.5 18.7 63.2 46.3L366 128.6c7.3 23 25.2 41 48.2 48.3l62.2 19.9c21.2 6.8 35.6 26.5 35.6 48.7c0 17.5-8.9 33.7-23.6 43.1l-85.9 54.8c-10.6 6.8-16.6 18.8-15.7 31.3l2.5 33.9c2.8 38.5-27.7 71.4-66.4 71.4c-13.6 0-26.9-4.2-38.1-12l-48.2-33.6c-14.8-10.3-32.3-15.8-50.3-15.8H170.2c-4.9 0-9.9 .4-14.8 1.2L83.9 432.1c-21.3 3.6-42.8-5.7-54.6-23.9c-11.8-18.1-11.8-41.4 0-59.4L56.5 307c4.9-7.5 7.5-16.3 7.5-25.3c0-9.9-3.2-19.5-9-27.4L11.3 194.6C-6.5 170.3-.7 136.2 24.2 119.2c9.7-6.6 21.2-9.8 32.9-9.1l80.6 4.6c26.1 1.5 51.5-8.7 69.4-27.9l31.5-33.8zM160 256c17.7 0 32-14.3 32-32s-14.3-32-32-32s-32 14.3-32 32s14.3 32 32 32zm160-48c0-8.8-7.2-16-16-16s-16 7.2-16 16s7.2 16 16 16s16-7.2 16-16zM288 352c17.7 0 32-14.3 32-32s-14.3-32-32-32s-32 14.3-32 32s14.3 32 32 32z"/></svg>