<svg xmlns="http://www.w3.org/2000/svg" viewBox="0 0 512 512"><!--! Font Awesome Free 6.1.1 by @fontawesome - https://fontawesome.com License - https://fontawesome.com/license/free (Icons: CC BY 4.0, Fonts: SIL OFL 1.1, Code: MIT License) Copyright 2022 Fonticons, Inc. --><path d="M472.2 195.9l-66.1-22.1c-19.25-6.624-33.5-20.87-38.13-38.24l-16-60.49c-11.62-43.74-76.63-57.11-110-22.62L194.1 99.3c-13.25 13.75-33.5 20.87-54.25 19.25L68.86 112.9c-52-3.999-86.88 44.99-59 82.86l38.63 52.49c11 14.1 12.75 33.74 4.625 50.12l-28.5 56.99c-20.62 41.24 22.88 84.86 73.5 73.86l69.1-15.25c20.12-4.499 41.38 .0001 57 11.62l54.38 40.87c39.38 29.62 101 7.623 104.5-37.24l4.625-61.86c1.375-17.75 12.88-33.87 30.62-42.99l61.1-31.62C526.1 269.8 520.9 212.5 472.2 195.9zM159.1 256c-17.62 0-31.1-14.37-31.1-31.1s14.37-31.1 31.1-31.1s31.1 14.37 31.1 31.1S177.6 256 159.1 256zM287.1 351.1c-17.62 0-31.1-14.37-31.1-31.1c0-17.62 14.37-31.1 31.1-31.1s31.1 14.37 31.1 31.1C319.1 337.6 305.6 351.1 287.1 351.1zM303.1 224c-8.875 0-15.1-7.125-15.1-15.1c0-8.873 7.125-15.1 15.1-15.1s15.1 7.125 15.1 15.1C319.1 216.9 312.9 224 303.1 224z"/></svg>