<svg xmlns="http://www.w3.org/2000/svg" viewBox="0 0 576 512"><!--! Font Awesome Free 6.1.2 by @fontawesome - https://fontawesome.com License - https://fontawesome.com/license/free (Icons: CC BY 4.0, Fonts: SIL OFL 1.1, Code: MIT License) Copyright 2022 Fonticons, Inc. --><path d="M560 448H512V113.5c0-27.25-21.5-49.5-48-49.5L352 64.01V128h96V512h112c8.875 0 16-7.125 16-15.1v-31.1C576 455.1 568.9 448 560 448zM280.3 1.007l-192 49.75C73.1 54.51 64 67.76 64 82.88V448H16c-8.875 0-16 7.125-16 15.1v31.1C0 504.9 7.125 512 16 512H320V33.13C320 11.63 300.5-4.243 280.3 1.007zM232 288c-13.25 0-24-14.37-24-31.1c0-17.62 10.75-31.1 24-31.1S256 238.4 256 256C256 273.6 245.3 288 232 288z"/></svg>