<svg xmlns="http://www.w3.org/2000/svg" viewBox="0 0 320 512"><!--! Font Awesome Free 6.3.0 by @fontawesome - https://fontawesome.com License - https://fontawesome.com/license/free (Icons: CC BY 4.0, Fonts: SIL OFL 1.1, Code: MIT License) Copyright 2023 Fonticons, Inc. --><path d="M2 334.5c-3.8 8.8-2 19 4.6 26l136 144c4.5 4.8 10.8 7.5 17.4 7.5s12.9-2.7 17.4-7.5l136-144c6.6-7 8.4-17.2 4.6-26s-12.5-14.5-22-14.5l-72 0 0-288c0-17.7-14.3-32-32-32L128 0C110.3 0 96 14.3 96 32l0 288-72 0c-9.6 0-18.2 5.7-22 14.5z"/></svg>