<svg xmlns="http://www.w3.org/2000/svg" viewBox="0 0 448 512"><!--! Font Awesome Free 6.2.0 by @fontawesome - https://fontawesome.com License - https://fontawesome.com/license/free (Icons: CC BY 4.0, Fonts: SIL OFL 1.1, Code: MIT License) Copyright 2022 Fonticons, Inc. --><path d="M96 151.4V360.6c9.7 5.6 17.8 13.7 23.4 23.4H328.6c0-.1 .1-.2 .1-.3l-4.5-7.9-32-56 0 0c-1.4 .1-2.8 .1-4.2 .1c-35.3 0-64-28.7-64-64s28.7-64 64-64c1.4 0 2.8 0 4.2 .1l0 0 32-56 4.5-7.9-.1-.3H119.4c-5.6 9.7-13.7 17.8-23.4 23.4zM384.3 352c35.2 .2 63.7 28.7 63.7 64c0 35.3-28.7 64-64 64c-23.7 0-44.4-12.9-55.4-32H119.4c-11.1 19.1-31.7 32-55.4 32c-35.3 0-64-28.7-64-64c0-23.7 12.9-44.4 32-55.4V151.4C12.9 140.4 0 119.7 0 96C0 60.7 28.7 32 64 32c23.7 0 44.4 12.9 55.4 32H328.6c11.1-19.1 31.7-32 55.4-32c35.3 0 64 28.7 64 64c0 35.3-28.5 63.8-63.7 64l-4.5 7.9-32 56-2.3 4c4.2 8.5 6.5 18 6.5 28.1s-2.3 19.6-6.5 28.1l2.3 4 32 56 4.5 7.9z"/></svg>