<svg xmlns="http://www.w3.org/2000/svg" viewBox="0 0 640 512"><!--! Font Awesome Free 6.2.0 by @fontawesome - https://fontawesome.com License - https://fontawesome.com/license/free (Icons: CC BY 4.0, Fonts: SIL OFL 1.1, Code: MIT License) Copyright 2022 Fonticons, Inc. --><path d="M38.8 5.1C28.4-3.1 13.3-1.2 5.1 9.2S-1.2 34.7 9.2 42.9l592 464c10.4 8.2 25.5 6.3 33.7-4.1s6.3-25.5-4.1-33.7L491.5 359.9c3-12.8 4.5-26.2 4.5-39.9c0-74.1-102.3-230.6-150.9-300.7c-12.3-17.7-37.8-17.7-50.1 0c-20.8 30-51.4 75.8-79.6 124.1L38.8 5.1zM144 320c0 97.2 78.8 176 176 176c48.1 0 91.7-19.3 123.5-50.6L170 229.9c-15.6 34.7-26 66.6-26 90.1zm96 0c0 44.2 35.8 80 80 80c8.8 0 16 7.2 16 16s-7.2 16-16 16c-61.9 0-112-50.1-112-112c0-8.8 7.2-16 16-16s16 7.2 16 16z"/></svg>