<svg xmlns="http://www.w3.org/2000/svg" viewBox="0 0 512 512"><!--! Font Awesome Free 6.0.0 by @fontawesome - https://fontawesome.com License - https://fontawesome.com/license/free (Icons: CC BY 4.0, Fonts: SIL OFL 1.1, Code: MIT License) Copyright 2022 Fonticons, Inc. --><path d="M160.1 320c-17.64 0-32.02 14.37-32.02 31.1s14.38 31.1 32.02 31.1s32.02-14.37 32.02-31.1S177.8 320 160.1 320zM86.66 361.4c-12.51-12.49-32.77-12.49-45.27 0c-12.51 12.5-12.51 32.78 0 45.27l63.96 63.99c12.51 12.49 32.77 12.49 45.27 .002c12.51-12.5 12.51-32.78 0-45.27L86.66 361.4zM32.02 448C14.38 448 0 462.4 0 480S14.38 512 32.02 512c17.64 0 32.02-14.37 32.02-31.1S49.66 448 32.02 448zM287.7 70.31c-110.9-29.38-211.7 47.53-222.8 150.9C62.1 239.9 78.73 255.1 97.57 255.1c16.61 0 29.25-13.07 31.24-29.55c6.934-57.22 57.21-101.3 116.9-98.3c71.71 3.594 117.1 76.82 102.5 146.9c-6.551 29.65-21.4 56.87-43.38 78.87L288 370.7v13.25c0 31.4-22.71 57.58-52.58 62.98C220.4 449.7 208 463.3 208 478.6c0 19.78 17.88 34.94 37.38 31.64c55.92-9.443 99.63-55.28 105.9-112.2c40.11-40.68 62.89-93.95 64.65-150.9C418.4 166.4 365.8 91 287.7 70.31zM240 200c22.06 0 40 17.94 40 40c0 13.25 10.75 24 24 24s24-10.75 24-24c0-48.53-39.47-88-88-88S152 191.5 152 240c0 13.25 10.75 24 24 24S200 253.3 200 240C200 217.9 217.9 200 240 200zM397.8 3.125c-15.91-7.594-35.05-.8438-42.66 15.09c-7.594 15.97-.8281 35.06 15.12 42.66C417.5 83.41 448 134.9 448 192c0 17.69 14.33 32 32 32S512 209.7 512 192C512 110.3 467.2 36.19 397.8 3.125z"/></svg>