<svg xmlns="http://www.w3.org/2000/svg" viewBox="0 0 512 512"><!--! Font Awesome Free 6.1.2 by @fontawesome - https://fontawesome.com License - https://fontawesome.com/license/free (Icons: CC BY 4.0, Fonts: SIL OFL 1.1, Code: MIT License) Copyright 2022 Fonticons, Inc. --><path d="M192 319.1C185.8 313.7 177.6 310.6 169.4 310.6S153 313.7 146.8 319.1l-137.4 137.4C3.124 463.6 0 471.8 0 480c0 18.3 14.96 31.1 31.1 31.1c8.188 0 16.38-3.124 22.62-9.371l137.4-137.4c6.247-6.247 9.371-14.44 9.371-22.62S198.3 326.2 192 319.1zM200 240c0-22.06 17.94-40 40-40s40 17.94 40 40c0 13.25 10.75 24 24 24s24-10.75 24-24c0-48.53-39.47-88-88-88S152 191.5 152 240c0 13.25 10.75 24 24 24S200 253.3 200 240zM511.1 31.1c0-8.188-3.124-16.38-9.371-22.62s-14.44-9.372-22.63-9.372s-16.38 3.124-22.62 9.372L416 50.75c-6.248 6.248-9.372 14.44-9.372 22.63c0 8.188 3.123 16.38 9.37 22.62c6.247 6.248 14.44 9.372 22.63 9.372s16.38-3.124 22.63-9.372l41.38-41.38C508.9 48.37 511.1 40.18 511.1 31.1zM415.1 241.6c0-57.78-42.91-177.6-175.1-177.6c-153.6 0-175.2 150.8-175.2 160.4c0 17.32 14.99 31.58 32.75 31.58c16.61 0 29.25-13.07 31.24-29.55c6.711-55.39 54.02-98.45 111.2-98.45c80.45 0 111.2 75.56 111.2 119.6c0 57.94-38.22 98.14-46.37 106.3L288 370.7v13.25c0 31.4-22.71 57.58-52.58 62.98C220.4 449.7 208 463.3 208 478.6c0 17.95 14.72 32.09 32.03 32.09c4.805 0 100.5-14.34 111.2-112.7C412.6 335.8 415.1 263.4 415.1 241.6z"/></svg>