<svg xmlns="http://www.w3.org/2000/svg" viewBox="0 0 384 512"><!--! Font Awesome Free 6.0.0 by @fontawesome - https://fontawesome.com License - https://fontawesome.com/license/free (Icons: CC BY 4.0, Fonts: SIL OFL 1.1, Code: MIT License) Copyright 2022 Fonticons, Inc. --><path d="M192 16c-106 0-192 182-192 288c0 106 85.1 192 192 192c105.1 0 192-85.1 192-192C384 198 297.1 16 192 16zM160.1 138C128.6 177.1 96 249.8 96 304C96 312.8 88.84 320 80 320S64 312.8 64 304c0-63.56 36.7-143.3 71.22-186c5.562-6.906 15.64-7.969 22.5-2.406C164.6 121.1 165.7 131.2 160.1 138z"/></svg>