<svg xmlns="http://www.w3.org/2000/svg" viewBox="0 0 384 512"><!--! Font Awesome Free 6.2.0 by @fontawesome - https://fontawesome.com License - https://fontawesome.com/license/free (Icons: CC BY 4.0, Fonts: SIL OFL 1.1, Code: MIT License) Copyright 2022 Fonticons, Inc. --><path d="M192 496C86 496 0 410 0 304C0 192 96 16 192 16s192 176 192 288c0 106-86 192-192 192zM156.5 138l0 0 0 0 0 0c5.5-6.9 4.4-17-2.5-22.5s-17-4.4-22.5 2.5L144 128c-12.5-10-12.5-10-12.5-10l0 0 0 0-.1 .1-.2 .2-.6 .8c-.5 .7-1.3 1.7-2.2 3c-1.9 2.6-4.5 6.3-7.7 11c-6.3 9.4-14.6 23-23 39.7C81.1 206.1 64 252.6 64 304c0 8.8 7.2 16 16 16s16-7.2 16-16c0-44.6 14.9-86.1 30.3-116.8c7.6-15.3 15.3-27.7 21-36.3c2.8-4.3 5.2-7.6 6.8-9.8c.8-1.1 1.4-1.9 1.8-2.4l.4-.6 .1-.1 0 0z"/></svg>