<svg xmlns="http://www.w3.org/2000/svg" viewBox="0 0 512 512"><!--! Font Awesome Free 6.2.1 by @fontawesome - https://fontawesome.com License - https://fontawesome.com/license/free (Icons: CC BY 4.0, Fonts: SIL OFL 1.1, Code: MIT License) Copyright 2022 Fonticons, Inc. --><path d="M256 512c141.4 0 256-114.6 256-256S397.4 0 256 0S0 114.6 0 256S114.6 512 256 512zM383.8 317.8c12.3-3.7 24.3 7 19.2 18.7c-24.5 56.9-81.1 96.7-147 96.7s-122.5-39.8-147-96.7c-5.1-11.8 6.9-22.4 19.2-18.7C166.7 329.4 210.1 336 256 336s89.3-6.6 127.8-18.2zM133.5 146.7l89.9 47.9c10.7 5.7 10.7 21.1 0 26.8l-89.9 47.9c-7.9 4.2-17.5-1.5-17.5-10.5c0-2.8 1-5.5 2.8-7.6l36-43.2-36-43.2c-1.8-2.1-2.8-4.8-2.8-7.6c0-9 9.6-14.7 17.5-10.5zM396 157.1c0 2.8-1 5.5-2.8 7.6l-36 43.2 36 43.2c1.8 2.1 2.8 4.8 2.8 7.6c0 9-9.6 14.7-17.5 10.5l-89.9-47.9c-10.7-5.7-10.7-21.1 0-26.8l89.9-47.9c7.9-4.2 17.5 1.5 17.5 10.5z"/></svg>