<svg xmlns="http://www.w3.org/2000/svg" viewBox="0 0 640 512"><!--! Font Awesome Free 6.2.1 by @fontawesome - https://fontawesome.com License - https://fontawesome.com/license/free (Icons: CC BY 4.0, Fonts: SIL OFL 1.1, Code: MIT License) Copyright 2022 Fonticons, Inc. --><path d="M548.6 371.4C506.4 454.8 419.9 512 320 512s-186.4-57.2-228.6-140.6c4.5-2.9 8.7-6.3 12.7-10.3c8.1-8.1 13.2-18.6 16.5-26.6c3.6-8.8 6.5-18.4 8.8-27.5c4.6-18.2 7.7-37 9.3-48.2c3.9-26.5-18.8-49.2-45.2-45.4c-6.8 .9-16.2 2.4-26.6 4.4C85.3 94.5 191.6 0 320 0S554.7 94.5 573.2 217.7c-10.3-2-19.8-3.5-26.6-4.4c-26.5-3.9-49.2 18.8-45.2 45.4c1.6 11.3 4.6 30 9.3 48.2c2.3 9.1 5.2 18.8 8.8 27.5c3.3 8.1 8.4 18.5 16.5 26.6c3.9 3.9 8.2 7.4 12.7 10.3zM107 254.1c-3.1 21.5-11.4 70.2-25.5 84.4c-.9 1-1.9 1.8-2.9 2.7C60 356.7 32 355.5 14.3 337.7c-18.7-18.7-19.1-48.8-.7-67.2c8.6-8.6 30.1-15.1 50.5-19.6c13-2.8 25.5-4.8 33.9-6c5.4-.8 9.9 3.7 9 9zm454.5 87.1c-.8-.6-1.5-1.3-2.3-2c-.2-.2-.5-.4-.7-.7c-14.1-14.1-22.5-62.9-25.5-84.4c-.8-5.4 3.7-9.9 9-9c1 .1 2.2 .3 3.3 .5c8.2 1.2 19.2 3 30.6 5.5c20.4 4.4 41.9 10.9 50.5 19.6c18.4 18.4 18 48.5-.7 67.2c-17.7 17.7-45.7 19-64.2 3.4zm-90.1-9.7c5-11.8-7-22.5-19.3-18.7c-39.7 12.2-84.4 19-131.8 19s-92.1-6.8-131.8-19c-12.3-3.8-24.3 6.9-19.3 18.7c25 59.1 83.2 100.5 151.1 100.5s126.2-41.4 151.1-100.5zM281.6 228.8l0 0 0 0 0 0c2.1 2.8 5.7 3.9 8.9 2.8s5.5-4.1 5.5-7.6c0-17.9-6.7-35.6-16.6-48.8c-9.8-13-23.9-23.2-39.4-23.2s-29.6 10.2-39.4 23.2C190.7 188.4 184 206.1 184 224c0 3.4 2.2 6.5 5.5 7.6s6.9 0 8.9-2.8l0 0 0 0 0 0 .2-.2c.2-.2 .4-.5 .7-.9c.6-.8 1.6-2 2.8-3.4c2.5-2.8 6-6.6 10.2-10.3c8.8-7.8 18.8-14 27.7-14s18.9 6.2 27.7 14c4.2 3.7 7.7 7.5 10.2 10.3c1.2 1.4 2.2 2.6 2.8 3.4c.3 .4 .6 .7 .7 .9l.2 .2 0 0zm160 0l0 0 0 0c2.1 2.8 5.7 3.9 8.9 2.8s5.5-4.1 5.5-7.6c0-17.9-6.7-35.6-16.6-48.8c-9.8-13-23.9-23.2-39.4-23.2s-29.6 10.2-39.4 23.2C350.7 188.4 344 206.1 344 224c0 3.4 2.2 6.5 5.5 7.6s6.9 0 8.9-2.8l0 0 0 0 0 0 .2-.2c.2-.2 .4-.5 .7-.9c.6-.8 1.6-2 2.8-3.4c2.5-2.8 6-6.6 10.2-10.3c8.8-7.8 18.8-14 27.7-14s18.9 6.2 27.7 14c4.2 3.7 7.7 7.5 10.2 10.3c1.2 1.4 2.2 2.6 2.8 3.4c.3 .4 .6 .7 .7 .9l.2 .2 0 0 0 0z"/></svg>