<svg xmlns="http://www.w3.org/2000/svg" viewBox="0 0 512 512"><!--! Font Awesome Free 6.2.1 by @fontawesome - https://fontawesome.com License - https://fontawesome.com/license/free (Icons: CC BY 4.0, Fonts: SIL OFL 1.1, Code: MIT License) Copyright 2022 Fonticons, Inc. --><path d="M256 512c141.4 0 256-114.6 256-256S397.4 0 256 0S0 114.6 0 256S114.6 512 256 512zM383.8 317.8c12.3-3.7 24.3 7 19.2 18.7c-24.5 56.9-81.1 96.7-147 96.7s-122.5-39.8-147-96.7c-5.1-11.8 6.9-22.4 19.2-18.7C166.7 329.4 210.1 336 256 336s89.3-6.6 127.8-18.2zM199.3 129.1c17.8 4.8 28.4 23.1 23.6 40.8l-17.4 65c-2.3 8.5-11.1 13.6-19.6 11.3l-65.1-17.4c-17.8-4.8-28.4-23.1-23.6-40.8s23.1-28.4 40.8-23.6l16.1 4.3 4.3-16.1c4.8-17.8 23.1-28.4 40.8-23.6zm154.3 23.6l4.3 16.1 16.1-4.3c17.8-4.8 36.1 5.8 40.8 23.6s-5.8 36.1-23.6 40.8l-65.1 17.4c-8.5 2.3-17.3-2.8-19.6-11.3l-17.4-65c-4.8-17.8 5.8-36.1 23.6-40.8s36.1 5.8 40.9 23.6z"/></svg>