<svg xmlns="http://www.w3.org/2000/svg" viewBox="0 0 512 512"><!--! Font Awesome Free 6.5.0 by @fontawesome - https://fontawesome.com License - https://fontawesome.com/license/free (Icons: CC BY 4.0, Fonts: SIL OFL 1.1, Code: MIT License) Copyright 2023 Fonticons, Inc. --><path d="M256 512A256 256 0 1 0 256 0a256 256 0 1 0 0 512zM388.1 312.8c12.3-3.8 24.3 6.9 19.3 18.7C382.4 390.6 324.2 432 256.3 432s-126.2-41.4-151.1-100.5c-5-11.8 7-22.5 19.3-18.7c39.7 12.2 84.5 19 131.8 19s92.1-6.8 131.8-19zM199.3 129.1c17.8 4.8 28.4 23.1 23.6 40.8l-17.4 65c-2.3 8.5-11.1 13.6-19.6 11.3l-65.1-17.4c-17.8-4.8-28.4-23.1-23.6-40.8s23.1-28.4 40.8-23.6l16.1 4.3 4.3-16.1c4.8-17.8 23.1-28.4 40.8-23.6zm154.3 23.6l4.3 16.1 16.1-4.3c17.8-4.8 36.1 5.8 40.8 23.6s-5.8 36.1-23.6 40.8l-65.1 17.4c-8.5 2.3-17.3-2.8-19.6-11.3l-17.4-65c-4.8-17.8 5.8-36.1 23.6-40.8s36.1 5.8 40.9 23.6z"/></svg>