<svg xmlns="http://www.w3.org/2000/svg" viewBox="0 0 512 512"><!--! Font Awesome Free 6.2.0 by @fontawesome - https://fontawesome.com License - https://fontawesome.com/license/free (Icons: CC BY 4.0, Fonts: SIL OFL 1.1, Code: MIT License) Copyright 2022 Fonticons, Inc. --><path d="M256 512c141.4 0 256-114.6 256-256S397.4 0 256 0S0 114.6 0 256S114.6 512 256 512zM164.1 325.5C182 346.2 212.6 368 256 368s74-21.8 91.9-42.5c5.8-6.7 15.9-7.4 22.6-1.6s7.4 15.9 1.6 22.6C349.8 372.1 311.1 400 256 400s-93.8-27.9-116.1-53.5c-5.8-6.7-5.1-16.8 1.6-22.6s16.8-5.1 22.6 1.6zM208.4 208c0 17.7-14.3 32-32 32s-32-14.3-32-32s14.3-32 32-32s32 14.3 32 32zm92.4 25.6c-5.3 7.1-15.3 8.5-22.4 3.2s-8.5-15.3-3.2-22.4c30.4-40.5 91.2-40.5 121.6 0c5.3 7.1 3.9 17.1-3.2 22.4s-17.1 3.9-22.4-3.2c-17.6-23.5-52.8-23.5-70.4 0z"/></svg>