<svg xmlns="http://www.w3.org/2000/svg" viewBox="0 0 512 512"><!--! Font Awesome Free 6.1.0 by @fontawesome - https://fontawesome.com License - https://fontawesome.com/license/free (Icons: CC BY 4.0, Fonts: SIL OFL 1.1, Code: MIT License) Copyright 2022 Fonticons, Inc. --><path d="M352.6 127.1c-28.12 0-54.13 4.5-77.13 12.88l12.38-123.1c1.125-10.5-8.125-18.88-18.5-17.63C189.6 10.12 127.1 77.62 127.1 159.4c0 28.12 4.5 54.13 12.88 77.13L17.75 224.1c-10.5-1.125-18.88 8.125-17.63 18.5c9.1 79.75 77.5 141.4 159.3 141.4c28.12 0 54.13-4.5 77.13-12.88l-12.38 123.1c-1.125 10.38 8.125 18.88 18.5 17.63c79.75-10 141.4-77.5 141.4-159.3c0-28.12-4.5-54.13-12.88-77.13l123.1 12.38c10.5 1.125 18.88-8.125 17.63-18.5C501.9 189.6 434.4 127.1 352.6 127.1zM255.1 287.1c-17.62 0-31.1-14.38-31.1-32s14.37-32 31.1-32s31.1 14.38 31.1 32S273.6 287.1 255.1 287.1z"/></svg>