<svg xmlns="http://www.w3.org/2000/svg" viewBox="0 0 512 512"><!--! Font Awesome Free 6.3.0 by @fontawesome - https://fontawesome.com License - https://fontawesome.com/license/free (Icons: CC BY 4.0, Fonts: SIL OFL 1.1, Code: MIT License) Copyright 2023 Fonticons, Inc. --><path d="M128 64v96h64V64H386.7L416 93.3V160h64V93.3c0-17-6.7-33.3-18.7-45.3L432 18.7C420 6.7 403.7 0 386.7 0H192c-35.3 0-64 28.7-64 64zM0 160V480c0 17.7 14.3 32 32 32H64c17.7 0 32-14.3 32-32V160c0-17.7-14.3-32-32-32H32c-17.7 0-32 14.3-32 32zm480 32H128V480c0 17.7 14.3 32 32 32H480c17.7 0 32-14.3 32-32V224c0-17.7-14.3-32-32-32zM256 256a32 32 0 1 1 0 64 32 32 0 1 1 0-64zm96 32a32 32 0 1 1 64 0 32 32 0 1 1 -64 0zm32 96a32 32 0 1 1 0 64 32 32 0 1 1 0-64zM224 416a32 32 0 1 1 64 0 32 32 0 1 1 -64 0z"/></svg>