<svg xmlns="http://www.w3.org/2000/svg" viewBox="0 0 512 512"><!--! Font Awesome Free 6.1.0 by @fontawesome - https://fontawesome.com License - https://fontawesome.com/license/free (Icons: CC BY 4.0, Fonts: SIL OFL 1.1, Code: MIT License) Copyright 2022 Fonticons, Inc. --><path d="M467.1 241.1L351.1 288h94.34c-7.711 14.85-16.29 29.28-25.87 43.01l-132.5 52.99h85.65c-59.34 52.71-144.1 80.34-264.5 52.82l-68.13 68.13c-9.38 9.38-24.56 9.374-33.94 0c-9.375-9.375-9.375-24.56 0-33.94l253.4-253.4c4.846-6.275 4.643-15.19-1.113-20.95c-6.25-6.25-16.38-6.25-22.62 0l-168.6 168.6C24.56 58 366.9 8.118 478.9 .0846c18.87-1.354 34.41 14.19 33.05 33.05C508.7 78.53 498.5 161.8 467.1 241.1z"/></svg>