<svg xmlns="http://www.w3.org/2000/svg" viewBox="0 0 384 512"><!--! Font Awesome Free 6.1.2 by @fontawesome - https://fontawesome.com License - https://fontawesome.com/license/free (Icons: CC BY 4.0, Fonts: SIL OFL 1.1, Code: MIT License) Copyright 2022 Fonticons, Inc. --><path d="M256 0v128h128L256 0zM224 128L224 0H48C21.49 0 0 21.49 0 48v416C0 490.5 21.49 512 48 512h288c26.51 0 48-21.49 48-48V160h-127.1C238.3 160 224 145.7 224 128zM279.6 308.1C284.2 353.5 248.5 392 204 392H160v40C160 440.8 152.8 448 144 448H128c-8.836 0-16-7.164-16-16V256c0-8.836 7.164-16 16-16h71.51C239.3 240 275.6 268.5 279.6 308.1zM160 344h44c15.44 0 28-12.56 28-28S219.4 288 204 288H160V344z"/></svg>