<svg xmlns="http://www.w3.org/2000/svg" viewBox="0 0 384 512"><!--! Font Awesome Free 6.1.1 by @fontawesome - https://fontawesome.com License - https://fontawesome.com/license/free (Icons: CC BY 4.0, Fonts: SIL OFL 1.1, Code: MIT License) Copyright 2022 Fonticons, Inc. --><path d="M224 128L224 0H48C21.49 0 0 21.49 0 48v416C0 490.5 21.49 512 48 512h288c26.51 0 48-21.49 48-48V160h-127.1C238.3 160 224 145.7 224 128zM272.1 264.4L224 344l48.99 79.61C279.6 434.3 271.9 448 259.4 448h-26.43c-5.557 0-10.71-2.883-13.63-7.617L192 396l-27.31 44.38C161.8 445.1 156.6 448 151.1 448H124.6c-12.52 0-20.19-13.73-13.63-24.39L160 344L111 264.4C104.4 253.7 112.1 240 124.6 240h26.43c5.557 0 10.71 2.883 13.63 7.613L192 292l27.31-44.39C222.2 242.9 227.4 240 232.9 240h26.43C271.9 240 279.6 253.7 272.1 264.4zM256 0v128h128L256 0z"/></svg>