<svg xmlns="http://www.w3.org/2000/svg" viewBox="0 0 384 512"><!--! Font Awesome Free 6.1.2 by @fontawesome - https://fontawesome.com License - https://fontawesome.com/license/free (Icons: CC BY 4.0, Fonts: SIL OFL 1.1, Code: MIT License) Copyright 2022 Fonticons, Inc. --><path d="M224 0V128C224 145.7 238.3 160 256 160H384V448C384 483.3 355.3 512 320 512H64C28.65 512 0 483.3 0 448V64C0 28.65 28.65 0 64 0H224zM80 224C57.91 224 40 241.9 40 264V344C40 366.1 57.91 384 80 384H96C118.1 384 136 366.1 136 344V336C136 327.2 128.8 320 120 320C111.2 320 104 327.2 104 336V344C104 348.4 100.4 352 96 352H80C75.58 352 72 348.4 72 344V264C72 259.6 75.58 256 80 256H96C100.4 256 104 259.6 104 264V272C104 280.8 111.2 288 120 288C128.8 288 136 280.8 136 272V264C136 241.9 118.1 224 96 224H80zM175.4 310.6L200.8 325.1C205.2 327.7 208 332.5 208 337.6C208 345.6 201.6 352 193.6 352H168C159.2 352 152 359.2 152 368C152 376.8 159.2 384 168 384H193.6C219.2 384 240 363.2 240 337.6C240 320.1 231.1 305.6 216.6 297.4L191.2 282.9C186.8 280.3 184 275.5 184 270.4C184 262.4 190.4 256 198.4 256H216C224.8 256 232 248.8 232 240C232 231.2 224.8 224 216 224H198.4C172.8 224 152 244.8 152 270.4C152 287 160.9 302.4 175.4 310.6zM280 240C280 231.2 272.8 224 264 224C255.2 224 248 231.2 248 240V271.6C248 306.3 258.3 340.3 277.6 369.2L282.7 376.9C285.7 381.3 290.6 384 296 384C301.4 384 306.3 381.3 309.3 376.9L314.4 369.2C333.7 340.3 344 306.3 344 271.6V240C344 231.2 336.8 224 328 224C319.2 224 312 231.2 312 240V271.6C312 294.6 306.5 317.2 296 337.5C285.5 317.2 280 294.6 280 271.6V240zM256 0L384 128H256V0z"/></svg>