<svg xmlns="http://www.w3.org/2000/svg" viewBox="0 0 384 512"><!--! Font Awesome Free 6.1.0 by @fontawesome - https://fontawesome.com License - https://fontawesome.com/license/free (Icons: CC BY 4.0, Fonts: SIL OFL 1.1, Code: MIT License) Copyright 2022 Fonticons, Inc. --><path d="M256 0v128h128L256 0zM224 128L224 0H48C21.49 0 0 21.49 0 48v416C0 490.5 21.49 512 48 512h288c26.51 0 48-21.49 48-48V160h-127.1C238.3 160 224 145.7 224 128zM224 384c0 17.67-14.33 32-32 32H96c-17.67 0-32-14.33-32-32V288c0-17.67 14.33-32 32-32h96c17.67 0 32 14.33 32 32V384zM320 284.9v102.3c0 12.57-13.82 20.23-24.48 13.57L256 376v-80l39.52-24.7C306.2 264.6 320 272.3 320 284.9z"/></svg>