<svg xmlns="http://www.w3.org/2000/svg" viewBox="0 0 576 512"><!--! Font Awesome Free 6.1.2 by @fontawesome - https://fontawesome.com License - https://fontawesome.com/license/free (Icons: CC BY 4.0, Fonts: SIL OFL 1.1, Code: MIT License) Copyright 2022 Fonticons, Inc. --><path d="M41.37 9.372C53.87-3.124 74.13-3.124 86.63 9.372L168 90.74L221.1 37.66C249.2 9.539 294.8 9.539 322.9 37.66L474.3 189.1C502.5 217.2 502.5 262.8 474.3 290.9L283.9 481.4C246.4 518.9 185.6 518.9 148.1 481.4L30.63 363.9C-6.863 326.4-6.863 265.6 30.63 228.1L122.7 135.1L41.37 54.63C28.88 42.13 28.88 21.87 41.37 9.372V9.372zM217.4 230.6L168 181.3L75.88 273.4C71.69 277.6 68.9 282.6 67.52 288H386.7L429.1 245.7C432.2 242.5 432.2 237.5 429.1 234.3L277.7 82.91C274.5 79.79 269.5 79.79 266.3 82.91L213.3 136L262.6 185.4C275.1 197.9 275.1 218.1 262.6 230.6C250.1 243.1 229.9 243.1 217.4 230.6L217.4 230.6zM448 448C448 422.8 480.6 368.4 499.2 339.3C505.3 329.9 518.7 329.9 524.8 339.3C543.4 368.4 576 422.8 576 448C576 483.3 547.3 512 512 512C476.7 512 448 483.3 448 448H448z"/></svg>