<svg xmlns="http://www.w3.org/2000/svg" viewBox="0 0 512 512"><!--! Font Awesome Free 6.2.0 by @fontawesome - https://fontawesome.com License - https://fontawesome.com/license/free (Icons: CC BY 4.0, Fonts: SIL OFL 1.1, Code: MIT License) Copyright 2022 Fonticons, Inc. --><path d="M63 23.9C59.4 10.1 46.9 0 32 0C14.3 0 0 14.3 0 32V480c0 17.7 14.3 32 32 32s32-14.3 32-32V380.1c2-.8 4.8-1.8 8.2-3c8-2.8 19.4-6.6 32.6-10.4C131.9 359 164.5 352 192 352c26.3 0 46 6.4 70 14.4l1 .3c23.8 7.9 51.9 17.3 89 17.3c36.8 0 72.5-9.1 98.1-17.6c13-4.3 23.8-8.7 31.5-11.9c3.8-1.6 6.9-3 9-4c1.1-.5 1.9-.9 2.5-1.2l.7-.4 .2-.1 .1 0 0 0 0 0s0 0-14.3-28.6l14.3 28.6c10.8-5.4 17.7-16.5 17.7-28.6V289.1c-2.2 .8-5 1.8-8.2 3c-8.8 3.1-21.1 7.2-35.5 11.3C439.8 311.5 402.1 320 368 320c-34.1 0-63.9-8.5-91.4-16.4l-.8-.2C247.5 295.3 221.4 288 192 288c-29.7 0-61.9 7.5-87.3 15.3C92.1 307.2 81.5 311 74 313.9c-3.7 1.4-6.7 2.6-8.6 3.5L64 318V283.5c7.9-3 18.7-6.9 31.3-10.8c26.6-8.2 62.4-16.7 96.7-16.7c34.3 0 64.2 8.5 91.8 16.4l.7 .2c28.3 8.1 54.2 15.4 83.5 15.4c29.6 0 63.9-7.5 91.5-15.4c13.6-3.9 25.4-7.8 33.6-10.7c4.1-1.5 7.4-2.7 9.6-3.5c1.1-.4 2-.7 2.5-1l.6-.2 .1-.1 0 0 0 0 0 0 0 0 5.9-2.4V193.1c-2.2 .8-5 1.8-8.2 3c-8.8 3.1-21.1 7.2-35.5 11.3C439.8 215.5 402.1 224 368 224c-34.1 0-63.9-8.5-91.4-16.4l-.8-.2C247.5 199.3 221.4 192 192 192c-29.7 0-61.9 7.5-87.3 15.3C92.1 211.2 81.5 215 74 217.9c-3.7 1.4-6.7 2.6-8.6 3.5L64 222V187.5c7.9-3 18.7-6.9 31.3-10.8c26.6-8.2 62.4-16.7 96.7-16.7c34.3 0 64.2 8.5 91.8 16.4l0 0 .7 .2c28.3 8.1 54.2 15.4 83.5 15.4c29.6 0 63.9-7.5 91.5-15.4c13.6-3.9 25.4-7.8 33.6-10.7c4.1-1.5 7.4-2.7 9.6-3.5c1.1-.4 2-.7 2.5-1l.6-.2 .1-.1 0 0 0 0 0 0 0 0 5.9-2.4V97.1c-2.2 .8-5 1.8-8.2 3c-8.8 3.1-21.1 7.2-35.5 11.3C439.8 119.5 402.1 128 368 128c-34.1 0-63.9-8.5-91.4-16.4l-.8-.2c-6.7-1.9-13.2-3.8-19.7-5.5V72.8c9.6 2.4 18.8 5 27.8 7.6l.7 .2C312.8 88.7 338.7 96 368 96c29.6 0 63.9-7.5 91.5-15.4c13.6-3.9 25.4-7.8 33.6-10.7c4.1-1.5 7.4-2.7 9.6-3.5c1.1-.4 2-.7 2.5-1l.6-.2 .1-.1 0 0 0 0 0 0 0 0 5.9-2.4V32c0-11.4-6.1-21.9-15.9-27.7s-22-5.8-31.9-.2l-.2 .1c-.3 .2-.7 .4-1.4 .8c-1.3 .7-3.4 1.8-6.2 3.1c-5.5 2.6-13.6 6.2-23.4 9.8c-20 7.3-46.2 14.1-73 14.1c-26.7 0-50.6-6.6-79.1-14.8l-1.3-.4C252.3 9.1 220.5 0 184 0C147.3 0 109.8 9 82.6 17.4c-7.2 2.2-13.8 4.4-19.6 6.5zM208 48c0 8.8-7.2 16-16 16s-16-7.2-16-16s7.2-16 16-16s16 7.2 16 16zm-64 8c0 8.8-7.2 16-16 16s-16-7.2-16-16s7.2-16 16-16s16 7.2 16 16zm48 72c-8.8 0-16-7.2-16-16s7.2-16 16-16s16 7.2 16 16s-7.2 16-16 16zm-48-8c0 8.8-7.2 16-16 16s-16-7.2-16-16s7.2-16 16-16s16 7.2 16 16z"/></svg>