<svg xmlns="http://www.w3.org/2000/svg" viewBox="0 0 640 512"><!--! Font Awesome Free 6.4.2 by @fontawesome - https://fontawesome.com License - https://fontawesome.com/license/free (Icons: CC BY 4.0, Fonts: SIL OFL 1.1, Code: MIT License) Copyright 2023 Fonticons, Inc. --><path d="M175 389.4c-9.8 16-15 34.3-15 53.1c-10 3.5-20.8 5.5-32 5.5c-53 0-96-43-96-96V64C14.3 64 0 49.7 0 32S14.3 0 32 0H96h64 64c17.7 0 32 14.3 32 32s-14.3 32-32 32V309.9l-49 79.6zM96 64v96h64V64H96zM352 0H480h32c17.7 0 32 14.3 32 32s-14.3 32-32 32V214.9L629.7 406.2c6.7 10.9 10.3 23.5 10.3 36.4c0 38.3-31.1 69.4-69.4 69.4H261.4c-38.3 0-69.4-31.1-69.4-69.4c0-12.8 3.6-25.4 10.3-36.4L320 214.9V64c-17.7 0-32-14.3-32-32s14.3-32 32-32h32zm32 64V224c0 5.9-1.6 11.7-4.7 16.8L330.5 320h171l-48.8-79.2c-3.1-5-4.7-10.8-4.7-16.8V64H384z"/></svg>