<svg xmlns="http://www.w3.org/2000/svg" viewBox="0 0 512 512"><!--! Font Awesome Free 6.3.0 by @fontawesome - https://fontawesome.com License - https://fontawesome.com/license/free (Icons: CC BY 4.0, Fonts: SIL OFL 1.1, Code: MIT License) Copyright 2023 Fonticons, Inc. --><path d="M247.5 25.4c-13.5 3.3-26.4 7.2-38.6 11.7C142.9 61.6 96.7 103.6 66 153.6c-18.3 29.8-30.9 62.3-39.2 95.4L264.5 486.6c13.5-3.3 26.4-7.2 38.6-11.7c66-24.5 112.2-66.5 142.9-116.5c18.3-29.8 30.9-62.3 39.1-95.3L247.5 25.4zM495.2 205.3c6.1-56.8 1.4-112.2-7.7-156.4c-2.7-12.9-13-22.9-26.1-25.1c-58.2-9.7-109.9-12-155.6-7.9L495.2 205.3zM206.1 496L16.8 306.7c-6.1 56.8-1.4 112.2 7.7 156.4c2.7 12.9 13 22.9 26.1 25.1c58.2 9.7 109.9 12 155.6 7.9zm54.6-331.3c6.2-6.2 16.4-6.2 22.6 0l64 64c6.2 6.2 6.2 16.4 0 22.6s-16.4 6.2-22.6 0l-64-64c-6.2-6.2-6.2-16.4 0-22.6zm-48 48c6.2-6.2 16.4-6.2 22.6 0l64 64c6.2 6.2 6.2 16.4 0 22.6s-16.4 6.2-22.6 0l-64-64c-6.2-6.2-6.2-16.4 0-22.6zm-48 48c6.2-6.2 16.4-6.2 22.6 0l64 64c6.2 6.2 6.2 16.4 0 22.6s-16.4 6.2-22.6 0l-64-64c-6.2-6.2-6.2-16.4 0-22.6z"/></svg>