<svg xmlns="http://www.w3.org/2000/svg" viewBox="0 0 512 512"><!--! Font Awesome Free 6.2.1 by @fontawesome - https://fontawesome.com License - https://fontawesome.com/license/free (Icons: CC BY 4.0, Fonts: SIL OFL 1.1, Code: MIT License) Copyright 2022 Fonticons, Inc. --><path d="M18.4 445c11.2 5.3 24.5 3.6 34.1-4.4L224 297.7V416c0 12.4 7.2 23.7 18.4 29s24.5 3.6 34.1-4.4L448 297.7V416c0 17.7 14.3 32 32 32s32-14.3 32-32V96c0-17.7-14.3-32-32-32s-32 14.3-32 32V214.3L276.5 71.4c-9.5-7.9-22.8-9.7-34.1-4.4S224 83.6 224 96V214.3L52.5 71.4c-9.5-7.9-22.8-9.7-34.1-4.4S0 83.6 0 96V416c0 12.4 7.2 23.7 18.4 29z"/></svg>