<svg xmlns="http://www.w3.org/2000/svg" viewBox="0 0 448 512"><!--! Font Awesome Free 6.1.2 by @fontawesome - https://fontawesome.com License - https://fontawesome.com/license/free (Icons: CC BY 4.0, Fonts: SIL OFL 1.1, Code: MIT License) Copyright 2022 Fonticons, Inc. --><path d="M448 256c0 143.4-118.6 222.3-225 222.3c-132.3 0-222.1-106.2-222.1-222.4c0-124.4 100.9-223.9 223.1-223.9c84.84 0 167.8 55.28 167.8 88.2c0 18.28-14.95 32-32 32c-31.04 0-46.79-56.16-135.8-56.16c-87.66 0-159.1 70.66-159.1 159.8c0 34.81 27.19 158.8 159.1 158.8c79.45 0 144.6-55.1 158.1-126.7h-134.1c-17.67 0-32-14.33-32-32s14.33-31.1 32-31.1H416C433.7 224 448 238.3 448 256z"/></svg>