<svg xmlns="http://www.w3.org/2000/svg" viewBox="0 0 448 512"><!--! Font Awesome Free 6.2.0 by @fontawesome - https://fontawesome.com License - https://fontawesome.com/license/free (Icons: CC BY 4.0, Fonts: SIL OFL 1.1, Code: MIT License) Copyright 2022 Fonticons, Inc. --><path d="M224 96C135.6 96 64 167.6 64 256s71.6 160 160 160c77.4 0 142-55 156.8-128H256c-17.7 0-32-14.3-32-32s14.3-32 32-32H416c17.7 0 32 14.3 32 32c0 123.7-100.3 224-224 224S0 379.7 0 256S100.3 32 224 32c57.4 0 109.7 21.6 149.3 57c13.2 11.8 14.3 32 2.5 45.2s-32 14.3-45.2 2.5C302.3 111.4 265 96 224 96z"/></svg>