<svg xmlns="http://www.w3.org/2000/svg" viewBox="0 0 640 512"><!--! Font Awesome Free 6.1.0 by @fontawesome - https://fontawesome.com License - https://fontawesome.com/license/free (Icons: CC BY 4.0, Fonts: SIL OFL 1.1, Code: MIT License) Copyright 2022 Fonticons, Inc. --><path d="M448 64H192C85.96 64 0 149.1 0 256s85.96 192 192 192h256c106 0 192-85.96 192-192S554 64 448 64zM247.1 280h-32v32c0 13.2-10.78 24-23.98 24c-13.2 0-24.02-10.8-24.02-24v-32L136 279.1C122.8 279.1 111.1 269.2 111.1 256c0-13.2 10.85-24.01 24.05-24.01L167.1 232v-32c0-13.2 10.82-24 24.02-24c13.2 0 23.98 10.8 23.98 24v32h32c13.2 0 24.02 10.8 24.02 24C271.1 269.2 261.2 280 247.1 280zM431.1 344c-22.12 0-39.1-17.87-39.1-39.1s17.87-40 39.1-40s39.1 17.88 39.1 40S454.1 344 431.1 344zM495.1 248c-22.12 0-39.1-17.87-39.1-39.1s17.87-40 39.1-40c22.12 0 39.1 17.88 39.1 40S518.1 248 495.1 248z"/></svg>