<svg xmlns="http://www.w3.org/2000/svg" viewBox="0 0 448 512"><!--! Font Awesome Free 6.1.2 by @fontawesome - https://fontawesome.com License - https://fontawesome.com/license/free (Icons: CC BY 4.0, Fonts: SIL OFL 1.1, Code: MIT License) Copyright 2022 Fonticons, Inc. --><path d="M400 224c-9.148 0-17.62 2.697-24.89 7.143C370.9 208.9 351.5 192 328 192c-17.38 0-32.46 9.33-40.89 23.17C282.1 192.9 263.5 176 240 176c-12.35 0-23.49 4.797-32 12.46V40c0-22.09-17.9-40-39.1-40C145.9 0 128 17.91 128 40v322.7L72 288C64.15 277.5 52.13 272 39.97 272c-21.22 0-39.97 17.06-39.97 40.02c0 8.356 2.608 16.78 8.005 23.98l91.22 121.6C124.8 491.7 165.5 512 208 512h96C383.4 512 448 447.4 448 368v-96C448 245.5 426.5 224 400 224zM240 400c0 8.844-7.156 16-16 16s-16-7.156-16-16v-96C208 295.2 215.2 288 224 288s16 7.156 16 16V400zM304 400c0 8.844-7.156 16-16 16s-16-7.156-16-16v-96C272 295.2 279.2 288 288 288s16 7.156 16 16V400zM368 400c0 8.844-7.156 16-16 16s-16-7.156-16-16v-96C336 295.2 343.2 288 352 288s16 7.156 16 16V400z"/></svg>