<svg xmlns="http://www.w3.org/2000/svg" viewBox="0 0 512 512"><!--! Font Awesome Free 6.4.0 by @fontawesome - https://fontawesome.com License - https://fontawesome.com/license/free (Icons: CC BY 4.0, Fonts: SIL OFL 1.1, Code: MIT License) Copyright 2023 Fonticons, Inc. --><path d="M224 0c17.7 0 32 14.3 32 32V240H192V32c0-17.7 14.3-32 32-32zm96 160c17.7 0 32 14.3 32 32v64c0 17.7-14.3 32-32 32s-32-14.3-32-32V192c0-17.7 14.3-32 32-32zm64 64c0-17.7 14.3-32 32-32s32 14.3 32 32v64c0 17.7-14.3 32-32 32s-32-14.3-32-32V224zM93.3 51.2L175.9 240H106.1L34.7 76.8C27.6 60.6 35 41.8 51.2 34.7s35.1 .3 42.1 16.5zm27 221.3l-.2-.5h69.9H216c22.1 0 40 17.9 40 40s-17.9 40-40 40H160c-8.8 0-16 7.2-16 16s7.2 16 16 16h56c39.8 0 72-32.2 72-72l0-.6c9.4 5.4 20.3 8.6 32 8.6c13.2 0 25.4-4 35.6-10.8c8.7 24.9 32.5 42.8 60.4 42.8c11.7 0 22.6-3.1 32-8.6V352c0 88.4-71.6 160-160 160H226.3c-42.4 0-83.1-16.9-113.1-46.9l-11.6-11.6C77.5 429.5 64 396.9 64 363V336c0-32.7 24.6-59.7 56.3-63.5z"/></svg>