<svg xmlns="http://www.w3.org/2000/svg" viewBox="0 0 576 512"><!--! Font Awesome Free 6.5.1 by @fontawesome - https://fontawesome.com License - https://fontawesome.com/license/free (Icons: CC BY 4.0, Fonts: SIL OFL 1.1, Code: MIT License) Copyright 2023 Fonticons, Inc. --><path d="M224 24V80H168c-13.3 0-24 10.7-24 24v48c0 13.3 10.7 24 24 24h56v56c0 13.3 10.7 24 24 24h48c13.3 0 24-10.7 24-24V176h56c13.3 0 24-10.7 24-24V104c0-13.3-10.7-24-24-24H320V24c0-13.3-10.7-24-24-24H248c-13.3 0-24 10.7-24 24zM559.7 392.2c17.8-13.1 21.6-38.1 8.5-55.9s-38.1-21.6-55.9-8.5L392.6 416H272c-8.8 0-16-7.2-16-16s7.2-16 16-16h16 64c17.7 0 32-14.3 32-32s-14.3-32-32-32H288 272 193.7c-29.1 0-57.3 9.9-80 28L68.8 384H32c-17.7 0-32 14.3-32 32v64c0 17.7 14.3 32 32 32H192 352.5c29 0 57.3-9.3 80.7-26.5l126.6-93.3zm-367-8.2l.9 0 0 0c-.3 0-.6 0-.9 0z"/></svg>