<svg xmlns="http://www.w3.org/2000/svg" viewBox="0 0 512 512"><!--! Font Awesome Free 6.2.1 by @fontawesome - https://fontawesome.com License - https://fontawesome.com/license/free (Icons: CC BY 4.0, Fonts: SIL OFL 1.1, Code: MIT License) Copyright 2022 Fonticons, Inc. --><path d="M384 64c-17.7 0-32-14.3-32-32s14.3-32 32-32s32 14.3 32 32s-14.3 32-32 32zm80 160c-26.5 0-48-21.5-48-48s21.5-48 48-48s48 21.5 48 48s-21.5 48-48 48zM128 464c0 26.5-21.5 48-48 48s-48-21.5-48-48s21.5-48 48-48s48 21.5 48 48zM357.1 157.5c-.3 .7-.7 1.5-1.1 2.2l-17.8 30.9c-11-12.6-27.4-19.8-44.4-19.1l20.7-35.8c6.6-11.5 21.3-15.4 32.8-8.8c10.8 6.2 14.9 19.5 9.9 30.6zm-173.6 47C112.3 227.2 64 293.3 64 368c0 1.5 0 3 .1 4.5C24.3 346.9 0 302.8 0 255.1V131.5c0-13.3 10.7-24 24-24s24 10.7 24 24l0 81.7L164.2 12c6.6-11.5 21.3-15.4 32.8-8.8s15.4 21.3 8.8 32.8l-64 110.9c-2.2 3.8-.9 8.7 2.9 10.9s8.7 .9 10.9-2.9l80-138.6c6.6-11.5 21.3-15.4 32.8-8.8s15.4 21.3 8.8 32.8l-80 138.6c-2.2 3.8-.9 8.7 2.9 10.9s8.7 .9 10.9-2.9L275 76c6.6-11.5 21.3-15.4 32.8-8.8s15.4 21.3 8.8 32.8l-44 76.2-89.1 28.3zM448 483.5c0 12.4-9.4 22.6-21.5 23.9c-.8 .1-1.6 .1-2.5 .1H223.3 216c-22.1 0-42.9-6-60.7-16.5c3-8.5 4.7-17.6 4.7-27c0-38.7-27.5-71-64-78.4c0-.6 0-1.1 0-1.7c0-1.2-.1-2.5-.1-3.7c0-68 44-128.3 108.9-148.9l83.9-26.7c12.6-4 26.1 3 30.1 15.6s-3 26.1-15.6 30.1l-53.8 17.1H456c13.3 0 24 10.7 24 24s-10.7 24-24 24H328c-4.4 0-8 3.6-8 8s3.6 8 8 8H488c13.3 0 24 10.7 24 24s-10.7 24-24 24H328c-4.4 0-8 3.6-8 8s3.6 8 8 8H456c13.3 0 24 10.7 24 24s-10.7 24-24 24H328c-4.4 0-8 3.6-8 8s3.6 8 8 8h96c13.3 0 24 10.7 24 24z"/></svg>