<svg xmlns="http://www.w3.org/2000/svg" viewBox="0 0 640 512"><!--! Font Awesome Free 6.0.0 by @fontawesome - https://fontawesome.com License - https://fontawesome.com/license/free (Icons: CC BY 4.0, Fonts: SIL OFL 1.1, Code: MIT License) Copyright 2022 Fonticons, Inc. --><path d="M200 240c16.94 0 32.09 10.72 37.73 26.67c5.891 16.66 24.17 25.39 40.84 19.5c16.66-5.891 25.39-24.17 19.5-40.84C287.2 214.7 262.8 191.6 233.1 181.5l79.68-22.76c16.98-4.859 26.83-22.56 21.97-39.56C329.9 102.2 312.2 92.35 295.2 97.24L196 125.6l80.82-69.28c13.42-11.5 14.97-31.7 3.469-45.12C268.8-2.24 248.6-3.803 235.2 7.713l-100.4 86.09l22.33-48.39c7.391-16.05 .3906-35.06-15.66-42.47C125.4-4.412 106.4 2.525 98.94 18.6L14.92 206.6C5.082 228.6 0 252.5 0 276.6C0 335.9 48.1 384 107.4 384l99.9-.0064c31.87-2.289 61.15-19.35 79.13-46.18c9.828-14.69 5.891-34.56-8.781-44.41C263 283.6 243.1 287.5 233.3 302.2C225.8 313.3 213.4 320 200 320c-22.06 0-40-17.94-40-40C160 257.9 177.9 240 200 240zM532.6 128l-99.9 .004c-31.87 2.289-61.15 19.35-79.13 46.18c-9.828 14.69-5.891 34.56 8.781 44.41c14.66 9.812 34.55 5.906 44.41-8.781C414.2 198.7 426.6 191.1 440 191.1c22.06 0 40 17.94 40 40c0 22.06-17.94 39.1-40 39.1c-16.94 0-32.09-10.72-37.73-26.67c-5.891-16.66-24.17-25.39-40.84-19.5c-16.66 5.891-25.39 24.17-19.5 40.84c10.84 30.64 35.23 53.77 64.96 63.8l-79.68 22.76c-16.98 4.859-26.83 22.56-21.97 39.56c4.844 16.98 22.56 26.86 39.56 21.97l99.2-28.34l-80.82 69.28c-13.42 11.5-14.97 31.7-3.469 45.12c11.52 13.42 31.73 14.98 45.13 3.469l100.4-86.09l-22.33 48.39c-7.391 16.05-.3906 35.06 15.66 42.47c16.02 7.359 35.05 .4219 42.47-15.65l84.02-188C634.9 283.4 640 259.5 640 235.4C640 176.1 591.9 128 532.6 128z"/></svg>