<svg xmlns="http://www.w3.org/2000/svg" viewBox="0 0 448 512"><!--! Font Awesome Free 6.1.1 by @fontawesome - https://fontawesome.com License - https://fontawesome.com/license/free (Icons: CC BY 4.0, Fonts: SIL OFL 1.1, Code: MIT License) Copyright 2022 Fonticons, Inc. --><path d="M256 256v64c0 17.67 14.31 32 32 32s32-14.33 32-32V256c0-17.67-14.31-32-32-32S256 238.3 256 256zM200 272H160V352c0 17.67 14.31 32 32 32s32-14.33 32-32V267.6C216.5 270.3 208.5 272 200 272zM72 272C69.26 272 66.66 271.5 64 271.2V480c0 17.67 14.31 32 32 32s32-14.33 32-32V272H72zM416 288V224c0-17.67-14.31-32-32-32s-32 14.33-32 32v64c0 17.67 14.31 32 32 32S416 305.7 416 288zM384 160c11.72 0 22.55 3.381 32 8.879V136C416 60.89 355.1 0 280 0L191.3 0C162.5 0 134.5 9.107 111.2 26.02L74.81 52.47C48 72.03 32 103.5 32 136.6V200C32 222.1 49.91 240 72 240h128c22.09 0 39.1-17.91 39.1-39.1c0-28.73-26.72-40-42.28-40l-69.72 0C119.2 160 112 152.8 112 144S119.2 128 127.1 128H200c37.87 0 68.59 29.35 71.45 66.51C276.8 193.1 282.2 192 288 192c13.28 0 25.6 4.047 35.83 10.97C332.6 178 356.1 160 384 160z"/></svg>