<svg xmlns="http://www.w3.org/2000/svg" viewBox="0 0 640 512"><!--! Font Awesome Free 6.2.1 by @fontawesome - https://fontawesome.com License - https://fontawesome.com/license/free (Icons: CC BY 4.0, Fonts: SIL OFL 1.1, Code: MIT License) Copyright 2022 Fonticons, Inc. --><path d="M543.9 251.4c0-1.1 .1-2.2 .1-3.4c0-48.6-39.4-88-88-88l-40 0H320l-16 0 0 0v16 72c0 22.1-17.9 40-40 40s-40-17.9-40-40V128h.4c4-36 34.5-64 71.6-64H408c2.8 0 5.6 .2 8.3 .5l40.1-40.1c21.9-21.9 57.3-21.9 79.2 0l78.1 78.1c21.9 21.9 21.9 57.3 0 79.2l-69.7 69.7zM192 128V248c0 39.8 32.2 72 72 72s72-32.2 72-72V192h80l40 0c30.9 0 56 25.1 56 56c0 27.2-19.4 49.9-45.2 55c8.2 8.6 13.2 20.2 13.2 33c0 26.5-21.5 48-48 48h-2.7c1.8 5 2.7 10.4 2.7 16c0 26.5-21.5 48-48 48H224c-.9 0-1.8 0-2.7-.1l-37.7 37.7c-21.9 21.9-57.3 21.9-79.2 0L26.3 407.6c-21.9-21.9-21.9-57.3 0-79.2L96 258.7V224c0-53 43-96 96-96z"/></svg>