<svg xmlns="http://www.w3.org/2000/svg" viewBox="0 0 512 512"><!--! Font Awesome Free 6.2.0 by @fontawesome - https://fontawesome.com License - https://fontawesome.com/license/free (Icons: CC BY 4.0, Fonts: SIL OFL 1.1, Code: MIT License) Copyright 2022 Fonticons, Inc. --><path d="M0 224.2C0 100.6 100.2 0 224 0h32c95.2 0 174.2 69.3 189.4 160.1c2.2 13 6.7 25.7 15 36.1l42 52.6c6.2 7.8 9.6 17.4 9.6 27.4c0 24.2-19.6 43.8-43.8 43.8H448v64c0 35.3-28.7 64-64 64H320v32c0 17.7-14.3 32-32 32H96c-17.7 0-32-14.3-32-32V407.3c0-16.7-6.9-32.5-17.1-45.8C16.6 322.4 0 274.1 0 224.2zM240 80c-8.8 0-16 7.2-16 16c0 33-39.9 49.5-63.2 26.2c-6.2-6.2-16.4-6.2-22.6 0s-6.2 16.4 0 22.6C161.5 168.1 145 208 112 208c-8.8 0-16 7.2-16 16s7.2 16 16 16c33 0 49.5 39.9 26.2 63.2c-6.2 6.2-6.2 16.4 0 22.6s16.4 6.2 22.6 0C184.1 302.5 224 319 224 352c0 8.8 7.2 16 16 16s16-7.2 16-16c0-33 39.9-49.5 63.2-26.2c6.2 6.2 16.4 6.2 22.6 0s6.2-16.4 0-22.6C318.5 279.9 335 240 368 240c8.8 0 16-7.2 16-16s-7.2-16-16-16c-33 0-49.5-39.9-26.2-63.2c6.2-6.2 6.2-16.4 0-22.6s-16.4-6.2-22.6 0C295.9 145.5 256 129 256 96c0-8.8-7.2-16-16-16zM216 224c-13.3 0-24-10.7-24-24s10.7-24 24-24s24 10.7 24 24s-10.7 24-24 24zm72 32c0 8.8-7.2 16-16 16s-16-7.2-16-16s7.2-16 16-16s16 7.2 16 16z"/></svg>