<svg xmlns="http://www.w3.org/2000/svg" viewBox="0 0 640 512"><!--! Font Awesome Free 6.3.0 by @fontawesome - https://fontawesome.com License - https://fontawesome.com/license/free (Icons: CC BY 4.0, Fonts: SIL OFL 1.1, Code: MIT License) Copyright 2023 Fonticons, Inc. --><path d="M38.8 5.1C28.4-3.1 13.3-1.2 5.1 9.2S-1.2 34.7 9.2 42.9l592 464c10.4 8.2 25.5 6.3 33.7-4.1s6.3-25.5-4.1-33.7L440.3 319.8c22.3-2.1 39.7-20.8 39.7-43.7c0-10-3.4-19.6-9.6-27.4l-42-52.6c-8.3-10.3-12.8-23-15-36.1C398.2 69.3 319.2 0 224 0H201.7C157 0 115.7 14.5 82.2 39.2L38.8 5.1zM0 201.7c0 44.8 18.3 91.5 46.5 127.7C56.9 342.8 64 358.8 64 375.8V480c0 17.7 14.3 32 32 32H256c17.7 0 32-14.3 32-32h64c32.8 0 59.9-24.7 63.6-56.6l-9.4-7.4H352c-17.7 0-32-14.3-32-32c0-10.5 5.1-19.9 12.9-25.7L20.8 112.4C7.5 139.3 0 169.6 0 201.7zM632 288a24 24 0 1 0 -48 0 24 24 0 1 0 48 0zm-88 72a24 24 0 1 0 0-48 24 24 0 1 0 0 48zm64 48a24 24 0 1 0 0-48 24 24 0 1 0 0 48z"/></svg>