<svg xmlns="http://www.w3.org/2000/svg" viewBox="0 0 640 512"><!--! Font Awesome Free 6.2.0 by @fontawesome - https://fontawesome.com License - https://fontawesome.com/license/free (Icons: CC BY 4.0, Fonts: SIL OFL 1.1, Code: MIT License) Copyright 2022 Fonticons, Inc. --><path d="M471.7 401.9c34.2 23.1 81.1 19.5 111.4-10.8c34.4-34.4 34.4-90.1 0-124.4c-27.8-27.8-69.5-33.1-102.6-16c-11.8 6.1-16.4 20.6-10.3 32.3s20.6 16.4 32.3 10.3c15.1-7.8 34-5.3 46.6 7.3c15.6 15.6 15.6 40.9 0 56.6s-40.9 15.6-56.6 0l-81.7-81.7C433.2 261.3 448 236.4 448 208c0-33.9-21.1-62.9-50.9-74.5c1.9-6.8 2.9-14 2.9-21.5c0-44.2-35.8-80-80-80c-27.3 0-51.5 13.7-65.9 34.6C248.3 46.6 229.9 32 208 32c-26.5 0-48 21.5-48 48c0 4 .5 7.9 1.4 11.6L471.7 401.9zM512 64c0-17.7-14.3-32-32-32s-32 14.3-32 32s14.3 32 32 32s32-14.3 32-32zm0 128c17.7 0 32-14.3 32-32s-14.3-32-32-32s-32 14.3-32 32s14.3 32 32 32zM100.3 87C75.1 61.8 32 79.7 32 115.3V432c0 44.2 35.8 80 80 80H428.7c35.6 0 53.5-43.1 28.3-68.3L100.3 87z"/></svg>