<svg xmlns="http://www.w3.org/2000/svg" viewBox="0 0 640 512"><!--! Font Awesome Free 6.5.0 by @fontawesome - https://fontawesome.com License - https://fontawesome.com/license/free (Icons: CC BY 4.0, Fonts: SIL OFL 1.1, Code: MIT License) Copyright 2023 Fonticons, Inc. --><path d="M407 47c9.4-9.4 24.6-9.4 33.9 0l17.2 17.2c1.9-.1 3.9-.2 5.8-.2h32c11.2 0 21.9 2.3 31.6 6.5L543 55c9.4-9.4 24.6-9.4 33.9 0s9.4 24.6 0 33.9L564 101.9c7.6 12.2 12 26.7 12 42.1c0 10.2 7.4 18.8 16.7 23c27.9 12.5 47.3 40.5 47.3 73c0 26.2-12.6 49.4-32 64v32c0 8.8-7.2 16-16 16H560c-8.8 0-16-7.2-16-16V320H480v16c0 8.8-7.2 16-16 16H432c-8.8 0-16-7.2-16-16V318.4c-11.8-2.4-22.7-7.4-32-14.4c-1.5-1.1-2.9-2.3-4.3-3.5c-17-14.7-27.7-36.4-27.7-60.5c0-8.8-7.2-16-16-16s-16 7.2-16 16c0 44.7 26.2 83.2 64 101.2V352c0 17.7 14.3 32 32 32h32v64c0 17.7-14.3 32-32 32H352c-17.7 0-32-14.3-32-32V372c-19.8 7.7-41.4 12-64 12s-44.2-4.3-64-12v76c0 17.7-14.3 32-32 32H96c-17.7 0-32-14.3-32-32V329.1L45.9 369.7c-5.4 12.1-19.6 17.6-31.7 12.2S-3.3 362.4 2.1 350.3L24 300.9c5.3-11.9 8-24.7 8-37.7C32 155.7 117.2 68 223.8 64.1l.2-.1h7.2H256h32c41.7 0 83.4 12.1 117.2 25.7c1.7-1.8 3.5-3.6 5.3-5.2L407 81c-9.4-9.4-9.4-24.6 0-33.9zm73 185a24 24 0 1 0 -48 0 24 24 0 1 0 48 0zm88 24a24 24 0 1 0 0-48 24 24 0 1 0 0 48zM480 144a16 16 0 1 0 -32 0 16 16 0 1 0 32 0zm48 16a16 16 0 1 0 0-32 16 16 0 1 0 0 32z"/></svg>