<svg xmlns="http://www.w3.org/2000/svg" viewBox="0 0 512 512"><!--! Font Awesome Free 6.1.0 by @fontawesome - https://fontawesome.com License - https://fontawesome.com/license/free (Icons: CC BY 4.0, Fonts: SIL OFL 1.1, Code: MIT License) Copyright 2022 Fonticons, Inc. --><path d="M287.1 143.1c0 26.5 21.5 47.1 47.1 47.1c26.5 0 48-21.5 48-47.1s-21.5-47.1-48-47.1C309.5 95.99 287.1 117.5 287.1 143.1zM176 191.1c26.5 0 47.1-21.5 47.1-47.1S202.5 95.96 176 95.96c-26.5 0-47.1 21.5-47.1 47.1S149.5 191.1 176 191.1zM303.1 47.1C303.1 21.5 282.5 0 255.1 0c-26.5 0-47.1 21.5-47.1 47.1S229.5 95.99 255.1 95.99C282.5 95.99 303.1 74.5 303.1 47.1zM243.7 242.6C245.3 229.7 231.9 220.1 219.5 225.5C179.7 242.8 137.8 251.4 96.72 250.8C86.13 250.6 78.49 260.7 81.78 270.4C86.77 285.7 90.33 301.4 92.44 317.7c2.133 16.15-9.387 31.26-26.12 34.23c-16.87 2.965-33.7 4.348-50.48 4.152c-10.6-.0586-18.37 10.05-15.08 19.74c12.4 35.79 16.57 74.93 12.12 114.7c-1.723 14.96 13.71 25.67 28.02 19.8c38.47-15.95 78.77-23.81 118.2-23.34c10.58 .1953 18.36-9.91 15.07-19.6c-5.141-15.15-8.68-31.06-10.79-47.34c-2.133-16.16 9.371-31.13 26.24-34.09c16.73-2.973 33.57-4.496 50.36-4.301c10.73 .0781 18.51-10.03 15.22-19.72C242.5 324.7 238.5 283.9 243.7 242.6zM496.2 356.1c-16.78 .1953-33.61-1.188-50.48-4.152c-16.73-2.973-28.25-18.08-26.12-34.23c2.115-16.28 5.67-32.05 10.66-47.32c3.289-9.691-4.35-19.81-14.93-19.62c-41.11 .6484-83.01-7.965-122.7-25.23c-6.85-2.969-13.71-1.18-18.47 2.953c1.508 5.836 2.102 11.93 1.332 18.05c-4.539 36.23-1.049 72.56 10.12 105.1c3.395 9.988 3.029 20.73-.4766 30.52c12.44 .5 24.89 1.602 37.28 3.801c16.87 2.957 28.37 17.93 26.24 34.09c-2.115 16.27-5.654 32.19-10.79 47.34c-3.289 9.691 4.486 19.8 15.07 19.6c39.47-.4766 79.77 7.383 118.2 23.34c14.31 5.867 29.74-4.844 28.02-19.8c-4.451-39.81-.2832-78.95 12.12-114.7C514.5 366.1 506.8 356 496.2 356.1z"/></svg>