<svg xmlns="http://www.w3.org/2000/svg" viewBox="0 0 512 512"><!--! Font Awesome Free 6.2.1 by @fontawesome - https://fontawesome.com License - https://fontawesome.com/license/free (Icons: CC BY 4.0, Fonts: SIL OFL 1.1, Code: MIT License) Copyright 2022 Fonticons, Inc. --><path d="M32 0C14.3 0 0 14.3 0 32S14.3 64 32 64V448c-17.7 0-32 14.3-32 32s14.3 32 32 32H208V448h96v64H480c17.7 0 32-14.3 32-32s-14.3-32-32-32V64c17.7 0 32-14.3 32-32s-14.3-32-32-32H32zm80 96h32c8.8 0 16 7.2 16 16v32c0 8.8-7.2 16-16 16H112c-8.8 0-16-7.2-16-16V112c0-8.8 7.2-16 16-16zm112 16c0-8.8 7.2-16 16-16h32c8.8 0 16 7.2 16 16v32c0 8.8-7.2 16-16 16H240c-8.8 0-16-7.2-16-16V112zM368 96h32c8.8 0 16 7.2 16 16v32c0 8.8-7.2 16-16 16H368c-8.8 0-16-7.2-16-16V112c0-8.8 7.2-16 16-16zM96 208c0-8.8 7.2-16 16-16h32c8.8 0 16 7.2 16 16v32c0 8.8-7.2 16-16 16H112c-8.8 0-16-7.2-16-16V208zm144-16h32c8.8 0 16 7.2 16 16v32c0 8.8-7.2 16-16 16H240c-8.8 0-16-7.2-16-16V208c0-8.8 7.2-16 16-16zm112 16c0-8.8 7.2-16 16-16h32c8.8 0 16 7.2 16 16v32c0 8.8-7.2 16-16 16H368c-8.8 0-16-7.2-16-16V208zm-3 152.2c3.3 12.8-7.8 23.8-21 23.8H184c-13.3 0-24.3-10.9-21-23.8c10.6-41.5 48.2-72.2 93-72.2s82.5 30.7 93 72.2z"/></svg>