<svg xmlns="http://www.w3.org/2000/svg" viewBox="0 0 512 512"><!--! Font Awesome Free 6.4.0 by @fontawesome - https://fontawesome.com License - https://fontawesome.com/license/free (Icons: CC BY 4.0, Fonts: SIL OFL 1.1, Code: MIT License) Copyright 2023 Fonticons, Inc. --><path d="M0 32C0 14.3 14.3 0 32 0H480c17.7 0 32 14.3 32 32s-14.3 32-32 32V448c17.7 0 32 14.3 32 32s-14.3 32-32 32H304V464c0-26.5-21.5-48-48-48s-48 21.5-48 48v48H32c-17.7 0-32-14.3-32-32s14.3-32 32-32V64C14.3 64 0 49.7 0 32zm96 80v32c0 8.8 7.2 16 16 16h32c8.8 0 16-7.2 16-16V112c0-8.8-7.2-16-16-16H112c-8.8 0-16 7.2-16 16zM240 96c-8.8 0-16 7.2-16 16v32c0 8.8 7.2 16 16 16h32c8.8 0 16-7.2 16-16V112c0-8.8-7.2-16-16-16H240zm112 16v32c0 8.8 7.2 16 16 16h32c8.8 0 16-7.2 16-16V112c0-8.8-7.2-16-16-16H368c-8.8 0-16 7.2-16 16zM112 192c-8.8 0-16 7.2-16 16v32c0 8.8 7.2 16 16 16h32c8.8 0 16-7.2 16-16V208c0-8.8-7.2-16-16-16H112zm112 16v32c0 8.8 7.2 16 16 16h32c8.8 0 16-7.2 16-16V208c0-8.8-7.2-16-16-16H240c-8.8 0-16 7.2-16 16zm144-16c-8.8 0-16 7.2-16 16v32c0 8.8 7.2 16 16 16h32c8.8 0 16-7.2 16-16V208c0-8.8-7.2-16-16-16H368zM328 384c13.3 0 24.3-10.9 21-23.8c-10.6-41.5-48.2-72.2-93-72.2s-82.5 30.7-93 72.2c-3.3 12.8 7.8 23.8 21 23.8H328z"/></svg>