<svg xmlns="http://www.w3.org/2000/svg" viewBox="0 0 576 512"><!--! Font Awesome Free 6.2.1 by @fontawesome - https://fontawesome.com License - https://fontawesome.com/license/free (Icons: CC BY 4.0, Fonts: SIL OFL 1.1, Code: MIT License) Copyright 2022 Fonticons, Inc. --><path d="M314.3 8.5c12.3-11.3 31.2-11.3 43.4 0l208 192c9.7 8.9 12.9 22.9 8.1 35.2S557.2 256 544 256H512V368c0 26.5-21.5 48-48 48H278.1C259.6 350.8 216.8 295.9 160 261.7V256h-9.9c-16.5-9-34-16.2-52.3-21.6c-4.1-12-.8-25.3 8.5-34l208-192zM304 192c-8.8 0-16 7.2-16 16v64c0 8.8 7.2 16 16 16h64c8.8 0 16-7.2 16-16V208c0-8.8-7.2-16-16-16H304zM24 256c128.1 0 232 103.9 232 232c0 13.3-10.7 24-24 24s-24-10.7-24-24c0-101.6-82.4-184-184-184c-13.3 0-24-10.7-24-24s10.7-24 24-24zm8 256c-17.7 0-32-14.3-32-32s14.3-32 32-32s32 14.3 32 32s-14.3 32-32 32zM0 376c0-13.3 10.7-24 24-24c75.1 0 136 60.9 136 136c0 13.3-10.7 24-24 24s-24-10.7-24-24c0-48.6-39.4-88-88-88c-13.3 0-24-10.7-24-24z"/></svg>