<svg xmlns="http://www.w3.org/2000/svg" viewBox="0 0 576 512"><!--! Font Awesome Free 6.2.0 by @fontawesome - https://fontawesome.com License - https://fontawesome.com/license/free (Icons: CC BY 4.0, Fonts: SIL OFL 1.1, Code: MIT License) Copyright 2022 Fonticons, Inc. --><path d="M0 96l576 0c0-35.3-28.7-64-64-64H64C28.7 32 0 60.7 0 96zm0 32V416c0 35.3 28.7 64 64 64H512c35.3 0 64-28.7 64-64V128H0zM64 405.3c0-29.5 23.9-53.3 53.3-53.3H234.7c29.5 0 53.3 23.9 53.3 53.3c0 5.9-4.8 10.7-10.7 10.7H74.7c-5.9 0-10.7-4.8-10.7-10.7zM176 320c-35.3 0-64-28.7-64-64s28.7-64 64-64s64 28.7 64 64s-28.7 64-64 64zM352 208c0-8.8 7.2-16 16-16H496c8.8 0 16 7.2 16 16s-7.2 16-16 16H368c-8.8 0-16-7.2-16-16zm0 64c0-8.8 7.2-16 16-16H496c8.8 0 16 7.2 16 16s-7.2 16-16 16H368c-8.8 0-16-7.2-16-16zm0 64c0-8.8 7.2-16 16-16H496c8.8 0 16 7.2 16 16s-7.2 16-16 16H368c-8.8 0-16-7.2-16-16z"/></svg>