<svg xmlns="http://www.w3.org/2000/svg" viewBox="0 0 512 512"><!--! Font Awesome Free 6.0.0 by @fontawesome - https://fontawesome.com License - https://fontawesome.com/license/free (Icons: CC BY 4.0, Fonts: SIL OFL 1.1, Code: MIT License) Copyright 2022 Fonticons, Inc. --><path d="M447.1 32h-384C28.64 32-.0091 60.65-.0091 96v320c0 35.35 28.65 64 63.1 64h384c35.35 0 64-28.65 64-64V96C511.1 60.65 483.3 32 447.1 32zM111.1 96c26.51 0 48 21.49 48 48S138.5 192 111.1 192s-48-21.49-48-48S85.48 96 111.1 96zM446.1 407.6C443.3 412.8 437.9 416 432 416H82.01c-6.021 0-11.53-3.379-14.26-8.75c-2.73-5.367-2.215-11.81 1.334-16.68l70-96C142.1 290.4 146.9 288 152 288s9.916 2.441 12.93 6.574l32.46 44.51l93.3-139.1C293.7 194.7 298.7 192 304 192s10.35 2.672 13.31 7.125l128 192C448.6 396 448.9 402.3 446.1 407.6z"/></svg>