<svg xmlns="http://www.w3.org/2000/svg" viewBox="0 0 320 512"><!--! Font Awesome Free 6.0.0 by @fontawesome - https://fontawesome.com License - https://fontawesome.com/license/free (Icons: CC BY 4.0, Fonts: SIL OFL 1.1, Code: MIT License) Copyright 2022 Fonticons, Inc. --><path d="M314.3 429.8c10.06 14.53 6.438 34.47-8.094 44.53c-5.562 3.844-11.91 5.688-18.19 5.688c-10.16 0-20.12-4.812-26.34-13.78L128.1 273.3L64 338.9v109.1c0 17.67-14.31 32-32 32s-32-14.33-32-32v-384C0 46.34 14.31 32.01 32 32.01S64 46.34 64 64.01v183.3l201.1-205.7c12.31-12.61 32.63-12.86 45.25-.5c12.62 12.34 12.88 32.61 .5 45.25l-137.2 140.3L314.3 429.8z"/></svg>