<svg xmlns="http://www.w3.org/2000/svg" viewBox="0 0 576 512"><!--! Font Awesome Free 6.2.0 by @fontawesome - https://fontawesome.com License - https://fontawesome.com/license/free (Icons: CC BY 4.0, Fonts: SIL OFL 1.1, Code: MIT License) Copyright 2022 Fonticons, Inc. --><path d="M240 144c0-53-43-96-96-96s-96 43-96 96s43 96 96 96s96-43 96-96zm44.4 32C269.9 240.1 212.5 288 144 288C64.5 288 0 223.5 0 144S64.5 0 144 0c68.5 0 125.9 47.9 140.4 112h71.8c8.8-9.8 21.6-16 35.8-16H496c26.5 0 48 21.5 48 48s-21.5 48-48 48H392c-14.2 0-27-6.2-35.8-16H284.4zM144 208c-35.3 0-64-28.7-64-64s28.7-64 64-64s64 28.7 64 64s-28.7 64-64 64zm256 32c13.3 0 24 10.7 24 24v8h96c13.3 0 24 10.7 24 24s-10.7 24-24 24H280c-13.3 0-24-10.7-24-24s10.7-24 24-24h96v-8c0-13.3 10.7-24 24-24zM288 464V352H512V464c0 26.5-21.5 48-48 48H336c-26.5 0-48-21.5-48-48zM48 320h80 16 32c26.5 0 48 21.5 48 48s-21.5 48-48 48H160c0 17.7-14.3 32-32 32H64c-17.7 0-32-14.3-32-32V336c0-8.8 7.2-16 16-16zm128 64c8.8 0 16-7.2 16-16s-7.2-16-16-16H160v32h16zM24 464H200c13.3 0 24 10.7 24 24s-10.7 24-24 24H24c-13.3 0-24-10.7-24-24s10.7-24 24-24z"/></svg>