<svg xmlns="http://www.w3.org/2000/svg" viewBox="0 0 448 512"><!--! Font Awesome Free 6.0.0 by @fontawesome - https://fontawesome.com License - https://fontawesome.com/license/free (Icons: CC BY 4.0, Fonts: SIL OFL 1.1, Code: MIT License) Copyright 2022 Fonticons, Inc. --><path d="M52.11 221.7l320 128C376 351.3 380 352 383.1 352c12.7 0 24.72-7.594 29.73-20.12c6.562-16.41-1.422-35.03-17.83-41.59L150.2 192l245.7-98.28c16.41-6.562 24.39-25.19 17.83-41.59S388.6 27.68 372.1 34.21l-320 128.1C39.97 167.2 32 178.9 32 192S39.97 216.8 52.11 221.7zM416 416H32c-17.67 0-32 14.31-32 31.1S14.33 480 32 480h384c17.67 0 32-14.31 32-32S433.7 416 416 416z"/></svg>