<svg xmlns="http://www.w3.org/2000/svg" viewBox="0 0 640 512"><!--! Font Awesome Free 6.0.0 by @fontawesome - https://fontawesome.com License - https://fontawesome.com/license/free (Icons: CC BY 4.0, Fonts: SIL OFL 1.1, Code: MIT License) Copyright 2022 Fonticons, Inc. --><path d="M185.7 120.3C242.5 75.82 324.7 79.73 376.1 131.1C420.1 175.1 430.9 239.6 406.7 293.5L438.6 318.4L534.5 222.5C566 191 566 139.1 534.5 108.5C506.7 80.63 462.7 76.1 430.7 99.9L429.1 101C414.7 111.3 394.7 107.1 384.5 93.58C374.2 79.2 377.5 59.21 391.9 48.94L393.5 47.82C451 6.732 529.8 13.25 579.8 63.24C636.3 119.7 636.3 211.3 579.8 267.7L489.3 358.2L630.8 469.1C641.2 477.3 643.1 492.4 634.9 502.8C626.7 513.2 611.6 515.1 601.2 506.9L9.196 42.89C-1.236 34.71-3.065 19.63 5.112 9.196C13.29-1.236 28.37-3.065 38.81 5.112L185.7 120.3zM238.1 161.1L353.4 251.7C359.3 225.5 351.7 197.2 331.7 177.2C306.6 152.1 269.1 147 238.1 161.1V161.1zM263 380C233.1 350.1 218.7 309.8 220.9 270L406.6 416.4C357.4 431 301.9 418.9 263 380V380zM116.6 187.9L167.2 227.8L105.5 289.5C73.99 320.1 73.99 372 105.5 403.5C133.3 431.4 177.3 435 209.3 412.1L210.9 410.1C225.3 400.7 245.3 404 255.5 418.4C265.8 432.8 262.5 452.8 248.1 463.1L246.5 464.2C188.1 505.3 110.2 498.7 60.21 448.8C3.741 392.3 3.741 300.7 60.21 244.3L116.6 187.9z"/></svg>