<svg xmlns="http://www.w3.org/2000/svg" viewBox="0 0 640 512"><!--! Font Awesome Free 6.1.0 by @fontawesome - https://fontawesome.com License - https://fontawesome.com/license/free (Icons: CC BY 4.0, Fonts: SIL OFL 1.1, Code: MIT License) Copyright 2022 Fonticons, Inc. --><path d="M619.3 244.7l-82.34-77.61c-15.12-15.12-40.97-4.41-40.97 16.97V223.1L463.1 224V176c.002-8.838-7.162-16-15.1-16h-32c-8.84 0-16 7.16-16 16V224h-19.05c-15.07-81.9-86.7-144-172.1-144C110.8 80 32 158.8 32 256c0 97.2 78.8 176 176 176c86.26 0 157.9-62.1 172.1-144h19.05V336c0 8.836 7.162 16 16 16h32c8.836 0 15.1-7.164 15.1-16V287.1L496 288v39.95c0 21.38 25.85 32.09 40.97 16.97l82.34-77.61C625.6 261.1 625.6 250.9 619.3 244.7zM208 352c-52.94 0-96-43.07-96-96c-.002-52.94 43.06-96 96-96c52.93 0 95.1 43.06 95.1 96C304 308.9 260.9 352 208 352z"/></svg>