<svg xmlns="http://www.w3.org/2000/svg" viewBox="0 0 640 512"><!--! Font Awesome Free 6.1.1 by @fontawesome - https://fontawesome.com License - https://fontawesome.com/license/free (Icons: CC BY 4.0, Fonts: SIL OFL 1.1, Code: MIT License) Copyright 2022 Fonticons, Inc. --><path d="M607.1 0C625.7 0 639.1 14.33 639.1 32V120C639.1 137.7 625.7 152 607.1 152C590.3 152 575.1 137.7 575.1 120V109.3L539.6 145.7C552.6 168.8 559.1 195.6 559.1 224C559.1 301.4 505 365.1 431.1 380.8V400H447.1C465.7 400 479.1 414.3 479.1 432C479.1 449.7 465.7 464 447.1 464H431.1V480C431.1 497.7 417.7 512 399.1 512C382.3 512 367.1 497.7 367.1 480V464H351.1C334.3 464 319.1 449.7 319.1 432C319.1 414.3 334.3 400 351.1 400H367.1V380.8C294.1 365.1 239.1 301.4 239.1 224C239.1 135.6 311.6 64 399.1 64C436.7 64 470.6 76.37 497.6 97.18L530.7 64H511.1C494.3 64 479.1 49.67 479.1 32C479.1 14.33 494.3 0 511.1 0L607.1 0zM399.1 128C346.1 128 303.1 170.1 303.1 224C303.1 277 346.1 320 399.1 320C453 320 495.1 277 495.1 224C495.1 170.1 453 128 399.1 128zM220.3 92.05L280.4 73.81C236.3 108.1 207.1 163.2 207.1 224C207.1 269.2 223.6 310.8 249.8 343.6C244.5 345 238.7 343.7 234.6 339.9L175.1 286.1L117.4 339.9C112.6 344.4 105.5 345.4 99.63 342.6C93.73 339.7 90.15 333.6 90.62 327L96.21 247.6L17.55 235.4C11.08 234.4 5.868 229.6 4.41 223.2C2.951 216.8 5.538 210.1 10.94 206.4L76.5 161.3L37.01 92.18C33.76 86.49 34.31 79.39 38.39 74.27C42.48 69.14 49.28 67.03 55.55 68.93L131.7 92.05L161.1 18.09C163.6 11.1 169.4 7.1 175.1 7.1C182.6 7.1 188.4 11.1 190.9 18.09L220.3 92.05z"/></svg>