<svg xmlns="http://www.w3.org/2000/svg" viewBox="0 0 448 512"><!--! Font Awesome Free 6.2.0 by @fontawesome - https://fontawesome.com License - https://fontawesome.com/license/free (Icons: CC BY 4.0, Fonts: SIL OFL 1.1, Code: MIT License) Copyright 2022 Fonticons, Inc. --><path d="M168 32H24C10.7 32 0 42.7 0 56V200c0 9.7 5.8 18.5 14.8 22.2s19.3 1.7 26.2-5.2l40-40 79 79L81 335 41 295c-6.9-6.9-17.2-8.9-26.2-5.2S0 302.3 0 312V456c0 13.3 10.7 24 24 24H168c9.7 0 18.5-5.8 22.2-14.8s1.7-19.3-5.2-26.2l-40-40 79-79 79 79-40 40c-6.9 6.9-8.9 17.2-5.2 26.2s12.5 14.8 22.2 14.8H424c13.3 0 24-10.7 24-24V312c0-9.7-5.8-18.5-14.8-22.2s-19.3-1.7-26.2 5.2l-40 40-79-79 79-79 40 40c6.9 6.9 17.2 8.9 26.2 5.2s14.8-12.5 14.8-22.2V56c0-13.3-10.7-24-24-24H280c-9.7 0-18.5 5.8-22.2 14.8s-1.7 19.3 5.2 26.2l40 40-79 79-79-79 40-40c6.9-6.9 8.9-17.2 5.2-26.2S177.7 32 168 32z"/></svg>