<svg xmlns="http://www.w3.org/2000/svg" viewBox="0 0 448 512"><!--! Font Awesome Free 6.2.0 by @fontawesome - https://fontawesome.com License - https://fontawesome.com/license/free (Icons: CC BY 4.0, Fonts: SIL OFL 1.1, Code: MIT License) Copyright 2022 Fonticons, Inc. --><path d="M352 384H64L5.4 178.9C1.8 166.4 0 153.4 0 140.3C0 62.8 62.8 0 140.3 0h3.4c66 0 123.5 44.9 139.5 108.9l31.4 125.8 17.6-20.1C344.8 200.2 362.9 192 382 192h2.8c34.9 0 63.3 28.3 63.3 63.3c0 15.9-6 31.2-16.8 42.9L352 384zM32 448c0-17.7 14.3-32 32-32H352c17.7 0 32 14.3 32 32v32c0 17.7-14.3 32-32 32H64c-17.7 0-32-14.3-32-32V448z"/></svg>