<svg xmlns="http://www.w3.org/2000/svg" viewBox="0 0 576 512"><!--! Font Awesome Free 6.3.0 by @fontawesome - https://fontawesome.com License - https://fontawesome.com/license/free (Icons: CC BY 4.0, Fonts: SIL OFL 1.1, Code: MIT License) Copyright 2023 Fonticons, Inc. --><path d="M64 64C28.7 64 0 92.7 0 128V384c0 35.3 28.7 64 64 64H512c35.3 0 64-28.7 64-64V128c0-35.3-28.7-64-64-64H64zm64 320H64V320c35.3 0 64 28.7 64 64zM64 192V128h64c0 35.3-28.7 64-64 64zM448 384c0-35.3 28.7-64 64-64v64H448zm64-192c-35.3 0-64-28.7-64-64h64v64zM176 256a112 112 0 1 1 224 0 112 112 0 1 1 -224 0zm76-48c0 9.7 6.9 17.7 16 19.6V276h-4c-11 0-20 9-20 20s9 20 20 20h24 24c11 0 20-9 20-20s-9-20-20-20h-4V208c0-11-9-20-20-20H272c-11 0-20 9-20 20z"/></svg>