<svg xmlns="http://www.w3.org/2000/svg" viewBox="0 0 640 512"><!--! Font Awesome Free 6.1.0 by @fontawesome - https://fontawesome.com License - https://fontawesome.com/license/free (Icons: CC BY 4.0, Fonts: SIL OFL 1.1, Code: MIT License) Copyright 2022 Fonticons, Inc. --><path d="M512 32H120c-13.25 0-24 10.75-24 24L96.01 288c0 53 43 96 96 96h192C437 384 480 341 480 288h32c70.63 0 128-57.38 128-128S582.6 32 512 32zM512 224h-32V96h32c35.25 0 64 28.75 64 64S547.3 224 512 224zM560 416h-544C7.164 416 0 423.2 0 432C0 458.5 21.49 480 48 480h480c26.51 0 48-21.49 48-48C576 423.2 568.8 416 560 416z"/></svg>