<svg xmlns="http://www.w3.org/2000/svg" viewBox="0 0 512 512"><!--! Font Awesome Free 6.2.1 by @fontawesome - https://fontawesome.com License - https://fontawesome.com/license/free (Icons: CC BY 4.0, Fonts: SIL OFL 1.1, Code: MIT License) Copyright 2022 Fonticons, Inc. --><path d="M32 64c0-17.7 14.3-32 32-32H448c17.7 0 32 14.3 32 32s-14.3 32-32 32H64C46.3 96 32 81.7 32 64zM224 192c0-17.7 14.3-32 32-32H448c17.7 0 32 14.3 32 32s-14.3 32-32 32H256c-17.7 0-32-14.3-32-32zm32 96H448c17.7 0 32 14.3 32 32s-14.3 32-32 32H256c-17.7 0-32-14.3-32-32s14.3-32 32-32zM32 448c0-17.7 14.3-32 32-32H448c17.7 0 32 14.3 32 32s-14.3 32-32 32H64c-17.7 0-32-14.3-32-32zm.2-179.4c-8.2-6.4-8.2-18.9 0-25.3l101.9-79.3c10.5-8.2 25.8-.7 25.8 12.6V335.3c0 13.3-15.3 20.8-25.8 12.6L32.2 268.6z"/></svg>