<svg xmlns="http://www.w3.org/2000/svg" viewBox="0 0 512 512"><!--! Font Awesome Free 6.1.2 by @fontawesome - https://fontawesome.com License - https://fontawesome.com/license/free (Icons: CC BY 4.0, Fonts: SIL OFL 1.1, Code: MIT License) Copyright 2022 Fonticons, Inc. --><path d="M226.5 92.85C240.8 135.7 226.2 179.1 193.9 189.7C161.6 200.2 123.8 174 109.5 131.1C95.19 88.26 109.8 44.92 142.1 34.34C174.4 23.77 212.2 49.96 226.5 92.85zM100.4 198.6C119.2 231 114.7 268.7 90.16 282.7C65.65 296.8 30.49 281.9 11.63 249.4C-7.237 216.1-2.664 179.3 21.84 165.3C46.35 151.2 81.51 166.1 100.4 198.6zM69.21 401.2C121.6 259.9 214.7 224 256 224C297.3 224 390.4 259.9 442.8 401.2C446.4 410.9 448 421.3 448 431.7V433.3C448 459.1 427.1 480 401.3 480C389.8 480 378.4 478.6 367.3 475.8L279.3 453.8C263.1 450 248 450 232.7 453.8L144.7 475.8C133.6 478.6 122.2 480 110.7 480C84.93 480 64 459.1 64 433.3V431.7C64 421.3 65.6 410.9 69.21 401.2H69.21zM421.8 282.7C397.3 268.7 392.8 231 411.6 198.6C430.5 166.1 465.7 151.2 490.2 165.3C514.7 179.3 519.2 216.1 500.4 249.4C481.5 281.9 446.3 296.8 421.8 282.7zM310.1 189.7C277.8 179.1 263.2 135.7 277.5 92.85C291.8 49.96 329.6 23.77 361.9 34.34C394.2 44.92 408.8 88.26 394.5 131.1C380.2 174 342.4 200.2 310.1 189.7z"/></svg>