<svg xmlns="http://www.w3.org/2000/svg" viewBox="0 0 512 512"><!--! Font Awesome Free 6.1.0 by @fontawesome - https://fontawesome.com License - https://fontawesome.com/license/free (Icons: CC BY 4.0, Fonts: SIL OFL 1.1, Code: MIT License) Copyright 2022 Fonticons, Inc. --><path d="M465 134.2c21.46-38.38 19.87-87.17-5.65-123.1c-7.541-10.83-22.31-13.53-33.2-5.938c-10.77 7.578-13.44 22.55-5.896 33.41c14.41 20.76 15.13 47.69 4.098 69.77C407.1 100.1 388 95.1 368 95.1c-36.23 0-68.93 13.83-94.24 35.92L352 165.5V256h90.56l33.53 78.23C498.2 308.9 512 276.2 512 239.1C512 198 493.7 160.6 465 134.2zM320 288V186.6l-52.95-22.69C216.2 241.3 188.5 400 56 400C25.13 400 0 425.1 0 456S25.13 512 56 512c180.3 0 320.1-88.27 389.3-168.5L421.5 288H320z"/></svg>