<svg xmlns="http://www.w3.org/2000/svg" viewBox="0 0 512 512"><!--! Font Awesome Free 6.5.1 by @fontawesome - https://fontawesome.com License - https://fontawesome.com/license/free (Icons: CC BY 4.0, Fonts: SIL OFL 1.1, Code: MIT License) Copyright 2023 Fonticons, Inc. --><path d="M380.7 48a48 48 0 1 1 96 0 48 48 0 1 1 -96 0zM2.7 268.9c6.1-11.8 20.6-16.3 32.4-10.2L232.7 361.3l46.2-69.2-75.1-75.1c-14.6-14.6-20.4-33.9-18.4-52.1l108.8 52 39.3 39.3c16.2 16.2 18.7 41.5 6 60.6L289.8 391l128.7 66.8c13.6 7.1 29.8 7.2 43.6 .3l15.2-7.6c11.9-5.9 26.3-1.1 32.2 10.7s1.1 26.3-10.7 32.2l-15.2 7.6c-27.5 13.7-59.9 13.5-87.2-.7L12.9 301.3C1.2 295.2-3.4 280.7 2.7 268.9zM118.9 65.6L137 74.2l8.7-17.4c4-7.9 13.6-11.1 21.5-7.2s11.1 13.6 7.2 21.5l-8.5 16.9 54.7 26.2c1.5-.7 3.1-1.4 4.7-2.1l83.4-33.4c34.2-13.7 72.8 4.2 84.5 39.2l17.1 51.2 52.1 26.1c15.8 7.9 22.2 27.1 14.3 42.9s-27.1 22.2-42.9 14.3l-58.1-29c-11.4-5.7-20-15.7-24.1-27.8l-5.8-17.3-27.3 12.1-6.8 3-6.7-3.2L151.5 116.7l-9.2 18.4c-4 7.9-13.6 11.1-21.5 7.2s-11.1-13.6-7.2-21.5l9-18-17.6-8.4c-8-3.8-11.3-13.4-7.5-21.3s13.4-11.3 21.3-7.5z"/></svg>