<svg xmlns="http://www.w3.org/2000/svg" viewBox="0 0 576 512"><!--! Font Awesome Free 6.2.0 by @fontawesome - https://fontawesome.com License - https://fontawesome.com/license/free (Icons: CC BY 4.0, Fonts: SIL OFL 1.1, Code: MIT License) Copyright 2022 Fonticons, Inc. --><path d="M288 176c48.6 0 88-39.4 88-88s-39.4-88-88-88s-88 39.4-88 88s39.4 88 88 88zM78.7 372.9c15-12.5 50-34.4 97.3-50.1V432H400V322.7c47.3 15.8 82.3 37.7 97.3 50.1c20.4 17 50.6 14.2 67.6-6.1s14.2-50.6-6.1-67.6c-12-10-30.1-22.5-53.2-35C497.2 278.4 481.7 288 464 288c-26.5 0-48-21.5-48-48c0-4.3 .6-8.4 1.6-12.4C379.1 215.9 335.3 208 288 208c-60.2 0-114.9 12.9-160 29.9c0 .7 0 1.4 0 2.1c0 26.5-21.5 48-48 48c-11.8 0-22.7-4.3-31-11.4c-13.1 8.1-23.7 15.9-31.7 22.5c-20.4 17-23.1 47.2-6.1 67.6s47.2 23.1 67.6 6.1zM24 464c-13.3 0-24 10.7-24 24s10.7 24 24 24H552c13.3 0 24-10.7 24-24s-10.7-24-24-24H24zM272 280c0 13.3-10.7 24-24 24s-24-10.7-24-24s10.7-24 24-24s24 10.7 24 24zm56 104c-13.3 0-24-10.7-24-24s10.7-24 24-24s24 10.7 24 24s-10.7 24-24 24zM96 240c0-8.8-7.2-16-16-16s-16 7.2-16 16s7.2 16 16 16s16-7.2 16-16zm368 16c8.8 0 16-7.2 16-16s-7.2-16-16-16s-16 7.2-16 16s7.2 16 16 16z"/></svg>