<svg xmlns="http://www.w3.org/2000/svg" viewBox="0 0 384 512"><!--! Font Awesome Free 6.5.1 by @fontawesome - https://fontawesome.com License - https://fontawesome.com/license/free (Icons: CC BY 4.0, Fonts: SIL OFL 1.1, Code: MIT License) Copyright 2023 Fonticons, Inc. --><path d="M192 0a48 48 0 1 1 0 96 48 48 0 1 1 0-96zM120 383c-13.8-3.6-24-16.1-24-31V296.9l-4.6 7.6c-9.1 15.1-28.8 20-43.9 10.9s-20-28.8-10.9-43.9l58.3-97c15-24.9 40.3-41.5 68.7-45.6c4.1-.6 8.2-1 12.5-1h1.1 12.5H192c1.4 0 2.8 .1 4.1 .3c35.7 2.9 65.4 29.3 72.1 65l6.1 32.5c44.3 8.6 77.7 47.5 77.7 94.3v32c0 17.7-14.3 32-32 32H304 264v96c0 17.7-14.3 32-32 32s-32-14.3-32-32V384h-8-8v96c0 17.7-14.3 32-32 32s-32-14.3-32-32V383z"/></svg>