<svg xmlns="http://www.w3.org/2000/svg" viewBox="0 0 384 512"><!--! Font Awesome Free 6.0.0 by @fontawesome - https://fontawesome.com License - https://fontawesome.com/license/free (Icons: CC BY 4.0, Fonts: SIL OFL 1.1, Code: MIT License) Copyright 2022 Fonticons, Inc. --><path d="M320 32c0-17.62-14.38-32-32-32s-32 14.38-32 32v96h64V32zM368 159.1h-352c-8.875 0-16 7.125-16 16v32c0 8.875 7.125 16 16 16H32V256c0 76 53.5 141.6 128 156.8V512h64v-99.25C298.5 397.6 352 332 352 256V223.1h16c8.875 0 16-7.125 16-16v-32C384 167.1 376.9 159.1 368 159.1zM128 32c0-17.62-14.38-32-32-32S64 14.38 64 32v96h64V32z"/></svg>