<svg xmlns="http://www.w3.org/2000/svg" viewBox="0 0 512 512"><!--! Font Awesome Free 6.1.2 by @fontawesome - https://fontawesome.com License - https://fontawesome.com/license/free (Icons: CC BY 4.0, Fonts: SIL OFL 1.1, Code: MIT License) Copyright 2022 Fonticons, Inc. --><path d="M512 440.1C512 479.9 479.7 512 439.1 512H71.92C32.17 512 0 479.8 0 440c0-35.88 26.19-65.35 60.56-70.85C43.31 356 32 335.4 32 312C32 272.2 64.25 240 104 240h13.99C104.5 228.2 96 211.2 96 192c0-35.38 28.56-64 63.94-64h16C220.1 128 256 92.12 256 48c0-17.38-5.784-33.35-15.16-46.47C245.8 .7754 250.9 0 256 0c53 0 96 43 96 96c0 11.25-2.288 22-5.913 32h5.879C387.3 128 416 156.6 416 192c0 19.25-8.59 36.25-22.09 48H408C447.8 240 480 272.2 480 312c0 23.38-11.38 44.01-28.63 57.14C485.7 374.6 512 404.3 512 440.1z"/></svg>