<svg xmlns="http://www.w3.org/2000/svg" viewBox="0 0 448 512"><!--! Font Awesome Free 6.2.0 by @fontawesome - https://fontawesome.com License - https://fontawesome.com/license/free (Icons: CC BY 4.0, Fonts: SIL OFL 1.1, Code: MIT License) Copyright 2022 Fonticons, Inc. --><path d="M128 32v96H256V96h60.1c4.2 0 8.3 1.7 11.3 4.7l33.9 33.9c12.5 12.5 32.8 12.5 45.3 0s12.5-32.8 0-45.3L372.7 55.4c-15-15-35.4-23.4-56.6-23.4H256c0-17.7-14.3-32-32-32H160c-17.7 0-32 14.3-32 32zM117.4 160c-33.3 0-61 25.5-63.8 58.7L35 442.7C31.9 480 61.3 512 98.8 512H285.2c37.4 0 66.9-32 63.8-69.3l-18.7-224c-2.8-33.2-30.5-58.7-63.8-58.7H117.4zM256 360c0 35.3-28.7 56-64 56s-64-20.7-64-56c0-32.5 37-80.9 50.9-97.9c3.2-3.9 8.1-6.1 13.1-6.1s9.9 2.2 13.1 6.1C219 279.1 256 327.5 256 360z"/></svg>