<svg xmlns="http://www.w3.org/2000/svg" viewBox="0 0 512 512"><!--! Font Awesome Free 6.2.1 by @fontawesome - https://fontawesome.com License - https://fontawesome.com/license/free (Icons: CC BY 4.0, Fonts: SIL OFL 1.1, Code: MIT License) Copyright 2022 Fonticons, Inc. --><path d="M256 512c141.4 0 256-114.6 256-256S397.4 0 256 0S0 114.6 0 256S114.6 512 256 512zM160 152c0-13.3 10.7-24 24-24h88c44.2 0 80 35.8 80 80c0 28-14.4 52.7-36.3 67l34.1 75.1c5.5 12.1 .1 26.3-11.9 31.8s-26.3 .1-31.8-11.9L268.9 288H208v72c0 13.3-10.7 24-24 24s-24-10.7-24-24V264 152zm48 88h64c17.7 0 32-14.3 32-32s-14.3-32-32-32H208v64z"/></svg>