<svg xmlns="http://www.w3.org/2000/svg" viewBox="0 0 576 512"><!--! Font Awesome Free 6.1.0 by @fontawesome - https://fontawesome.com License - https://fontawesome.com/license/free (Icons: CC BY 4.0, Fonts: SIL OFL 1.1, Code: MIT License) Copyright 2022 Fonticons, Inc. --><path d="M136.3 226.2l176 151.1c15.38 13.3 39.69 2.545 39.69-18.16V275.1c108.5 12.58 151.1 58.79 112.6 181.9c-5.031 16.09 14.41 28.56 28.06 18.62c43.75-31.81 83.34-92.69 83.34-154.1c0-131.3-94.86-173.2-224-183.5V56.02c0-20.67-24.28-31.46-39.69-18.16L136.3 189.9C125.2 199.4 125.2 216.6 136.3 226.2zM8.31 226.2l176 151.1c15.38 13.3 39.69 2.545 39.69-18.16v-15.83L66.33 208l157.7-136.2V56.02c0-20.67-24.28-31.46-39.69-18.16l-176 151.1C-2.77 199.4-2.77 216.6 8.31 226.2z"/></svg>