<svg xmlns="http://www.w3.org/2000/svg" viewBox="0 0 448 512"><!--! Font Awesome Free 6.5.0 by @fontawesome - https://fontawesome.com License - https://fontawesome.com/license/free (Icons: CC BY 4.0, Fonts: SIL OFL 1.1, Code: MIT License) Copyright 2023 Fonticons, Inc. --><path d="M333.2 322.8l0 0-133.9-146 0 0L146 118.6c7.8-5.1 37-22.6 78-22.6s70.2 17.4 78 22.6L245.7 180l85.6 93.4 27.4-29.8c16.3-17.7 25.3-40.9 25.3-65V149.1c0-19-5.6-37.5-16.1-53.3L327.8 35.6C312.9 13.4 287.9 0 261.2 0h-76c-25.8 0-50.1 12.5-65.1 33.5L81.9 87C70.3 103.2 64 122.8 64 142.8V164c0 23.2 8.4 45.6 23.6 63.1l56 64.2 0 0 83.3 95.6 0 0 91.8 105.3c10 11.5 26.8 14.3 40 6.8l54.5-31.1c17.8-10.2 21.6-34.3 7.7-49.4l-87.7-95.7zM205.2 410.6l-83.3-95.6L27.1 418.5c-13.9 15.1-10.1 39.2 7.7 49.4l55.1 31.5c13 7.4 29.3 4.9 39.4-6.1l75.9-82.6z"/></svg>