<svg xmlns="http://www.w3.org/2000/svg" viewBox="0 0 512 512"><!--! Font Awesome Free 6.1.1 by @fontawesome - https://fontawesome.com License - https://fontawesome.com/license/free (Icons: CC BY 4.0, Fonts: SIL OFL 1.1, Code: MIT License) Copyright 2022 Fonticons, Inc. --><path d="M32 160h319.9l.0791 72c0 9.547 5.652 18.19 14.41 22c8.754 3.812 18.93 2.078 25.93-4.406l112-104c10.24-9.5 10.24-25.69 0-35.19l-112-104c-6.992-6.484-17.17-8.217-25.93-4.408c-8.758 3.816-14.41 12.46-14.41 22L351.9 96H32C14.31 96 0 110.3 0 127.1S14.31 160 32 160zM480 352H160.1L160 279.1c0-9.547-5.652-18.19-14.41-22C136.9 254.2 126.7 255.9 119.7 262.4l-112 104c-10.24 9.5-10.24 25.69 0 35.19l112 104c6.992 6.484 17.17 8.219 25.93 4.406C154.4 506.2 160 497.5 160 488L160.1 416H480c17.69 0 32-14.31 32-32S497.7 352 480 352z"/></svg>