<svg xmlns="http://www.w3.org/2000/svg" viewBox="0 0 640 512"><!--! Font Awesome Free 6.1.1 by @fontawesome - https://fontawesome.com License - https://fontawesome.com/license/free (Icons: CC BY 4.0, Fonts: SIL OFL 1.1, Code: MIT License) Copyright 2022 Fonticons, Inc. --><path d="M64 116.8C64 101 84.53 94.79 93.31 107.1L192 255.1V116.8C192 101 212.5 94.79 221.3 107.1L320 255.1V116.8C320 101 340.5 94.79 349.3 107.1L448 255.1V116.8C448 101 468.5 94.79 477.3 107.1L606.8 302.2C621 323.5 605.8 351.1 580.2 351.1H64L64 116.8zM608 383.1C625.7 383.1 640 398.3 640 415.1C640 433.7 625.7 447.1 608 447.1H32C14.33 447.1 0 433.7 0 415.1C0 398.3 14.33 383.1 32 383.1H608z"/></svg>