<svg xmlns="http://www.w3.org/2000/svg" viewBox="0 0 640 512"><!--! Font Awesome Free 6.2.1 by @fontawesome - https://fontawesome.com License - https://fontawesome.com/license/free (Icons: CC BY 4.0, Fonts: SIL OFL 1.1, Code: MIT License) Copyright 2022 Fonticons, Inc. --><path d="M213.2 32H288V96c0 17.7 14.3 32 32 32s32-14.3 32-32V32h74.8c27.1 0 51.3 17.1 60.3 42.6l42.7 120.6c-10.9-2.1-22.2-3.2-33.8-3.2c-59.5 0-112.1 29.6-144 74.8V224c0-17.7-14.3-32-32-32s-32 14.3-32 32v64c0 17.7 14.3 32 32 32c2.3 0 4.6-.3 6.8-.7c-4.5 15.5-6.8 31.8-6.8 48.7c0 5.4 .2 10.7 .7 16l-.7 0c-17.7 0-32 14.3-32 32v64H86.6C56.5 480 32 455.5 32 425.4c0-6.2 1.1-12.4 3.1-18.2L152.9 74.6C162 49.1 186.1 32 213.2 32zM496 512c-79.5 0-144-64.5-144-144s64.5-144 144-144s144 64.5 144 144s-64.5 144-144 144zm0-48c13.3 0 24-10.7 24-24s-10.7-24-24-24s-24 10.7-24 24s10.7 24 24 24zm0-192c-8.8 0-16 7.2-16 16v80c0 8.8 7.2 16 16 16s16-7.2 16-16V288c0-8.8-7.2-16-16-16z"/></svg>