<svg xmlns="http://www.w3.org/2000/svg" viewBox="0 0 512 512"><!--! Font Awesome Free 6.4.0 by @fontawesome - https://fontawesome.com License - https://fontawesome.com/license/free (Icons: CC BY 4.0, Fonts: SIL OFL 1.1, Code: MIT License) Copyright 2023 Fonticons, Inc. --><path d="M233 7c-9.4-9.4-24.6-9.4-33.9 0l-96 96c-9.4 9.4-9.4 24.6 0 33.9l89.4 89.4-15.5 15.5C152.3 230.4 124.9 224 96 224c-31.7 0-61.5 7.7-87.8 21.2c-9 4.7-10.3 16.7-3.1 23.8L112.7 376.7 96.3 393.1c-2.6-.7-5.4-1.1-8.3-1.1c-17.7 0-32 14.3-32 32s14.3 32 32 32s32-14.3 32-32c0-2.9-.4-5.6-1.1-8.3l16.4-16.4L242.9 506.9c7.2 7.2 19.2 5.9 23.8-3.1C280.3 477.5 288 447.7 288 416c0-28.9-6.4-56.3-17.8-80.9l15.5-15.5L375 409c9.4 9.4 24.6 9.4 33.9 0l96-96c9.4-9.4 9.4-24.6 0-33.9l-89.4-89.4 55-55c12.5-12.5 12.5-32.8 0-45.3l-48-48c-12.5-12.5-32.8-12.5-45.3 0l-55 55L233 7zm159 351l-72.4-72.4 62.1-62.1L454.1 296 392 358.1zM226.3 192.4L153.9 120 216 57.9l72.4 72.4-62.1 62.1z"/></svg>