<svg xmlns="http://www.w3.org/2000/svg" viewBox="0 0 640 512"><!--! Font Awesome Free 6.5.1 by @fontawesome - https://fontawesome.com License - https://fontawesome.com/license/free (Icons: CC BY 4.0, Fonts: SIL OFL 1.1, Code: MIT License) Copyright 2023 Fonticons, Inc. --><path d="M522.1 62.4c16.8-5.6 25.8-23.7 20.2-40.5S518.6-3.9 501.9 1.6l-113 37.7C375 15.8 349.3 0 320 0c-44.2 0-80 35.8-80 80c0 3 .2 5.9 .5 8.8L117.9 129.6c-16.8 5.6-25.8 23.7-20.2 40.5s23.7 25.8 40.5 20.2l135.5-45.2c4.5 3.2 9.3 5.9 14.4 8.2V480c0 17.7 14.3 32 32 32H512c17.7 0 32-14.3 32-32s-14.3-32-32-32H352V153.3c21-9.2 37.2-27 44.2-49l125.9-42zM439.6 288L512 163.8 584.4 288H439.6zM512 384c62.9 0 115.2-34 126-78.9c2.6-11-1-22.3-6.7-32.1L536.1 109.8c-5-8.6-14.2-13.8-24.1-13.8s-19.1 5.3-24.1 13.8L392.7 273.1c-5.7 9.8-9.3 21.1-6.7 32.1C396.8 350 449.1 384 512 384zM129.2 291.8L201.6 416H56.7l72.4-124.2zM3.2 433.1C14 478 66.3 512 129.2 512s115.2-34 126-78.9c2.6-11-1-22.3-6.7-32.1L153.2 237.8c-5-8.6-14.2-13.8-24.1-13.8s-19.1 5.3-24.1 13.8L9.9 401.1c-5.7 9.8-9.3 21.1-6.7 32.1z"/></svg>