<svg xmlns="http://www.w3.org/2000/svg" viewBox="0 0 640 512"><!--! Font Awesome Free 6.1.2 by @fontawesome - https://fontawesome.com License - https://fontawesome.com/license/free (Icons: CC BY 4.0, Fonts: SIL OFL 1.1, Code: MIT License) Copyright 2022 Fonticons, Inc. --><path d="M320 366.5l17.75-29.62l-35.5 .0011L320 366.5zM382.5 311.5l36.75-.0011l-18.38-30.75L382.5 311.5zM48 0C21.5 0 0 14.38 0 32v448c0 17.62 21.5 32 48 32S96 497.6 96 480V32C96 14.38 74.5 0 48 0zM419.2 200.5L382.4 200.5l18.5 30.79L419.2 200.5zM220.8 311.5l36.87-.0012l-18.5-30.87L220.8 311.5zM287.1 311.5L352.9 311.5l33.25-55.5l-33.25-55.5L287.1 200.5L253.9 256L287.1 311.5zM592 0C565.5 0 544 14.38 544 32v448c0 17.62 21.5 32 48 32s48-14.38 48-32V32C640 14.38 618.5 0 592 0zM128 480h384V32H128V480zM194.8 185.9c3.75-6.625 10.87-10.75 18.5-10.75L272.7 175.1l29.12-48.67C305.6 119.1 312.6 116.1 319.1 116.1c7.375-.125 14.25 3.916 17.1 10.17l29.25 48.87l59.5-.0019c7.625 0 14.62 4.124 18.38 10.75s3.626 14.75-.2493 21.25l-29.25 48.87l29.38 48.1c4 6.5 4.001 14.62 .2506 21.12c-3.75 6.625-10.87 10.75-18.5 10.75l-59.5 .0019l-29.12 48.67c-3.75 6.5-10.62 10.33-18.12 10.46c-7.375 0-14.25-3.874-18-10.25l-29.25-48.87l-59.5 .0019c-7.625 0-14.62-4.124-18.37-10.75S191.3 311.4 195.1 304.9l29.25-48.87L195 207C191.1 200.5 191 192.4 194.8 185.9zM319.1 145.5L302.2 175.1l35.37-.0011L319.1 145.5zM257.5 200.5L220.8 200.5l18.38 30.83L257.5 200.5z"/></svg>