<svg xmlns="http://www.w3.org/2000/svg" viewBox="0 0 512 512"><!--! Font Awesome Free 6.3.0 by @fontawesome - https://fontawesome.com License - https://fontawesome.com/license/free (Icons: CC BY 4.0, Fonts: SIL OFL 1.1, Code: MIT License) Copyright 2023 Fonticons, Inc. --><path d="M253.4 2.9C249.2 1 244.7 0 240 0s-9.2 1-13.4 2.9L38.3 82.8C16.3 92.1-.1 113.8 0 140c.5 99.2 41.3 280.7 213.6 363.2c16.7 8 36.1 8 52.8 0C438.7 420.7 479.5 239.2 480 140c.1-26.2-16.3-47.9-38.3-57.2L253.4 2.9zM144.9 286.2c4.8 1.2 9.9 1.8 15.1 1.8c35.3 0 64-28.7 64-64V160h44.2c12.1 0 23.2 6.8 28.6 17.7L304 192h64c8.8 0 16 7.2 16 16v32c0 44.2-35.8 80-80 80H256v50.7c0 7.3-5.9 13.3-13.3 13.3c-1.8 0-3.6-.4-5.2-1.1l-98.7-42.3c-6.6-2.8-10.8-9.3-10.8-16.4c0-2.8 .6-5.5 1.9-8l15-30zM144 160h40 8v32 32c0 17.7-14.3 32-32 32s-32-14.3-32-32V176c0-8.8 7.2-16 16-16zm128 48a16 16 0 1 0 -32 0 16 16 0 1 0 32 0z"/></svg>