<svg xmlns="http://www.w3.org/2000/svg" viewBox="0 0 640 512"><!--! Font Awesome Free 6.5.1 by @fontawesome - https://fontawesome.com License - https://fontawesome.com/license/free (Icons: CC BY 4.0, Fonts: SIL OFL 1.1, Code: MIT License) Copyright 2023 Fonticons, Inc. --><path d="M416 0C352.3 0 256 32 256 32V160c48 0 76 16 104 32s56 32 104 32c56.4 0 176-16 176-96S512 0 416 0zM128 96c0 35.3 28.7 64 64 64h32V32H192c-35.3 0-64 28.7-64 64zM288 512c96 0 224-48 224-128s-119.6-96-176-96c-48 0-76 16-104 32s-56 32-104 32V480s96.3 32 160 32zM0 416c0 35.3 28.7 64 64 64H96V352H64c-35.3 0-64 28.7-64 64z"/></svg>