<svg xmlns="http://www.w3.org/2000/svg" viewBox="0 0 512 512"><!--! Font Awesome Free 6.1.0 by @fontawesome - https://fontawesome.com License - https://fontawesome.com/license/free (Icons: CC BY 4.0, Fonts: SIL OFL 1.1, Code: MIT License) Copyright 2022 Fonticons, Inc. --><path d="M424.1 287c-15.13-15.12-40.1-4.426-40.1 16.97V352H336L153.6 108.8C147.6 100.8 138.1 96 128 96H32C14.31 96 0 110.3 0 128s14.31 32 32 32h80l182.4 243.2C300.4 411.3 309.9 416 320 416h63.97v47.94c0 21.39 25.86 32.12 40.99 17l79.1-79.98c9.387-9.387 9.387-24.59 0-33.97L424.1 287zM336 160h47.97v48.03c0 21.39 25.87 32.09 40.1 16.97l79.1-79.98c9.387-9.391 9.385-24.59-.0013-33.97l-79.1-79.98c-15.13-15.12-40.99-4.391-40.99 17V96H320c-10.06 0-19.56 4.75-25.59 12.81L254 162.7L293.1 216L336 160zM112 352H32c-17.69 0-32 14.31-32 32s14.31 32 32 32h96c10.06 0 19.56-4.75 25.59-12.81l40.4-53.87L154 296L112 352z"/></svg>