<svg xmlns="http://www.w3.org/2000/svg" viewBox="0 0 448 512"><!--! Font Awesome Free 6.0.0 by @fontawesome - https://fontawesome.com License - https://fontawesome.com/license/free (Icons: CC BY 4.0, Fonts: SIL OFL 1.1, Code: MIT License) Copyright 2022 Fonticons, Inc. --><path d="M368 128C368 172.4 342.6 211.5 304 234.4V256C304 273.7 289.7 288 272 288H176C158.3 288 144 273.7 144 256V234.4C105.4 211.5 80 172.4 80 128C80 57.31 144.5 0 224 0C303.5 0 368 57.31 368 128V128zM168 176C185.7 176 200 161.7 200 144C200 126.3 185.7 112 168 112C150.3 112 136 126.3 136 144C136 161.7 150.3 176 168 176zM280 112C262.3 112 248 126.3 248 144C248 161.7 262.3 176 280 176C297.7 176 312 161.7 312 144C312 126.3 297.7 112 280 112zM3.379 273.7C11.28 257.9 30.5 251.5 46.31 259.4L224 348.2L401.7 259.4C417.5 251.5 436.7 257.9 444.6 273.7C452.5 289.5 446.1 308.7 430.3 316.6L295.6 384L430.3 451.4C446.1 459.3 452.5 478.5 444.6 494.3C436.7 510.1 417.5 516.5 401.7 508.6L224 419.8L46.31 508.6C30.5 516.5 11.28 510.1 3.379 494.3C-4.525 478.5 1.882 459.3 17.69 451.4L152.4 384L17.69 316.6C1.882 308.7-4.525 289.5 3.379 273.7V273.7z"/></svg>