<svg xmlns="http://www.w3.org/2000/svg" viewBox="0 0 512 512"><!--! Font Awesome Free 6.5.1 by @fontawesome - https://fontawesome.com License - https://fontawesome.com/license/free (Icons: CC BY 4.0, Fonts: SIL OFL 1.1, Code: MIT License) Copyright 2023 Fonticons, Inc. --><path d="M416 398.9c58.5-41.1 96-104.1 96-174.9C512 100.3 397.4 0 256 0S0 100.3 0 224c0 70.7 37.5 133.8 96 174.9c0 .4 0 .7 0 1.1v64c0 26.5 21.5 48 48 48h48V464c0-8.8 7.2-16 16-16s16 7.2 16 16v48h64V464c0-8.8 7.2-16 16-16s16 7.2 16 16v48h48c26.5 0 48-21.5 48-48V400c0-.4 0-.7 0-1.1zM96 256a64 64 0 1 1 128 0A64 64 0 1 1 96 256zm256-64a64 64 0 1 1 0 128 64 64 0 1 1 0-128z"/></svg>