<svg xmlns="http://www.w3.org/2000/svg" viewBox="0 0 640 512"><!--! Font Awesome Free 6.2.1 by @fontawesome - https://fontawesome.com License - https://fontawesome.com/license/free (Icons: CC BY 4.0, Fonts: SIL OFL 1.1, Code: MIT License) Copyright 2022 Fonticons, Inc. --><path d="M32 144c0 79.5 64.5 144 144 144H299.3c22.6 19.9 52.2 32 84.7 32s62.1-12.1 84.7-32H496c61.9 0 112-50.1 112-112s-50.1-112-112-112c-10.7 0-21 1.5-30.8 4.3C443.8 27.7 401.1 0 352 0c-32.6 0-62.4 12.2-85.1 32.3C242.1 12.1 210.5 0 176 0C96.5 0 32 64.5 32 144zM616 368H280c-13.3 0-24 10.7-24 24s10.7 24 24 24H616c13.3 0 24-10.7 24-24s-10.7-24-24-24zm-64 96H440c-13.3 0-24 10.7-24 24s10.7 24 24 24H552c13.3 0 24-10.7 24-24s-10.7-24-24-24zm-192 0H24c-13.3 0-24 10.7-24 24s10.7 24 24 24H360c13.3 0 24-10.7 24-24s-10.7-24-24-24zM224 392c0-13.3-10.7-24-24-24H96c-13.3 0-24 10.7-24 24s10.7 24 24 24H200c13.3 0 24-10.7 24-24z"/></svg>