<svg xmlns="http://www.w3.org/2000/svg" viewBox="0 0 576 512"><!--! Font Awesome Free 6.2.1 by @fontawesome - https://fontawesome.com License - https://fontawesome.com/license/free (Icons: CC BY 4.0, Fonts: SIL OFL 1.1, Code: MIT License) Copyright 2022 Fonticons, Inc. --><path d="M373.1 140.6c-2 3.9-1.6 8.6 1.2 12c7 8.5 12.9 18.1 17.2 28.4L440 160.2V120c0-13.3 10.7-24 24-24s24 10.7 24 24v19.6l22.5-9.7c12.2-5.2 26.3 .4 31.5 12.6s-.4 26.3-12.6 31.5l-56 24-73.6 31.5c-.5 9.5-2.1 18.6-4.8 27.3c-1.2 3.8-.1 8 2.8 10.8C428.7 296.9 448 338.2 448 384c0 44.7-18.3 85-47.8 114.1c-9.9 9.7-23.7 13.9-37.5 13.9H213.3c-13.9 0-27.7-4.2-37.5-13.9C146.3 469 128 428.7 128 384c0-45.8 19.3-87.1 50.1-116.3c2.9-2.8 4-6.9 2.8-10.8c-2.7-8.7-4.3-17.9-4.8-27.3l-73.6-31.5-56-24c-12.2-5.2-17.8-19.3-12.6-31.5s19.3-17.8 31.5-12.6L88 139.6V120c0-13.3 10.7-24 24-24s24 10.7 24 24v40.2L184.6 181c4.3-10.3 10.1-19.9 17.2-28.4c2.8-3.4 3.3-8.1 1.2-12C196 127.2 192 112.1 192 96c0-53 43-96 96-96s96 43 96 96c0 16.1-4 31.2-10.9 44.6zM256 96c8.8 0 16-7.2 16-16s-7.2-16-16-16s-16 7.2-16 16s7.2 16 16 16zm48 128c0-8.8-7.2-16-16-16s-16 7.2-16 16s7.2 16 16 16s16-7.2 16-16zm-16 80c8.8 0 16-7.2 16-16s-7.2-16-16-16s-16 7.2-16 16s7.2 16 16 16zm16 48c0-8.8-7.2-16-16-16s-16 7.2-16 16s7.2 16 16 16s16-7.2 16-16zM320 96c8.8 0 16-7.2 16-16s-7.2-16-16-16s-16 7.2-16 16s7.2 16 16 16zm-48 24v3.2c0 3.2 .8 6.3 2.3 9l9 16.9c.9 1.7 2.7 2.8 4.7 2.8s3.8-1.1 4.7-2.8l9-16.9c1.5-2.8 2.3-5.9 2.3-9V120c0-8.8-7.2-16-16-16s-16 7.2-16 16z"/></svg>