<svg xmlns="http://www.w3.org/2000/svg" viewBox="0 0 576 512"><!--! Font Awesome Free 6.0.0 by @fontawesome - https://fontawesome.com License - https://fontawesome.com/license/free (Icons: CC BY 4.0, Fonts: SIL OFL 1.1, Code: MIT License) Copyright 2022 Fonticons, Inc. --><path d="M566.6 265.4c-12.5-12.5-32.75-12.5-45.25 0L352 434.8l-73.38-73.38c-12.5-12.5-32.75-12.5-45.25 0s-12.5 32.75 0 45.25l96 96c6.25 6.25 14.44 9.368 22.62 9.368s16.38-3.118 22.63-9.368l192-192C579.1 298.1 579.1 277.9 566.6 265.4zM221.5 211.7l-80-192C136.6 7.796 124.9 .0147 112 .0147S87.44 7.796 82.47 19.7l-80 192C-4.328 228 3.375 246.8 19.69 253.5c16.36 6.812 35.06-.9375 41.84-17.22l5.131-12.31h90.68l5.131 12.31c5.109 12.28 17.02 19.69 29.55 19.69c4.094 0 8.266-.7812 12.3-2.469C220.6 246.8 228.3 228 221.5 211.7zM93.33 160L112 115.2l18.67 44.81H93.33zM288 256h80c44.11 0 80-35.87 80-79.1c0-23.15-10.03-43.85-25.79-58.47C428.3 106.3 432 93.65 432 80.01c0-44.13-35.89-80-79.1-80L288 .0147c-17.67 0-32 14.31-32 31.1v192C256 241.7 270.3 256 288 256zM320 64.01h32c8.828 0 16 7.188 16 16s-7.172 16-16 16h-32V64.01zM320 160h48c8.828 0 16 7.188 16 16s-7.172 16-16 16H320V160z"/></svg>