<svg xmlns="http://www.w3.org/2000/svg" viewBox="0 0 512 512"><!--! Font Awesome Free 6.1.1 by @fontawesome - https://fontawesome.com License - https://fontawesome.com/license/free (Icons: CC BY 4.0, Fonts: SIL OFL 1.1, Code: MIT License) Copyright 2022 Fonticons, Inc. --><path d="M349.3 47.38L367.9 116.1C374.6 142.1 393.2 162.3 417.6 171.2L475.8 192.4C497.5 200.3 512 221 512 244.2C512 261.8 503.6 278.4 489.4 288.8L406.9 348.1C393.3 358.9 385.7 374.1 386.7 391.8L389.8 442.4C392.1 480.1 362.2 511.9 324.4 511.9C308.8 511.9 293.8 506.4 281.1 496.4L236.1 458.2C221.1 444.7 200.9 437.3 180 437.3H171.6C165.1 437.3 160.4 437.8 154.8 438.9L87.81 451.9C63.82 456.6 39.53 445.5 27.41 424.3C17.39 406.7 17.39 385.2 27.41 367.7L55.11 319.2C60.99 308.9 64.09 297.3 64.09 285.4C64.09 272.3 60.33 259.6 53.27 248.6L8.796 179.4C-6.738 155.2-1.267 123.2 21.41 105.6C32.12 97.25 45.52 93.13 59.07 94.01L130.8 98.66C159.8 100.5 187.1 87.91 205.9 64.93L237.3 24.66C249.4 9.133 267.9 .0566 287.6 .0566C316.5 .0566 341.8 19.47 349.3 47.38V47.38z"/></svg>