<svg xmlns="http://www.w3.org/2000/svg" viewBox="0 0 512 512"><!--! Font Awesome Free 6.5.1 by @fontawesome - https://fontawesome.com License - https://fontawesome.com/license/free (Icons: CC BY 4.0, Fonts: SIL OFL 1.1, Code: MIT License) Copyright 2023 Fonticons, Inc. --><path d="M96 32v96H224V32c0-17.7-14.3-32-32-32H128C110.3 0 96 14.3 96 32zm0 128c-53 0-96 43-96 96V464c0 26.5 21.5 48 48 48H272c26.5 0 48-21.5 48-48V256c0-53-43-96-96-96H96zm64 96a80 80 0 1 1 0 160 80 80 0 1 1 0-160zM384 48c0-1.4-1-3-2.2-3.6L352 32 339.6 2.2C339 1 337.4 0 336 0s-3 1-3.6 2.2L320 32 290.2 44.4C289 45 288 46.6 288 48c0 1.4 1 3 2.2 3.6L320 64l12.4 29.8C333 95 334.6 96 336 96s3-1 3.6-2.2L352 64l29.8-12.4C383 51 384 49.4 384 48zm76.4 45.8C461 95 462.6 96 464 96s3-1 3.6-2.2L480 64l29.8-12.4C511 51 512 49.4 512 48c0-1.4-1-3-2.2-3.6L480 32 467.6 2.2C467 1 465.4 0 464 0s-3 1-3.6 2.2L448 32 418.2 44.4C417 45 416 46.6 416 48c0 1.4 1 3 2.2 3.6L448 64l12.4 29.8zm7.2 100.4c-.6-1.2-2.2-2.2-3.6-2.2s-3 1-3.6 2.2L448 224l-29.8 12.4c-1.2 .6-2.2 2.2-2.2 3.6c0 1.4 1 3 2.2 3.6L448 256l12.4 29.8c.6 1.2 2.2 2.2 3.6 2.2s3-1 3.6-2.2L480 256l29.8-12.4c1.2-.6 2.2-2.2 2.2-3.6c0-1.4-1-3-2.2-3.6L480 224l-12.4-29.8zM448 144c0-1.4-1-3-2.2-3.6L416 128 403.6 98.2C403 97 401.4 96 400 96s-3 1-3.6 2.2L384 128l-29.8 12.4c-1.2 .6-2.2 2.2-2.2 3.6c0 1.4 1 3 2.2 3.6L384 160l12.4 29.8c.6 1.2 2.2 2.2 3.6 2.2s3-1 3.6-2.2L416 160l29.8-12.4c1.2-.6 2.2-2.2 2.2-3.6z"/></svg>