<svg xmlns="http://www.w3.org/2000/svg" viewBox="0 0 448 512"><!--! Font Awesome Free 6.1.1 by @fontawesome - https://fontawesome.com License - https://fontawesome.com/license/free (Icons: CC BY 4.0, Fonts: SIL OFL 1.1, Code: MIT License) Copyright 2022 Fonticons, Inc. --><path d="M384 32H64C28.65 32 0 60.65 0 96v320c0 35.35 28.65 64 64 64h320c35.35 0 64-28.65 64-64V96C448 60.65 419.3 32 384 32zM336 360c0 13.25-10.75 24-24 24S288 373.3 288 360v-80H160v80C160 373.3 149.3 384 136 384S112 373.3 112 360v-208C112 138.8 122.8 128 136 128S160 138.8 160 152v80h128v-80C288 138.8 298.8 128 312 128s24 10.75 24 24V360z"/></svg>