<svg xmlns="http://www.w3.org/2000/svg" viewBox="0 0 448 512"><!--! Font Awesome Free 6.0.0 by @fontawesome - https://fontawesome.com License - https://fontawesome.com/license/free (Icons: CC BY 4.0, Fonts: SIL OFL 1.1, Code: MIT License) Copyright 2022 Fonticons, Inc. --><path d="M384 32H64C28.65 32 0 60.65 0 96v320c0 35.34 28.65 64 64 64h320c35.35 0 64-28.66 64-64V96C448 60.65 419.3 32 384 32zM312.3 273.6l-112 104C195.8 381.8 189.9 384 184 384c-3.25 0-6.5-.6562-9.594-2C165.7 378.2 160 369.5 160 360v-208c0-9.531 5.656-18.19 14.41-22c8.75-3.75 18.94-2.062 25.94 4.406l112 104C317.2 242.1 320 249.3 320 256S317.2 269 312.3 273.6z"/></svg>