<svg xmlns="http://www.w3.org/2000/svg" viewBox="0 0 448 512"><!--! Font Awesome Free 6.1.0 by @fontawesome - https://fontawesome.com License - https://fontawesome.com/license/free (Icons: CC BY 4.0, Fonts: SIL OFL 1.1, Code: MIT License) Copyright 2022 Fonticons, Inc. --><path d="M384 32H64C28.65 32 0 60.66 0 96v320c0 35.34 28.65 64 64 64h320c35.35 0 64-28.66 64-64V96C448 60.66 419.3 32 384 32zM344 312c0 17.69-14.31 32-32 32s-32-14.31-32-32V245.3l-121.4 121.4C152.4 372.9 144.2 376 136 376s-16.38-3.125-22.62-9.375c-12.5-12.5-12.5-32.75 0-45.25L234.8 200H168c-17.69 0-32-14.31-32-32s14.31-32 32-32h144c17.69 0 32 14.31 32 32V312z"/></svg>