<svg xmlns="http://www.w3.org/2000/svg" viewBox="0 0 640 512"><!--! Font Awesome Free 6.1.2 by @fontawesome - https://fontawesome.com License - https://fontawesome.com/license/free (Icons: CC BY 4.0, Fonts: SIL OFL 1.1, Code: MIT License) Copyright 2022 Fonticons, Inc. --><path d="M640 299.3V432C640 458.5 618.5 480 592 480H64C46.33 480 32 465.7 32 448C32 430.3 46.33 416 64 416H448V368H96C78.33 368 64 353.7 64 336V219.4L33.8 214C14.24 210.5 0 193.5 0 173.7C0 164.8 2.878 156.2 8.201 149.1L43.83 101.6C76.67 57.77 128.2 32 182.9 32C209.9 32 236.6 38.29 260.7 50.36L586.9 213.5C619.5 229.7 640 262.1 640 299.3H640zM448 288L128 230.9V304H448V288z"/></svg>