<svg xmlns="http://www.w3.org/2000/svg" viewBox="0 0 448 512"><!--! Font Awesome Free 6.0.0 by @fontawesome - https://fontawesome.com License - https://fontawesome.com/license/free (Icons: CC BY 4.0, Fonts: SIL OFL 1.1, Code: MIT License) Copyright 2022 Fonticons, Inc. --><path d="M276 256C276 249.4 281.4 244 288 244C294.6 244 300 249.4 300 256V352C300 358.6 294.6 364 288 364C281.4 364 276 358.6 276 352V256zM272 0C289.7 0 304 14.33 304 32C304 49.67 289.7 64 272 64H256V98.45C293.5 104.2 327.7 120 355.7 143L377.4 121.4C389.9 108.9 410.1 108.9 422.6 121.4C435.1 133.9 435.1 154.1 422.6 166.6L398.5 190.8C419.7 223.3 432 262.2 432 304C432 418.9 338.9 512 224 512C109.1 512 16 418.9 16 304C16 200 92.32 113.8 192 98.45V64H176C158.3 64 144 49.67 144 32C144 14.33 158.3 0 176 0L272 0zM288 204C259.3 204 236 227.3 236 256V352C236 380.7 259.3 404 288 404C316.7 404 340 380.7 340 352V256C340 227.3 316.7 204 288 204zM172 256.5V258.8C172 262.4 170.7 265.9 168.3 268.6L129.2 312.5C115.5 327.9 108 347.8 108 368.3V384C108 395 116.1 404 128 404H192C203 404 212 395 212 384C212 372.1 203 364 192 364H148.2C149.1 354.8 152.9 346.1 159.1 339.1L198.2 295.2C207.1 285.1 211.1 272.2 211.1 258.8V256.5C211.1 227.5 188.5 204 159.5 204C136.8 204 116.8 218.5 109.6 239.9L109 241.7C105.5 252.2 111.2 263.5 121.7 266.1C132.2 270.5 143.5 264.8 146.1 254.3L147.6 252.6C149.3 247.5 154.1 244 159.5 244C166.4 244 171.1 249.6 171.1 256.5L172 256.5z"/></svg>