<svg xmlns="http://www.w3.org/2000/svg" viewBox="0 0 512 512"><!--! Font Awesome Free 6.0.0 by @fontawesome - https://fontawesome.com License - https://fontawesome.com/license/free (Icons: CC BY 4.0, Fonts: SIL OFL 1.1, Code: MIT License) Copyright 2022 Fonticons, Inc. --><path d="M332.2 319.9c17.22 12.17 22.33 26.51 18.61 48.21c-3.031 17.59-10.88 29.34-24.72 36.99c-35.44 19.75-108.5 11.96-186-19.68c-16.34-6.686-35.03 1.156-41.72 17.53s1.188 35.05 17.53 41.71c31.75 12.93 95.69 35.37 157.6 35.37c29.62 0 58.81-5.156 83.72-18.96c30.81-17.09 50.44-45.46 56.72-82.11c3.998-23.27 2.168-42.58-3.488-59.05H332.2zM488 239.9l-176.5-.0309c-15.85-5.613-31.83-10.34-46.7-14.62c-85.47-24.62-110.9-39.05-103.7-81.33c2.5-14.53 10.16-25.96 22.72-34.03c20.47-13.15 64.06-23.84 155.4 .3438c17.09 4.531 34.59-5.654 39.13-22.74c4.531-17.09-5.656-34.59-22.75-39.12c-91.31-24.18-160.7-21.62-206.3 7.654C121.8 73.72 103.6 101.1 98.09 133.1C89.26 184.5 107.9 217.3 137.2 239.9L24 239.9c-13.25 0-24 10.75-24 23.1c0 13.25 10.75 23.1 24 23.1h464c13.25 0 24-10.75 24-23.1C512 250.7 501.3 239.9 488 239.9z"/></svg>