<svg xmlns="http://www.w3.org/2000/svg" viewBox="0 0 512 512"><!--! Font Awesome Free 6.1.2 by @fontawesome - https://fontawesome.com License - https://fontawesome.com/license/free (Icons: CC BY 4.0, Fonts: SIL OFL 1.1, Code: MIT License) Copyright 2022 Fonticons, Inc. --><path d="M188.1 210.8l-45.25 45.25l45.25 45.25l45.25-45.25L188.1 210.8zM301.2 188.1l-45.25-45.25L210.7 188.1l45.25 45.25L301.2 188.1zM210.7 323.9l45.25 45.25l45.25-45.25L255.1 278.6L210.7 323.9zM256 16c-132.5 0-240 107.5-240 240s107.5 240 240 240s240-107.5 240-240S388.5 16 256 16zM442.6 295.6l-11.25 11.25c-3.125 3.125-8.25 3.125-11.38 0L391.8 278.6l-45.25 45.25l34 33.88l16.88-16.88c3.125-3.125 8.251-3.125 11.38 0l11.25 11.25c3.125 3.125 3.125 8.25 0 11.38l-16.88 16.88l16.88 17c3.125 3.125 3.125 8.25 0 11.38l-11.25 11.25c-3.125 3.125-8.251 3.125-11.38 0l-16.88-17l-17 17c-3.125 3.125-8.25 3.125-11.38 0l-11.25-11.25c-3.125-3.125-3.125-8.25 0-11.38l17-17l-34-33.88l-45.25 45.25l28.25 28.25c3.125 3.125 3.125 8.25 0 11.38l-11.25 11.25c-3.125 3.125-8.25 3.125-11.38 0l-28.25-28.25L227.7 442.6c-3.125 3.125-8.25 3.125-11.38 0l-11.25-11.25c-3.125-3.125-3.125-8.25 0-11.38l28.25-28.25l-45.25-45.25l-33.88 34l16.88 16.88c3.125 3.125 3.125 8.25 0 11.38l-11.25 11.25c-3.125 3.125-8.25 3.125-11.38 0L131.6 403.1l-16.1 16.88c-3.125 3.125-8.25 3.125-11.38 0l-11.25-11.25c-3.125-3.125-3.125-8.25 0-11.38l17-16.88l-17-17c-3.125-3.125-3.125-8.25 0-11.38l11.25-11.25c3.125-3.125 8.25-3.125 11.38 0l16.1 17l33.88-34L120.2 278.6l-28.25 28.25c-3.125 3.125-8.25 3.125-11.38 0L69.37 295.6c-3.125-3.125-3.125-8.25 0-11.38l28.25-28.25l-28.25-28.25c-3.125-3.125-3.125-8.25 0-11.38l11.25-11.25c3.125-3.125 8.25-3.125 11.38 0l28.25 28.25l45.25-45.25l-34-34l-16.88 17c-3.125 3.125-8.25 3.125-11.38 0l-11.25-11.25c-3.125-3.125-3.125-8.25 0-11.38l16.88-17l-16.88-16.88c-3.125-3.125-3.125-8.25 0-11.38l11.25-11.25c3.125-3.125 8.25-3.125 11.38 0l16.88 17l17-17c3.125-3.125 8.25-3.125 11.38 0l11.25 11.25c3.125 3.125 3.125 8.25 0 11.38l-17 16.88l34 34l45.25-45.25L205.1 92c-3.125-3.125-3.125-8.25 0-11.38l11.25-11.25c3.125-3.125 8.25-3.125 11.38 0l28.25 28.25l28.25-28.25c3.125-3.125 8.25-3.125 11.38 0l11.25 11.25c3.125 3.125 3.125 8.25 0 11.38l-28.25 28.25l45.25 45.25l34-34l-17-16.88c-3.125-3.125-3.125-8.25 0-11.38l11.25-11.25c3.125-3.125 8.25-3.125 11.38 0l17 16.88l16.88-16.88c3.125-3.125 8.251-3.125 11.38 0l11.25 11.25c3.125 3.125 3.125 8.25 0 11.38l-17 16.88l17 17c3.125 3.125 3.125 8.25 0 11.38l-11.25 11.25c-3.125 3.125-8.251 3.125-11.38 0l-16.88-17l-34 34l45.25 45.25l28.25-28.25c3.125-3.125 8.25-3.125 11.38 0l11.25 11.25c3.125 3.125 3.125 8.25 0 11.38l-28.25 28.25l28.25 28.25C445.7 287.4 445.7 292.5 442.6 295.6zM278.6 256l45.25 45.25l45.25-45.25l-45.25-45.25L278.6 256z"/></svg>