<svg xmlns="http://www.w3.org/2000/svg" viewBox="0 0 512 512"><!--! Font Awesome Free 6.1.1 by @fontawesome - https://fontawesome.com License - https://fontawesome.com/license/free (Icons: CC BY 4.0, Fonts: SIL OFL 1.1, Code: MIT License) Copyright 2022 Fonticons, Inc. --><path d="M448 32C483.3 32 512 60.65 512 96V416C512 451.3 483.3 480 448 480H64C28.65 480 0 451.3 0 416V96C0 60.65 28.65 32 64 32H448zM152 96H64V160H152V96zM208 160H296V96H208V160zM448 96H360V160H448V96zM64 288H152V224H64V288zM296 224H208V288H296V224zM360 288H448V224H360V288zM152 352H64V416H152V352zM208 416H296V352H208V416zM448 352H360V416H448V352z"/></svg>