<svg xmlns="http://www.w3.org/2000/svg" viewBox="0 0 512 512"><!--! Font Awesome Free 6.3.0 by @fontawesome - https://fontawesome.com License - https://fontawesome.com/license/free (Icons: CC BY 4.0, Fonts: SIL OFL 1.1, Code: MIT License) Copyright 2023 Fonticons, Inc. --><path d="M416 288c-50.1 0-93.6 28.8-114.6 70.8L68.9 126.3l.6-.6 60.1-60.1c87.5-87.5 229.3-87.5 316.8 0c67.1 67.1 82.7 166.3 46.8 248.3C471.8 297.6 445 288 416 288zM49.3 151.9L290.1 392.7c-1.4 7.5-2.1 15.3-2.1 23.3c0 23.2 6.2 44.9 16.9 63.7c-3 .2-6.1 .3-9.2 .3H293c-33.9 0-66.5-13.5-90.5-37.5l-9.8-9.8c-13.1-13.1-34.6-12.4-46.8 1.7L88.2 501c-5.8 6.7-14.2 10.7-23 11s-17.5-3.1-23.8-9.4l-32-32C3.1 464.3-.3 455.7 0 446.9s4.3-17.2 11-23l66.6-57.7c14-12.2 14.8-33.7 1.7-46.8l-9.8-9.8C45.5 285.5 32 252.9 32 219v-2.7c0-22.8 6.1-44.9 17.3-64.3zM416 320a96 96 0 1 1 0 192 96 96 0 1 1 0-192z"/></svg>