<svg xmlns="http://www.w3.org/2000/svg" viewBox="0 0 640 512"><!--! Font Awesome Free 6.1.0 by @fontawesome - https://fontawesome.com License - https://fontawesome.com/license/free (Icons: CC BY 4.0, Fonts: SIL OFL 1.1, Code: MIT License) Copyright 2022 Fonticons, Inc. --><path d="M576 64H64C28.8 64 0 92.8 0 128v256c0 35.2 28.8 64 64 64h512c35.2 0 64-28.8 64-64V128C640 92.8 611.2 64 576 64zM64 296C64 291.6 67.63 288 72 288h16C92.38 288 96 291.6 96 296v16C96 316.4 92.38 320 88 320h-16C67.63 320 64 316.4 64 312V296zM336 384h-256C71.2 384 64 376.8 64 368C64 359.2 71.2 352 79.1 352h256c8.801 0 16 7.199 16 16C352 376.8 344.8 384 336 384zM128 312v-16C128 291.6 131.6 288 136 288h16C156.4 288 160 291.6 160 296v16C160 316.4 156.4 320 152 320h-16C131.6 320 128 316.4 128 312zM192 312v-16C192 291.6 195.6 288 200 288h16C220.4 288 224 291.6 224 296v16C224 316.4 220.4 320 216 320h-16C195.6 320 192 316.4 192 312zM256 312v-16C256 291.6 259.6 288 264 288h16C284.4 288 288 291.6 288 296v16C288 316.4 284.4 320 280 320h-16C259.6 320 256 316.4 256 312zM352 312C352 316.4 348.4 320 344 320h-16C323.6 320 320 316.4 320 312v-16C320 291.6 323.6 288 328 288h16C348.4 288 352 291.6 352 296V312zM352 237.7C352 247.9 344.4 256 334.9 256H81.07C71.6 256 64 247.9 64 237.7V146.3C64 136.1 71.6 128 81.07 128h253.9C344.4 128 352 136.1 352 146.3V237.7zM560 384h-160c-8.801 0-16-7.201-16-16c0-8.801 7.199-16 16-16h160c8.801 0 16 7.199 16 16C576 376.8 568.8 384 560 384z"/></svg>