<svg xmlns="http://www.w3.org/2000/svg" viewBox="0 0 576 512"><!--! Font Awesome Free 6.2.1 by @fontawesome - https://fontawesome.com License - https://fontawesome.com/license/free (Icons: CC BY 4.0, Fonts: SIL OFL 1.1, Code: MIT License) Copyright 2022 Fonticons, Inc. --><path d="M288 160c-35.3 0-64-26.9-64-60c0-24 33.7-70.1 52.2-93.5c6.1-7.7 17.5-7.7 23.6 0C318.3 29.9 352 76 352 100c0 33.1-28.7 60-64 60zM64 128H197.5c13.2 37.3 48.7 64 90.5 64s77.4-26.7 90.5-64H512c35.3 0 64 28.7 64 64V352H448c-17.7 0-32 14.3-32 32l0 128L64 512c-35.3 0-64-28.7-64-64V192c0-35.3 28.7-64 64-64zM448 512l0-128H576L448 512zM96 256c17.7 0 32-14.3 32-32s-14.3-32-32-32s-32 14.3-32 32s14.3 32 32 32z"/></svg>