<svg xmlns="http://www.w3.org/2000/svg" viewBox="0 0 576 512"><!--! Font Awesome Free 6.2.1 by @fontawesome - https://fontawesome.com License - https://fontawesome.com/license/free (Icons: CC BY 4.0, Fonts: SIL OFL 1.1, Code: MIT License) Copyright 2022 Fonticons, Inc. --><path d="M64 64C28.7 64 0 92.7 0 128v80c26.5 0 48 21.5 48 48s-21.5 48-48 48v80c0 35.3 28.7 64 64 64H512c35.3 0 64-28.7 64-64V304c-26.5 0-48-21.5-48-48s21.5-48 48-48V128c0-35.3-28.7-64-64-64H64zm64 96l0 192H448V160H128zm-32 0c0-17.7 14.3-32 32-32H448c17.7 0 32 14.3 32 32V352c0 17.7-14.3 32-32 32H128c-17.7 0-32-14.3-32-32V160z"/></svg>