<svg xmlns="http://www.w3.org/2000/svg" viewBox="0 0 640 512"><!--! Font Awesome Free 6.2.1 by @fontawesome - https://fontawesome.com License - https://fontawesome.com/license/free (Icons: CC BY 4.0, Fonts: SIL OFL 1.1, Code: MIT License) Copyright 2022 Fonticons, Inc. --><path d="M444.2 0C397.2 49.6 384 126.5 384 192c0 158.8-27.3 247-42.7 283.9c-10 24-33.2 36.1-55.4 36.1H48c-11.5 0-22.2-6.2-27.8-16.2s-5.6-22.3 .4-32.2c9.8-17.7 15.4-38.2 20.5-57.7C52.3 362.8 64 293.5 64 192C64 86 107 0 160 0H444.2zM512 384c-53 0-96-86-96-192S459 0 512 0s96 86 96 192s-43 192-96 192zm0-128c17.7 0 32-28.7 32-64s-14.3-64-32-64s-32 28.7-32 64s14.3 64 32 64zM144 208c0-8.8-7.2-16-16-16s-16 7.2-16 16s7.2 16 16 16s16-7.2 16-16zm64 0c0-8.8-7.2-16-16-16s-16 7.2-16 16s7.2 16 16 16s16-7.2 16-16zm48 16c8.8 0 16-7.2 16-16s-7.2-16-16-16s-16 7.2-16 16s7.2 16 16 16zm80-16c0-8.8-7.2-16-16-16s-16 7.2-16 16s7.2 16 16 16s16-7.2 16-16z"/></svg>