<svg xmlns="http://www.w3.org/2000/svg" viewBox="0 0 448 512"><!--! Font Awesome Free 6.2.1 by @fontawesome - https://fontawesome.com License - https://fontawesome.com/license/free (Icons: CC BY 4.0, Fonts: SIL OFL 1.1, Code: MIT License) Copyright 2022 Fonticons, Inc. --><path d="M86.8 48c-12.2 0-23.6 5.5-31.2 15L42.7 79C34.5 89.3 19.4 91 9 82.7S-3 59.4 5.3 49L18 33C34.7 12.2 60 0 86.8 0H361.2c26.7 0 52 12.2 68.7 33l12.8 16c8.3 10.4 6.6 25.5-3.7 33.7s-25.5 6.6-33.7-3.7L392.5 63c-7.6-9.5-19.1-15-31.2-15H248V96h40c53 0 96 43 96 96V352c0 30.6-14.3 57.8-36.6 75.4l65.5 65.5c7.1 7.1 2.1 19.1-7.9 19.1H365.3c-8.5 0-16.6-3.4-22.6-9.4L288 448H160l-54.6 54.6c-6 6-14.1 9.4-22.6 9.4H43c-10 0-15-12.1-7.9-19.1l65.5-65.5C78.3 409.8 64 382.6 64 352V192c0-53 43-96 96-96h40V48H86.8zM160 160c-17.7 0-32 14.3-32 32v32c0 17.7 14.3 32 32 32H288c17.7 0 32-14.3 32-32V192c0-17.7-14.3-32-32-32H160zm32 192c0-17.7-14.3-32-32-32s-32 14.3-32 32s14.3 32 32 32s32-14.3 32-32zm96 32c17.7 0 32-14.3 32-32s-14.3-32-32-32s-32 14.3-32 32s14.3 32 32 32z"/></svg>