<svg xmlns="http://www.w3.org/2000/svg" viewBox="0 0 640 512"><!--! Font Awesome Free 6.2.0 by @fontawesome - https://fontawesome.com License - https://fontawesome.com/license/free (Icons: CC BY 4.0, Fonts: SIL OFL 1.1, Code: MIT License) Copyright 2022 Fonticons, Inc. --><path d="M32 96c0-35.3 28.7-64 64-64H320c23.7 0 44.4 12.9 55.4 32h51.8c25.3 0 48.2 14.9 58.5 38l52.8 118.8c.5 1.1 .9 2.1 1.3 3.2H544c35.3 0 64 28.7 64 64v32c17.7 0 32 14.3 32 32s-14.3 32-32 32H576c0 53-43 96-96 96s-96-43-96-96H256c0 53-43 96-96 96s-96-43-96-96H32c-17.7 0-32-14.3-32-32s14.3-32 32-32V288c-17.7 0-32-14.3-32-32V160c0-17.7 14.3-32 32-32V96zM384 224h85.9l-42.7-96H384v96zM160 432c26.5 0 48-21.5 48-48s-21.5-48-48-48s-48 21.5-48 48s21.5 48 48 48zm368-48c0-26.5-21.5-48-48-48s-48 21.5-48 48s21.5 48 48 48s48-21.5 48-48z"/></svg>