<svg xmlns="http://www.w3.org/2000/svg" viewBox="0 0 640 512"><!--! Font Awesome Free 6.5.0 by @fontawesome - https://fontawesome.com License - https://fontawesome.com/license/free (Icons: CC BY 4.0, Fonts: SIL OFL 1.1, Code: MIT License) Copyright 2023 Fonticons, Inc. --><path d="M41 7C31.6-2.3 16.4-2.3 7 7S-2.3 31.6 7 41l72 72c9.4 9.4 24.6 9.4 33.9 0s9.4-24.6 0-33.9L41 7zM599 7L527 79c-9.4 9.4-9.4 24.6 0 33.9s24.6 9.4 33.9 0l72-72c9.4-9.4 9.4-24.6 0-33.9s-24.6-9.4-33.9 0zM7 505c9.4 9.4 24.6 9.4 33.9 0l72-72c9.4-9.4 9.4-24.6 0-33.9s-24.6-9.4-33.9 0L7 471c-9.4 9.4-9.4 24.6 0 33.9zm592 0c9.4 9.4 24.6 9.4 33.9 0s9.4-24.6 0-33.9l-72-72c-9.4-9.4-24.6-9.4-33.9 0s-9.4 24.6 0 33.9l72 72zM320 256a64 64 0 1 0 0-128 64 64 0 1 0 0 128zM212.1 336c-2.7 7.5-4.1 15.6-4.1 24c0 13.3 10.7 24 24 24H408c13.3 0 24-10.7 24-24c0-8.4-1.4-16.5-4.1-24c-.5-1.4-1-2.7-1.6-4c-9.4-22.3-29.8-38.9-54.3-43c-3.9-.7-7.9-1-12-1H280c-4.1 0-8.1 .3-12 1c-.8 .1-1.7 .3-2.5 .5c-24.9 5.1-45.1 23-53.4 46.5zM175.8 224a48 48 0 1 0 0-96 48 48 0 1 0 0 96zm-26.5 32C119.9 256 96 279.9 96 309.3c0 14.7 11.9 26.7 26.7 26.7h56.1c8-34.1 32.8-61.7 65.2-73.6c-7.5-4.1-16.2-6.4-25.3-6.4H149.3zm368 80c14.7 0 26.7-11.9 26.7-26.7c0-29.5-23.9-53.3-53.3-53.3H421.3c-9.2 0-17.8 2.3-25.3 6.4c32.4 11.9 57.2 39.5 65.2 73.6h56.1zM464 224a48 48 0 1 0 0-96 48 48 0 1 0 0 96z"/></svg>