<svg xmlns="http://www.w3.org/2000/svg" viewBox="0 0 640 512"><!--! Font Awesome Free 6.1.2 by @fontawesome - https://fontawesome.com License - https://fontawesome.com/license/free (Icons: CC BY 4.0, Fonts: SIL OFL 1.1, Code: MIT License) Copyright 2022 Fonticons, Inc. --><path d="M95.1 477.3c0 19.14 15.52 34.67 34.66 34.67h378.7c5.625 0 10.73-1.65 15.42-4.029L264.9 304.3C171.3 306.7 95.1 383.1 95.1 477.3zM630.8 469.1l-277.1-217.9c54.69-14.56 95.18-63.95 95.18-123.2C447.1 57.31 390.7 0 319.1 0C250.2 0 193.7 55.93 192.3 125.4l-153.4-120.3C34.41 1.672 29.19 0 24.03 0C16.91 0 9.845 3.156 5.127 9.187c-8.187 10.44-6.375 25.53 4.062 33.7L601.2 506.9c10.5 8.203 25.56 6.328 33.69-4.078C643.1 492.4 641.2 477.3 630.8 469.1z"/></svg>