<svg xmlns="http://www.w3.org/2000/svg" viewBox="0 0 640 512"><!--! Font Awesome Free 6.1.2 by @fontawesome - https://fontawesome.com License - https://fontawesome.com/license/free (Icons: CC BY 4.0, Fonts: SIL OFL 1.1, Code: MIT License) Copyright 2022 Fonticons, Inc. --><path d="M351.8 367.3v-44.1C328.5 310.7 302.4 304 274.7 304H173.3c-95.73 0-173.3 77.65-173.3 173.4C.0005 496.5 15.52 512 34.66 512h378.7c11.86 0 21.82-6.337 28.07-15.43l-61.65-61.57C361.7 416.9 351.8 392.9 351.8 367.3zM224 256c70.7 0 128-57.31 128-128S294.7 0 224 0C153.3 0 96 57.31 96 128S153.3 256 224 256zM630.6 364.8L540.3 274.8C528.3 262.8 512 256 495 256h-79.23c-17.75 0-31.99 14.25-31.99 32l.0147 79.2c0 17 6.647 33.15 18.65 45.15l90.31 90.27c12.5 12.5 32.74 12.5 45.24 0l92.49-92.5C643.1 397.6 643.1 377.3 630.6 364.8zM447.8 343.9c-13.25 0-24-10.62-24-24c0-13.25 10.75-24 24-24c13.38 0 24 10.75 24 24S461.1 343.9 447.8 343.9z"/></svg>