<svg xmlns="http://www.w3.org/2000/svg" viewBox="0 0 640 512"><!--! Font Awesome Free 6.1.0 by @fontawesome - https://fontawesome.com License - https://fontawesome.com/license/free (Icons: CC BY 4.0, Fonts: SIL OFL 1.1, Code: MIT License) Copyright 2022 Fonticons, Inc. --><path d="M284.9 320l-60.9-.0002c-88.36 0-160 71.63-160 159.1C63.1 497.7 78.33 512 95.1 512l448-.0039c.0137 0-.0137 0 0 0l-14.13-.0013L284.9 320zM630.8 469.1l-249.5-195.5c48.74-22.1 82.65-72.1 82.65-129.6c0-79.53-64.47-143.1-143.1-143.1c-69.64 0-127.3 49.57-140.6 115.3L38.81 5.109C34.41 1.672 29.19 0 24.03 0C16.91 0 9.845 3.156 5.127 9.187c-8.187 10.44-6.375 25.53 4.062 33.7L601.2 506.9c10.5 8.203 25.56 6.328 33.69-4.078C643.1 492.4 641.2 477.3 630.8 469.1z"/></svg>