<svg xmlns="http://www.w3.org/2000/svg" viewBox="0 0 576 512"><!--! Font Awesome Free 6.2.1 by @fontawesome - https://fontawesome.com License - https://fontawesome.com/license/free (Icons: CC BY 4.0, Fonts: SIL OFL 1.1, Code: MIT License) Copyright 2022 Fonticons, Inc. --><path d="M64 0C28.7 0 0 28.7 0 64V416c0 35.3 28.7 64 64 64H80l16 32h64l16-32H400l16 32h64l16-32h16c35.3 0 64-28.7 64-64V64c0-35.3-28.7-64-64-64H64zM224 320c44.2 0 80-35.8 80-80s-35.8-80-80-80s-80 35.8-80 80s35.8 80 80 80zm0 80c-88.4 0-160-71.6-160-160s71.6-160 160-160s160 71.6 160 160s-71.6 160-160 160zM480 221.3V336c0 8.8-7.2 16-16 16s-16-7.2-16-16V221.3c-18.6-6.6-32-24.4-32-45.3c0-26.5 21.5-48 48-48s48 21.5 48 48c0 20.9-13.4 38.7-32 45.3z"/></svg>