<svg xmlns="http://www.w3.org/2000/svg" viewBox="0 0 512 512"><!--! Font Awesome Free 6.2.0 by @fontawesome - https://fontawesome.com License - https://fontawesome.com/license/free (Icons: CC BY 4.0, Fonts: SIL OFL 1.1, Code: MIT License) Copyright 2022 Fonticons, Inc. --><path d="M342.6 9.4c-12.5-12.5-32.8-12.5-45.3 0s-12.5 32.8 0 45.3l9.4 9.4L28.1 342.6C10.1 360.6 0 385 0 410.5V416c0 53 43 96 96 96h5.5c25.5 0 49.9-10.1 67.9-28.1L448 205.3l9.4 9.4c12.5 12.5 32.8 12.5 45.3 0s12.5-32.8 0-45.3l-32-32-96-96-32-32zM205.3 256L352 109.3 402.7 160l-96 96H205.3z"/></svg>