<svg xmlns="http://www.w3.org/2000/svg" viewBox="0 0 512 512"><!--! Font Awesome Free 6.1.0 by @fontawesome - https://fontawesome.com License - https://fontawesome.com/license/free (Icons: CC BY 4.0, Fonts: SIL OFL 1.1, Code: MIT License) Copyright 2022 Fonticons, Inc. --><path d="M200 32h-176C10.75 32 0 42.74 0 56C0 69.25 10.75 80 24 80H32v320C32 444.1 67.88 480 112 480S192 444.1 192 400v-320h8C213.3 80 224 69.25 224 56C224 42.74 213.3 32 200 32zM144 256h-64V80h64V256zM488 32h-176C298.7 32 288 42.74 288 56c0 13.25 10.75 24 24 24H320v320c0 44.13 35.88 80 80 80s80-35.88 80-80v-320h8C501.3 80 512 69.25 512 56C512 42.74 501.3 32 488 32zM432 256h-64V80h64V256z"/></svg>