<svg xmlns="http://www.w3.org/2000/svg" viewBox="0 0 640 512"><path d="M114,227.56H92.44a28.44,28.44,0,0,0,0,56.88H114c50.68,0,76.06,61.28,40.23,97.12L139,396.81A28.44,28.44,0,1,0,179.19,437l15.25-15.25c35.84-35.84,97.11-10.45,97.11,40.23v21.54a28.45,28.45,0,0,0,56.9,0V462c0-26.61,17-45.91,38.22-53.37l-244.5-189A55.58,55.58,0,0,1,114,227.56ZM633.82,458.09,470.62,332c4.17-25.39,24.91-47.52,55.39-47.52h21.55a28.44,28.44,0,1,0,0-56.88H526c-50.68,0-76.06-61.28-40.23-97.12L501,115.19A28.44,28.44,0,0,0,460.81,75L445.56,90.22c-35.84,35.84-97.11,10.46-97.11-40.23V28.45a28.45,28.45,0,0,0-56.9,0V50c0,50.69-61.27,76.07-97.11,40.23L179.19,75A28.43,28.43,0,0,0,139,75c-.13.14-.15.32-.28.46L45.46,3.38A16,16,0,0,0,23,6.19L3.37,31.45A16,16,0,0,0,6.18,53.91L594.54,508.63A16,16,0,0,0,617,505.81l19.64-25.26A16,16,0,0,0,633.82,458.09ZM335.43,227.48l-62.87-48.59A46.55,46.55,0,0,1,288,176a48,48,0,0,1,48,48C336,225.22,335.52,226.29,335.43,227.48Z"/></svg>