<svg xmlns="http://www.w3.org/2000/svg" viewBox="0 0 640 512"><!--! Font Awesome Free 6.1.1 by @fontawesome - https://fontawesome.com License - https://fontawesome.com/license/free (Icons: CC BY 4.0, Fonts: SIL OFL 1.1, Code: MIT License) Copyright 2022 Fonticons, Inc. --><path d="M113.1 227.6H92.44c-15.72 0-28.45 12.72-28.45 28.45s12.72 28.44 28.45 28.44h21.55c50.68 0 76.06 61.28 40.23 97.11l-15.25 15.25c-11.11 11.11-11.11 29.11-.0006 40.22c5.555 5.555 12.83 8.332 20.11 8.332c7.277 0 14.55-2.779 20.11-8.334l15.24-15.25c35.84-35.84 97.12-10.45 97.12 40.23v21.55c0 15.72 12.72 28.45 28.45 28.45c15.72 0 28.45-12.72 28.45-28.45v-21.55c0-30.08 21.69-50.85 46.74-55.6L150 214.3C140.5 222.2 128.5 227.6 113.1 227.6zM630.8 469.1l-161.2-126.4c-.5176-29.6 21.73-58.3 56.41-58.3h21.55c15.72 0 28.45-12.72 28.45-28.44s-12.72-28.45-28.45-28.45h-21.55c-50.68 0-76.06-61.28-40.23-97.11l15.25-15.25c11.11-11.11 11.11-29.11 .0011-40.22c-11.11-11.11-29.11-11.11-40.22 .0007l-15.24 15.24c-35.84 35.84-97.12 10.46-97.12-40.23V28.44C348.4 12.72 335.7 0 319.1 0C304.3 0 291.6 12.72 291.6 28.44v21.55c0 50.68-61.28 76.06-97.12 40.23L179.2 74.97c-11.11-11.11-29.11-11.11-40.22 0C137.3 76.63 136.2 78.61 135 80.53L38.81 5.112C34.41 1.675 29.19 0 24.03 0C16.91 0 9.845 3.159 5.126 9.19C-3.061 19.63-1.248 34.72 9.189 42.89l591.1 463.1c10.5 8.203 25.56 6.328 33.69-4.078C643.1 492.4 641.2 477.3 630.8 469.1zM334.1 236.6L264.6 182.1c6.904-3.885 14.86-6.109 23.36-6.109c26.51 0 47.1 21.49 47.1 47.1C335.1 228.4 335.2 232.5 334.1 236.6z"/></svg>