<svg xmlns="http://www.w3.org/2000/svg" viewBox="0 0 576 512"><!--! Font Awesome Free 6.1.1 by @fontawesome - https://fontawesome.com License - https://fontawesome.com/license/free (Icons: CC BY 4.0, Fonts: SIL OFL 1.1, Code: MIT License) Copyright 2022 Fonticons, Inc. --><path d="M320 128c0 .375-.1992 .6855-.2129 1.057C319.8 129.9 320 130.7 320 131.6V128zM192 383.1V288h192v95.99c39.6-.1448 53.95-17.98 64-26.83V128c0-17.62 14.38-32 32-32s32 14.38 32 32c0 17.67 14.33 32 32 32s32-14.33 32-32c0-53-42.1-95.1-95.1-95.1C420.1 32 384 81.94 384 131.6V224H192V128c0-17.62 14.38-32 32-32s32 14.38 32 32c0 17.67 14.33 32 32 32c17.3 0 31.2-13.79 31.79-30.94c-1.227-49.01-37.99-97.06-95.79-97.06C170.1 32 128 74.1 128 128v229.2C138.5 366.4 151.4 383.8 192 383.1zM576 445c0-15.14-10.82-28.59-26.25-31.42c-48.52-8.888-45.5-29.48-69.6-29.48c-25.02 0-31.19 31.79-96.18 31.79c-48.59 0-72.72-22.06-73.38-22.62c-6.141-6.157-14.26-9.188-22.42-9.188c-24.75 0-31.59 31.81-96.2 31.81c-48.59 0-72.69-22.03-73.41-22.59c-6.125-6.157-14.24-9.196-22.4-9.196c-8.072 0-16.18 2.976-22.45 8.852c-29.01 26.25-73.75 12.54-73.75 52.08c0 16.08 12.77 32.07 31.71 32.07c9.77 0 39.65-7.34 64.26-21.84c19.5 11.53 51.51 24.69 96.08 24.69s76.46-13.12 95.96-24.66c19.53 11.53 51.52 24.62 96.06 24.62c44.59 0 76.51-13.12 96.01-24.66c24.71 14.57 54.74 21.83 64.24 21.83C563.2 477.1 576 461.3 576 445z"/></svg>