<svg xmlns="http://www.w3.org/2000/svg" viewBox="0 0 448 512"><!--! Font Awesome Free 6.5.0 by @fontawesome - https://fontawesome.com License - https://fontawesome.com/license/free (Icons: CC BY 4.0, Fonts: SIL OFL 1.1, Code: MIT License) Copyright 2023 Fonticons, Inc. --><path d="M282 256.2l-95.2-54.1V310.3L282 256.2zM384 32H64C28.7 32 0 60.7 0 96V416c0 35.3 28.7 64 64 64H384c35.3 0 64-28.7 64-64V96c0-35.3-28.7-64-64-64zm14.4 136.1c7.6 28.6 7.6 88.2 7.6 88.2s0 59.6-7.6 88.1c-4.2 15.8-16.5 27.7-32.2 31.9C337.9 384 224 384 224 384s-113.9 0-142.2-7.6c-15.7-4.2-28-16.1-32.2-31.9C42 315.9 42 256.3 42 256.3s0-59.7 7.6-88.2c4.2-15.8 16.5-28.2 32.2-32.4C110.1 128 224 128 224 128s113.9 0 142.2 7.7c15.7 4.2 28 16.6 32.2 32.4z"/></svg>