<svg xmlns="http://www.w3.org/2000/svg" viewBox="0 0 576 512"><!--! Font Awesome Free 6.2.0 by @fontawesome - https://fontawesome.com License - https://fontawesome.com/license/free (Icons: CC BY 4.0, Fonts: SIL OFL 1.1, Code: MIT License) Copyright 2022 Fonticons, Inc. --><path d="M160 480c9 0 17.5-3.8 23.6-10.4l88-96c11.9-13 11.1-33.3-2-45.2s-33.3-11.1-45.2 2L192 365.7V64c0-17.7-14.3-32-32-32s-32 14.3-32 32V365.7L95.6 330.4c-11.9-13-32.2-13.9-45.2-2s-13.9 32.2-2 45.2l88 96C142.5 476.2 151 480 160 480zM352 320c0 17.7 14.3 32 32 32h16v64H384c-17.7 0-32 14.3-32 32s14.3 32 32 32h48 48c17.7 0 32-14.3 32-32s-14.3-32-32-32H464V320c0-17.7-14.3-32-32-32H384c-17.7 0-32 14.3-32 32zm93.7-171.1c-4.2 2-8.8 3.1-13.7 3.1c-17.7 0-32-14.3-32-32s14.3-32 32-32s32 14.3 32 32c0 12.8-7.5 23.8-18.3 28.9zm-40.7 54.9l-6.8 9.2c-10.5 14.2-7.5 34.2 6.7 44.8s34.2 7.5 44.8-6.7l48.8-65.8c14-18.9 21.5-41.7 21.5-65.2c0-48.6-39.4-88-88-88s-88 39.4-88 88c0 39.2 25.6 72.4 61.1 83.8z"/></svg>