<svg xmlns="http://www.w3.org/2000/svg" viewBox="0 0 512 512"><!--! Font Awesome Free 6.2.0 by @fontawesome - https://fontawesome.com License - https://fontawesome.com/license/free (Icons: CC BY 4.0, Fonts: SIL OFL 1.1, Code: MIT License) Copyright 2022 Fonticons, Inc. --><path d="M249.4 25.4c12.5-12.5 32.8-12.5 45.3 0s12.5 32.8 0 45.3L269.3 96 416 96c53 0 96 43 96 96v32c0 17.7-14.3 32-32 32s-32-14.3-32-32V192c0-17.7-14.3-32-32-32l-146.7 0 25.4 25.4c12.5 12.5 12.5 32.8 0 45.3s-32.8 12.5-45.3 0l-80-80c-12.5-12.5-12.5-32.8 0-45.3l80-80zm13.3 256l80 80c12.5 12.5 12.5 32.8 0 45.3l-80 80c-12.5 12.5-32.8 12.5-45.3 0s-12.5-32.8 0-45.3L242.7 416 96 416c-17.7 0-32 14.3-32 32v32c0 17.7-14.3 32-32 32s-32-14.3-32-32V448c0-53 43-96 96-96l146.7 0-25.4-25.4c-12.5-12.5-12.5-32.8 0-45.3s32.8-12.5 45.3 0zM512 384c0 35.3-28.7 64-64 64s-64-28.7-64-64s28.7-64 64-64s64 28.7 64 64zM64 64c35.3 0 64 28.7 64 64s-28.7 64-64 64s-64-28.7-64-64S28.7 64 64 64z"/></svg>