<svg xmlns="http://www.w3.org/2000/svg" viewBox="0 0 576 512"><!--! Font Awesome Free 6.2.0 by @fontawesome - https://fontawesome.com License - https://fontawesome.com/license/free (Icons: CC BY 4.0, Fonts: SIL OFL 1.1, Code: MIT License) Copyright 2022 Fonticons, Inc. --><path d="M422.6 278.6c-12.5 12.5-32.8 12.5-45.3 0s-12.5-32.8 0-45.3L434.7 176H64c-17.7 0-32-14.3-32-32s14.3-32 32-32H434.7L377.4 54.6c-12.5-12.5-12.5-32.8 0-45.3s32.8-12.5 45.3 0l112 112c12.5 12.5 12.5 32.8 0 45.3l-112 112zm-269.3 224l-112-112c-12.5-12.5-12.5-32.8 0-45.3l112-112c12.5-12.5 32.8-12.5 45.3 0s12.5 32.8 0 45.3L141.3 336H512c17.7 0 32 14.3 32 32s-14.3 32-32 32H141.3l57.4 57.4c12.5 12.5 12.5 32.8 0 45.3s-32.8 12.5-45.3 0z"/></svg>