<svg xmlns="http://www.w3.org/2000/svg" viewBox="0 0 576 512"><!--! Font Awesome Free 6.5.0 by @fontawesome - https://fontawesome.com License - https://fontawesome.com/license/free (Icons: CC BY 4.0, Fonts: SIL OFL 1.1, Code: MIT License) Copyright 2023 Fonticons, Inc. --><path d="M183.6 42.4C177.5 35.8 169 32 160 32s-17.5 3.8-23.6 10.4l-88 96c-11.9 13-11.1 33.3 2 45.2s33.3 11.1 45.2-2L128 146.3V448c0 17.7 14.3 32 32 32s32-14.3 32-32V146.3l32.4 35.4c11.9 13 32.2 13.9 45.2 2s13.9-32.2 2-45.2l-88-96zM320 320c0 17.7 14.3 32 32 32h50.7l-73.4 73.4c-9.2 9.2-11.9 22.9-6.9 34.9s16.6 19.8 29.6 19.8H480c17.7 0 32-14.3 32-32s-14.3-32-32-32H429.3l73.4-73.4c9.2-9.2 11.9-22.9 6.9-34.9s-16.6-19.8-29.6-19.8H352c-17.7 0-32 14.3-32 32zM416 32c-12.1 0-23.2 6.8-28.6 17.7l-64 128-16 32c-7.9 15.8-1.5 35 14.3 42.9s35 1.5 42.9-14.3l7.2-14.3h88.4l7.2 14.3c7.9 15.8 27.1 22.2 42.9 14.3s22.2-27.1 14.3-42.9l-16-32-64-128C439.2 38.8 428.1 32 416 32zM395.8 176L416 135.6 436.2 176H395.8z"/></svg>