<svg xmlns="http://www.w3.org/2000/svg" viewBox="0 0 448 512"><path d="M413.03 256c40.13-54.89 41.51-98.62 25.14-128-10.91-19.52-40.54-50.73-116.33-41.88C300.36 34.89 267.64 0 224 0s-76.36 34.89-97.84 86.12C50.43 77.34 20.73 108.48 9.83 128c-16.38 29.4-15 73.09 25.14 128-40.13 54.89-41.51 98.62-25.14 128 29.21 52.34 101.68 43.58 116.33 41.88C147.63 477.1 180.36 512 224 512s76.37-34.9 97.84-86.12c14.64 1.7 87.11 10.46 116.33-41.88 16.38-29.4 15-73.09-25.14-128zM63.38 352c-4.03-7.21-.19-24.8 14.95-48.29 6.96 6.53 14.2 12.89 21.87 19.18 1.71 13.71 4 27.08 6.76 40.08-24.56.89-39.89-4.37-43.58-10.97zm36.82-162.88c-7.66 6.29-14.9 12.65-21.87 19.18-15.13-23.5-18.97-41.09-14.95-48.3 3.41-6.14 16.39-11.47 37.92-11.47 1.71 0 3.87.3 5.69.37a472.191 472.191 0 0 0-6.79 40.22zM224 64c9.47 0 22.2 13.52 33.86 37.26-11.19 3.7-22.44 8-33.86 12.86-11.42-4.86-22.67-9.16-33.86-12.86C201.8 77.52 214.53 64 224 64zm0 384c-9.47 0-22.2-13.52-33.86-37.26 11.19-3.7 22.44-8 33.86-12.86 11.42 4.86 22.67 9.16 33.86 12.86C246.2 434.48 233.47 448 224 448zm62.5-157.33c-26.7 19.08-46.14 29.33-62.5 37.48-16.35-8.14-35.8-18.41-62.5-37.48-1.99-27.79-1.99-41.54 0-69.33 26.67-19.05 46.13-29.32 62.5-37.48 16.39 8.17 35.86 18.44 62.5 37.48 1.98 27.78 1.99 41.53 0 69.33zM384.62 352c-3.67 6.62-19 11.82-43.58 10.95 2.76-13 5.05-26.37 6.76-40.06 7.66-6.29 14.9-12.65 21.87-19.18 15.13 23.49 18.97 41.08 14.95 48.29zm-14.95-143.71c-6.96-6.53-14.2-12.89-21.87-19.18a473.535 473.535 0 0 0-6.79-40.22c1.82-.07 3.97-.37 5.69-.37 21.52 0 34.51 5.34 37.92 11.47 4.02 7.22.18 24.81-14.95 48.3zM224 224c-17.67 0-32 14.33-32 32s14.33 32 32 32 32-14.33 32-32-14.33-32-32-32z"/></svg>