<svg xmlns="http://www.w3.org/2000/svg" viewBox="0 0 320 512"><!--! Font Awesome Free 6.2.1 by @fontawesome - https://fontawesome.com License - https://fontawesome.com/license/free (Icons: CC BY 4.0, Fonts: SIL OFL 1.1, Code: MIT License) Copyright 2022 Fonticons, Inc. --><path d="M32 32C14.3 32 0 46.3 0 64V256 448c0 17.7 14.3 32 32 32H192c70.7 0 128-57.3 128-128c0-46.5-24.8-87.3-62-109.7c18.7-22.3 30-51 30-82.3c0-70.7-57.3-128-128-128H32zM160 224H64V96h96c35.3 0 64 28.7 64 64s-28.7 64-64 64zM64 288h96 32c35.3 0 64 28.7 64 64s-28.7 64-64 64H64V288z"/></svg>