<svg xmlns="http://www.w3.org/2000/svg" viewBox="0 0 320 512"><!--! Font Awesome Free 6.1.1 by @fontawesome - https://fontawesome.com License - https://fontawesome.com/license/free (Icons: CC BY 4.0, Fonts: SIL OFL 1.1, Code: MIT License) Copyright 2022 Fonticons, Inc. --><path d="M257.1 242.4C276.1 220.1 288 191.6 288 160c0-70.58-57.42-128-128-128H32c-17.67 0-32 14.33-32 32v384c0 17.67 14.33 32 32 32l160-.0049c70.58 0 128-57.42 128-128C320 305.3 294.6 264.8 257.1 242.4zM64 96.01h96c35.3 0 64 28.7 64 64s-28.7 64-64 64H64V96.01zM192 416H64v-128h128c35.3 0 64 28.7 64 64S227.3 416 192 416z"/></svg>