<svg xmlns="http://www.w3.org/2000/svg" viewBox="0 0 512 512"><!--! Font Awesome Free 6.2.0 by @fontawesome - https://fontawesome.com License - https://fontawesome.com/license/free (Icons: CC BY 4.0, Fonts: SIL OFL 1.1, Code: MIT License) Copyright 2022 Fonticons, Inc. --><path d="M256 192H.1C2.7 117.9 41.3 52.9 99 14.1c13.3-8.9 30.8-4.3 39.9 8.8L256 192zm128-32c0-35.3 28.7-64 64-64h32c17.7 0 32 14.3 32 32s-14.3 32-32 32l-32 0v64c0 25.2-5.8 50.2-17 73.5s-27.8 44.5-48.6 62.3s-45.5 32-72.7 41.6S253.4 416 224 416s-58.5-5-85.7-14.6s-51.9-23.8-72.7-41.6s-37.3-39-48.6-62.3S0 249.2 0 224l224 0 160 0V160zM80 512c-26.5 0-48-21.5-48-48s21.5-48 48-48s48 21.5 48 48s-21.5 48-48 48zm336-48c0 26.5-21.5 48-48 48s-48-21.5-48-48s21.5-48 48-48s48 21.5 48 48z"/></svg>