<svg xmlns="http://www.w3.org/2000/svg" viewBox="0 0 640 512"><!--! Font Awesome Free 6.2.1 by @fontawesome - https://fontawesome.com License - https://fontawesome.com/license/free (Icons: CC BY 4.0, Fonts: SIL OFL 1.1, Code: MIT License) Copyright 2022 Fonticons, Inc. --><path d="M550.3 0c-10.9 0-21.4 3.4-30.2 9.8L279.7 184.6c-13.9 10.1-26.8 21.4-38.7 33.8L138.7 325.3c-9.2 9.6-19.3 18.4-30.1 26.3L79.3 372.9c1.3 1.5 2.6 3 3.9 4.7l48 64c1.6 2.2 3.1 4.4 4.4 6.6l27.3-19.9c11.6-8.4 24-15.8 37-21.8l135.3-63.1c16.7-7.8 32.7-17.2 47.6-28.1L619 143.6c13.2-9.6 21-24.9 21-41.2c0-11-3.6-21.8-10.2-30.6L609.6 44.8 591.4 20.6C581.7 7.6 566.5 0 550.3 0zM496 512c44.2 0 80-35.8 80-80s-35.8-80-80-80s-80 35.8-80 80s35.8 80 80 80zM57.6 396.8c-10.6-14.1-30.7-17-44.8-6.4s-17 30.7-6.4 44.8l48 64c10.6 14.1 30.7 17 44.8 6.4s17-30.7 6.4-44.8l-48-64z"/></svg>