<svg xmlns="http://www.w3.org/2000/svg" viewBox="0 0 576 512"><!--! Font Awesome Free 6.1.2 by @fontawesome - https://fontawesome.com License - https://fontawesome.com/license/free (Icons: CC BY 4.0, Fonts: SIL OFL 1.1, Code: MIT License) Copyright 2022 Fonticons, Inc. --><path d="M464 96C508.2 96 544 131.8 544 176V192C561.7 192 576 206.3 576 224V288C576 305.7 561.7 320 544 320V336C544 380.2 508.2 416 464 416H80C35.82 416 0 380.2 0 336V176C0 131.8 35.82 96 80 96H464zM64 336C64 344.8 71.16 352 80 352H464C472.8 352 480 344.8 480 336V176C480 167.2 472.8 160 464 160H80C71.16 160 64 167.2 64 176V336z"/></svg>