<svg xmlns="http://www.w3.org/2000/svg" viewBox="0 0 576 512"><!--! Font Awesome Free 6.3.0 by @fontawesome - https://fontawesome.com License - https://fontawesome.com/license/free (Icons: CC BY 4.0, Fonts: SIL OFL 1.1, Code: MIT License) Copyright 2023 Fonticons, Inc. --><path d="M464 160c8.8 0 16 7.2 16 16V336c0 8.8-7.2 16-16 16H80c-8.8 0-16-7.2-16-16V176c0-8.8 7.2-16 16-16H464zM80 96C35.8 96 0 131.8 0 176V336c0 44.2 35.8 80 80 80H464c44.2 0 80-35.8 80-80V320c17.7 0 32-14.3 32-32V224c0-17.7-14.3-32-32-32V176c0-44.2-35.8-80-80-80H80zm112 96H96V320h96V192z"/></svg>