<svg xmlns="http://www.w3.org/2000/svg" viewBox="0 0 640 512"><!--! Font Awesome Free 6.1.1 by @fontawesome - https://fontawesome.com License - https://fontawesome.com/license/free (Icons: CC BY 4.0, Fonts: SIL OFL 1.1, Code: MIT License) Copyright 2022 Fonticons, Inc. --><path d="M96 318.3v1.689h1.689C97.12 319.4 96.56 318.9 96 318.3zM176 320c44.13 0 80-35.88 80-79.1s-35.88-79.1-80-79.1S96 195.9 96 240S131.9 320 176 320zM256 318.3C255.4 318.9 254.9 319.4 254.3 320H256V318.3zM544 160h-82.1L450.7 183.9C441.5 203.2 421.8 215.8 400 216c-21.23 0-40.97-12.31-50.3-31.35l-12.08-24.64H304c-8.836 0-16 7.161-16 15.1v175.1L64 352V80.01c0-8.834-7.164-15.1-16-15.1h-32c-8.836 0-16 7.163-16 15.1V496C0 504.8 7.164 512 16 512h32C56.84 512 64 504.8 64 496v-47.1h512V496c0 8.836 7.164 16 16 16h32c8.836 0 16-7.164 16-16V256C640 202.1 597 160 544 160zM624 48.01h-115.2l-24.88-37.31c-2.324-3.48-5.539-6.131-9.158-7.977c-1.172-.6016-2.486-.5508-3.738-.9512C468.8 1.035 466.5 0 464.1 0c-.625 0-1.25 .0254-1.875 .0781c-8.625 .6406-16.25 5.876-19.94 13.7l-42.72 90.81l-21.12-43.12c-4.027-8.223-12.39-13.44-21.54-13.44L208 48.02C199.2 48.01 192 55.18 192 64.02v15.99c0 8.836 7.163 15.1 15.1 16l133.1 .0091l36.46 74.55C382.5 178.8 390.8 184 400 184c9.219-.0781 17.78-5.438 21.72-13.78l45.91-97.52l8.406 12.62C480.5 91.1 487.1 96.01 496 96.01h128c8.836 0 16-7.164 16-16V64.01C640 55.18 632.8 48.01 624 48.01z"/></svg>