<svg xmlns="http://www.w3.org/2000/svg" viewBox="0 0 576 512"><!--! Font Awesome Free 6.1.0 by @fontawesome - https://fontawesome.com License - https://fontawesome.com/license/free (Icons: CC BY 4.0, Fonts: SIL OFL 1.1, Code: MIT License) Copyright 2022 Fonticons, Inc. --><path d="M158.7 334.1L132.1 271.7C130.2 264.1 123.2 260.7 115.7 261.5l-45 4.374c-17.25-46.87-17.63-99.74 0-147.6l45 4.374C123.2 123.4 130.2 119.1 132.1 112.4l25.75-63.25C161.9 41.76 158.1 33.26 152.1 29.01L112.9 4.887C98.49-3.863 80.12-.4886 68.99 12.01C-23.64 115.6-23.01 271.5 70.99 374.5c9.875 10.75 29.13 12.5 41.75 4.75l39.38-24.12C158.1 350.9 161.7 342.4 158.7 334.1zM479.1 384H224c-35.38 0-63.1 28.62-63.1 63.1l-.0052 32c0 17.62 14.37 31.1 31.1 31.1L511.1 512c17.63 0 32-14.38 32-31.1l.0019-31.1C543.1 412.6 515.4 384 479.1 384zM352 480c-17.63 0-31.1-14.38-31.1-31.1c0-17.62 14.37-31.1 31.1-31.1s31.1 14.38 31.1 31.1C384 465.6 369.6 480 352 480zM399.1 64h158.5L576 .008L191.1 .006l-.0023 351.1h288l17.49-64h-97.49c-8.801 0-16-7.199-16-15.1c0-8.799 7.199-15.1 16-15.1h106.1l17.49-63.1h-123.6c-8.801 0-16-7.199-16-15.1c0-8.799 7.199-15.1 16-15.1h132.4l17.49-63.1h-149.9c-8.801 0-16-7.199-16-15.1C383.1 71.2 391.2 64 399.1 64z"/></svg>