<svg xmlns="http://www.w3.org/2000/svg" viewBox="0 0 448 512"><path d="M272 136c8.84 0 16-7.16 16-16s-7.16-16-16-16-16 7.16-16 16 7.16 16 16 16zm176 222.4V25.6c0-16-9.6-25.6-25.6-25.6H96C41.6 0 0 41.6 0 96v320c0 54.4 41.6 96 96 96h326.4c12.8 0 25.6-9.6 25.6-25.6v-16c0-6.4-3.2-12.8-9.6-19.2-3.2-16-3.2-60.8 0-73.6 6.4-3.2 9.6-9.6 9.6-19.2zM240 56c44.18 0 80 28.65 80 64 0 20.87-12.68 39.23-32 50.91V184c0 8.84-7.16 16-16 16h-64c-8.84 0-16-7.16-16-16v-13.09c-19.32-11.68-32-30.04-32-50.91 0-35.35 35.82-64 80-64zM129.05 233.85a7.996 7.996 0 0 1-4.2-10.5l6.29-14.7a7.995 7.995 0 0 1 10.51-4.2L240 246.6l98.35-42.15c4.06-1.74 8.77.14 10.51 4.2l6.29 14.7a7.996 7.996 0 0 1-4.2 10.5L280.6 264l70.34 30.15a7.996 7.996 0 0 1 4.2 10.5l-6.29 14.7a8.008 8.008 0 0 1-10.51 4.21L240 281.4l-98.35 42.15a8.003 8.003 0 0 1-10.51-4.21l-6.29-14.7a7.996 7.996 0 0 1 4.2-10.5L199.4 264l-70.35-30.15zM380.8 448H96c-19.2 0-32-12.8-32-32s16-32 32-32h284.8v64zM208 136c8.84 0 16-7.16 16-16s-7.16-16-16-16-16 7.16-16 16 7.16 16 16 16z"/></svg>