<svg xmlns="http://www.w3.org/2000/svg" viewBox="0 0 448 512"><!--! Font Awesome Free 6.2.1 by @fontawesome - https://fontawesome.com License - https://fontawesome.com/license/free (Icons: CC BY 4.0, Fonts: SIL OFL 1.1, Code: MIT License) Copyright 2022 Fonticons, Inc. --><path d="M0 96C0 43 43 0 96 0H384h32c17.7 0 32 14.3 32 32V352c0 17.7-14.3 32-32 32v64c17.7 0 32 14.3 32 32s-14.3 32-32 32H384 96c-53 0-96-43-96-96V96zM64 416c0 17.7 14.3 32 32 32H352V384H96c-17.7 0-32 14.3-32 32zm90.4-234.4l-21.2-21.2c-3 10.1-5.1 20.6-5.1 31.6c0 .2 0 .5 .1 .8s.1 .5 .1 .8L165.2 226c2.5 2.1 3.4 5.8 2.3 8.9c-1.3 3-4.1 5.1-7.5 5.1c-1.9-.1-3.8-.8-5.2-2l-23.6-20.6C142.8 267 186.9 304 240 304s97.3-37 108.9-86.6L325.3 238c-1.4 1.2-3.3 2-5.3 2c-2.2-.1-4.4-1.1-6-2.8c-1.3-1.5-1.9-3.4-2-5.2c.1-2.2 1.1-4.4 2.7-6l37.1-32.5c0-.3 0-.5 .1-.8s.1-.5 .1-.8c0-11-2.1-21.5-5.1-31.6l-21.2 21.2c-3.1 3.1-8.1 3.1-11.3 0s-3.1-8.1 0-11.2l26.4-26.5c-10-20.7-26.1-38-46.4-49.2c17 27.1 11 62.8-14 82.6c14.1 14.6 19.1 35.9 13.1 55.2c-5.9 19.4-22 34.1-41.9 38.3l-1.4-34.3 12.6 8.6c.6 .4 1.5 .6 2.3 .6c1.5 0 2.7-.8 3.5-2s.6-2.8-.1-4L260 225.4l18-3.6c1.8-.4 3.1-2.1 3.1-4s-1.4-3.5-3.1-3.9l-18-3.7 8.5-14.3c.8-1.2 .9-2.9 .1-4.1s-2-2-3.5-2l-.1 0c-.7 .1-1.5 .3-2.1 .7l-14.1 9.6L244 87.9c-.1-2.2-1.9-3.9-4-3.9s-3.9 1.6-4 3.9l-4.6 110.8-12-8.1c-1.5-1.1-3.6-.9-5 .4s-1.6 3.4-.8 5l8.6 14.3-18 3.7c-1.8 .4-3.1 2-3.1 3.9s1.4 3.6 3.1 4l18 3.8-8.6 14.2c-.2 .6-.5 1.4-.5 2c0 1.1 .5 2.1 1.2 3c.8 .6 1.8 1 2.8 1c.7 0 1.6-.2 2.2-.6l10.4-7.1-1.4 32.8c-19.9-4.1-36-18.9-41.9-38.3c-6-19.4-1-40.5 13.1-55.2c-25-19.9-31-55.5-14-82.6c-20.1 11.2-36.4 28.5-46.4 49.2l26.4 26.5c3.1 3.1 3.1 8.1 0 11.2s-8.1 3.1-11.2 0z"/></svg>