<svg xmlns="http://www.w3.org/2000/svg" viewBox="0 0 320 512"><!--! Font Awesome Free 6.1.1 by @fontawesome - https://fontawesome.com License - https://fontawesome.com/license/free (Icons: CC BY 4.0, Fonts: SIL OFL 1.1, Code: MIT License) Copyright 2022 Fonticons, Inc. --><path d="M224 0C237.3-.0003 248 10.74 248 23.1C248 37.25 237.3 47.1 224 48L216 48V140.9C258.6 161.6 288 205.4 288 256V448C288 483.3 259.3 512 224 512H96C60.65 512 32 483.3 32 448V256C32 205.4 61.37 161.6 104 140.9V48L96 48C82.75 48 72 37.26 72 24C71.1 10.75 82.74 .0045 95.1 .0042L224 0zM160 384C186.5 384 208 368 208 336C208 304 160 256 160 256C160 256 112 304 112 336C112 362.5 133.5 384 160 384z"/></svg>