<svg xmlns="http://www.w3.org/2000/svg" viewBox="0 0 512 512"><!--! Font Awesome Free 6.0.0 by @fontawesome - https://fontawesome.com License - https://fontawesome.com/license/free (Icons: CC BY 4.0, Fonts: SIL OFL 1.1, Code: MIT License) Copyright 2022 Fonticons, Inc. --><path d="M384 288l64-192h-109.4C308.4 96 281.6 76.66 272 48C262.4 19.33 235.6 0 205.4 0H64l64 288H384zM0 480c0 17.67 14.33 32 32 32h448c17.67 0 32-14.33 32-32v-64H0V480zM480 224h-40.94l-21.33 64H432C440.8 288 448 295.2 448 304S440.8 320 432 320h-352C71.16 320 64 312.8 64 304S71.16 288 80 288h15.22l-14.22-64H32C14.33 224 0 238.3 0 256v128h512V256C512 238.3 497.7 224 480 224z"/></svg>