<svg xmlns="http://www.w3.org/2000/svg" viewBox="0 0 640 512"><!--! Font Awesome Free 6.1.1 by @fontawesome - https://fontawesome.com License - https://fontawesome.com/license/free (Icons: CC BY 4.0, Fonts: SIL OFL 1.1, Code: MIT License) Copyright 2022 Fonticons, Inc. --><path d="M256 48C256 21.49 277.5 0 304 0H592C618.5 0 640 21.49 640 48V464C640 490.5 618.5 512 592 512H381.3C383 506.1 384 501.6 384 496V253.3C402.6 246.7 416 228.9 416 208V176C416 149.5 394.5 128 368 128H256V48zM571.3 347.3C577.6 341.1 577.6 330.9 571.3 324.7L507.3 260.7C501.1 254.4 490.9 254.4 484.7 260.7L420.7 324.7C414.4 330.9 414.4 341.1 420.7 347.3C426.9 353.6 437.1 353.6 443.3 347.3L480 310.6V432C480 440.8 487.2 448 496 448C504.8 448 512 440.8 512 432V310.6L548.7 347.3C554.9 353.6 565.1 353.6 571.3 347.3H571.3zM0 176C0 167.2 7.164 160 16 160H368C376.8 160 384 167.2 384 176V208C384 216.8 376.8 224 368 224H16C7.164 224 0 216.8 0 208V176zM352 480C352 497.7 337.7 512 320 512H64C46.33 512 32 497.7 32 480V256H352V480zM144 320C135.2 320 128 327.2 128 336C128 344.8 135.2 352 144 352H240C248.8 352 256 344.8 256 336C256 327.2 248.8 320 240 320H144z"/></svg>