<svg xmlns="http://www.w3.org/2000/svg" viewBox="0 0 640 512"><!--! Font Awesome Free 6.2.1 by @fontawesome - https://fontawesome.com License - https://fontawesome.com/license/free (Icons: CC BY 4.0, Fonts: SIL OFL 1.1, Code: MIT License) Copyright 2022 Fonticons, Inc. --><path d="M627.6 57.3c14-10.9 16.5-31 5.6-44.9s-31-16.5-44.9-5.6l-144 112-72 56-8.7 6.8-30.8-39.4c-3.7-4.8-9.8-7-15.8-5.8s-10.7 5.7-12.3 11.5l-12.5 46.3L371.1 295l48-.9c6.1-.1 11.5-3.7 14.1-9.1s1.9-11.9-1.8-16.7L403 231.9l8.6-6.7 72-56 144-112zM16.7 507.7c37.4 2.8 196.8 12 252.3-31.4c57.7-45.1 76.8-161.5 76.8-161.5L267.1 213.9s-117.6-9.6-175.3 35.5C69 267.1 50.5 304.1 36.3 344c-2.4 6.7 4.7 12.8 11 9.4L86.2 333c4.1-2.2 9.2-1.1 12 2.6s2.7 8.8-.4 12.3L24.4 430.4C13.2 442.9 5.5 458.1 2.4 474.5c-.9 4.8-1.6 8.9-2.2 12.1c-.9 5 .5 10.1 3.6 14.1s7.7 6.6 12.8 7z"/></svg>