<svg xmlns="http://www.w3.org/2000/svg" viewBox="0 0 384 512"><!--! Font Awesome Free 6.1.0 by @fontawesome - https://fontawesome.com License - https://fontawesome.com/license/free (Icons: CC BY 4.0, Fonts: SIL OFL 1.1, Code: MIT License) Copyright 2022 Fonticons, Inc. --><path d="M224 0H336C362.5 0 384 21.49 384 48V256H0V48C0 21.49 21.49 0 48 0H64L96 64L128 0H160L192 64L224 0zM384 288V320C384 355.3 355.3 384 320 384H256V448C256 483.3 227.3 512 192 512C156.7 512 128 483.3 128 448V384H64C28.65 384 0 355.3 0 320V288H384zM192 464C200.8 464 208 456.8 208 448C208 439.2 200.8 432 192 432C183.2 432 176 439.2 176 448C176 456.8 183.2 464 192 464z"/></svg>