<svg xmlns="http://www.w3.org/2000/svg" viewBox="0 0 640 512"><!--! Font Awesome Free 6.2.1 by @fontawesome - https://fontawesome.com License - https://fontawesome.com/license/free (Icons: CC BY 4.0, Fonts: SIL OFL 1.1, Code: MIT License) Copyright 2022 Fonticons, Inc. --><path d="M0 48C0 21.5 21.5 0 48 0H336c26.5 0 48 21.5 48 48V464c0 26.5-21.5 48-48 48H240V432c0-26.5-21.5-48-48-48s-48 21.5-48 48v80H48c-26.5 0-48-21.5-48-48V48zM80 224c-8.8 0-16 7.2-16 16v32c0 8.8 7.2 16 16 16h32c8.8 0 16-7.2 16-16V240c0-8.8-7.2-16-16-16H80zm80 16v32c0 8.8 7.2 16 16 16h32c8.8 0 16-7.2 16-16V240c0-8.8-7.2-16-16-16H176c-8.8 0-16 7.2-16 16zm112-16c-8.8 0-16 7.2-16 16v32c0 8.8 7.2 16 16 16h32c8.8 0 16-7.2 16-16V240c0-8.8-7.2-16-16-16H272zM64 112v32c0 8.8 7.2 16 16 16h32c8.8 0 16-7.2 16-16V112c0-8.8-7.2-16-16-16H80c-8.8 0-16 7.2-16 16zM176 96c-8.8 0-16 7.2-16 16v32c0 8.8 7.2 16 16 16h32c8.8 0 16-7.2 16-16V112c0-8.8-7.2-16-16-16H176zm80 16v32c0 8.8 7.2 16 16 16h32c8.8 0 16-7.2 16-16V112c0-8.8-7.2-16-16-16H272c-8.8 0-16 7.2-16 16zm384 80v16c0 44.2-35.8 80-80 80H544V272c0-44.2 35.8-80 80-80h16zm0 128c0 44.2-35.8 80-80 80H544V384c0-44.2 35.8-80 80-80h16v16zm0 112c0 44.2-35.8 80-80 80H544V496c0-44.2 35.8-80 80-80h16v16zM512 496v16H496c-44.2 0-80-35.8-80-80V416h16c44.2 0 80 35.8 80 80zm0-96H496c-44.2 0-80-35.8-80-80V304h16c44.2 0 80 35.8 80 80v16zm0-128v16H496c-44.2 0-80-35.8-80-80V192h16c44.2 0 80 35.8 80 80zM528 32c13.3 0 24 10.7 24 24V160c0 13.3-10.7 24-24 24s-24-10.7-24-24V56c0-13.3 10.7-24 24-24zm96 64v32c0 13.3-10.7 24-24 24s-24-10.7-24-24V96c0-13.3 10.7-24 24-24s24 10.7 24 24zM456 72c13.3 0 24 10.7 24 24v32c0 13.3-10.7 24-24 24s-24-10.7-24-24V96c0-13.3 10.7-24 24-24z"/></svg>