<svg xmlns="http://www.w3.org/2000/svg" viewBox="0 0 512 512"><!--! Font Awesome Free 6.3.0 by @fontawesome - https://fontawesome.com License - https://fontawesome.com/license/free (Icons: CC BY 4.0, Fonts: SIL OFL 1.1, Code: MIT License) Copyright 2023 Fonticons, Inc. --><path d="M256 0C390.4 0 480 35.2 480 80V96l0 32c17.7 0 32 14.3 32 32v64c0 17.7-14.3 32-32 32l0 160c0 17.7-14.3 32-32 32v32c0 17.7-14.3 32-32 32H384c-17.7 0-32-14.3-32-32V448H160v32c0 17.7-14.3 32-32 32H96c-17.7 0-32-14.3-32-32l0-32c-17.7 0-32-14.3-32-32l0-160c-17.7 0-32-14.3-32-32V160c0-17.7 14.3-32 32-32h0V96h0V80C32 35.2 121.6 0 256 0zM96 160v96c0 17.7 14.3 32 32 32H240V128H128c-17.7 0-32 14.3-32 32zM272 288H384c17.7 0 32-14.3 32-32V160c0-17.7-14.3-32-32-32H272V288zM112 400a32 32 0 1 0 0-64 32 32 0 1 0 0 64zm288 0a32 32 0 1 0 0-64 32 32 0 1 0 0 64zM352 80c0-8.8-7.2-16-16-16H176c-8.8 0-16 7.2-16 16s7.2 16 16 16H336c8.8 0 16-7.2 16-16z"/></svg>