<svg xmlns="http://www.w3.org/2000/svg" viewBox="0 0 512 512"><!--! Font Awesome Free 6.3.0 by @fontawesome - https://fontawesome.com License - https://fontawesome.com/license/free (Icons: CC BY 4.0, Fonts: SIL OFL 1.1, Code: MIT License) Copyright 2023 Fonticons, Inc. --><path d="M149.1 64.8L138.7 96H64C28.7 96 0 124.7 0 160V416c0 35.3 28.7 64 64 64H448c35.3 0 64-28.7 64-64V160c0-35.3-28.7-64-64-64H373.3L362.9 64.8C356.4 45.2 338.1 32 317.4 32H194.6c-20.7 0-39 13.2-45.5 32.8zM384 256c0 8.8-7.2 16-16 16H291.3c-6.2 0-11.3-5.1-11.3-11.3c0-3 1.2-5.9 3.3-8L307 229c-13.6-13.4-31.9-21-51-21c-19.2 0-37.7 7.6-51.3 21.3L185 249c-9.4 9.4-24.6 9.4-33.9 0s-9.4-24.6 0-33.9l19.7-19.7C193.4 172.7 224 160 256 160c31.8 0 62.4 12.6 85 35l23.7-23.7c2.1-2.1 5-3.3 8-3.3c6.2 0 11.3 5.1 11.3 11.3V256zM128 320c0-8.8 7.2-16 16-16h76.7c6.2 0 11.3 5.1 11.3 11.3c0 3-1.2 5.9-3.3 8L205 347c13.6 13.4 31.9 21 51 21c19.2 0 37.7-7.6 51.3-21.3L327 327c9.4-9.4 24.6-9.4 33.9 0s9.4 24.6 0 33.9l-19.7 19.7C318.6 403.3 288 416 256 416c-31.8 0-62.4-12.6-85-35l-23.7 23.7c-2.1 2.1-5 3.3-8 3.3c-6.2 0-11.3-5.1-11.3-11.3V320z"/></svg>