<svg xmlns="http://www.w3.org/2000/svg" viewBox="0 0 512 512"><!--! Font Awesome Free 6.4.0 by @fontawesome - https://fontawesome.com License - https://fontawesome.com/license/free (Icons: CC BY 4.0, Fonts: SIL OFL 1.1, Code: MIT License) Copyright 2023 Fonticons, Inc. --><path d="M280 24c0-13.3-10.7-24-24-24s-24 10.7-24 24v80c0 13.3 10.7 24 24 24s24-10.7 24-24V24zM185.8 224H326.2c6.8 0 12.8 4.3 15.1 10.6L360.3 288H151.7l19.1-53.4c2.3-6.4 8.3-10.6 15.1-10.6zm-75.3-10.9L82.2 292.4C62.1 300.9 48 320.8 48 344v40 64 32c0 17.7 14.3 32 32 32H96c17.7 0 32-14.3 32-32V448H384v32c0 17.7 14.3 32 32 32h16c17.7 0 32-14.3 32-32V448 384 344c0-23.2-14.1-43.1-34.2-51.6l-28.3-79.3C390.1 181.3 360 160 326.2 160H185.8c-33.8 0-64 21.3-75.3 53.1zM128 344a24 24 0 1 1 0 48 24 24 0 1 1 0-48zm232 24a24 24 0 1 1 48 0 24 24 0 1 1 -48 0zM39 39c-9.4 9.4-9.4 24.6 0 33.9l48 48c9.4 9.4 24.6 9.4 33.9 0s9.4-24.6 0-33.9L73 39c-9.4-9.4-24.6-9.4-33.9 0zm400 0L391 87c-9.4 9.4-9.4 24.6 0 33.9s24.6 9.4 33.9 0l48-48c9.4-9.4 9.4-24.6 0-33.9s-24.6-9.4-33.9 0z"/></svg>