<svg xmlns="http://www.w3.org/2000/svg" viewBox="0 0 512 512"><!--! Font Awesome Free 6.1.0 by @fontawesome - https://fontawesome.com License - https://fontawesome.com/license/free (Icons: CC BY 4.0, Fonts: SIL OFL 1.1, Code: MIT License) Copyright 2022 Fonticons, Inc. --><path d="M190.8 277.5C191.8 274.2 194.9 272 198.4 272H313.6C317.1 272 320.2 274.2 321.2 277.5L334.1 320H177L190.8 277.5zM144 384C144 370.7 154.7 360 168 360C181.3 360 192 370.7 192 384C192 397.3 181.3 408 168 408C154.7 408 144 397.3 144 384zM368 384C368 397.3 357.3 408 344 408C330.7 408 320 397.3 320 384C320 370.7 330.7 360 344 360C357.3 360 368 370.7 368 384zM512 256V448C512 483.3 483.3 512 448 512H384H128H64C28.65 512 0 483.3 0 448V256C0 114.6 114.6 0 256 0C397.4 0 512 114.6 512 256zM384 512C401.7 512 416 497.7 416 480V376C416 355.2 404.7 337.1 387.8 327.4L366.9 262.7C359.4 239.6 337.9 224 313.6 224H198.4C174.1 224 152.6 239.6 145.1 262.7L124.1 327.4C107.3 337.1 96 355.2 96 376V480C96 497.7 110.3 512 128 512C145.7 512 160 497.7 160 480V448H352V480C352 497.7 366.3 512 384 512H384z"/></svg>