<svg xmlns="http://www.w3.org/2000/svg" viewBox="0 0 512 512"><!--! Font Awesome Free 6.5.0 by @fontawesome - https://fontawesome.com License - https://fontawesome.com/license/free (Icons: CC BY 4.0, Fonts: SIL OFL 1.1, Code: MIT License) Copyright 2023 Fonticons, Inc. --><path d="M64 0C46.3 0 32 14.3 32 32V96c0 17.7 14.3 32 32 32h80v32H87c-31.6 0-58.5 23.1-63.3 54.4L1.1 364.1C.4 368.8 0 373.6 0 378.4V448c0 35.3 28.7 64 64 64H448c35.3 0 64-28.7 64-64V378.4c0-4.8-.4-9.6-1.1-14.4L488.2 214.4C483.5 183.1 456.6 160 425 160H208V128h80c17.7 0 32-14.3 32-32V32c0-17.7-14.3-32-32-32H64zM96 48H256c8.8 0 16 7.2 16 16s-7.2 16-16 16H96c-8.8 0-16-7.2-16-16s7.2-16 16-16zM64 432c0-8.8 7.2-16 16-16H432c8.8 0 16 7.2 16 16s-7.2 16-16 16H80c-8.8 0-16-7.2-16-16zm48-168a24 24 0 1 1 0-48 24 24 0 1 1 0 48zm120-24a24 24 0 1 1 -48 0 24 24 0 1 1 48 0zM160 344a24 24 0 1 1 0-48 24 24 0 1 1 0 48zM328 240a24 24 0 1 1 -48 0 24 24 0 1 1 48 0zM256 344a24 24 0 1 1 0-48 24 24 0 1 1 0 48zM424 240a24 24 0 1 1 -48 0 24 24 0 1 1 48 0zM352 344a24 24 0 1 1 0-48 24 24 0 1 1 0 48z"/></svg>