<svg xmlns="http://www.w3.org/2000/svg" viewBox="0 0 320 512"><!--! Font Awesome Free 6.2.1 by @fontawesome - https://fontawesome.com License - https://fontawesome.com/license/free (Icons: CC BY 4.0, Fonts: SIL OFL 1.1, Code: MIT License) Copyright 2022 Fonticons, Inc. --><path d="M128 0C110.3 0 96 14.3 96 32c0 16.1 11.9 29.4 27.4 31.7C78.4 106.8 8 190 8 288c0 47.4 30.8 72.3 56 84.7V416H256V372.7c25.2-12.5 56-37.4 56-84.7c0-37.3-10.2-72.4-25.3-104.1l-99.4 99.4c-6.2 6.2-16.4 6.2-22.6 0s-6.2-16.4 0-22.6L270.8 154.6c-23.2-38.1-51.8-69.5-74.2-90.9C212.1 61.4 224 48.1 224 32c0-17.7-14.3-32-32-32H128zM32 448c-17.7 0-32 14.3-32 32s14.3 32 32 32H288c17.7 0 32-14.3 32-32s-14.3-32-32-32H32z"/></svg>