<svg xmlns="http://www.w3.org/2000/svg" viewBox="0 0 384 512"><!--! Font Awesome Free 6.2.1 by @fontawesome - https://fontawesome.com License - https://fontawesome.com/license/free (Icons: CC BY 4.0, Fonts: SIL OFL 1.1, Code: MIT License) Copyright 2022 Fonticons, Inc. --><path d="M32 391.6V416H352V224c0-106-86-192-192-192H12.9C5.8 32 0 37.8 0 44.9c0 2 .5 4 1.4 5.8L16 80 9.4 86.6c-6 6-9.4 14.1-9.4 22.6V242.3c0 13.1 8 24.9 20.1 29.7l46.5 18.6c8.5 3.4 18 3 26.2-1.1l6.6-3.3c8-4 14-11.2 16.5-19.8l8.3-28.9c2.5-8.6 8.4-15.8 16.5-19.8L160 208v40.4c0 24.2-13.7 46.4-35.4 57.2L67.4 334.3C45.7 345.2 32 367.3 32 391.6zM72 148c0 11-9 20-20 20s-20-9-20-20s9-20 20-20s20 9 20 20zM352 448H32c-17.7 0-32 14.3-32 32s14.3 32 32 32H352c17.7 0 32-14.3 32-32s-14.3-32-32-32z"/></svg>