<svg xmlns="http://www.w3.org/2000/svg" viewBox="0 0 512 512"><!--! Font Awesome Free 6.1.1 by @fontawesome - https://fontawesome.com License - https://fontawesome.com/license/free (Icons: CC BY 4.0, Fonts: SIL OFL 1.1, Code: MIT License) Copyright 2022 Fonticons, Inc. --><path d="M74.01 208h-10c-8.875 0-16 7.125-16 16v16c0 8.875 7.122 16 15.1 16h16c-.25 43.13-5.5 86.13-16 128h128c-10.5-41.88-15.75-84.88-16-128h15.1c8.875 0 16-7.125 16-16L208 224c0-8.875-7.122-16-15.1-16h-10l33.88-90.38C216.6 115.8 216.9 113.1 216.9 112.1C216.9 103.1 209.5 96 200.9 96H144V64h16c8.844 0 16-7.156 16-16S168.9 32 160 32h-16l.0033-16c0-8.844-7.16-16-16-16s-16 7.156-16 16V32H96.01c-8.844 0-16 7.156-16 16S87.16 64 96.01 64h16v32H55.13C46.63 96 39.07 102.8 39.07 111.9c0 1.93 .3516 3.865 1.061 5.711L74.01 208zM339.9 301.8L336.6 384h126.8l-3.25-82.25l24.5-20.75C491.9 274.9 496 266 496 256.5V198C496 194.6 493.4 192 489.1 192h-26.37c-3.375 0-6 2.625-6 6V224h-24.75V198C432.9 194.6 430.3 192 426.9 192h-53.75c-3.375 0-6 2.625-6 6V224h-24.75V198C342.4 194.6 339.8 192 336.4 192h-26.38C306.6 192 304 194.6 304 198v58.62c0 9.375 4.125 18.25 11.38 24.38L339.9 301.8zM384 304C384 295.1 391.1 288 400 288S416 295.1 416 304v32h-32V304zM247.1 459.6L224 448v-16C224 423.1 216.9 416 208 416h-160C39.13 416 32 423.1 32 432V448l-23.12 11.62C3.375 462.3 0 467.9 0 473.9V496C0 504.9 7.125 512 16 512h224c8.875 0 16-7.125 16-16v-22.12C256 467.9 252.6 462.3 247.1 459.6zM503.1 459.6L480 448v-16c0-8.875-7.125-16-16-16h-128c-8.875 0-16 7.125-16 16V448l-23.12 11.62C291.4 462.3 288 467.9 288 473.9V496c0 8.875 7.125 16 16 16h192c8.875 0 16-7.125 16-16v-22.12C512 467.9 508.6 462.3 503.1 459.6z"/></svg>