<svg xmlns="http://www.w3.org/2000/svg" viewBox="0 0 512 512"><!--! Font Awesome Free 6.1.0 by @fontawesome - https://fontawesome.com License - https://fontawesome.com/license/free (Icons: CC BY 4.0, Fonts: SIL OFL 1.1, Code: MIT License) Copyright 2022 Fonticons, Inc. --><path d="M256 0C114.6 0 0 114.6 0 256s114.6 256 256 256c141.4 0 256-114.6 256-256S397.4 0 256 0zM382.8 246.1C380.3 252.1 374.5 256 368 256h-64v96c0 17.67-14.33 32-32 32h-32c-17.67 0-32-14.33-32-32V256h-64C137.5 256 131.7 252.1 129.2 246.1C126.7 240.1 128.1 233.3 132.7 228.7l112-112c6.248-6.248 16.38-6.248 22.62 0l112 112C383.9 233.3 385.3 240.1 382.8 246.1z"/></svg>