<svg xmlns="http://www.w3.org/2000/svg" viewBox="0 0 512 512"><!--! Font Awesome Free 6.2.0 by @fontawesome - https://fontawesome.com License - https://fontawesome.com/license/free (Icons: CC BY 4.0, Fonts: SIL OFL 1.1, Code: MIT License) Copyright 2022 Fonticons, Inc. --><path d="M512 256C512 114.6 397.4 0 256 0S0 114.6 0 256S114.6 512 256 512s256-114.6 256-256zM116.7 244.7l112-112c4.6-4.6 11.5-5.9 17.4-3.5s9.9 8.3 9.9 14.8l0 64 96 0c17.7 0 32 14.3 32 32l0 32c0 17.7-14.3 32-32 32l-96 0 0 64c0 6.5-3.9 12.3-9.9 14.8s-12.9 1.1-17.4-3.5l-112-112c-6.2-6.2-6.2-16.4 0-22.6z"/></svg>