<svg xmlns="http://www.w3.org/2000/svg" viewBox="0 0 384 512"><!--! Font Awesome Free 6.2.0 by @fontawesome - https://fontawesome.com License - https://fontawesome.com/license/free (Icons: CC BY 4.0, Fonts: SIL OFL 1.1, Code: MIT License) Copyright 2022 Fonticons, Inc. --><path d="M192 0c-41.8 0-77.4 26.7-90.5 64H48C21.5 64 0 85.5 0 112V464c0 26.5 21.5 48 48 48H336c26.5 0 48-21.5 48-48V112c0-26.5-21.5-48-48-48H282.5C269.4 26.7 233.8 0 192 0zm0 128c-17.7 0-32-14.3-32-32s14.3-32 32-32s32 14.3 32 32s-14.3 32-32 32zm-80 64H272c8.8 0 16 7.2 16 16s-7.2 16-16 16H112c-8.8 0-16-7.2-16-16s7.2-16 16-16z"/></svg>