<svg xmlns="http://www.w3.org/2000/svg" viewBox="0 0 576 512"><!--! Font Awesome Free 6.1.0 by @fontawesome - https://fontawesome.com License - https://fontawesome.com/license/free (Icons: CC BY 4.0, Fonts: SIL OFL 1.1, Code: MIT License) Copyright 2022 Fonticons, Inc. --><path d="M512 32H64C28.65 32 0 60.65 0 96v320c0 35.35 28.65 64 64 64h448c35.35 0 64-28.65 64-64V96C576 60.65 547.3 32 512 32zM168.6 289.9c18.69 18.72 49.19 18.72 67.87 0c9.375-9.375 24.56-9.375 33.94 0s9.375 24.56 0 33.94c-18.72 18.72-43.28 28.08-67.87 28.08s-49.16-9.359-67.87-28.08C116.5 305.8 106.5 281.6 106.5 256s9.1-49.75 28.12-67.88c37.44-37.44 98.31-37.44 135.7 0c9.375 9.375 9.375 24.56 0 33.94s-24.56 9.375-33.94 0c-18.69-18.72-49.19-18.72-67.87 0C159.5 231.1 154.5 243.2 154.5 256S159.5 280.9 168.6 289.9zM360.6 289.9c18.69 18.72 49.19 18.72 67.87 0c9.375-9.375 24.56-9.375 33.94 0s9.375 24.56 0 33.94c-18.72 18.72-43.28 28.08-67.87 28.08s-49.16-9.359-67.87-28.08C308.5 305.8 298.5 281.6 298.5 256s9.1-49.75 28.12-67.88c37.44-37.44 98.31-37.44 135.7 0c9.375 9.375 9.375 24.56 0 33.94s-24.56 9.375-33.94 0c-18.69-18.72-49.19-18.72-67.87 0C351.5 231.1 346.5 243.2 346.5 256S351.5 280.9 360.6 289.9z"/></svg>