<svg xmlns="http://www.w3.org/2000/svg" viewBox="0 0 640 512"><!--! Font Awesome Free 6.0.0 by @fontawesome - https://fontawesome.com License - https://fontawesome.com/license/free (Icons: CC BY 4.0, Fonts: SIL OFL 1.1, Code: MIT License) Copyright 2022 Fonticons, Inc. --><path d="M96 208c0-61.86 50.14-111.1 111.1-111.1c52.65 0 96.5 36.45 108.5 85.42C334.7 173.1 354.7 168 375.1 168c4.607 0 9.152 .3809 13.68 .8203l24.13-34.76c5.145-7.414 .8965-17.67-7.984-19.27L317.2 98.78L301.2 10.21C299.6 1.325 289.4-2.919 281.9 2.226L208 53.54L134.1 2.225C126.6-2.92 116.4 1.326 114.8 10.21L98.78 98.78L10.21 114.8C1.326 116.4-2.922 126.7 2.223 134.1l51.3 73.94L2.224 281.9c-5.145 7.414-.8975 17.67 7.983 19.27L98.78 317.2l16.01 88.58c1.604 8.881 11.86 13.13 19.27 7.982l10.71-7.432c2.725-35.15 19.85-66.51 45.83-88.1C137.1 309.8 96 263.9 96 208zM128 208c0 44.18 35.82 80 80 80c9.729 0 18.93-1.996 27.56-5.176c7.002-33.65 25.53-62.85 51.57-83.44C282.8 159.3 249.2 128 208 128C163.8 128 128 163.8 128 208zM575.2 325.6c.125-2 .7453-3.744 .7453-5.619c0-35.38-28.75-64-63.1-64c-12.62 0-24.25 3.749-34.13 9.999c-17.62-38.88-56.5-65.1-101.9-65.1c-61.75 0-112 50.12-112 111.1c0 3 .7522 5.743 .8772 8.618c-49.63 3.75-88.88 44.74-88.88 95.37C175.1 469 218.1 512 271.1 512h272c53 0 96-42.99 96-95.99C639.1 373.9 612.7 338.6 575.2 325.6z"/></svg>