<svg xmlns="http://www.w3.org/2000/svg" viewBox="0 0 512 512"><!--! Font Awesome Free 6.1.2 by @fontawesome - https://fontawesome.com License - https://fontawesome.com/license/free (Icons: CC BY 4.0, Fonts: SIL OFL 1.1, Code: MIT License) Copyright 2022 Fonticons, Inc. --><path d="M416 128c-.625 0-1.125 .25-1.625 .25C415.5 123 416 117.6 416 112c0-44.25-35.75-80-79.1-80c-24.62 0-46.25 11.25-60.1 28.75C256.4 24.75 219.3 0 176 0C114.3 0 64 50.13 64 112c0 7.25 .7512 14.25 2.126 21.25C27.76 145.8 .0054 181.5 .0054 224c0 53 42.1 96 95.1 96h319.1C469 320 512 277 512 224S469 128 416 128zM198.8 353.9c-12.17-5.219-26.3 .4062-31.52 12.59l-47.1 112c-5.219 12.19 .4219 26.31 12.61 31.53C134.1 511.4 138.2 512 141.3 512c9.312 0 18.17-5.438 22.08-14.53l47.1-112C216.6 373.3 210.1 359.2 198.8 353.9zM81.46 353.9c-12.19-5.219-26.3 .4062-31.52 12.59l-47.1 112C-3.276 490.7 2.365 504.8 14.55 510.1C17.63 511.4 20.83 512 23.99 512c9.312 0 18.17-5.438 22.08-14.53l47.1-112C99.29 373.3 93.64 359.2 81.46 353.9zM316.1 353.9c-12.19-5.219-26.3 .4062-31.52 12.59l-47.1 112c-5.219 12.19 .4219 26.31 12.61 31.53C252.3 511.4 255.5 512 258.7 512c9.312 0 18.17-5.438 22.08-14.53l47.1-112C333.1 373.3 328.3 359.2 316.1 353.9zM433.5 353.9c-12.17-5.219-26.28 .4062-31.52 12.59l-47.1 112c-5.219 12.19 .4219 26.31 12.61 31.53C369.6 511.4 372.8 512 375.1 512c9.312 0 18.17-5.438 22.08-14.53l47.1-112C451.3 373.3 445.6 359.2 433.5 353.9z"/></svg>