<svg xmlns="http://www.w3.org/2000/svg" viewBox="0 0 640 512"><!--! Font Awesome Free 6.2.0 by @fontawesome - https://fontawesome.com License - https://fontawesome.com/license/free (Icons: CC BY 4.0, Fonts: SIL OFL 1.1, Code: MIT License) Copyright 2022 Fonticons, Inc. --><path d="M320 336c44.2 0 80-35.8 80-80s-35.8-80-80-80s-80 35.8-80 80s35.8 80 80 80zm156.8-48C462 361 397.4 416 320 416s-142-55-156.8-128H32c-17.7 0-32-14.3-32-32s14.3-32 32-32H163.2C178 151 242.6 96 320 96s142 55 156.8 128H608c17.7 0 32 14.3 32 32s-14.3 32-32 32H476.8z"/></svg>