<svg xmlns="http://www.w3.org/2000/svg" viewBox="0 0 640 512"><!--! Font Awesome Free 6.5.0 by @fontawesome - https://fontawesome.com License - https://fontawesome.com/license/free (Icons: CC BY 4.0, Fonts: SIL OFL 1.1, Code: MIT License) Copyright 2023 Fonticons, Inc. --><path d="M416 176c0 97.2-93.1 176-208 176c-38.2 0-73.9-8.7-104.7-23.9c-7.5 4-16 7.9-25.2 11.4C59.8 346.4 37.8 352 16 352c-6.9 0-13.1-4.5-15.2-11.1s.2-13.8 5.8-17.9l0 0 0 0 .2-.2c.2-.2 .6-.4 1.1-.8c1-.8 2.5-2 4.3-3.7c3.6-3.3 8.5-8.1 13.3-14.3c5.5-7 10.7-15.4 14.2-24.7C14.7 250.3 0 214.6 0 176C0 78.8 93.1 0 208 0S416 78.8 416 176zM231.5 383C348.9 372.9 448 288.3 448 176c0-5.2-.2-10.4-.6-15.5C555.1 167.1 640 243.2 640 336c0 38.6-14.7 74.3-39.6 103.4c3.5 9.4 8.7 17.7 14.2 24.7c4.8 6.2 9.7 11 13.3 14.3c1.8 1.6 3.3 2.9 4.3 3.7c.5 .4 .9 .7 1.1 .8l.2 .2 0 0 0 0c5.6 4.1 7.9 11.3 5.8 17.9c-2.1 6.6-8.3 11.1-15.2 11.1c-21.8 0-43.8-5.6-62.1-12.5c-9.2-3.5-17.8-7.4-25.2-11.4C505.9 503.3 470.2 512 432 512c-95.6 0-176.2-54.6-200.5-129zM228 72c0-11-9-20-20-20s-20 9-20 20V86c-7.6 1.7-15.2 4.4-22.2 8.5c-13.9 8.3-25.9 22.8-25.8 43.9c.1 20.3 12 33.1 24.7 40.7c11 6.6 24.7 10.8 35.6 14l1.7 .5c12.6 3.8 21.8 6.8 28 10.7c5.1 3.2 5.8 5.4 5.9 8.2c.1 5-1.8 8-5.9 10.5c-5 3.1-12.9 5-21.4 4.7c-11.1-.4-21.5-3.9-35.1-8.5c-2.3-.8-4.7-1.6-7.2-2.4c-10.5-3.5-21.8 2.2-25.3 12.6s2.2 21.8 12.6 25.3c1.9 .6 4 1.3 6.1 2.1l0 0 0 0c8.3 2.9 17.9 6.2 28.2 8.4V280c0 11 9 20 20 20s20-9 20-20V266.2c8-1.7 16-4.5 23.2-9c14.3-8.9 25.1-24.1 24.8-45c-.3-20.3-11.7-33.4-24.6-41.6c-11.5-7.2-25.9-11.6-37.1-15l-.7-.2c-12.8-3.9-21.9-6.7-28.3-10.5c-5.2-3.1-5.3-4.9-5.3-6.7c0-3.7 1.4-6.5 6.2-9.3c5.4-3.2 13.6-5.1 21.5-5c9.6 .1 20.2 2.2 31.2 5.2c10.7 2.8 21.6-3.5 24.5-14.2s-3.5-21.6-14.2-24.5c-6.5-1.7-13.7-3.4-21.1-4.7V72z"/></svg>