<svg xmlns="http://www.w3.org/2000/svg" viewBox="0 0 512 512"><!--! Font Awesome Free 6.0.0 by @fontawesome - https://fontawesome.com License - https://fontawesome.com/license/free (Icons: CC BY 4.0, Fonts: SIL OFL 1.1, Code: MIT License) Copyright 2022 Fonticons, Inc. --><path d="M256 31.1c-141.4 0-255.1 93.09-255.1 208c0 49.59 21.38 94.1 56.97 130.7c-12.5 50.39-54.31 95.3-54.81 95.8C0 468.8-.5938 472.2 .6875 475.2c1.312 3 4.125 4.797 7.312 4.797c66.31 0 116-31.8 140.6-51.41c32.72 12.31 69.01 19.41 107.4 19.41C397.4 447.1 512 354.9 512 239.1S397.4 31.1 256 31.1zM368 266c0 8.836-7.164 16-16 16h-54V336c0 8.836-7.164 16-16 16h-52c-8.836 0-16-7.164-16-16V282H160c-8.836 0-16-7.164-16-16V214c0-8.838 7.164-16 16-16h53.1V144c0-8.838 7.164-16 16-16h52c8.836 0 16 7.162 16 16v54H352c8.836 0 16 7.162 16 16V266z"/></svg>