<svg xmlns="http://www.w3.org/2000/svg" viewBox="0 0 512 512"><!--! Font Awesome Free 6.2.1 by @fontawesome - https://fontawesome.com License - https://fontawesome.com/license/free (Icons: CC BY 4.0, Fonts: SIL OFL 1.1, Code: MIT License) Copyright 2022 Fonticons, Inc. --><path d="M512 256c0 141.4-114.6 256-256 256S0 397.4 0 256S114.6 0 256 0S512 114.6 512 256zM256 224c17.7 0 32 14.3 32 32s-14.3 32-32 32s-32-14.3-32-32s14.3-32 32-32zm-96 32c0 53 43 96 96 96s96-43 96-96s-43-96-96-96s-96 43-96 96zM96 240c0-35 17.5-71.1 45.2-98.8S205 96 240 96c8.8 0 16-7.2 16-16s-7.2-16-16-16c-45.4 0-89.2 22.3-121.5 54.5S64 194.6 64 240c0 8.8 7.2 16 16 16s16-7.2 16-16z"/></svg>