<svg xmlns="http://www.w3.org/2000/svg" viewBox="0 0 512 512"><!--! Font Awesome Free 6.2.0 by @fontawesome - https://fontawesome.com License - https://fontawesome.com/license/free (Icons: CC BY 4.0, Fonts: SIL OFL 1.1, Code: MIT License) Copyright 2022 Fonticons, Inc. --><path d="M256 512c141.4 0 256-114.6 256-256S397.4 0 256 0S0 114.6 0 256S114.6 512 256 512zM199.4 312.6c31.2 31.2 81.9 31.2 113.1 0c9.4-9.4 24.6-9.4 33.9 0s9.4 24.6 0 33.9c-50 50-131 50-181 0s-50-131 0-181s131-50 181 0c9.4 9.4 9.4 24.6 0 33.9s-24.6 9.4-33.9 0c-31.2-31.2-81.9-31.2-113.1 0s-31.2 81.9 0 113.1z"/></svg>