<svg xmlns="http://www.w3.org/2000/svg" viewBox="0 0 512 512"><!--! Font Awesome Free 6.1.1 by @fontawesome - https://fontawesome.com License - https://fontawesome.com/license/free (Icons: CC BY 4.0, Fonts: SIL OFL 1.1, Code: MIT License) Copyright 2022 Fonticons, Inc. --><path d="M384 96L384 0h-112c-26.51 0-48 21.49-48 48v288c0 26.51 21.49 48 48 48H464c26.51 0 48-21.49 48-48V128h-95.1C398.4 128 384 113.6 384 96zM416 0v96h96L416 0zM192 352V128h-144c-26.51 0-48 21.49-48 48v288c0 26.51 21.49 48 48 48h192c26.51 0 48-21.49 48-48L288 416h-32C220.7 416 192 387.3 192 352z"/></svg>