<svg xmlns="http://www.w3.org/2000/svg" viewBox="0 0 512 512"><!--! Font Awesome Free 6.2.1 by @fontawesome - https://fontawesome.com License - https://fontawesome.com/license/free (Icons: CC BY 4.0, Fonts: SIL OFL 1.1, Code: MIT License) Copyright 2022 Fonticons, Inc. --><path d="M128 32c0-17.7-14.3-32-32-32S64 14.3 64 32V64H32C14.3 64 0 78.3 0 96s14.3 32 32 32H64V384c0 35.3 28.7 64 64 64H352V384H128V32zM384 480c0 17.7 14.3 32 32 32s32-14.3 32-32V448h32c17.7 0 32-14.3 32-32s-14.3-32-32-32H448l0-256c0-35.3-28.7-64-64-64L160 64v64l224 0 0 352z"/></svg>