<svg xmlns="http://www.w3.org/2000/svg" viewBox="0 0 512 512"><!--! Font Awesome Free 6.1.2 by @fontawesome - https://fontawesome.com License - https://fontawesome.com/license/free (Icons: CC BY 4.0, Fonts: SIL OFL 1.1, Code: MIT License) Copyright 2022 Fonticons, Inc. --><path d="M448 384H480C497.7 384 512 398.3 512 416C512 433.7 497.7 448 480 448H448V480C448 497.7 433.7 512 416 512C398.3 512 384 497.7 384 480V173.3L173.3 384H352V448H128C92.65 448 64 419.3 64 384V128H32C14.33 128 0 113.7 0 96C0 78.33 14.33 64 32 64H64V32C64 14.33 78.33 0 96 0C113.7 0 128 14.33 128 32V338.7L338.7 128H160V64H402.7L457.4 9.372C469.9-3.124 490.1-3.124 502.6 9.372C515.1 21.87 515.1 42.13 502.6 54.63L448 109.3V384z"/></svg>