<svg xmlns="http://www.w3.org/2000/svg" viewBox="0 0 384 512"><!--! Font Awesome Free 6.5.0 by @fontawesome - https://fontawesome.com License - https://fontawesome.com/license/free (Icons: CC BY 4.0, Fonts: SIL OFL 1.1, Code: MIT License) Copyright 2023 Fonticons, Inc. --><path d="M176 0c-26.5 0-48 21.5-48 48v80H48c-26.5 0-48 21.5-48 48v32c0 26.5 21.5 48 48 48h80V464c0 26.5 21.5 48 48 48h32c26.5 0 48-21.5 48-48V256h80c26.5 0 48-21.5 48-48V176c0-26.5-21.5-48-48-48H256V48c0-26.5-21.5-48-48-48H176z"/></svg>