<svg xmlns="http://www.w3.org/2000/svg" viewBox="0 0 512 512"><!--! Font Awesome Free 6.0.0 by @fontawesome - https://fontawesome.com License - https://fontawesome.com/license/free (Icons: CC BY 4.0, Fonts: SIL OFL 1.1, Code: MIT License) Copyright 2022 Fonticons, Inc. --><path d="M495 225l-17.24 1.124c-5.25-39.5-20.76-75.63-43.89-105.9l12.1-11.37c6.875-6.125 7.25-16.75 .75-23.38L426.5 64.38c-6.625-6.5-17.25-6.125-23.38 .75l-11.37 12.1c-30.25-23.12-66.38-38.64-105.9-43.89L287 17C287.5 7.75 280.2 0 271 0h-30c-9.25 0-16.5 7.75-16 17l1.124 17.24c-39.5 5.25-75.63 20.76-105.9 43.89L108.9 65.13C102.8 58.25 92.13 57.88 85.63 64.38L64.38 85.5C57.88 92.12 58.25 102.8 65.13 108.9l12.1 11.37C54.1 150.5 39.49 186.6 34.24 226.1L17 225C7.75 224.5 0 231.8 0 241v30c0 9.25 7.75 16.5 17 16l17.24-1.124c5.25 39.5 20.76 75.63 43.89 105.9l-12.1 11.37c-6.875 6.125-7.25 16.75-.75 23.25l21.25 21.25c6.5 6.5 17.13 6.125 23.25-.75l11.37-12.1c30.25 23.12 66.38 38.64 105.9 43.89L225 495C224.5 504.2 231.8 512 241 512h30c9.25 0 16.5-7.75 16-17l-1.124-17.24c39.5-5.25 75.63-20.76 105.9-43.89l11.37 12.1c6.125 6.875 16.75 7.25 23.38 .75l21.12-21.25c6.5-6.5 6.125-17.13-.75-23.25l-12.1-11.37c23.12-30.25 38.64-66.38 43.89-105.9L495 287C504.3 287.5 512 280.2 512 271v-30C512 231.8 504.3 224.5 495 225zM281.9 98.68c24.75 4 47.61 13.59 67.24 27.71L306.5 174.6c-8.75-5.375-18.38-9.507-28.62-11.88L281.9 98.68zM230.1 98.68l3.996 64.06C223.9 165.1 214.3 169.2 205.5 174.6L162.9 126.4C182.5 112.3 205.4 102.7 230.1 98.68zM126.4 163l48.35 42.48c-5.5 8.75-9.606 18.4-11.98 28.65L98.68 230.1C102.7 205.4 112.2 182.5 126.4 163zM98.68 281.9l64.06-3.996C165.1 288.1 169.3 297.8 174.6 306.5l-48.23 42.61C112.3 329.5 102.7 306.6 98.68 281.9zM230.1 413.3c-24.75-4-47.61-13.59-67.24-27.71l42.58-48.33c8.75 5.5 18.4 9.606 28.65 11.98L230.1 413.3zM256 288C238.4 288 224 273.6 224 256s14.38-32 32-32s32 14.38 32 32S273.6 288 256 288zM281.9 413.3l-3.996-64.06c10.25-2.375 19.9-6.48 28.65-11.98l42.48 48.35C329.5 399.8 306.6 409.3 281.9 413.3zM385.6 349l-48.25-42.5c5.375-8.75 9.507-18.38 11.88-28.62l64.06 3.996C409.3 306.6 399.8 329.5 385.6 349zM349.3 234.1c-2.375-10.25-6.48-19.9-11.98-28.65L385.6 163c14.13 19.5 23.69 42.38 27.69 67.13L349.3 234.1z"/></svg>