<svg xmlns="http://www.w3.org/2000/svg" viewBox="0 0 512 512"><!--! Font Awesome Free 6.3.0 by @fontawesome - https://fontawesome.com License - https://fontawesome.com/license/free (Icons: CC BY 4.0, Fonts: SIL OFL 1.1, Code: MIT License) Copyright 2023 Fonticons, Inc. --><path d="M64.7 125.8l53.2 31.9c7.8 4.7 17.8 2 22.2-5.9L217.6 12.1c3-5.4-.9-12.1-7.1-12.1c-1.6 0-3.2 .5-4.6 1.4L63.9 98.8c-9.6 6.6-9.2 20.9 .8 26.9zM32 171.7V295.3c0 8 10.4 11 14.7 4.4l60-92c5-7.6 2.6-17.8-5.2-22.5L56.2 158C45.6 151.6 32 159.3 32 171.7zM326.4 12.1l77.6 139.6c4.4 7.9 14.5 10.6 22.2 5.9l53.2-31.9c10-6 10.4-20.3 .8-26.9L338.1 1.4c-1.4-.9-3-1.4-4.6-1.4c-6.2 0-10.1 6.7-7.1 12.1zM512 171.7c0-12.4-13.6-20.1-24.2-13.7l-45.3 27.2c-7.8 4.7-10.1 14.9-5.2 22.5l60 92c4.3 6.7 14.7 3.6 14.7-4.4V171.7zm-49.3 246L302.1 436.6c-8.1 .9-14.1 7.8-14.1 15.9v52.8c0 3.7 3 6.8 6.8 6.8c.8 0 1.6-.1 2.4-.4l172.7-64c6.1-2.2 10.1-8 10.1-14.5c0-9.3-8.1-16.5-17.3-15.4zM249.2 512c3.7 0 6.8-3 6.8-6.8V452.6c0-8.1-6.1-14.9-14.1-15.9l-160.6-19c-9.2-1.1-17.3 6.1-17.3 15.4c0 6.5 4 12.3 10.1 14.5l172.7 64c.8 .3 1.6 .4 2.4 .4zM57.7 382.9l170.9 20.2c7.8 .9 13.4-7.5 9.5-14.3l-85.7-150c-5.9-10.4-20.7-10.8-27.3-.8L46.2 358.2c-6.5 9.9-.3 23.3 11.5 24.7zm439.6-24.8L418.9 238.1c-6.5-10-21.4-9.6-27.3 .8L306.2 388.5c-3.9 6.8 1.6 15.2 9.5 14.3l170.1-20c11.8-1.4 18-14.7 11.5-24.6zm-216.9 11l78.4-137.2c6.1-10.7-1.6-23.9-13.9-23.9H199.1c-12.3 0-20 13.3-13.9 23.9l78.4 137.2c3.7 6.4 13 6.4 16.7 0zM190.4 176H353.6c12.2 0 19.9-13.1 14-23.8l-80-144c-2.8-5.1-8.2-8.2-14-8.2h-3.2c-5.8 0-11.2 3.2-14 8.2l-80 144c-5.9 10.7 1.8 23.8 14 23.8z"/></svg>