<svg xmlns="http://www.w3.org/2000/svg" viewBox="0 0 448 512"><!--! Font Awesome Free 6.0.0 by @fontawesome - https://fontawesome.com License - https://fontawesome.com/license/free (Icons: CC BY 4.0, Fonts: SIL OFL 1.1, Code: MIT License) Copyright 2022 Fonticons, Inc. --><path d="M400 224h-352c-17.69 0-32 14.31-32 31.1s14.31 32 32 32h352c17.69 0 32-14.31 32-32S417.7 224 400 224zM224 144c26.47 0 48-21.53 48-48s-21.53-48-48-48s-48 21.53-48 48S197.5 144 224 144zM224 368c-26.47 0-48 21.53-48 48s21.53 48 48 48s48-21.53 48-48S250.5 368 224 368z"/></svg>