<svg xmlns="http://www.w3.org/2000/svg" viewBox="0 0 512 512"><!--! Font Awesome Free 6.0.0 by @fontawesome - https://fontawesome.com License - https://fontawesome.com/license/free (Icons: CC BY 4.0, Fonts: SIL OFL 1.1, Code: MIT License) Copyright 2022 Fonticons, Inc. --><path d="M215.1 272h-136c-12.94 0-24.63 7.797-29.56 19.75C45.47 303.7 48.22 317.5 57.37 326.6l30.06 30.06l-78.06 78.07c-12.5 12.5-12.5 32.75-.0012 45.25l22.62 22.62c12.5 12.5 32.76 12.5 45.26 .0013l78.06-78.07l30.06 30.06c6.125 6.125 14.31 9.367 22.63 9.367c4.125 0 8.279-.7891 12.25-2.43c11.97-4.953 19.75-16.62 19.75-29.56V296C239.1 282.7 229.3 272 215.1 272zM296 240h136c12.94 0 24.63-7.797 29.56-19.75c4.969-11.97 2.219-25.72-6.938-34.87l-30.06-30.06l78.06-78.07c12.5-12.5 12.5-32.76 .0002-45.26l-22.62-22.62c-12.5-12.5-32.76-12.5-45.26-.0003l-78.06 78.07l-30.06-30.06c-9.156-9.141-22.87-11.84-34.87-6.937c-11.97 4.953-19.75 16.62-19.75 29.56v135.1C272 229.3 282.7 240 296 240z"/></svg>