<svg xmlns="http://www.w3.org/2000/svg" viewBox="0 0 384 512"><!--! Font Awesome Free 6.2.0 by @fontawesome - https://fontawesome.com License - https://fontawesome.com/license/free (Icons: CC BY 4.0, Fonts: SIL OFL 1.1, Code: MIT License) Copyright 2022 Fonticons, Inc. --><path d="M192 496c97.2 0 176-78.8 176-176c0-74.1-102.3-230.6-150.9-300.7c-12.3-17.7-37.8-17.7-50.1 0C118.3 89.4 16 245.9 16 320c0 97.2 78.8 176 176 176zM112 320c0 44.2 35.8 80 80 80c8.8 0 16 7.2 16 16s-7.2 16-16 16c-61.9 0-112-50.1-112-112c0-8.8 7.2-16 16-16s16 7.2 16 16z"/></svg>