<svg xmlns="http://www.w3.org/2000/svg" viewBox="0 0 640 512"><!--! Font Awesome Free 6.1.0 by @fontawesome - https://fontawesome.com License - https://fontawesome.com/license/free (Icons: CC BY 4.0, Fonts: SIL OFL 1.1, Code: MIT License) Copyright 2022 Fonticons, Inc. --><path d="M418.8 104.2L404.6 32H304.1L304 159.1h60.77C381.1 140.7 399.1 121.8 418.8 104.2zM272.1 32.12H171.5L145.9 160.1h126.1L272.1 32.12zM461.3 104.2c18.25 16.25 35.51 33.62 51.14 51.49c5.751-5.623 11.38-11.12 17.38-16.37l21.26-18.98l21.25 18.98c1.125 .9997 2.125 2.124 3.126 3.124c-.125-.7498 .2501-1.5 0-2.249l-24-95.97c-1.625-7.123-8.127-12.12-15.38-12.12H437.2l12.25 61.5L461.3 104.2zM16 160.1l97.26-.0223l25.64-127.9h-98.89c-7.251 0-13.75 4.999-15.5 12.12L.5001 140.2C-2.001 150.3 5.626 160.1 16 160.1zM340.6 192.1L32.01 192.1l4.001 31.99L16 224.1C7.252 224.1 0 231.3 0 240.1V272c0 8.748 7.251 15.1 16 15.1l28.01 .0177l20 159.1L64.01 464C64.01 472.8 71.26 480 80.01 480h32.01c8.752 0 16-7.248 16-15.1v-15.1l208.8-.002c-30.13-33.74-48.73-77.85-48.73-126.3C288.1 285.8 307.9 238.8 340.6 192.1zM551.2 163.3c-14.88 13.25-28.38 27.12-40.26 41.12c-19.5-25.74-43.63-51.99-71.01-76.36c-70.14 62.73-120 144.2-120 193.6C319.1 409.1 391.6 480 479.1 480s160-70.87 160-158.3C640.1 285 602.1 209.4 551.2 163.3zM532.6 392.6c-14.75 10.62-32.88 16.1-52.51 16.1c-49.01 0-88.89-33.49-88.89-87.98c0-27.12 16.5-50.99 49.38-91.85c4.751 5.498 67.14 87.98 67.14 87.98l39.76-46.99c2.876 4.874 5.375 9.497 7.75 13.1C573.9 321.5 565.1 368.4 532.6 392.6z"/></svg>