<svg xmlns="http://www.w3.org/2000/svg" viewBox="0 0 576 512"><!--! Font Awesome Free 6.2.1 by @fontawesome - https://fontawesome.com License - https://fontawesome.com/license/free (Icons: CC BY 4.0, Fonts: SIL OFL 1.1, Code: MIT License) Copyright 2022 Fonticons, Inc. --><path d="M49.7 32c-10.5 0-19.8 6.9-22.9 16.9L.9 133c-.6 2-.9 4.1-.9 6.1C0 150.7 9.3 160 20.9 160h94L140.5 32H49.7zM272 160V32H173.1L147.5 160H272zm32 0H428.5L402.9 32H304V160zm157.1 0h94c11.5 0 20.9-9.3 20.9-20.9c0-2.1-.3-4.1-.9-6.1L549.2 48.9C546.1 38.9 536.8 32 526.3 32H435.5l25.6 128zM32 192l4 32H32c-17.7 0-32 14.3-32 32s14.3 32 32 32H44L64 448c0 17.7 14.3 32 32 32s32-14.3 32-32H448c0 17.7 14.3 32 32 32s32-14.3 32-32l20-160h12c17.7 0 32-14.3 32-32s-14.3-32-32-32h-4l4-32H32z"/></svg>