<svg xmlns="http://www.w3.org/2000/svg" viewBox="0 0 512 512"><!--! Font Awesome Free 6.1.1 by @fontawesome - https://fontawesome.com License - https://fontawesome.com/license/free (Icons: CC BY 4.0, Fonts: SIL OFL 1.1, Code: MIT License) Copyright 2022 Fonticons, Inc. --><path d="M512 256C512 397.4 397.4 512 256 512C114.6 512 0 397.4 0 256C0 114.6 114.6 0 256 0C397.4 0 512 114.6 512 256zM51.68 295.1L83.41 301.5C91.27 303.1 99.41 300.6 105.1 294.9L120.5 279.5C132 267.1 151.6 271.1 158.9 285.8L168.2 304.3C172.1 313.9 182.8 319.1 193.5 319.1C208.7 319.1 219.6 305.4 215.2 290.8L209.3 270.9C204.6 255.5 216.2 240 232.3 240H234.6C247.1 240 260.5 233.3 267.9 222.2L278.6 206.1C284.2 197.7 283.9 186.6 277.8 178.4L261.7 156.9C251.4 143.2 258.4 123.4 275.1 119.2L292.1 114.1C299.6 113.1 305.7 107.8 308.6 100.6L324.9 59.69C303.4 52.12 280.2 48 255.1 48C141.1 48 47.1 141.1 47.1 256C47.1 269.4 49.26 282.5 51.68 295.1L51.68 295.1zM450.4 300.4L434.6 304.9C427.9 306.7 420.8 304 417.1 298.2L415.1 295.1C409.1 285.7 398.7 279.1 387.5 279.1C376.4 279.1 365.1 285.7 359.9 295.1L353.8 304.6C352.4 306.8 350.5 308.7 348.2 309.1L311.1 330.1C293.9 340.2 286.5 362.5 294.1 381.4L300.5 393.8C309.1 413 331.2 422.3 350.1 414.9L353.5 413.1C363.6 410.2 374.8 411.8 383.5 418.1L385 419.2C422.2 389.7 449.1 347.8 459.4 299.7C456.4 299.4 453.4 299.6 450.4 300.4H450.4zM156.1 367.5L188.1 375.5C196.7 377.7 205.4 372.5 207.5 363.9C209.7 355.3 204.5 346.6 195.9 344.5L163.9 336.5C155.3 334.3 146.6 339.5 144.5 348.1C142.3 356.7 147.5 365.4 156.1 367.5V367.5zM236.5 328.1C234.3 336.7 239.5 345.4 248.1 347.5C256.7 349.7 265.4 344.5 267.5 335.9L275.5 303.9C277.7 295.3 272.5 286.6 263.9 284.5C255.3 282.3 246.6 287.5 244.5 296.1L236.5 328.1zM321.7 120.8L305.7 152.8C301.7 160.7 304.9 170.4 312.8 174.3C320.7 178.3 330.4 175.1 334.3 167.2L350.3 135.2C354.3 127.3 351.1 117.6 343.2 113.7C335.3 109.7 325.6 112.9 321.7 120.8V120.8z"/></svg>