<svg xmlns="http://www.w3.org/2000/svg" viewBox="0 0 576 512"><!--! Font Awesome Free 6.3.0 by @fontawesome - https://fontawesome.com License - https://fontawesome.com/license/free (Icons: CC BY 4.0, Fonts: SIL OFL 1.1, Code: MIT License) Copyright 2023 Fonticons, Inc. --><path d="M96 0C78.3 0 64 14.3 64 32V224h96V192c0-35.3 28.7-64 64-64H448V32c0-17.7-14.3-32-32-32H96zM224 160c-17.7 0-32 14.3-32 32v32h96c35.3 0 64 28.7 64 64V416H544c17.7 0 32-14.3 32-32V192c0-17.7-14.3-32-32-32H224zm240 64h32c8.8 0 16 7.2 16 16v32c0 8.8-7.2 16-16 16H464c-8.8 0-16-7.2-16-16V240c0-8.8 7.2-16 16-16zM32 256c-17.7 0-32 14.3-32 32v13L155.1 415.9c1.4 1 3.1 1.6 4.9 1.6s3.5-.6 4.9-1.6L320 301V288c0-17.7-14.3-32-32-32H32zm288 84.8L184 441.6c-6.9 5.1-15.3 7.9-24 7.9s-17-2.8-24-7.9L0 340.8V480c0 17.7 14.3 32 32 32H288c17.7 0 32-14.3 32-32V340.8z"/></svg>