<svg xmlns="http://www.w3.org/2000/svg" viewBox="0 0 448.1 512"><path d="M448.1 344v112c0 13.3-10.7 24-24 24h-112c-21.4 0-32.1-25.9-17-41l36.2-36.2L224 295.6 116.8 402.9 153 439c15.1 15.1 4.4 41-17 41H24c-13.3 0-24-10.7-24-24V344c0-21.4 25.9-32.1 41-17l36.2 36.2L184.5 256 77.2 148.7 41 185c-15.1 15.1-41 4.4-41-17V56c0-13.3 10.7-24 24-24h112c21.4 0 32.1 25.9 17 41l-36.2 36.2L224 216.4l107.3-107.3L295.1 73c-15.1-15.1-4.4-41 17-41h112c13.3 0 24 10.7 24 24v112c0 21.4-25.9 32.1-41 17l-36.2-36.2L263.6 256l107.3 107.3 36.2-36.2c15.1-15.2 41-4.5 41 16.9z"/></svg>