<svg xmlns="http://www.w3.org/2000/svg" viewBox="0 0 512 512"><!--! Font Awesome Free 6.5.1 by @fontawesome - https://fontawesome.com License - https://fontawesome.com/license/free (Icons: CC BY 4.0, Fonts: SIL OFL 1.1, Code: MIT License) Copyright 2023 Fonticons, Inc. --><path d="M256 512A256 256 0 1 0 256 0a256 256 0 1 0 0 512zM96.8 314.1c-3.8-13.7 7.4-26.1 21.6-26.1H393.6c14.2 0 25.5 12.4 21.6 26.1C396.2 382 332.1 432 256 432s-140.2-50-159.2-117.9zm36.7-199.4l89.9 47.9c10.7 5.7 10.7 21.1 0 26.8l-89.9 47.9c-7.9 4.2-17.5-1.5-17.5-10.5c0-2.8 1-5.5 2.8-7.6l36-43.2-36-43.2c-1.8-2.1-2.8-4.8-2.8-7.6c0-9 9.6-14.7 17.5-10.5zM396 125.1c0 2.8-1 5.5-2.8 7.6l-36 43.2 36 43.2c1.8 2.1 2.8 4.8 2.8 7.6c0 9-9.6 14.7-17.5 10.5l-89.9-47.9c-10.7-5.7-10.7-21.1 0-26.8l89.9-47.9c7.9-4.2 17.5 1.5 17.5 10.5z"/></svg>