<svg xmlns="http://www.w3.org/2000/svg" viewBox="0 0 512 512"><!--! Font Awesome Free 6.1.1 by @fontawesome - https://fontawesome.com License - https://fontawesome.com/license/free (Icons: CC BY 4.0, Fonts: SIL OFL 1.1, Code: MIT License) Copyright 2022 Fonticons, Inc. --><path d="M426.8 14.18C446-5.046 477.5-4.645 497.1 14.92C516.6 34.49 517 65.95 497.8 85.18C490.1 92.02 476.4 97.59 460.5 101.9C444.1 106.3 426.4 109.4 414.1 111.2C412.5 111.5 410.1 111.7 409.6 111.9C403.1 112.8 399.2 108 400.1 102.4C401.7 91.19 404.7 72.82 409.1 55.42C409.4 54.12 409.8 52.84 410.1 51.56C414.4 35.62 419.1 21.02 426.8 14.18L426.8 14.18zM382.2 33.17C380.6 37.96 379.3 42.81 378.1 47.52C373.3 66.46 370.1 86.05 368.4 97.79C364.5 124.6 387.4 147.5 414.1 143.6C426 141.9 445.6 138.8 464.5 133.9C469.2 132.7 474.1 131.4 478.8 129.9C534.2 227.5 520.2 353.8 437 437C353.8 520.3 227.5 534.2 129.8 478.8C131.3 474 132.7 469.2 133.9 464.5C138.7 445.5 141.9 425.1 143.6 414.2C147.5 387.4 124.6 364.5 97.89 368.4C85.97 370.1 66.39 373.2 47.46 378.1C42.76 379.3 37.93 380.6 33.15 382.1C-22.19 284.5-8.245 158.2 74.98 74.98C158.2-8.253 284.5-22.19 382.2 33.17V33.17zM416.4 202.3C411.6 190.4 395.6 191.4 389.6 202.7C370.1 239.4 343.3 275.9 309.8 309.4C276.3 342.9 239.8 369.7 203.1 389.2C191.8 395.2 190.8 411.2 202.7 416C262.1 440.2 332.6 428.3 380.7 380.3C428.7 332.2 440.6 261.7 416.4 202.3H416.4zM94.43 288.5L150.5 293.6L155.6 349.7C155.8 352.5 157.1 355 159 357C165.4 363.4 176.2 360.7 178.8 352.1L208.5 254.6C211.1 242.1 201.1 232.1 189.5 235.7L92.05 265.3C83.46 267.9 80.76 278.7 87.1 285.1C89.07 287.1 91.66 288.3 94.43 288.5V288.5zM235.7 189.5C232.1 201.1 242.1 211.1 254.6 208.5L352.1 178.8C360.7 176.2 363.4 165.4 357 159C355 157.1 352.5 155.8 349.7 155.6L293.6 150.5L288.5 94.43C288.3 91.66 287.1 89.07 285.1 87.1C278.7 80.76 267.9 83.46 265.3 92.05L235.7 189.5zM51.53 410.1C70.01 405.1 90.3 401.8 102.4 400.1C108 399.2 112.8 403.1 111.9 409.6C110.2 421.7 106.9 441.9 101.9 460.4C97.57 476.4 92.02 490.1 85.18 497.8C65.95 517 34.49 516.6 14.92 497.1C-4.645 477.5-5.046 446 14.18 426.8C21.02 419.1 35.6 414.4 51.53 410.1V410.1z"/></svg>