<svg xmlns="http://www.w3.org/2000/svg" viewBox="0 0 512 512"><!--! Font Awesome Free 6.3.0 by @fontawesome - https://fontawesome.com License - https://fontawesome.com/license/free (Icons: CC BY 4.0, Fonts: SIL OFL 1.1, Code: MIT License) Copyright 2023 Fonticons, Inc. --><path d="M256 512A256 256 0 1 0 256 0a256 256 0 1 0 0 512zM192 368H320c8.8 0 16 7.2 16 16s-7.2 16-16 16H192c-8.8 0-16-7.2-16-16s7.2-16 16-16zm32-144c0 35.3-28.7 64-64 64s-64-28.7-64-64c0-26 15.5-48.4 37.8-58.4c-3.7 5.2-5.8 11.6-5.8 18.4c0 17.7 14.3 32 32 32s32-14.3 32-32c0-6.9-2.2-13.2-5.8-18.4C208.5 175.6 224 198 224 224zm128 64c-35.3 0-64-28.7-64-64c0-26 15.5-48.4 37.8-58.4c-3.7 5.2-5.8 11.6-5.8 18.4c0 17.7 14.3 32 32 32s32-14.3 32-32c0-6.9-2.2-13.2-5.8-18.4C400.5 175.6 416 198 416 224c0 35.3-28.7 64-64 64z"/></svg>