<svg xmlns="http://www.w3.org/2000/svg" viewBox="0 0 512 512"><!--! Font Awesome Free 6.0.0 by @fontawesome - https://fontawesome.com License - https://fontawesome.com/license/free (Icons: CC BY 4.0, Fonts: SIL OFL 1.1, Code: MIT License) Copyright 2022 Fonticons, Inc. --><path d="M0 256C0 114.6 114.6 0 256 0C397.4 0 512 114.6 512 256C512 397.4 397.4 512 256 512C114.6 512 0 397.4 0 256zM176.4 240C194 240 208.4 225.7 208.4 208C208.4 190.3 194 176 176.4 176C158.7 176 144.4 190.3 144.4 208C144.4 225.7 158.7 240 176.4 240zM336.4 176C318.7 176 304.4 190.3 304.4 208C304.4 225.7 318.7 240 336.4 240C354 240 368.4 225.7 368.4 208C368.4 190.3 354 176 336.4 176zM259.9 369.4C288.8 369.4 316.2 375.2 340.6 385.5C352.9 390.7 366.7 381.3 361.4 369.1C344.8 330.9 305.6 303.1 259.9 303.1C214.3 303.1 175.1 330.8 158.4 369.1C153.1 381.3 166.1 390.6 179.3 385.4C203.7 375.1 231 369.4 259.9 369.4L259.9 369.4z"/></svg>