<svg xmlns="http://www.w3.org/2000/svg" viewBox="0 0 512 512"><!--! Font Awesome Free 6.2.0 by @fontawesome - https://fontawesome.com License - https://fontawesome.com/license/free (Icons: CC BY 4.0, Fonts: SIL OFL 1.1, Code: MIT License) Copyright 2022 Fonticons, Inc. --><path d="M256 512c141.4 0 256-114.6 256-256S397.4 0 256 0S0 114.6 0 256S114.6 512 256 512zM176.4 240c-17.7 0-32-14.3-32-32s14.3-32 32-32s32 14.3 32 32s-14.3 32-32 32zm192-32c0 17.7-14.3 32-32 32s-32-14.3-32-32s14.3-32 32-32s32 14.3 32 32zm-186 174.5c-12.4 5.2-26.5-4.1-21.1-16.4c16-36.6 52.4-62.1 94.8-62.1s78.8 25.6 94.8 62.1c5.4 12.3-8.7 21.6-21.1 16.4c-22.4-9.5-47.4-14.8-73.7-14.8s-51.3 5.3-73.7 14.8z"/></svg>