<svg xmlns="http://www.w3.org/2000/svg" viewBox="0 0 512 512"><!--! Font Awesome Free 6.2.1 by @fontawesome - https://fontawesome.com License - https://fontawesome.com/license/free (Icons: CC BY 4.0, Fonts: SIL OFL 1.1, Code: MIT License) Copyright 2022 Fonticons, Inc. --><path d="M512 256c0 141.4-114.6 256-256 256S0 397.4 0 256S114.6 0 256 0S512 114.6 512 256zM161.3 382.1c-5.4 12.3 8.7 21.6 21.1 16.4c22.4-9.5 47.4-14.8 73.7-14.8s51.3 5.3 73.7 14.8c12.4 5.2 26.5-4.1 21.1-16.4c-16-36.6-52.4-62.1-94.8-62.1s-78.8 25.6-94.8 62.1zM176.4 272c17.7 0 32-14.3 32-32c0-1.5-.1-3-.3-4.4l10.9 3.6c8.4 2.8 17.4-1.7 20.2-10.1s-1.7-17.4-10.1-20.2l-96-32c-8.4-2.8-17.4 1.7-20.2 10.1s1.7 17.4 10.1 20.2l30.7 10.2c-5.8 5.8-9.3 13.8-9.3 22.6c0 17.7 14.3 32 32 32zm192-32c0-8.9-3.6-17-9.5-22.8l30.2-10.1c8.4-2.8 12.9-11.9 10.1-20.2s-11.9-12.9-20.2-10.1l-96 32c-8.4 2.8-12.9 11.9-10.1 20.2s11.9 12.9 20.2 10.1l11.7-3.9c-.2 1.5-.3 3.1-.3 4.7c0 17.7 14.3 32 32 32s32-14.3 32-32z"/></svg>