<svg xmlns="http://www.w3.org/2000/svg" viewBox="0 0 512 512"><!--! Font Awesome Free 6.2.0 by @fontawesome - https://fontawesome.com License - https://fontawesome.com/license/free (Icons: CC BY 4.0, Fonts: SIL OFL 1.1, Code: MIT License) Copyright 2022 Fonticons, Inc. --><path d="M256 512c141.4 0 256-114.6 256-256S397.4 0 256 0S0 114.6 0 256S114.6 512 256 512zM388.1 312.8c12.3-3.8 24.3 6.9 19.3 18.7C382.4 390.6 324.2 432 256.3 432s-126.2-41.4-151.1-100.5c-5-11.8 7-22.5 19.3-18.7c39.7 12.2 84.5 19 131.8 19s92.1-6.8 131.8-19zM208.4 208c0 17.7-14.3 32-32 32s-32-14.3-32-32s14.3-32 32-32s32 14.3 32 32zm128 32c-17.7 0-32-14.3-32-32s14.3-32 32-32s32 14.3 32 32s-14.3 32-32 32z"/></svg>