<svg xmlns="http://www.w3.org/2000/svg" viewBox="0 0 384 512"><!--! Font Awesome Free 6.1.2 by @fontawesome - https://fontawesome.com License - https://fontawesome.com/license/free (Icons: CC BY 4.0, Fonts: SIL OFL 1.1, Code: MIT License) Copyright 2022 Fonticons, Inc. --><path d="M224 128L224 0H48C21.49 0 0 21.49 0 48v416C0 490.5 21.49 512 48 512h288c26.51 0 48-21.49 48-48V160h-127.1C238.3 160 224 145.7 224 128zM154.1 353.8c7.812 7.812 7.812 20.5 0 28.31C150.2 386.1 145.1 388 140 388s-10.23-1.938-14.14-5.844l-48-48c-7.812-7.812-7.812-20.5 0-28.31l48-48c7.812-7.812 20.47-7.812 28.28 0s7.812 20.5 0 28.31L120.3 320L154.1 353.8zM306.1 305.8c7.812 7.812 7.812 20.5 0 28.31l-48 48C254.2 386.1 249.1 388 244 388s-10.23-1.938-14.14-5.844c-7.812-7.812-7.812-20.5 0-28.31L263.7 320l-33.86-33.84c-7.812-7.812-7.812-20.5 0-28.31s20.47-7.812 28.28 0L306.1 305.8zM256 0v128h128L256 0z"/></svg>