<svg xmlns="http://www.w3.org/2000/svg" viewBox="0 0 384 512"><!--! Font Awesome Free 6.1.0 by @fontawesome - https://fontawesome.com License - https://fontawesome.com/license/free (Icons: CC BY 4.0, Fonts: SIL OFL 1.1, Code: MIT License) Copyright 2022 Fonticons, Inc. --><path d="M224 128L224 0H48C21.49 0 0 21.49 0 48v416C0 490.5 21.49 512 48 512h288c26.51 0 48-21.49 48-48V160h-127.1C238.3 160 224 145.7 224 128zM96 224c17.67 0 32 14.33 32 32S113.7 288 96 288S64 273.7 64 256S78.33 224 96 224zM318.1 439.5C315.3 444.8 309.9 448 304 448h-224c-5.9 0-11.32-3.248-14.11-8.451c-2.783-5.201-2.479-11.52 .7949-16.42l53.33-80C122.1 338.7 127.1 336 133.3 336s10.35 2.674 13.31 7.125L160 363.2l45.35-68.03C208.3 290.7 213.3 288 218.7 288s10.35 2.674 13.31 7.125l85.33 128C320.6 428 320.9 434.3 318.1 439.5zM256 0v128h128L256 0z"/></svg>