<svg xmlns="http://www.w3.org/2000/svg" viewBox="0 0 512 512"><!--! Font Awesome Free 6.1.1 by @fontawesome - https://fontawesome.com License - https://fontawesome.com/license/free (Icons: CC BY 4.0, Fonts: SIL OFL 1.1, Code: MIT License) Copyright 2022 Fonticons, Inc. --><path d="M384 0v128h128L384 0zM352 128L352 0H176C149.5 0 128 21.49 128 48V288h174.1l-39.03-39.03c-9.375-9.375-9.375-24.56 0-33.94s24.56-9.375 33.94 0l80 80c9.375 9.375 9.375 24.56 0 33.94l-80 80c-9.375 9.375-24.56 9.375-33.94 0C258.3 404.3 256 398.2 256 392s2.344-12.28 7.031-16.97L302.1 336H128v128C128 490.5 149.5 512 176 512h288c26.51 0 48-21.49 48-48V160h-127.1C366.3 160 352 145.7 352 128zM24 288C10.75 288 0 298.7 0 312c0 13.25 10.75 24 24 24H128V288H24z"/></svg>