<svg xmlns="http://www.w3.org/2000/svg" viewBox="0 0 384 512"><!--! Font Awesome Free 6.2.0 by @fontawesome - https://fontawesome.com License - https://fontawesome.com/license/free (Icons: CC BY 4.0, Fonts: SIL OFL 1.1, Code: MIT License) Copyright 2022 Fonticons, Inc. --><path d="M64 0C28.7 0 0 28.7 0 64V448c0 35.3 28.7 64 64 64H320c35.3 0 64-28.7 64-64V160H256c-17.7 0-32-14.3-32-32V0H64zM256 0V128H384L256 0zM64 224H88c30.9 0 56 25.1 56 56s-25.1 56-56 56H80v32c0 8.8-7.2 16-16 16s-16-7.2-16-16V320 240c0-8.8 7.2-16 16-16zm24 80c13.3 0 24-10.7 24-24s-10.7-24-24-24H80v48h8zm72-64c0-8.8 7.2-16 16-16h24c26.5 0 48 21.5 48 48v64c0 26.5-21.5 48-48 48H176c-8.8 0-16-7.2-16-16V240zm32 112h8c8.8 0 16-7.2 16-16V272c0-8.8-7.2-16-16-16h-8v96zm96-128h48c8.8 0 16 7.2 16 16s-7.2 16-16 16H304v32h32c8.8 0 16 7.2 16 16s-7.2 16-16 16H304v48c0 8.8-7.2 16-16 16s-16-7.2-16-16V304 240c0-8.8 7.2-16 16-16z"/></svg>