<svg xmlns="http://www.w3.org/2000/svg" viewBox="0 0 384 512"><!--! Font Awesome Free 6.1.0 by @fontawesome - https://fontawesome.com License - https://fontawesome.com/license/free (Icons: CC BY 4.0, Fonts: SIL OFL 1.1, Code: MIT License) Copyright 2022 Fonticons, Inc. --><path d="M203.1 4.365c-6.177-5.82-16.06-5.819-22.23-.0007C74.52 104.5 0 234.1 0 312C0 437.9 79 512 192 512s192-74.05 192-200C384 233.9 309 104.2 203.1 4.365zM192 432c-56.5 0-96-37.76-96-91.74c0-12.47 4.207-55.32 83.87-143c6.314-6.953 17.95-6.953 24.26 0C283.8 284.9 288 327.8 288 340.3C288 394.2 248.5 432 192 432z"/></svg>