<svg xmlns="http://www.w3.org/2000/svg" viewBox="0 0 576 512"><!--! Font Awesome Free 6.1.0 by @fontawesome - https://fontawesome.com License - https://fontawesome.com/license/free (Icons: CC BY 4.0, Fonts: SIL OFL 1.1, Code: MIT License) Copyright 2022 Fonticons, Inc. --><path d="M352.8 96.61C407.7 100.6 454.3 123.6 490 150.4C529.2 179.8 557.3 215.1 571.7 239.9C577.4 249.9 577.4 262.1 571.7 272.1C557.3 296.9 529.2 332.2 490 361.6C454.3 388.4 407.7 411.4 352.8 415.4L275.2 473.6C264.6 481.6 250.2 482.1 238.9 475.1C227.7 468 222 454.7 224.6 441.7L234.3 393.1C214.1 384.1 197.5 373.2 181.1 361.6C166.6 350.1 152.1 337.7 141.2 325.3L48.12 379.6C35.61 386.9 19.76 384.9 9.475 374.7C-.8124 364.5-2.969 348.7 4.217 336.1L50 256L4.217 175.9C-2.969 163.3-.8124 147.5 9.475 137.3C19.76 127.1 35.61 125.1 48.12 132.4L141.2 186.7C152.1 174.3 166.6 161.9 181.1 150.4C197.5 138.8 214.1 127.9 234.3 118.9L224.6 70.28C222 57.27 227.7 44 238.9 36.93C250.2 29.85 264.6 30.44 275.2 38.4L352.8 96.61zM416 224C398.3 224 384 238.3 384 256C384 273.7 398.3 288 416 288C433.7 288 448 273.7 448 256C448 238.3 433.7 224 416 224z"/></svg>