<svg xmlns="http://www.w3.org/2000/svg" viewBox="0 0 448 512"><!--! Font Awesome Free 6.1.1 by @fontawesome - https://fontawesome.com License - https://fontawesome.com/license/free (Icons: CC BY 4.0, Fonts: SIL OFL 1.1, Code: MIT License) Copyright 2022 Fonticons, Inc. --><path d="M416 416h-25.81L253.1 52.76c-4.688-12.47-16.57-20.76-29.91-20.76s-25.34 8.289-30.02 20.76L57.81 416H32c-17.67 0-32 14.31-32 32s14.33 32 32 32h96c17.67 0 32-14.31 32-32s-14.33-32-32-32H126.2l17.1-48h159.6l17.1 48H320c-17.67 0-32 14.31-32 32s14.33 32 32 32h96c17.67 0 32-14.31 32-32S433.7 416 416 416zM168.2 304L224 155.1l55.82 148.9H168.2z"/></svg>