<svg xmlns="http://www.w3.org/2000/svg" viewBox="0 0 448 512"><!--! Font Awesome Free 6.1.1 by @fontawesome - https://fontawesome.com License - https://fontawesome.com/license/free (Icons: CC BY 4.0, Fonts: SIL OFL 1.1, Code: MIT License) Copyright 2022 Fonticons, Inc. --><path d="M448 48V384c-63.09 22.54-82.34 32-119.5 32c-62.82 0-86.6-32-149.3-32C158.6 384 142.6 387.6 128 392.2v-64C142.6 323.6 158.6 320 179.2 320c62.73 0 86.51 32 149.3 32C348.9 352 364.1 349 384 342.7v-208C364.1 141 348.9 144 328.5 144c-62.82 0-86.6-32-149.3-32C128.4 112 104.3 132.6 64 140.7v307.3C64 465.7 49.67 480 32 480S0 465.7 0 448V63.1C0 46.33 14.33 32 31.1 32S64 46.33 64 63.1V76.66C104.3 68.63 128.4 48 179.2 48c62.73 0 86.51 32 149.3 32C365.7 80 384.9 70.54 448 48z"/></svg>