<svg xmlns="http://www.w3.org/2000/svg" viewBox="0 0 512 512"><!--! Font Awesome Free 6.2.1 by @fontawesome - https://fontawesome.com License - https://fontawesome.com/license/free (Icons: CC BY 4.0, Fonts: SIL OFL 1.1, Code: MIT License) Copyright 2022 Fonticons, Inc. --><path d="M512 256c0 141.4-114.6 256-256 256S0 397.4 0 256S114.6 0 256 0S512 114.6 512 256zM320 352c0-15.9-5.8-30.4-15.3-41.6l76.6-147.4c6.1-11.8 1.5-26.3-10.2-32.4s-26.2-1.5-32.4 10.2L262.1 288.3c-2-.2-4-.3-6.1-.3c-35.3 0-64 28.7-64 64s28.7 64 64 64s64-28.7 64-64z"/></svg>