<svg xmlns="http://www.w3.org/2000/svg" viewBox="0 0 512 512"><!--! Font Awesome Free 6.2.0 by @fontawesome - https://fontawesome.com License - https://fontawesome.com/license/free (Icons: CC BY 4.0, Fonts: SIL OFL 1.1, Code: MIT License) Copyright 2022 Fonticons, Inc. --><path d="M318.6 9.4c-12.5-12.5-32.8-12.5-45.3 0l-120 120c-12.5 12.5-12.5 32.8 0 45.3l16 16c12.5 12.5 32.8 12.5 45.3 0l4-4L325.4 293.4l-4 4c-12.5 12.5-12.5 32.8 0 45.3l16 16c12.5 12.5 32.8 12.5 45.3 0l120-120c12.5-12.5 12.5-32.8 0-45.3l-16-16c-12.5-12.5-32.8-12.5-45.3 0l-4 4L330.6 74.6l4-4c12.5-12.5 12.5-32.8 0-45.3l-16-16zm-152 288c-12.5-12.5-32.8-12.5-45.3 0l-112 112c-12.5 12.5-12.5 32.8 0 45.3l48 48c12.5 12.5 32.8 12.5 45.3 0l112-112c12.5-12.5 12.5-32.8 0-45.3l-1.4-1.4L272 285.3 226.7 240 168 298.7l-1.4-1.4z"/></svg>