<svg xmlns="http://www.w3.org/2000/svg" viewBox="0 0 384 512"><!--! Font Awesome Free 6.2.1 by @fontawesome - https://fontawesome.com License - https://fontawesome.com/license/free (Icons: CC BY 4.0, Fonts: SIL OFL 1.1, Code: MIT License) Copyright 2022 Fonticons, Inc. --><path d="M50.8 452.1L19.2 477.4c-2.1 1.7-4.7 2.6-7.4 2.6C5.3 480 0 474.7 0 468.2V192C0 86 86 0 192 0S384 86 384 192V468.2c0 6.5-5.3 11.8-11.8 11.8c-2.7 0-5.3-.9-7.4-2.6l-31.6-25.3c-3.3-2.7-7.5-4.1-11.8-4.1c-5.9 0-11.5 2.8-15 7.5l-37.6 50.1c-3 4-7.8 6.4-12.8 6.4s-9.8-2.4-12.8-6.4l-38.4-51.2c-3-4-7.8-6.4-12.8-6.4s-9.8 2.4-12.8 6.4l-38.4 51.2c-3 4-7.8 6.4-12.8 6.4s-9.8-2.4-12.8-6.4L77.6 455.5c-3.6-4.7-9.1-7.5-15-7.5c-4.3 0-8.4 1.5-11.7 4.1zM160 192c0-17.7-14.3-32-32-32s-32 14.3-32 32s14.3 32 32 32s32-14.3 32-32zm96 32c17.7 0 32-14.3 32-32s-14.3-32-32-32s-32 14.3-32 32s14.3 32 32 32z"/></svg>