<svg xmlns="http://www.w3.org/2000/svg" viewBox="0 0 640 512"><!--! Font Awesome Free 6.4.2 by @fontawesome - https://fontawesome.com License - https://fontawesome.com/license/free (Icons: CC BY 4.0, Fonts: SIL OFL 1.1, Code: MIT License) Copyright 2023 Fonticons, Inc. --><path d="M200.6 32C205 19.5 198.5 5.8 186 1.4S159.8 3.5 155.4 16L144.7 46.2l-9.9-29.8C130.6 3.8 117-3 104.4 1.2S85 19 89.2 31.6l8.3 25-27.4-20c-10.7-7.8-25.7-5.4-33.5 5.3s-5.4 25.7 5.3 33.5L70.2 96H48C21.5 96 0 117.5 0 144V464c0 26.5 21.5 48 48 48H200.6c-5.4-9.4-8.6-20.3-8.6-32V256c0-29.9 20.5-55 48.2-62c1.8-31 17.1-58.2 40.1-76.1C271.7 104.7 256.9 96 240 96H217.8l28.3-20.6c10.7-7.8 13.1-22.8 5.3-33.5s-22.8-13.1-33.5-5.3L192.5 55.1 200.6 32zM363.5 185.5L393.1 224H344c-13.3 0-24-10.7-24-24c0-13.1 10.8-24 24.2-24c7.6 0 14.7 3.5 19.3 9.5zM272 200c0 8.4 1.4 16.5 4.1 24H272c-26.5 0-48 21.5-48 48v80H416V256h32v96H640V272c0-26.5-21.5-48-48-48h-4.1c2.7-7.5 4.1-15.6 4.1-24c0-39.9-32.5-72-72.2-72c-22.4 0-43.6 10.4-57.3 28.2L432 195.8l-30.5-39.6c-13.7-17.8-35-28.2-57.3-28.2c-39.7 0-72.2 32.1-72.2 72zM224 464c0 26.5 21.5 48 48 48H416V384H224v80zm224 48H592c26.5 0 48-21.5 48-48V384H448V512zm96-312c0 13.3-10.7 24-24 24H470.9l29.6-38.5c4.6-5.9 11.7-9.5 19.3-9.5c13.4 0 24.2 10.9 24.2 24z"/></svg>