<svg xmlns="http://www.w3.org/2000/svg" viewBox="0 0 384 512"><!--! Font Awesome Free 6.3.0 by @fontawesome - https://fontawesome.com License - https://fontawesome.com/license/free (Icons: CC BY 4.0, Fonts: SIL OFL 1.1, Code: MIT License) Copyright 2023 Fonticons, Inc. --><path d="M32 0C23.1 0 14.6 3.7 8.6 10.2S-.6 25.4 .1 34.3L28.9 437.7c3 41.9 37.8 74.3 79.8 74.3H275.3c42 0 76.8-32.4 79.8-74.3L383.9 34.3c.6-8.9-2.4-17.6-8.5-24.1S360.9 0 352 0H32zM73 156.5L66.4 64H317.6L311 156.5l-24.2 12.1c-19.4 9.7-42.2 9.7-61.6 0c-20.9-10.4-45.5-10.4-66.4 0c-19.4 9.7-42.2 9.7-61.6 0L73 156.5z"/></svg>