<svg xmlns="http://www.w3.org/2000/svg" viewBox="0 0 448 512"><!--! Font Awesome Free 6.5.1 by @fontawesome - https://fontawesome.com License - https://fontawesome.com/license/free (Icons: CC BY 4.0, Fonts: SIL OFL 1.1, Code: MIT License) Copyright 2023 Fonticons, Inc. --><path d="M52.1 93.7C35.7 87.1 27.7 68.5 34.3 52.1s25.2-24.4 41.6-17.8l320 128C408 167.1 416 178.9 416 192s-8 24.9-20.1 29.7l-320 128c-16.4 6.6-35-1.4-41.6-17.8s1.4-35 17.8-41.6L297.8 192 52.1 93.7zM416 416c17.7 0 32 14.3 32 32s-14.3 32-32 32H32c-17.7 0-32-14.3-32-32s14.3-32 32-32H416z"/></svg>