<svg xmlns="http://www.w3.org/2000/svg" viewBox="0 0 512 512"><!--! Font Awesome Free 6.1.1 by @fontawesome - https://fontawesome.com License - https://fontawesome.com/license/free (Icons: CC BY 4.0, Fonts: SIL OFL 1.1, Code: MIT License) Copyright 2022 Fonticons, Inc. --><path d="M159.7 89.85C159.9 91.87 159.1 93.93 159.1 96C159.1 131.3 131.3 160 95.1 160C93.92 160 91.87 159.9 89.85 159.7C82.34 172.6 76.29 186.5 71.94 201.1C66.9 218.1 49.08 227.7 32.15 222.7C15.21 217.6 5.562 199.8 10.6 182.9C17.01 161.4 26.15 141 37.64 122.3C34.02 114.3 31.1 105.4 31.1 96C31.1 60.65 60.65 32 95.1 32C105.4 32 114.3 34.02 122.3 37.64C141 26.16 161.4 17.01 182.9 10.61C199.8 5.566 217.6 15.21 222.7 32.15C227.7 49.09 218.1 66.91 201.1 71.95C186.5 76.3 172.6 82.34 159.7 89.85V89.85zM389.7 37.64C397.7 34.02 406.6 32 415.1 32C451.3 32 479.1 60.65 479.1 96C479.1 105.4 477.1 114.3 474.4 122.3C485.8 141 494.1 161.4 501.4 182.9C506.4 199.8 496.8 217.6 479.8 222.7C462.9 227.7 445.1 218.1 440.1 201.1C435.7 186.5 429.7 172.6 422.1 159.7C420.1 159.9 418.1 160 416 160C380.7 160 352 131.3 352 96C352 93.93 352.1 91.87 352.3 89.85C339.4 82.34 325.5 76.3 310.9 71.95C293.9 66.91 284.3 49.09 289.3 32.15C294.4 15.21 312.2 5.566 329.1 10.61C350.6 17.01 370.1 26.16 389.7 37.64L389.7 37.64zM89.85 352.3C91.87 352.1 93.92 352 95.1 352C131.3 352 159.1 380.7 159.1 416C159.1 418.1 159.9 420.1 159.7 422.2C172.6 429.7 186.5 435.7 201.1 440.1C218.1 445.1 227.7 462.9 222.7 479.9C217.6 496.8 199.8 506.4 182.9 501.4C161.4 494.1 141 485.8 122.3 474.4C114.3 477.1 105.4 480 95.1 480C60.65 480 31.1 451.3 31.1 416C31.1 406.6 34.02 397.7 37.64 389.7C26.15 370.1 17.01 350.6 10.6 329.1C5.562 312.2 15.21 294.4 32.15 289.3C49.08 284.3 66.9 293.9 71.94 310.9C76.29 325.5 82.34 339.4 89.85 352.3L89.85 352.3zM474.4 389.7C477.1 397.7 479.1 406.6 479.1 416C479.1 451.3 451.3 480 415.1 480C406.6 480 397.7 477.1 389.7 474.4C370.1 485.8 350.6 494.1 329.1 501.4C312.2 506.4 294.4 496.8 289.3 479.9C284.3 462.9 293.9 445.1 310.9 440.1C325.5 435.7 339.4 429.7 352.3 422.2C352.1 420.1 351.1 418.1 351.1 416C351.1 380.7 380.7 352 415.1 352C418.1 352 420.1 352.1 422.2 352.3C429.7 339.4 435.7 325.5 440.1 310.9C445.1 293.9 462.9 284.3 479.8 289.3C496.8 294.4 506.4 312.2 501.4 329.1C494.1 350.6 485.8 370.1 474.4 389.7H474.4zM192.8 256.8C192.8 281.6 206.9 303.2 227.7 313.8C239.5 319.9 244.2 334.3 238.2 346.1C232.1 357.9 217.7 362.6 205.9 356.6C169.7 338.1 144.8 300.4 144.8 256.8C144.8 227.9 155.7 201.6 173.7 181.7L162.5 170.6C155.1 163.1 160.6 152.8 169.9 152.8H230.4C236.1 152.8 240.8 157.5 240.8 163.2V223.7C240.8 232.1 229.6 237.6 223 231L207.7 215.7C198.4 226.8 192.8 241.1 192.8 256.8V256.8zM275.4 165.9C281.5 154.1 295.9 149.4 307.7 155.4C343.9 173.9 368.8 211.6 368.8 255.2C368.8 284.1 357.8 310.5 339.9 330.3L351 341.5C357.6 348 352.1 359.2 343.7 359.2H283.2C277.5 359.2 272.8 354.6 272.8 348.8V288.3C272.8 279 284 274.4 290.6 280.1L305.9 296.3C315.2 285.2 320.8 270.9 320.8 255.2C320.8 230.4 306.6 208.8 285.9 198.2C274.1 192.1 269.4 177.7 275.4 165.9V165.9z"/></svg>