<svg xmlns="http://www.w3.org/2000/svg" viewBox="0 0 512 512"><!--! Font Awesome Free 6.2.1 by @fontawesome - https://fontawesome.com License - https://fontawesome.com/license/free (Icons: CC BY 4.0, Fonts: SIL OFL 1.1, Code: MIT License) Copyright 2022 Fonticons, Inc. --><path d="M480 96c17.7 0 32 14.3 32 32s-14.3 32-32 32l-208 0 0-64 208 0zM320 288c17.7 0 32 14.3 32 32s-14.3 32-32 32H256c-17.7 0-32-14.3-32-32s14.3-32 32-32h64zm64-64c0 17.7-14.3 32-32 32H304c-17.7 0-32-14.3-32-32s14.3-32 32-32h48c17.7 0 32 14.3 32 32zM288 384c17.7 0 32 14.3 32 32s-14.3 32-32 32H224c-17.7 0-32-14.3-32-32s14.3-32 32-32h64zm-88-96l.6 0c-5.4 9.4-8.6 20.3-8.6 32c0 13.2 4 25.4 10.8 35.6C177.9 364.3 160 388.1 160 416c0 11.7 3.1 22.6 8.6 32H160C71.6 448 0 376.4 0 288l0-61.7c0-42.4 16.9-83.1 46.9-113.1l11.6-11.6C82.5 77.5 115.1 64 149 64l27 0c35.3 0 64 28.7 64 64v88c0 22.1-17.9 40-40 40s-40-17.9-40-40V160c0-8.8-7.2-16-16-16s-16 7.2-16 16v56c0 39.8 32.2 72 72 72z"/></svg>