<svg xmlns="http://www.w3.org/2000/svg" viewBox="0 0 384 512"><!--! Font Awesome Free 6.3.0 by @fontawesome - https://fontawesome.com License - https://fontawesome.com/license/free (Icons: CC BY 4.0, Fonts: SIL OFL 1.1, Code: MIT License) Copyright 2023 Fonticons, Inc. --><path d="M32 32C32 14.3 46.3 0 64 0S96 14.3 96 32V240H32V32zM224 192c0-17.7 14.3-32 32-32s32 14.3 32 32v64c0 17.7-14.3 32-32 32s-32-14.3-32-32V192zm-64-64c17.7 0 32 14.3 32 32v48c0 17.7-14.3 32-32 32s-32-14.3-32-32V160c0-17.7 14.3-32 32-32zm160 96c0-17.7 14.3-32 32-32s32 14.3 32 32v64c0 17.7-14.3 32-32 32s-32-14.3-32-32V224zm-96 88l0-.6c9.4 5.4 20.3 8.6 32 8.6c13.2 0 25.4-4 35.6-10.8c8.7 24.9 32.5 42.8 60.4 42.8c11.7 0 22.6-3.1 32-8.6V352c0 88.4-71.6 160-160 160H162.3c-42.4 0-83.1-16.9-113.1-46.9L37.5 453.5C13.5 429.5 0 396.9 0 363V336c0-35.3 28.7-64 64-64h88c22.1 0 40 17.9 40 40s-17.9 40-40 40H96c-8.8 0-16 7.2-16 16s7.2 16 16 16h56c39.8 0 72-32.2 72-72z"/></svg>