<svg xmlns="http://www.w3.org/2000/svg" viewBox="0 0 448 512"><!--! Font Awesome Free 6.3.0 by @fontawesome - https://fontawesome.com License - https://fontawesome.com/license/free (Icons: CC BY 4.0, Fonts: SIL OFL 1.1, Code: MIT License) Copyright 2023 Fonticons, Inc. --><path d="M216 0c-22.1 0-40 17.9-40 40V204.2c-8.5-7.6-19.7-12.2-32-12.2c-26.5 0-48 21.5-48 48v7 73c0 8.8-7.2 16-16 16s-16-7.2-16-16V264.3c-2 1.4-3.9 3-5.8 4.5L39 284.8C24.4 297 16 315 16 334V372c0 38 16.9 74 46.1 98.3l5.4 4.5c28.8 24 65 37.1 102.4 37.1H288c70.7 0 128-57.3 128-128V320 288c0-26.5-21.5-48-48-48c-12.4 0-23.6 4.7-32.1 12.3C334 227.5 313.3 208 288 208c-12.3 0-23.5 4.6-32 12.2V40c0-22.1-17.9-40-40-40z"/></svg>