<svg xmlns="http://www.w3.org/2000/svg" viewBox="0 0 576 512"><!--! Font Awesome Free 6.1.2 by @fontawesome - https://fontawesome.com License - https://fontawesome.com/license/free (Icons: CC BY 4.0, Fonts: SIL OFL 1.1, Code: MIT License) Copyright 2022 Fonticons, Inc. --><path d="M416 64c17.67 0 32-14.33 32-31.1c0-17.67-14.33-32-32-32c-17.67 0-32 14.33-32 32C384 49.67 398.3 64 416 64zM519.1 336H360c-4.418 0-8-3.582-8-8s3.582-8 8-8h128c14.81 0 26.49-13.42 23.54-28.76c-2.191-11.4-12.84-19.24-24.44-19.24H288l47.09-17.06c12.66-3.906 19.75-17.34 15.84-30.03c-3.938-12.62-17.28-19.69-30.03-15.84L213.2 242.3C162 259.4 128 306.6 128 359.1v25.65c36.47 7.434 64 39.75 64 78.38c0 10.71-2.193 20.91-6.031 30.25C204.1 505.3 225.2 512 248 512h208c14.81 0 26.49-13.42 23.54-28.76c-2.191-11.4-12.84-19.24-24.44-19.24H360c-4.418 0-8-3.582-8-8s3.582-8 8-8h128c14.81 0 26.49-13.42 23.54-28.76c-2.191-11.4-12.84-19.24-24.44-19.24H360c-4.418 0-8-3.582-8-8s3.582-8 8-8h160c14.81 0 26.49-13.42 23.54-28.76C541.3 343.8 530.7 336 519.1 336zM311.5 178.4c5.508-1.66 10.99-2.471 16.5-2.471c6.662 0 12.1 1.334 18.98 3.482l15.36-48.61c4.461-14.12-4.82-29.3-20.33-31.11c-11.53-1.344-22.21 6.443-25.71 17.51l-20.9 66.17L311.5 178.4zM496 224c26.51 0 48-21.49 48-47.1s-21.49-48-48-48S448 149.5 448 176S469.5 224 496 224zM93.65 386.3C94.45 386.1 95.19 385.8 96 385.6v-25.69c0-67.17 43.03-126.7 107.1-148l73.7-22.76l34.15-108.1c4.459-14.12-4.82-29.3-20.33-31.11C279.1 48.6 268.4 56.39 264.9 67.46L231.4 173.9c-1.332 4.213-5.826 6.549-10.04 5.217C217.2 177.8 214.8 173.3 216.2 169.1l43.37-137.8c4.461-14.12-4.82-29.3-20.33-31.11c-11.53-1.344-22.21 6.445-25.71 17.51L165.6 169.4C164.2 173.6 159.7 175.9 155.5 174.6C151.3 173.3 148.1 168.8 150.3 164.6l38.56-122.1c4.459-14.12-4.82-29.3-20.33-31.11C157 10.04 146.3 17.83 142.8 28.9L82.84 218.7L80.76 168.7C80.85 155.5 70.17 144.6 56.9 144.5C43.67 144.5 32.18 155.1 32 168.4v112.7C32.71 325.6 56.76 364.8 93.65 386.3zM112 416c-26.51 0-48 21.49-48 47.1s21.49 48 48 48S160 490.5 160 464S138.5 416 112 416z"/></svg>