<svg xmlns="http://www.w3.org/2000/svg" viewBox="0 0 576 512"><!--! Font Awesome Free 6.3.0 by @fontawesome - https://fontawesome.com License - https://fontawesome.com/license/free (Icons: CC BY 4.0, Fonts: SIL OFL 1.1, Code: MIT License) Copyright 2023 Fonticons, Inc. --><path d="M148 76.6C148 34.3 182.3 0 224.6 0c20.3 0 39.8 8.1 54.1 22.4l9.3 9.3 9.3-9.3C311.6 8.1 331.1 0 351.4 0C393.7 0 428 34.3 428 76.6c0 20.3-8.1 39.8-22.4 54.1L302.1 234.1c-7.8 7.8-20.5 7.8-28.3 0L170.4 130.7C156.1 116.4 148 96.9 148 76.6zM568.2 336.3c13.1 17.8 9.3 42.8-8.5 55.9L433.1 485.5c-23.4 17.2-51.6 26.5-80.7 26.5H192 32c-17.7 0-32-14.3-32-32V416c0-17.7 14.3-32 32-32H68.8l44.9-36c22.7-18.2 50.9-28 80-28H272h16 64c17.7 0 32 14.3 32 32s-14.3 32-32 32H288 272c-8.8 0-16 7.2-16 16s7.2 16 16 16H392.6l119.7-88.2c17.8-13.1 42.8-9.3 55.9 8.5zM193.6 384l0 0-.9 0c.3 0 .6 0 .9 0z"/></svg>