<svg xmlns="http://www.w3.org/2000/svg" viewBox="0 0 512 512"><path d="M481.3 97.1c-21.5-5.1-43.1 8.2-48.2 29.6L402.3 256h-11.1l43.6-174.3c5.4-21.4-7.7-43.1-29.1-48.5s-43.1 7.7-48.5 29.1L308.8 256h-15.1L242 31.1c-5-21.6-26.4-35-48-30.1-21.5 4.9-35 26.4-30 47.9l47.6 207h-9.8L167 103.1c-4.9-21.5-26.3-35-47.9-30.1-21.5 4.9-35 26.3-30.1 47.9l39 171.6v79.4l-60.6-57c-16.1-15.1-41.4-14.4-56.5 1.7s-14.4 41.4 1.7 56.5L146.3 499c8.9 8.4 20.7 13 32.9 13h216.7c21.3 0 40-14 46-34.4l26.2-88.3c2.6-8.9 4-18 4-27.3v-42c0-7.5.9-15 2.6-22.2L511 145.3c5-21.5-8.3-43.1-29.7-48.2z"/></svg>