<svg xmlns="http://www.w3.org/2000/svg" viewBox="0 0 512 512"><!--! Font Awesome Free 6.1.2 by @fontawesome - https://fontawesome.com License - https://fontawesome.com/license/free (Icons: CC BY 4.0, Fonts: SIL OFL 1.1, Code: MIT License) Copyright 2022 Fonticons, Inc. --><path d="M256 288H192c-17.67 0-32 14.31-32 32s14.33 32 32 32h64c17.67 0 32-14.31 32-32S273.7 288 256 288zM240 232V192H160C142.3 192 128 206.3 128 224s14.33 32 32 32h84.41C241.7 248.5 240 240.5 240 232zM240 104C240 101.3 240.5 98.66 240.8 96H32C14.33 96 0 110.3 0 128s14.33 32 32 32h208V104zM224 448h64c17.67 0 32-14.31 32-32s-14.33-32-32-32H224c-17.67 0-32 14.31-32 32S206.3 448 224 448zM352 416c0 11.72-3.381 22.55-8.879 32H376C451.1 448 512 387.1 512 312V223.3c0-28.76-9.107-56.79-26.02-80.06l-26.45-36.41C439.1 80 408.5 64 375.4 64H312c-22.09 0-40 17.91-40 40v128c0 22.09 17.91 39.1 39.1 39.1c28.73 0 40-26.72 40-42.28L352 159.1C352 151.2 359.2 144 368 144S384 151.2 384 159.1V232c0 37.87-29.35 68.59-66.51 71.45C318.9 308.8 320 314.2 320 320c0 13.28-4.047 25.6-10.97 35.83C333.1 364.6 352 388.1 352 416z"/></svg>