<svg xmlns="http://www.w3.org/2000/svg" viewBox="0 0 640 512"><!--! Font Awesome Free 6.2.1 by @fontawesome - https://fontawesome.com License - https://fontawesome.com/license/free (Icons: CC BY 4.0, Fonts: SIL OFL 1.1, Code: MIT License) Copyright 2022 Fonticons, Inc. --><path d="M463.2 71.3c-2.4-12.8-9.8-24.1-20.7-31.3s-24.2-9.7-36.9-6.8l-216 48c-19.8 4.4-34.7 20.8-37.2 40.9l-8.8 70.6c5.3-.4 10.8-.7 16.5-.7c82.9 0 141.9 55.3 197.5 107.5l0 0c3.1 3 6.3 5.9 9.4 8.8C427.1 364.5 486.9 416 576 416c0 0 64 0 64-48c0-96-112-128-144-128h-1.6L463.2 71.3zM576 448c-102.9 0-171.1-60.5-230.9-116.3l-6.5-6C279.9 270.8 229.9 224 160 224c-57.8 0-97.4 28.6-123.1 63.5C10.7 323 0 363.8 0 384c0 35.3 28.7 64 64 64H576z"/></svg>