<svg xmlns="http://www.w3.org/2000/svg" viewBox="0 0 640 512"><!--! Font Awesome Free 6.2.1 by @fontawesome - https://fontawesome.com License - https://fontawesome.com/license/free (Icons: CC BY 4.0, Fonts: SIL OFL 1.1, Code: MIT License) Copyright 2022 Fonticons, Inc. --><path d="M0 201.7C0 90.3 90.3 0 201.7 0H224c95.2 0 174.2 69.3 189.4 160.1c2.2 13 6.7 25.7 15 36.1l42 52.6c6.2 7.8 9.6 17.4 9.6 27.4c0 24.2-19.6 43.8-43.8 43.8H416v32H352c-17.7 0-32 14.3-32 32s14.3 32 32 32h64c0 35.3-28.7 64-64 64H288c0 17.7-14.3 32-32 32H96c-17.7 0-32-14.3-32-32V375.8c0-17-7.1-33-17.5-46.4C18.3 293.2 0 246.5 0 201.7zM336 224c17.7 0 32-14.3 32-32s-14.3-32-32-32s-32 14.3-32 32s14.3 32 32 32zm272 88c-13.3 0-24-10.7-24-24s10.7-24 24-24s24 10.7 24 24s-10.7 24-24 24zm-40 24c0 13.3-10.7 24-24 24s-24-10.7-24-24s10.7-24 24-24s24 10.7 24 24zm-64 48c0 13.3-10.7 24-24 24s-24-10.7-24-24s10.7-24 24-24s24 10.7 24 24zm128 0c0 13.3-10.7 24-24 24s-24-10.7-24-24s10.7-24 24-24s24 10.7 24 24zM608 504c-13.3 0-24-10.7-24-24s10.7-24 24-24s24 10.7 24 24s-10.7 24-24 24zm-40-72c0 13.3-10.7 24-24 24s-24-10.7-24-24s10.7-24 24-24s24 10.7 24 24z"/></svg>