<svg xmlns="http://www.w3.org/2000/svg" viewBox="0 0 448 512"><!--! Font Awesome Free 6.1.2 by @fontawesome - https://fontawesome.com License - https://fontawesome.com/license/free (Icons: CC BY 4.0, Fonts: SIL OFL 1.1, Code: MIT License) Copyright 2022 Fonticons, Inc. --><path d="M448 448c0 17.69-14.33 32-32 32h-96c-17.67 0-32-14.31-32-32s14.33-32 32-32h16v-144h-224v144H128c17.67 0 32 14.31 32 32s-14.33 32-32 32H32c-17.67 0-32-14.31-32-32s14.33-32 32-32h16v-320H32c-17.67 0-32-14.31-32-32s14.33-32 32-32h96c17.67 0 32 14.31 32 32s-14.33 32-32 32H112v112h224v-112H320c-17.67 0-32-14.31-32-32s14.33-32 32-32h96c17.67 0 32 14.31 32 32s-14.33 32-32 32h-16v320H416C433.7 416 448 430.3 448 448z"/></svg>