<svg xmlns="http://www.w3.org/2000/svg" viewBox="0 0 512 512"><!--! Font Awesome Free 6.3.0 by @fontawesome - https://fontawesome.com License - https://fontawesome.com/license/free (Icons: CC BY 4.0, Fonts: SIL OFL 1.1, Code: MIT License) Copyright 2023 Fonticons, Inc. --><path d="M0 224.2c0-22.2 3.2-43.6 9.2-63.9l227 165.1C228.5 337.8 224 352.4 224 368V512H96c-17.7 0-32-14.3-32-32V407.3c0-16.7-6.9-32.5-17.1-45.8C16.6 322.4 0 274.1 0 224.2zm258.6 77.9L21 129.3C56.7 53 134.2 0 224 0h32c95.2 0 174.2 69.3 189.4 160.1c2.2 13 6.7 25.7 15 36.1l42 52.6c6.2 7.8 9.6 17.4 9.6 27.4c0 4.1-.6 8.1-1.6 11.9H304c-16.9 0-32.5 5.2-45.4 14.1zM352 224a32 32 0 1 0 0-64 32 32 0 1 0 0 64zM256 512V368c0-26.5 21.5-48 48-48H512l-16 48H336c-8.8 0-16 7.2-16 16s7.2 16 16 16H485.3l-10.7 32H336c-8.8 0-16 7.2-16 16s7.2 16 16 16H464l-1.4 4.2c-8.7 26.1-33.2 43.8-60.7 43.8H256z"/></svg>