<svg xmlns="http://www.w3.org/2000/svg" viewBox="0 0 576 512"><!--! Font Awesome Free 6.1.0 by @fontawesome - https://fontawesome.com License - https://fontawesome.com/license/free (Icons: CC BY 4.0, Fonts: SIL OFL 1.1, Code: MIT License) Copyright 2022 Fonticons, Inc. --><path d="M256 368C256 403.7 266.6 436.9 284.9 464.6L279.4 470.3C266.4 483.2 245.5 483.2 233.5 470.3L39.71 270.5C-16.22 212.5-13.23 116.6 49.7 62.68C103.6 15.73 186.5 24.72 236.5 75.67L256.4 96.64L275.4 75.67C325.4 24.72 407.3 15.73 463.2 62.68C506.1 100.1 520.7 157.6 507 208.7C484.3 198 458.8 192 432 192C334.8 192 256 270.8 256 368zM288 368C288 288.5 352.5 224 432 224C511.5 224 576 288.5 576 368C576 447.5 511.5 512 432 512C352.5 512 288 447.5 288 368zM464.8 286.4L368.8 358.4C364.7 361.5 362.1 366.9 364.6 371.8C366.2 376.7 370.8 380 376 380H411.6L381.5 434.2C378.8 439.1 379.8 445.3 384.1 449C388.4 452.8 394.7 452.1 399.2 449.6L495.2 377.6C499.3 374.5 501 369.1 499.4 364.2C497.8 359.3 493.2 356 488 356H452.4L482.5 301.8C485.2 296.9 484.2 290.7 479.9 286.1C475.6 283.2 469.3 283 464.8 286.4V286.4z"/></svg>