<svg xmlns="http://www.w3.org/2000/svg" viewBox="0 0 640 512"><!--! Font Awesome Free 6.2.0 by @fontawesome - https://fontawesome.com License - https://fontawesome.com/license/free (Icons: CC BY 4.0, Fonts: SIL OFL 1.1, Code: MIT License) Copyright 2022 Fonticons, Inc. --><path d="M384 480c0 11.7 3.1 22.6 8.6 32H384c-17.7 0-32-14.3-32-32V383.7c0-17.7-14.3-32-32-32H256c-17.7 0-32 14.3-32 32V480c0 17.7-14.3 32-32 32H96.1c-17.7 0-32-14.3-32-32V287.6H32c-18 0-32-14-32-32.1c0-9 3-17 10-24L266.4 8c7-7 15-8 22-8s15 2 21 7L490.7 166.3C447.2 181.7 416 223.2 416 272v24.6c-19.1 11.1-32 31.7-32 55.4V480zM528 240c-17.7 0-32 14.3-32 32v48h64V272c0-17.7-14.3-32-32-32zm-80 32c0-44.2 35.8-80 80-80s80 35.8 80 80v48c17.7 0 32 14.3 32 32V480c0 17.7-14.3 32-32 32H448c-17.7 0-32-14.3-32-32V352c0-17.7 14.3-32 32-32V272z"/></svg>