<svg xmlns="http://www.w3.org/2000/svg" viewBox="0 0 448 512"><!--! Font Awesome Free 6.0.0 by @fontawesome - https://fontawesome.com License - https://fontawesome.com/license/free (Icons: CC BY 4.0, Fonts: SIL OFL 1.1, Code: MIT License) Copyright 2022 Fonticons, Inc. --><path d="M96.06 288.3H351.9L252.6 493.8C250.1 499.2 246 503.8 240.1 507.1C235.9 510.3 230 512 224 512C217.1 512 212.1 510.3 207 507.1C201.1 503.8 197.9 499.2 195.4 493.8L96.06 288.3zM386.3 164C392.1 166.4 397.4 169.9 401.9 174.4C406.3 178.8 409.9 184.1 412.3 189.9C414.7 195.7 415.1 201.1 416 208.3C416 214.5 414.8 220.8 412.4 226.6C409.1 232.4 406.5 237.7 402 242.2C397.6 246.6 392.3 250.2 386.5 252.6C380.7 255 374.4 256.3 368.1 256.3H79.88C67.16 256.3 54.96 251.2 45.98 242.2C37 233.2 31.97 220.1 32 208.3C32.03 195.5 37.1 183.4 46.12 174.4C55.14 165.4 67.35 160.4 80.07 160.4H81.06C80.4 154.9 80.06 149.4 80.04 143.8C80.04 105.7 95.2 69.11 122.2 42.13C149.2 15.15 185.8 0 223.1 0C262.1 0 298.7 15.15 325.7 42.13C352.7 69.11 367.9 105.7 367.9 143.8C367.9 149.4 367.6 154.9 366.9 160.4H367.9C374.2 160.4 380.5 161.6 386.3 164z"/></svg>