<svg xmlns="http://www.w3.org/2000/svg" viewBox="0 0 384 512"><!--! Font Awesome Free 6.3.0 by @fontawesome - https://fontawesome.com License - https://fontawesome.com/license/free (Icons: CC BY 4.0, Fonts: SIL OFL 1.1, Code: MIT License) Copyright 2023 Fonticons, Inc. --><path d="M335.1 160c.6-5.3 .9-10.6 .9-16C336 64.5 271.5 0 192 0S48 64.5 48 144c0 5.4 .3 10.7 .9 16H48c-26.5 0-48 21.5-48 48s21.5 48 48 48h53.5 181H336c26.5 0 48-21.5 48-48s-21.5-48-48-48h-.9zM64 288L168.8 497.7c4.4 8.8 13.3 14.3 23.2 14.3s18.8-5.5 23.2-14.3L320 288H64z"/></svg>