<svg xmlns="http://www.w3.org/2000/svg" viewBox="0 0 576 512"><!--! Font Awesome Free 6.2.1 by @fontawesome - https://fontawesome.com License - https://fontawesome.com/license/free (Icons: CC BY 4.0, Fonts: SIL OFL 1.1, Code: MIT License) Copyright 2022 Fonticons, Inc. --><path d="M532.3 7.3C539.7 13.3 544 22.4 544 32V176c0 26.5-28.7 48-64 48s-64-21.5-64-48s28.7-48 64-48V71L384 90.2V208c0 26.5-28.7 48-64 48s-64-21.5-64-48s28.7-48 64-48V64c0-15.3 10.8-28.4 25.7-31.4l160-32c9.4-1.9 19.1 .6 26.6 6.6zM106.7 304l11.8-17.8c5.9-8.9 15.9-14.2 26.6-14.2h61.7c10.7 0 20.7 5.3 26.6 14.2L245.3 304H272c26.5 0 48 21.5 48 48V464c0 26.5-21.5 48-48 48H80c-26.5 0-48-21.5-48-48V352c0-26.5 21.5-48 48-48h26.7zM224 408c0-26.5-21.5-48-48-48s-48 21.5-48 48s21.5 48 48 48s48-21.5 48-48zM510.7 278.3L472.3 368H528c6.7 0 12.6 4.1 15 10.4s.6 13.3-4.4 17.7l-128 112c-5.6 4.9-13.9 5.3-19.9 .9s-8.2-12.4-5.3-19.2L423.7 400H368c-6.7 0-12.6-4.1-15-10.4s-.6-13.3 4.4-17.7l128-112c5.6-4.9 13.9-5.3 19.9-.9s8.2 12.4 5.3 19.2zm-339-59.2c-6.5 6.5-17 6.5-23 0L51.9 119.2c-28-29-26.5-76.9 5-103.9c27-23.5 68.4-19 93.4 6.5l10 10.5 9.5-10.5c25-25.5 65.9-30 93.9-6.5c31 27 32.5 74.9 4.5 103.9l-96.4 99.9z"/></svg>