<svg xmlns="http://www.w3.org/2000/svg" viewBox="0 0 640 512"><!--! Font Awesome Free 6.0.0 by @fontawesome - https://fontawesome.com License - https://fontawesome.com/license/free (Icons: CC BY 4.0, Fonts: SIL OFL 1.1, Code: MIT License) Copyright 2022 Fonticons, Inc. --><path d="M494.9 96.01c-38.78 0-75.22 15.09-102.6 42.5L320 210.8L247.8 138.5c-27.41-27.41-63.84-42.5-102.6-42.5C65.11 96.01 0 161.1 0 241.1v29.75c0 80.03 65.11 145.1 145.1 145.1c38.78 0 75.22-15.09 102.6-42.5L320 301.3l72.23 72.25c27.41 27.41 63.84 42.5 102.6 42.5C574.9 416 640 350.9 640 270.9v-29.75C640 161.1 574.9 96.01 494.9 96.01zM202.5 328.3c-15.31 15.31-35.69 23.75-57.38 23.75C100.4 352 64 315.6 64 270.9v-29.75c0-44.72 36.41-81.13 81.14-81.13c21.69 0 42.06 8.438 57.38 23.75l72.23 72.25L202.5 328.3zM576 270.9c0 44.72-36.41 81.13-81.14 81.13c-21.69 0-42.06-8.438-57.38-23.75l-72.23-72.25l72.23-72.25c15.31-15.31 35.69-23.75 57.38-23.75C539.6 160 576 196.4 576 241.1V270.9z"/></svg>