<svg xmlns="http://www.w3.org/2000/svg" viewBox="0 0 512 512"><!--! Font Awesome Free 6.1.1 by @fontawesome - https://fontawesome.com License - https://fontawesome.com/license/free (Icons: CC BY 4.0, Fonts: SIL OFL 1.1, Code: MIT License) Copyright 2022 Fonticons, Inc. --><path d="M352 0C360.8 0 368 7.164 368 16V80C368 88.84 360.8 96 352 96H272V128H464C481.7 128 496 142.3 496 160C496 177.7 481.7 192 464 192H47.1C30.33 192 15.1 177.7 15.1 160C15.1 142.3 30.33 128 47.1 128H239.1V16C239.1 7.164 247.2 0 255.1 0H352zM63.1 224H127.1V416H167.1V224H231.1V416H280V224H344V416H384V224H448V420.3C448.6 420.6 449.2 420.1 449.8 421.4L497.8 453.4C509.5 461.2 514.7 475.8 510.6 489.3C506.5 502.8 494.1 512 480 512H31.1C17.9 512 5.458 502.8 1.372 489.3C-2.715 475.8 2.515 461.2 14.25 453.4L62.25 421.4C62.82 420.1 63.4 420.6 63.1 420.3V224z"/></svg>