<svg xmlns="http://www.w3.org/2000/svg" viewBox="0 0 384 512"><!--! Font Awesome Free 6.2.0 by @fontawesome - https://fontawesome.com License - https://fontawesome.com/license/free (Icons: CC BY 4.0, Fonts: SIL OFL 1.1, Code: MIT License) Copyright 2022 Fonticons, Inc. --><path d="M144 160.4c0-35.5 28.8-64.4 64.4-64.4c6.9 0 13.8 1.1 20.4 3.3l81.2 27.1c16.8 5.6 34.9-3.5 40.5-20.2s-3.5-34.9-20.2-40.5L249 38.6c-13.1-4.4-26.8-6.6-40.6-6.6C137.5 32 80 89.5 80 160.4V192H64c-17.7 0-32 14.3-32 32s14.3 32 32 32H80v32H64c-17.7 0-32 14.3-32 32s14.3 32 32 32H78c-2.2 10.5-6.1 20.6-11.7 29.9L36.6 431.5c-5.9 9.9-6.1 22.2-.4 32.2S52.5 480 64 480H320c17.7 0 32-14.3 32-32s-14.3-32-32-32H120.5l.7-1.1c11.6-19.3 18.9-40.7 21.6-62.9H256c17.7 0 32-14.3 32-32s-14.3-32-32-32H144V256H256c17.7 0 32-14.3 32-32s-14.3-32-32-32H144V160.4z"/></svg>