<svg xmlns="http://www.w3.org/2000/svg" viewBox="0 0 448 512"><!--! Font Awesome Free 6.2.1 by @fontawesome - https://fontawesome.com License - https://fontawesome.com/license/free (Icons: CC BY 4.0, Fonts: SIL OFL 1.1, Code: MIT License) Copyright 2022 Fonticons, Inc. --><path d="M160 64c0-17.7-14.3-32-32-32s-32 14.3-32 32V213.6L55.2 225.2c-17 4.9-26.8 22.6-22 39.6s22.6 26.8 39.6 22L96 280.1V448c0 17.7 14.3 32 32 32H384c17.7 0 32-14.3 32-32s-14.3-32-32-32H160V261.9l136.8-39.1c17-4.9 26.8-22.6 22-39.6s-22.6-26.8-39.6-22L160 195.3V64z"/></svg>