<svg xmlns="http://www.w3.org/2000/svg" viewBox="0 0 640 512"><!--! Font Awesome Free 6.2.1 by @fontawesome - https://fontawesome.com License - https://fontawesome.com/license/free (Icons: CC BY 4.0, Fonts: SIL OFL 1.1, Code: MIT License) Copyright 2022 Fonticons, Inc. --><path d="M344 32c-13.3 0-24 10.7-24 24s10.7 24 24 24h16c98.7 0 180.6 71.4 197 165.4c-9-3.5-18.8-5.4-29-5.4H463.8l-41.8-97.5c-3.4-7.9-10.8-13.4-19.3-14.4s-17 2.7-22.1 9.6l-40.9 55.5-21.7-50.7c-3.3-7.8-10.5-13.2-18.9-14.3s-16.7 2.3-22 8.9l-240 304c-8.2 10.4-6.4 25.5 4 33.7s25.5 6.4 33.7-4l79.4-100.5 43 16.4-40.5 55c-7.9 10.7-5.6 25.7 5.1 33.6s25.7 5.6 33.6-5.1L247.1 400h74.5l-29.3 42.3c-7.5 10.9-4.8 25.8 6.1 33.4s25.8 4.8 33.4-6.1L380 400h80.4l38.8 67.9c6.6 11.5 21.2 15.5 32.7 8.9s15.5-21.2 8.9-32.7L515.6 400H528c44.1 0 79.8-35.7 80-79.7c0-.1 0-.2 0-.3V280C608 143 497 32 360 32H344zm50.5 168l17.1 40H365l29.5-40zm-87.7 38.1l-1.4 1.9H257.1l32.7-41.5 16.9 39.5zM120.8 240C89.4 240 64 265.4 64 296.8c0 15.5 6.3 30 16.9 40.4L158.7 240H120.8zM528 320c-8.8 0-16-7.2-16-16s7.2-16 16-16s16 7.2 16 16s-7.2 16-16 16z"/></svg>