<svg xmlns="http://www.w3.org/2000/svg" viewBox="0 0 640 512"><!--! Font Awesome Free 6.1.0 by @fontawesome - https://fontawesome.com License - https://fontawesome.com/license/free (Icons: CC BY 4.0, Fonts: SIL OFL 1.1, Code: MIT License) Copyright 2022 Fonticons, Inc. --><path d="M195.5 444.5c-18.71-18.72-18.71-49.16 .0033-67.87l8.576-8.576H192c-26.47 0-48-21.53-48-48c0-26.47 21.53-48 48-48l12.12-.0055L195.5 263.4c-18.71-18.72-18.71-49.16 0-67.88C204.6 186.5 216.7 181.5 229.5 181.5c9.576 0 18.72 2.799 26.52 7.986l.04-27.75c0-36.38-31.42-65.72-70.05-65.72c-44 0-57.97 28.5-80.09 63.13c-46 71.88-80.39 149.8-102 231C1.257 399.9 0 409.8 0 419.8c0 61.25 62.5 105.5 125.3 88.62l59.5-15.9c21.74-5.867 39.91-18.39 52.51-34.73c-2.553 .4141-5.137 .7591-7.774 .7591C216.7 458.5 204.6 453.5 195.5 444.5zM343.1 150.7L344 16C344 7.125 336.9 0 328 0h-16c-8.875 0-16 7.125-16 16L295.1 150.7c7.088-4.133 15.22-6.675 23.1-6.675S336.9 146.5 343.1 150.7zM421.8 421.8c6.25-6.25 6.25-16.37 0-22.62l-8.576-8.576c-20.16-20.16-5.881-54.63 22.63-54.63H448c8.844 0 16-7.156 16-16c0-8.844-7.156-16-16-16h-12.12c-28.51 0-42.79-34.47-22.63-54.63l8.576-8.577c6.25-6.25 6.25-16.37 0-22.62s-16.38-6.25-22.62 0l-8.576 8.577C370.5 246.9 336 232.6 336 204.1v-12.12c0-8.844-7.156-15.1-16-15.1s-16 7.156-16 15.1v12.12c0 28.51-34.47 42.79-54.63 22.63L240.8 218.2c-6.25-6.25-16.38-6.25-22.62 0s-6.25 16.37 0 22.62l8.576 8.577c20.16 20.16 5.881 54.63-22.63 54.63H192c-8.844 0-16 7.156-16 16c0 8.844 7.156 16 16 16h12.12c28.51 0 42.79 34.47 22.63 54.63l-8.576 8.576c-6.25 6.25-6.25 16.37 0 22.62c3.125 3.125 7.219 4.688 11.31 4.688s8.188-1.562 11.31-4.688l8.576-8.575C269.5 393.1 304 407.4 304 435.9v12.12c0 8.844 7.156 16 16 16s16-7.156 16-16v-12.12c0-28.51 34.47-42.79 54.63-22.63l8.576 8.575c3.125 3.125 7.219 4.688 11.31 4.688S418.7 424.9 421.8 421.8zM288 303.1c-8.836 0-16-7.162-16-15.1S279.2 271.1 288 271.1S304 279.2 304 287.1S296.8 303.1 288 303.1zM352 367.1c-8.836 0-16-7.166-16-16s7.164-15.1 16-15.1s16 7.166 16 16S360.8 367.1 352 367.1zM636.1 390.1c-21.62-81.25-56.02-159.1-102-231c-22.12-34.63-36.09-63.13-80.09-63.13c-38.62 0-70.01 29.35-70.01 65.73v27.74c7.795-5.188 16.94-7.986 26.52-7.986c12.82 0 24.88 4.999 33.95 14.07c18.71 18.72 18.71 49.16 0 67.88l-8.576 8.571L448 272c26.47 0 48 21.54 48 48c0 26.47-21.53 48-48 48h-12.12l8.576 8.576c18.71 18.72 18.71 49.16-.0072 67.87c-9.066 9.066-21.12 14.06-33.94 14.06c-2.637 0-5.211-.3438-7.764-.7578c12.6 16.34 30.77 28.86 52.51 34.73l59.5 15.9C577.5 525.3 640 481 640 419.8C640 409.8 638.7 399.9 636.1 390.1z"/></svg>