<svg xmlns="http://www.w3.org/2000/svg" viewBox="0 0 448 512"><!--! Font Awesome Free 6.2.0 by @fontawesome - https://fontawesome.com License - https://fontawesome.com/license/free (Icons: CC BY 4.0, Fonts: SIL OFL 1.1, Code: MIT License) Copyright 2022 Fonticons, Inc. --><path d="M0 448c0 17.7 14.3 32 32 32s32-14.3 32-32H0zM32 64L58.6 46.2c-7.8-11.7-22.4-17-35.9-12.9S0 49.9 0 64l32 0zM224 352l-26.6 17.8c5.9 8.9 15.9 14.2 26.6 14.2s20.7-5.3 26.6-14.2L224 352zM416 64h32c0-14.1-9.2-26.5-22.7-30.6s-28.1 1.1-35.9 12.9L416 64zM384 448c0 17.7 14.3 32 32 32s32-14.3 32-32H384zM64 448V64H0V448H64zM5.4 81.8l192 288 53.3-35.5-192-288L5.4 81.8zm245.3 288l192-288L389.4 46.2l-192 288 53.3 35.5zM384 64V448h64V64H384z"/></svg>