<svg xmlns="http://www.w3.org/2000/svg" viewBox="0 0 448 512"><!--! Font Awesome Free 6.1.2 by @fontawesome - https://fontawesome.com License - https://fontawesome.com/license/free (Icons: CC BY 4.0, Fonts: SIL OFL 1.1, Code: MIT License) Copyright 2022 Fonticons, Inc. --><path d="M128 160V256C128 309 170.1 352 224 352C277 352 320 309 320 256V160H448V256C448 379.7 347.7 480 224 480C100.3 480 0 379.7 0 256V160H128zM0 64C0 46.33 14.33 32 32 32H96C113.7 32 128 46.33 128 64V128H0V64zM320 64C320 46.33 334.3 32 352 32H416C433.7 32 448 46.33 448 64V128H320V64z"/></svg>