<svg xmlns="http://www.w3.org/2000/svg" viewBox="0 0 448 512"><!--! Font Awesome Free 6.5.1 by @fontawesome - https://fontawesome.com License - https://fontawesome.com/license/free (Icons: CC BY 4.0, Fonts: SIL OFL 1.1, Code: MIT License) Copyright 2023 Fonticons, Inc. --><path d="M0 160v96C0 379.7 100.3 480 224 480s224-100.3 224-224V160H320v96c0 53-43 96-96 96s-96-43-96-96V160H0zm0-32H128V64c0-17.7-14.3-32-32-32H32C14.3 32 0 46.3 0 64v64zm320 0H448V64c0-17.7-14.3-32-32-32H352c-17.7 0-32 14.3-32 32v64z"/></svg>