<svg xmlns="http://www.w3.org/2000/svg" viewBox="0 0 512 512"><!--! Font Awesome Free 6.4.0 by @fontawesome - https://fontawesome.com License - https://fontawesome.com/license/free (Icons: CC BY 4.0, Fonts: SIL OFL 1.1, Code: MIT License) Copyright 2023 Fonticons, Inc. --><path d="M481 31C445.1-4.8 386.9-4.8 351 31l-15 15L322.9 33C294.8 4.9 249.2 4.9 221.1 33L135 119c-9.4 9.4-9.4 24.6 0 33.9s24.6 9.4 33.9 0L255 66.9c9.4-9.4 24.6-9.4 33.9 0L302.1 80 186.3 195.7 316.3 325.7 481 161c35.9-35.9 35.9-94.1 0-129.9zM293.7 348.3L163.7 218.3 99.5 282.5c-48 48-80.8 109.2-94.1 175.8l-5 25c-1.6 7.9 .9 16 6.6 21.7s13.8 8.1 21.7 6.6l25-5c66.6-13.3 127.8-46.1 175.8-94.1l64.2-64.2z"/></svg>