<svg xmlns="http://www.w3.org/2000/svg" viewBox="0 0 448 512"><!--! Font Awesome Free 6.2.0 by @fontawesome - https://fontawesome.com License - https://fontawesome.com/license/free (Icons: CC BY 4.0, Fonts: SIL OFL 1.1, Code: MIT License) Copyright 2022 Fonticons, Inc. --><path d="M289.8 46.8c3.7-9 12.5-14.8 22.2-14.8H424c13.3 0 24 10.7 24 24V168c0 9.7-5.8 18.5-14.8 22.2s-19.3 1.7-26.2-5.2l-33.4-33.4L321 204.2c19.5 28.4 31 62.7 31 99.8c0 97.2-78.8 176-176 176S0 401.2 0 304s78.8-176 176-176c37 0 71.4 11.4 99.8 31l52.6-52.6L295 73c-6.9-6.9-8.9-17.2-5.2-26.2zM400 80l0 0h0v0zM176 416c61.9 0 112-50.1 112-112s-50.1-112-112-112s-112 50.1-112 112s50.1 112 112 112z"/></svg>