<svg xmlns="http://www.w3.org/2000/svg" viewBox="0 0 512 512"><!--! Font Awesome Free 6.3.0 by @fontawesome - https://fontawesome.com License - https://fontawesome.com/license/free (Icons: CC BY 4.0, Fonts: SIL OFL 1.1, Code: MIT License) Copyright 2023 Fonticons, Inc. --><path d="M321.8 14.8C325.5 5.8 334.3 0 344 0H456c13.3 0 24 10.7 24 24V136c0 9.7-5.8 18.5-14.8 22.2s-19.3 1.7-26.2-5.2l-39-39-24.7 24.7C391 163.3 400 192.6 400 224c0 80.2-59.1 146.7-136.1 158.2c0 .6 .1 1.2 .1 1.8v.4 .4 .4 .4 .4 .4 .4 .4 .4 .4 .4 .4 .4 .4 .4 .4 .4 .4 .4 .4 .4 .4 .4 .4 .4 .4 .4 .4 .4 .4 .3 .4 .3 .3 .3 .3 .3 .3 .3 .3 .3 .3 .3 .3 .3 .3 .3 .3 .3 .3 .3 .3 .3 .3 .3 .3 .3 .3 .3 .3 .3 .3 .3 .3 .3 .3 .3 .3 .3h24c13.3 0 24 10.7 24 24s-10.7 24-24 24H264v.2 .2 .2 .2 .2 .2 .2 .2 .2 .2 .2 .2 .2 .2 .2 .2 .2 .2 .2 .2 .2 .2 .2 .2 .2 .2 .2 .2 .2 .2 .2 .2 .2 .2 .2 .2 .2 .2 .2 .2 .2 .2 .2 .2 .2 .2 .2 .2 .2 .2 .2 .2 .2 .2 .2 .2 .2 .2 .2 .2 .2 .2 .2 .2 .2 .2 .2 .2 .2 .2 .2 .2 .2 .2 .2 .2 .2 .2 .2 .2 .2 .2 .2 .2 .2 .2 .2 .2 .2 .2 .2 .2 .2 .2 .2 .2 .2 .2 .2 .2 .2 .1 .1 .1 .1 .1 .1 .1 .1 .1 .1 .1 .1 .1 .1 .1 .1 .1 .1 .1 .1 .1 .1 .1 .1 .1 .1 .1 .1 .1 .1 .1 .1 .1 .1 .1 .1 .1 .1 .1 .1 .1 .1 .1 .1 .1 .1 .1 .1 .1 .1 .1 .1 .1 .1 .1 .1 .1 .1 .1 .1 .1 .1 .1 .1 .1 .1 .1 .1 .1 .1 .1 .1 .1 .1 .1 .1 .1 .1 .1 .1 .1 .1 .1 .1 .1 .1 .1 .1 .1 .1 .1 .1 .1 .1 .1 .1 .1 .1 .1 .1 .1 .1 .1 .1 .1 .1 .1 .1 .1 .1 .1 .1 .1 .1 .1 .1 .1 0 0 0 0 0 0 0 0 0 0 0 0 0 0 0 0 0 0 0 0 0 0 0 0 0 0 0 0 0 0 0 0 0 0 0 0 0 0 0 0 0 0 0 0 0 0 0 0 0 0 0 0 0l-24 0-24 0v0 0 0 0 0 0 0 0 0 0 0 0 0 0 0 0 0 0 0 0 0 0 0 0 0 0 0 0 0 0 0 0 0 0 0 0 0 0 0 0 0 0 0 0 0 0 0 0 0 0 0 0 0-.1-.1-.1-.1-.1-.1-.1-.1-.1-.1V486 486v-.1-.1-.1-.1-.1-.1-.1-.1-.1-.1-.1-.1-.1V485 485v-.1-.1-.1-.1-.1-.1-.1-.1-.1-.1-.1V484v-.1-.1-.1-.1-.1-.1-.1-.1-.1-.1V483v-.1-.1-.1-.1-.1-.1-.1-.1-.1-.1-.1-.1-.1-.1-.1-.1-.1-.1-.1V481v-.1-.1-.1-.1-.1-.1-.1-.1V480v-.1-.1-.1-.1-.1-.1-.1V479v-.1-.1-.1-.1-.1-.1-.1V478v-.1-.1-.1-.1-.1-.1V477v-.1-.1-.1-.1-.1-.1V476v-.1-.1-.1-.1-.1-.1V475v-.1-.2-.2-.2-.2-.2V474v-.2-.2-.2-.2-.2V473v-.2-.2-.2-.2-.2-.2-.2-.2-.2-.2-.2-.2-.2-.2-.2-.2-.2V470v-.2-.2-.2-.2-.2V469v-.2-.2-.2-.2-.2-.2-.2-.2-.2-.2V467v-.2-.2-.2-.2-.2-.2-.2-.2-.2-.2-.2-.2-.2-.2-.2-.2-.2-.2-.2-.2V463v-.2-.2-.2-.2-.2-.2-.2-.2-.2-.2-.2-.2-.2-.2-.2-.2-.2-.2V459v-.2-.2-.2-.2-.2-.2-.2-.2V457v-.2-.2-.2-.2V456H192c-13.3 0-24-10.7-24-24s10.7-24 24-24h24v-.3-.3-.3-.3-.3-.3-.3-.3-.3-.3-.3-.3-.3-.3V403v-.3-.3V402v-.3-.3V401v-.3-.3V400v-.3-.3-.3-.3-.3-.3-.3-.3-.3-.3-.3-.3-.3-.4-.3-.4-.4-.4-.4V393v-.4-.4-.4-.4-.4-.4-.4-.4-.4-.4-.4-.4-.4V388v-.4-.4-.4-.4-.4-.4-.4-.4-.4-.4V384c0-.6 0-1.2 .1-1.8C139.1 370.7 80 304.2 80 224c0-88.4 71.6-160 160-160c39.6 0 75.9 14.4 103.8 38.2L366.1 80 327 41c-6.9-6.9-8.9-17.2-5.2-26.2zM432 48l0 0h0v0zM240 488h24c0 13.3-10.7 24-24 24s-24-10.7-24-24h24zm96-264a96 96 0 1 0 -192 0 96 96 0 1 0 192 0z"/></svg>