<svg xmlns="http://www.w3.org/2000/svg" viewBox="0 0 640 512"><!--! Font Awesome Free 6.0.0 by @fontawesome - https://fontawesome.com License - https://fontawesome.com/license/free (Icons: CC BY 4.0, Fonts: SIL OFL 1.1, Code: MIT License) Copyright 2022 Fonticons, Inc. --><path d="M320.7 204.3l56.65-56.55l29.61 29.56C422.1 192.5 448 181.7 448 160.4V47.1c0-8.838-7.176-15.1-16.03-15.1H319.4c-21.42 0-32.15 25.85-17 40.97l29.61 29.56L275.4 159.1c-71.21-48.99-170.4-39.96-231.1 27.39c-60.86 67.51-58.65 175 4.748 240.1c68.7 70.57 181.8 71.19 251.3 1.847C361.4 367.5 368 272.9 320.7 204.3zM243.5 371.9c-37.5 37.43-98.51 37.43-136 0s-37.5-98.33 0-135.8c37.5-37.43 98.51-37.43 136 0C281 273.5 281 334.5 243.5 371.9zM623.1 32h-112.6c-21.42 0-32.15 25.85-17 40.97l29.61 29.56L480 146.5v13.91C480 191.3 454.8 216.4 423.8 216.4C421.2 216.4 418.6 216 416 215.6v5.862c6.922 4.049 13.58 8.691 19.51 14.61c37.5 37.43 37.5 98.33 0 135.8c-18.75 18.71-43.38 28.07-68 28.07c-2.277 0-4.523-.4883-6.795-.6484c-9.641 18.69-22.1 36.24-37.64 51.77c-6.059 6.059-12.49 11.53-19.13 16.73C324.4 475.7 345.9 480 367.5 480c45.12 0 90.34-17.18 124.8-51.55c61.11-60.99 67.77-155.6 20.42-224.1l56.65-56.55l29.61 29.56c4.898 4.889 10.92 7.075 16.83 7.075C628.1 184.4 640 174.8 640 160.4V48C640 39.16 632.8 32 623.1 32z"/></svg>