<svg xmlns="http://www.w3.org/2000/svg" viewBox="0 0 640 512"><!--! Font Awesome Free 6.1.1 by @fontawesome - https://fontawesome.com License - https://fontawesome.com/license/free (Icons: CC BY 4.0, Fonts: SIL OFL 1.1, Code: MIT License) Copyright 2022 Fonticons, Inc. --><path d="M206.9 245.1C171 255.6 146.8 286.4 149.3 319.3C160.7 306.5 178.1 295.5 199.3 288.4L206.9 245.1zM95.78 294.9L64.11 115.5C63.74 113.9 64.37 112.9 64.37 112.9c57.75-32.13 123.1-48.99 189-48.99c1.625 0 3.113 .0745 4.738 .0745c13.1-13.5 31.75-22.75 51.62-26c18.87-3 38.12-4.5 57.25-5.25c-9.999-14-24.47-24.27-41.84-27.02c-23.87-3.875-47.9-5.732-71.77-5.732c-76.74 0-152.4 19.45-220.1 57.07C9.021 70.57-3.853 98.5 1.021 126.6L32.77 306c14.25 80.5 136.3 142 204.5 142c3.625 0 6.777-.2979 10.03-.6729c-13.5-17.13-28.1-40.5-39.5-67.63C160.1 366.8 101.7 328 95.78 294.9zM193.4 157.6C192.6 153.4 191.1 149.7 189.3 146.2c-8.249 8.875-20.62 15.75-35.25 18.37c-14.62 2.5-28.75 .376-39.5-5.249c-.5 4-.6249 7.998 .125 12.12c3.75 21.75 24.5 36.24 46.25 32.37C182.6 200.1 197.3 179.3 193.4 157.6zM606.8 121c-88.87-49.38-191.4-67.38-291.9-51.38C287.5 73.1 265.8 95.85 260.8 123.1L229 303.5c-15.37 87.13 95.33 196.3 158.3 207.3c62.1 11.13 204.5-53.68 219.9-140.8l31.75-179.5C643.9 162.3 631 134.4 606.8 121zM333.5 217.8c3.875-21.75 24.62-36.25 46.37-32.37c21.75 3.75 36.25 24.49 32.5 46.12c-.7499 4.125-2.25 7.873-4.125 11.5c-8.249-9-20.62-15.75-35.25-18.37c-14.75-2.625-28.75-.3759-39.5 5.124C332.1 225.9 332.9 221.9 333.5 217.8zM403.1 416.5c-55.62-9.875-93.49-59.23-88.99-112.1c20.62 25.63 56.25 46.24 99.49 53.87c43.25 7.625 83.74 .3781 111.9-16.62C512.2 392.7 459.7 426.3 403.1 416.5zM534.4 265.2c-8.249-8.875-20.75-15.75-35.37-18.37c-14.62-2.5-28.62-.3759-39.5 5.249c-.5-4-.625-7.998 .125-12.12c3.875-21.75 24.62-36.25 46.37-32.37c21.75 3.875 36.25 24.49 32.37 46.24C537.6 257.9 536.1 261.7 534.4 265.2z"/></svg>