<svg xmlns="http://www.w3.org/2000/svg" viewBox="0 0 448 512"><!--! Font Awesome Free 6.1.0 by @fontawesome - https://fontawesome.com License - https://fontawesome.com/license/free (Icons: CC BY 4.0, Fonts: SIL OFL 1.1, Code: MIT License) Copyright 2022 Fonticons, Inc. --><path d="M447.1 319.1v135.1c0 13.26-10.75 23.1-23.1 23.1h-135.1c-12.94 0-24.61-7.781-29.56-19.75c-4.906-11.1-2.203-25.72 6.937-34.87l30.06-30.06L224 323.9l-71.43 71.44l30.06 30.06c9.156 9.156 11.91 22.91 6.937 34.87C184.6 472.2 172.9 479.1 160 479.1H24c-13.25 0-23.1-10.74-23.1-23.1v-135.1c0-12.94 7.781-24.61 19.75-29.56C23.72 288.8 27.88 288 32 288c8.312 0 16.5 3.242 22.63 9.367l30.06 30.06l71.44-71.44L84.69 184.6L54.63 214.6c-9.156 9.156-22.91 11.91-34.87 6.937C7.798 216.6 .0013 204.9 .0013 191.1v-135.1c0-13.26 10.75-23.1 23.1-23.1h135.1c12.94 0 24.61 7.781 29.56 19.75C191.2 55.72 191.1 59.87 191.1 63.1c0 8.312-3.237 16.5-9.362 22.63L152.6 116.7l71.44 71.44l71.43-71.44l-30.06-30.06c-9.156-9.156-11.91-22.91-6.937-34.87c4.937-11.95 16.62-19.75 29.56-19.75h135.1c13.26 0 23.1 10.75 23.1 23.1v135.1c0 12.94-7.781 24.61-19.75 29.56c-11.1 4.906-25.72 2.203-34.87-6.937l-30.06-30.06l-71.43 71.43l71.44 71.44l30.06-30.06c9.156-9.156 22.91-11.91 34.87-6.937C440.2 295.4 447.1 307.1 447.1 319.1z"/></svg>