<svg xmlns="http://www.w3.org/2000/svg" viewBox="0 0 512 512"><!--! Font Awesome Free 6.1.0 by @fontawesome - https://fontawesome.com License - https://fontawesome.com/license/free (Icons: CC BY 4.0, Fonts: SIL OFL 1.1, Code: MIT License) Copyright 2022 Fonticons, Inc. --><path d="M511.4 20.72c-11.63 38.75-34.38 111.8-61.38 187.8c7 2.125 13.38 4 18.63 5.625c4.625 1.375 8.375 4.751 10.13 9.127c1.875 4.5 1.625 9.501-.625 13.75c-22.13 42.25-82.63 152.8-142.5 214.4c-1 1.125-2.001 2.5-3.001 3.5c-76 76.13-199.4 76.13-275.5 .125c-76.13-76.13-76.13-199.5 0-275.7c1-1 2.375-2 3.5-3C122.1 116.5 232.5 55.97 274.1 33.84c4.25-2.25 9.25-2.5 13.63-.625c4.5 1.875 7.875 5.626 9.25 10.13c1.625 5.125 3.5 11.63 5.625 18.63c75.88-27 148.9-49.75 187.6-61.25c5.75-1.75 11.88-.2503 16.13 4C511.5 8.844 512.1 15.09 511.4 20.72zM319.1 319.1c0-70.63-57.38-128-128-128c-70.75 0-128 57.38-128 128c0 70.76 57.25 128 128 128C262.6 448 319.1 390.8 319.1 319.1zM191.1 287.1c0 17.63-14.37 32-32 32c-17.75 0-32-14.38-32-32s14.25-32 32-32c8.5 0 16.63 3.375 22.63 9.375S191.1 279.5 191.1 287.1zM223.9 367.1c0 8.876-7.224 16-15.97 16c-8.875 0-16-7.127-16-16c0-8.876 7.1-16 15.98-16C216.7 351.1 223.9 359.1 223.9 367.1z"/></svg>