<svg xmlns="http://www.w3.org/2000/svg" viewBox="0 0 384 512"><!--! Font Awesome Free 6.2.0 by @fontawesome - https://fontawesome.com License - https://fontawesome.com/license/free (Icons: CC BY 4.0, Fonts: SIL OFL 1.1, Code: MIT License) Copyright 2022 Fonticons, Inc. --><path d="M0 448c0 17.7 14.3 32 32 32s32-14.3 32-32H0zM32 64L56.6 43.5C48 33.2 33.8 29.3 21.1 33.9S0 50.5 0 64l32 0zM352 448l-24.6 20.5c8.6 10.3 22.8 14.2 35.5 9.6s21.1-16.6 21.1-30.1H352zM384 64c0-17.7-14.3-32-32-32s-32 14.3-32 32h64zM64 448V64H0V448H64zM7.4 84.5l320 384 49.2-41-320-384L7.4 84.5zM384 448V64H320V448h64z"/></svg>