<svg xmlns="http://www.w3.org/2000/svg" viewBox="0 0 512 512"><!--! Font Awesome Free 6.2.0 by @fontawesome - https://fontawesome.com License - https://fontawesome.com/license/free (Icons: CC BY 4.0, Fonts: SIL OFL 1.1, Code: MIT License) Copyright 2022 Fonticons, Inc. --><path d="M379.3 4.7c-6.2-6.2-16.4-6.2-22.6 0l-16 16c-6.2 6.2-6.2 16.4 0 22.6l16 16c6.2 6.2 16.4 6.2 22.6 0l16-16c6.2-6.2 6.2-16.4 0-22.6l-16-16zM115.2 169.6c8-6 17.9-9.6 28.8-9.6c26.5 0 48 21.5 48 48s-21.5 48-48 48H109.8c-7.6 0-13.8 6.2-13.8 13.8c0 1.5 .2 2.9 .7 4.4l8 24c4.4 13.1 16.6 21.9 30.4 21.9H144h16c35.3 0 64 28.7 64 64s-28.7 64-64 64c-50.8 0-82.7-21.5-102.2-42.8c-9.9-10.8-16.6-21.6-20.9-29.7c-2.1-4-3.6-7.3-4.5-9.6c-.5-1.1-.8-2-1-2.5l-.2-.5 0-.1c-2.6-7.8-10.7-12.3-18.7-10.5C4.4 354.2-.9 361.8 .1 370L16 368C.1 370 .1 370 .1 370l0 0 0 0 0 .1 .1 .4c0 .3 .1 .8 .2 1.3c.2 1.1 .4 2.7 .8 4.6c.8 3.9 2 9.4 3.9 15.9c3.8 13 10.3 30.4 21.3 48C48.7 476.2 89.4 512 160 512c70.7 0 128-57.3 128-128c0-23.3-6.2-45.2-17.1-64h22.6c25.5 0 49.9-10.1 67.9-28.1l26.5-26.5c6-6 14.1-9.4 22.6-9.4H416c17.7 0 32 14.3 32 32v96c0 17.7-14.3 32-32 32c-25.7 0-41.4-12.5-51.2-25.6c-5-6.7-8.4-13.4-10.5-18.6c-1.1-2.5-1.8-4.6-2.2-6c-.2-.7-.4-1.2-.5-1.5l-.1-.3 0 0c0 0 0 0 0 0c-1.9-7.3-8.6-12.4-16.2-12.1c-7.6 .3-13.9 5.9-15.1 13.4L336 368c-15.8-2.6-15.8-2.6-15.8-2.6l0 0 0 0 0 .1-.1 .3c0 .3-.1 .6-.2 1.1c-.1 .9-.3 2.1-.4 3.6c-.3 3-.6 7.3-.6 12.4c0 10.1 1.1 23.9 5.8 38.1c4.8 14.3 13.4 29.3 28.6 40.7C368.7 473.3 389.3 480 416 480c53 0 96-43 96-96V288c0-53-43-96-96-96h-5.5c-25.5 0-49.9 10.1-67.9 28.1l-26.5 26.5c-6 6-14.1 9.4-22.6 9.4H245.2c6.9-14.5 10.8-30.8 10.8-48c0-61.9-50.1-112-112-112c-25.2 0-48.5 8.3-67.2 22.4c-14.1 10.6-17 30.7-6.4 44.8s30.7 17 44.8 6.4zM280.9 66.7c-6-4-14-3.5-19.5 1.3s-7 12.7-3.7 19.2L272 80c-14.3 7.2-14.3 7.2-14.3 7.2l0 0 0 0 0 .1 .1 .2 .4 .7c.3 .6 .8 1.4 1.4 2.4c1.2 2 2.9 4.8 5.1 8.2c4.4 6.7 11.1 15.5 20 24.4C302.4 141.1 330.3 160 368 160c31.2 0 56.6-10.4 73.9-20.2c8.7-5 15.6-9.9 20.4-13.8c2.4-1.9 4.3-3.6 5.7-4.9c.7-.6 1.3-1.2 1.7-1.6l.6-.5 .2-.2 .1-.1 0 0 0 0c0 0 0 0-22.6-22.6l22.6 22.6c12.5-12.5 12.5-32.8 0-45.3c-12.4-12.4-32.6-12.5-45.1-.2c-.1 .1-.2 .2-.5 .4c-.5 .5-1.5 1.3-2.8 2.4c-2.7 2.2-6.8 5.2-12.1 8.2C399.4 90.4 384.8 96 368 96c-20.8 0-42.4-7-59.5-14.6c-8.4-3.7-15.4-7.5-20.3-10.3c-2.4-1.4-4.3-2.5-5.6-3.3c-.6-.4-1.1-.7-1.4-.9l-.3-.2 0 0 0 0 0 0z"/></svg>