<svg xmlns="http://www.w3.org/2000/svg" viewBox="0 0 576 512"><!--! Font Awesome Free 6.2.0 by @fontawesome - https://fontawesome.com License - https://fontawesome.com/license/free (Icons: CC BY 4.0, Fonts: SIL OFL 1.1, Code: MIT License) Copyright 2022 Fonticons, Inc. --><path d="M371.3 367.1c27.3-3.9 51.9-19.4 67.2-42.9L600.2 74.1c12.6-19.5 9.4-45.3-7.6-61.2S549.7-4.4 531.1 9.6L294.4 187.2c-24 18-38.2 46.1-38.4 76.1L371.3 367.1zm-19.6 25.4l-116-104.4C175.9 290.3 128 339.6 128 400c0 3.9 .2 7.8 .6 11.6c1.8 17.5-10.2 36.4-27.8 36.4H96c-17.7 0-32 14.3-32 32s14.3 32 32 32H240c61.9 0 112-50.1 112-112c0-2.5-.1-5-.2-7.5z"/></svg>