<svg xmlns="http://www.w3.org/2000/svg" viewBox="0 0 448 512"><!--! Font Awesome Free 6.3.0 by @fontawesome - https://fontawesome.com License - https://fontawesome.com/license/free (Icons: CC BY 4.0, Fonts: SIL OFL 1.1, Code: MIT License) Copyright 2023 Fonticons, Inc. --><path d="M0 64C0 28.7 28.7 0 64 0H384c35.3 0 64 28.7 64 64V448c0 35.3-28.7 64-64 64H64c-35.3 0-64-28.7-64-64V64zM183 278.8c-27.9-13.2-48.4-39.4-53.7-70.8h39.1c1.6 30.4 7.7 53.8 14.6 70.8zm41.3 9.2l-.3 0-.3 0c-2.4-3.5-5.7-8.9-9.1-16.5c-6-13.6-12.4-34.3-14.2-63.5h47.1c-1.8 29.2-8.1 49.9-14.2 63.5c-3.4 7.6-6.7 13-9.1 16.5zm40.7-9.2c6.8-17.1 12.9-40.4 14.6-70.8h39.1c-5.3 31.4-25.8 57.6-53.7 70.8zM279.6 176c-1.6-30.4-7.7-53.8-14.6-70.8c27.9 13.2 48.4 39.4 53.7 70.8H279.6zM223.7 96l.3 0 .3 0c2.4 3.5 5.7 8.9 9.1 16.5c6 13.6 12.4 34.3 14.2 63.5H200.5c1.8-29.2 8.1-49.9 14.2-63.5c3.4-7.6 6.7-13 9.1-16.5zM183 105.2c-6.8 17.1-12.9 40.4-14.6 70.8H129.3c5.3-31.4 25.8-57.6 53.7-70.8zM352 192A128 128 0 1 0 96 192a128 128 0 1 0 256 0zM112 384c-8.8 0-16 7.2-16 16s7.2 16 16 16H336c8.8 0 16-7.2 16-16s-7.2-16-16-16H112z"/></svg>