<svg xmlns="http://www.w3.org/2000/svg" viewBox="0 0 448 512"><!--! Font Awesome Free 6.1.2 by @fontawesome - https://fontawesome.com License - https://fontawesome.com/license/free (Icons: CC BY 4.0, Fonts: SIL OFL 1.1, Code: MIT License) Copyright 2022 Fonticons, Inc. --><path d="M399.1 0c-26.5 0-48.01 21.5-48.01 48S373.5 96 399.1 96C426.5 96 448 74.5 448 48S426.5 0 399.1 0zM399.1 448c-8.751 0-16 7.25-16 16S376.7 480 367.1 480h-96.01c-8.751 0-16 7.25-16 16s7.251 16 16 16h96.01c26.5 0 48.01-21.5 48.01-48C415.1 455.2 408.7 448 399.1 448zM129.1 451.9c-11.34 0-11.19 9.36-22.65 9.36c-4.074 0-8.163-1.516-11.21-4.625l-67.98-67.89c-3.063-3.125-7.165-4.688-11.27-4.688c-4.102 0-8.204 1.562-11.27 4.688C1.562 391.8-.0001 395.9-.0001 400s1.562 8.203 4.688 11.27l67.88 67.98c9.376 9.375 21.59 14 33.96 14c13.23 0 38.57-8.992 38.57-25.36C145.1 456.7 135.2 451.9 129.1 451.9zM173.8 276.8L80.2 370.5c-6.251 6.25-9.376 14.44-9.376 22.62c0 24.75 22.57 32 31.88 32c8.251 0 16.5-3.125 22.63-9.375l91.89-92l-30.13-30.12C182.1 288.6 177.7 282.9 173.8 276.8zM127.1 160h105.5L213.3 177.3c-21.18 18.04-22.31 41.73-22.31 48.65c0 16.93 6.8 33.22 18.68 45.1l78.26 78.25V432c0 17.75 14.25 32 32 32s32-14.25 32-32v-89.38c0-12.62-5.126-25-14.13-33.88l-61.01-61c.5001-.5 1.25-.625 1.75-1.125l82.26-82.38c7.703-7.702 11.76-17.87 11.76-28.25c0-22.04-17.86-39.97-40.01-39.97L127.1 96C110.2 96 95.96 110.2 95.96 128S110.2 160 127.1 160z"/></svg>