<svg xmlns="http://www.w3.org/2000/svg" viewBox="0 0 512 512"><!--! Font Awesome Free 6.2.1 by @fontawesome - https://fontawesome.com License - https://fontawesome.com/license/free (Icons: CC BY 4.0, Fonts: SIL OFL 1.1, Code: MIT License) Copyright 2022 Fonticons, Inc. --><path d="M256 160c-44.2 0-80-35.8-80-80s35.8-80 80-80s80 35.8 80 80s-35.8 80-80 80zM468.8 382.8L405.5 462c-16.6 20.7-46.8 24.1-67.5 7.5c-17.6-14.1-22.7-38.1-13.5-57.7l-.7-.1c-38.9-5.6-74.3-25.1-99.7-54.8V320c0-17.7-14.3-32-32-32s-32 14.3-32 32v48c0 .8 0 1.6 .1 2.4l101.4 50.7c23.7 11.9 33.3 40.7 21.5 64.4s-40.7 33.3-64.4 21.5L59.2 427.3c-1.1-.5-2.2-1.1-3.3-1.7c-4.9-2.8-9.2-6.4-12.6-10.6c-4.6-5.4-7.8-11.7-9.6-18.4c-3.3-12-1.9-25.2 4.8-36.6c.6-1.1 1.3-2.2 2-3.2l67.1-100.6c26.7-40.1 71.7-64.1 119.8-64.1h75.2c46.5 0 90.1 22.5 117.2 60.3l50.7 70.9c2.2 3 4 6.1 5.5 9.4c2.9 6.7 4.3 13.8 4 20.8c-.3 10.6-4.2 21-11.2 29.4zM352 332c0-24.3-19.7-44-44-44s-44 19.7-44 44s19.7 44 44 44s44-19.7 44-44z"/></svg>