<svg xmlns="http://www.w3.org/2000/svg" viewBox="0 0 640 512"><!--! Font Awesome Free 6.1.1 by @fontawesome - https://fontawesome.com License - https://fontawesome.com/license/free (Icons: CC BY 4.0, Fonts: SIL OFL 1.1, Code: MIT License) Copyright 2022 Fonticons, Inc. --><path d="M527.1 48C527.1 74.51 506.5 96 479.1 96C453.5 96 431.1 74.51 431.1 48C431.1 21.49 453.5 0 479.1 0C506.5 0 527.1 21.49 527.1 48zM375 362.9L413.3 248.1L379.4 304.5C370.3 319.6 350.7 324.5 335.5 315.4C320.4 306.3 315.5 286.7 324.6 271.5L378.2 182.3C398.4 148.6 434.9 128 474.2 128H485.8C525.1 128 561.6 148.6 581.8 182.3L635.4 271.5C644.5 286.7 639.6 306.3 624.5 315.4C609.3 324.5 589.7 319.6 580.6 304.5L546.7 248.1L584.1 362.9C588.4 373.3 580.7 384 569.8 384H551.1V480C551.1 497.7 537.7 512 519.1 512C502.3 512 487.1 497.7 487.1 480V384H471.1V480C471.1 497.7 457.7 512 439.1 512C422.3 512 407.1 497.7 407.1 480V384H390.2C379.3 384 371.6 373.3 375 362.9L375 362.9zM220.3 92.05L296.4 68.93C302.7 67.03 309.5 69.14 313.6 74.27C317.7 79.39 318.2 86.49 314.1 92.18L275.5 161.3L330.7 199.3L306.3 239.8L255.8 247.6L261.4 327C261.8 333.6 258.3 339.7 252.4 342.6C246.5 345.4 239.4 344.4 234.6 339.9L175.1 286.1L117.4 339.9C112.6 344.4 105.5 345.4 99.63 342.6C93.73 339.7 90.15 333.6 90.62 327L96.21 247.6L17.55 235.4C11.08 234.4 5.868 229.6 4.41 223.2C2.951 216.8 5.538 210.1 10.94 206.4L76.5 161.3L37.01 92.18C33.76 86.49 34.31 79.39 38.39 74.27C42.48 69.14 49.28 67.03 55.55 68.93L131.7 92.05L161.1 18.09C163.6 11.1 169.4 7.1 175.1 7.1C182.6 7.1 188.4 11.1 190.9 18.09L220.3 92.05z"/></svg>