<svg xmlns="http://www.w3.org/2000/svg" viewBox="0 0 512 512"><!--! Font Awesome Free 6.1.2 by @fontawesome - https://fontawesome.com License - https://fontawesome.com/license/free (Icons: CC BY 4.0, Fonts: SIL OFL 1.1, Code: MIT License) Copyright 2022 Fonticons, Inc. --><path d="M366.7 1.443C376 .6658 384 8.027 384 17.39V47.1C384 56.84 376.8 63.1 368 63.1H216.1C203.2 63.1 192 52.81 192 39C192 25.1 201.1 15.17 214.9 14.09L366.7 1.443zM208 111.1C208 106.5 208.6 101.2 209.6 95.1H366.4C367.5 101.2 368 106.5 368 111.1C368 156.2 332.2 191.1 288 191.1C243.8 191.1 208 156.2 208 111.1V111.1zM313.2 223.1C327.6 223.1 341.6 226.3 354.9 230.5L192 393.4V303.1H40.01C17.92 303.1 .0077 286.1 .0077 263.1C.0077 241.9 17.92 223.1 40.01 223.1H313.2zM430.3 290.8L506.4 419.7C517.7 438.7 511.4 463.2 492.4 474.4C473.3 485.7 448.8 479.4 437.6 460.3L384 369.7V416H214.6L385.7 244.9C403.7 256.3 419.1 271.9 430.3 290.8V290.8zM384 448V480C384 497.7 369.7 512 352 512H224C206.3 512 192 497.7 192 480V448H384z"/></svg>