<svg xmlns="http://www.w3.org/2000/svg" viewBox="0 0 576 512"><!--! Font Awesome Free 6.4.2 by @fontawesome - https://fontawesome.com License - https://fontawesome.com/license/free (Icons: CC BY 4.0, Fonts: SIL OFL 1.1, Code: MIT License) Copyright 2023 Fonticons, Inc. --><path d="M246.9 14.1C234 15.2 224 26 224 39c0 13.8 11.2 25 25 25H400c8.8 0 16-7.2 16-16V17.4C416 8 408 .7 398.7 1.4L246.9 14.1zM240 112c0 44.2 35.8 80 80 80s80-35.8 80-80c0-5.5-.6-10.8-1.6-16H241.6c-1 5.2-1.6 10.5-1.6 16zM72 224c-22.1 0-40 17.9-40 40s17.9 40 40 40H224v89.4L386.8 230.5c-13.3-4.3-27.3-6.5-41.6-6.5H240 72zm345.7 20.9L246.6 416H416V369.7l53.6 90.6c11.2 19 35.8 25.3 54.8 14.1s25.3-35.8 14.1-54.8L462.3 290.8c-11.2-18.9-26.6-34.5-44.6-45.9zM224 448v32c0 17.7 14.3 32 32 32H384c17.7 0 32-14.3 32-32V448H224z"/></svg>