<svg xmlns="http://www.w3.org/2000/svg" viewBox="0 0 576 512"><!--! Font Awesome Free 6.2.0 by @fontawesome - https://fontawesome.com License - https://fontawesome.com/license/free (Icons: CC BY 4.0, Fonts: SIL OFL 1.1, Code: MIT License) Copyright 2022 Fonticons, Inc. --><path d="M192 64c0-17.7-14.3-32-32-32s-32 14.3-32 32V96.2c0 54.1 23.5 104 62.2 138.3l-21 146.7c7.8 2.1 15.5 3.3 22.8 3.3c21.1 0 42-8.5 59.2-20.3c22.1-15.5 51.6-15.5 73.7 0c12.4 8.5 26.1 14.8 39.7 18l17.7-97.6c10.7-1.2 21.3-3.1 31.9-5.5l105-23.9c17.2-3.9 28-21.1 24.1-38.3s-21.1-28-38.3-24.1L400 216.6c-41 9.3-83.7 7.5-123.7-5.2c-50.2-16-84.3-62.6-84.3-115.3V64zM320 192c35.3 0 64-28.7 64-64s-28.7-64-64-64s-64 28.7-64 64s28.7 64 64 64zM306.5 389.9c-11.1-7.9-25.9-7.9-37 0C247 405.4 219.5 416 192 416c-26.9 0-55.3-10.8-77.4-26.1l0 0c-11.9-8.5-28.1-7.8-39.2 1.7c-14.4 11.9-32.5 21-50.6 25.2c-17.2 4-27.9 21.2-23.9 38.4s21.2 27.9 38.4 23.9c24.5-5.7 44.9-16.5 58.2-25C126.5 469.7 159 480 192 480c31.9 0 60.6-9.9 80.4-18.9c5.8-2.7 11.1-5.3 15.6-7.7c4.5 2.4 9.7 5.1 15.6 7.7c19.8 9 48.6 18.9 80.4 18.9c33 0 65.5-10.3 94.5-25.8c13.4 8.4 33.7 19.3 58.2 25c17.2 4 34.4-6.7 38.4-23.9s-6.7-34.4-23.9-38.4c-18.1-4.2-36.2-13.3-50.6-25.2c-11.1-9.4-27.3-10.1-39.2-1.7l0 0C439.4 405.2 410.9 416 384 416c-27.5 0-55-10.6-77.5-26.1z"/></svg>