<svg xmlns="http://www.w3.org/2000/svg" viewBox="0 0 640 512"><!--! Font Awesome Free 6.2.0 by @fontawesome - https://fontawesome.com License - https://fontawesome.com/license/free (Icons: CC BY 4.0, Fonts: SIL OFL 1.1, Code: MIT License) Copyright 2022 Fonticons, Inc. --><path d="M400 96c26.5 0 48-21.5 48-48s-21.5-48-48-48s-48 21.5-48 48s21.5 48 48 48zm27.2 64l-61.8-48.8c-17.3-13.6-41.7-13.8-59.1-.3l-83.1 64.2c-30.7 23.8-28.5 70.8 4.3 91.6L288 305.1V416c0 17.7 14.3 32 32 32s32-14.3 32-32V288c0-10.7-5.3-20.7-14.2-26.6L295 232.9l60.3-48.5L396 217c5.7 4.5 12.7 7 20 7h64c17.7 0 32-14.3 32-32s-14.3-32-32-32H427.2zM200 384c0 39.8-32.2 72-72 72s-72-32.2-72-72s32.2-72 72-72s72 32.2 72 72zm56 0c0-70.7-57.3-128-128-128S0 313.3 0 384s57.3 128 128 128s128-57.3 128-128zm328 0c0 39.8-32.2 72-72 72s-72-32.2-72-72s32.2-72 72-72s72 32.2 72 72zm56 0c0-70.7-57.3-128-128-128s-128 57.3-128 128s57.3 128 128 128s128-57.3 128-128z"/></svg>