<svg xmlns="http://www.w3.org/2000/svg" viewBox="0 0 576 512"><!--! Font Awesome Free 6.2.1 by @fontawesome - https://fontawesome.com License - https://fontawesome.com/license/free (Icons: CC BY 4.0, Fonts: SIL OFL 1.1, Code: MIT License) Copyright 2022 Fonticons, Inc. --><path d="M208 48c0 26.5-21.5 48-48 48s-48-21.5-48-48s21.5-48 48-48s48 21.5 48 48zM152 352V480c0 17.7-14.3 32-32 32s-32-14.3-32-32V256.9L59.4 304.5c-9.1 15.1-28.8 20-43.9 10.9s-20-28.8-10.9-43.9l58.3-97c17.4-28.9 48.6-46.6 82.3-46.6h29.7c33.7 0 64.9 17.7 82.3 46.6l44.9 74.7c-16.1 17.6-28.6 38.5-36.6 61.5c-1.9-1.8-3.5-3.9-4.9-6.3L232 256.9V480c0 17.7-14.3 32-32 32s-32-14.3-32-32V352H152zM432 512c-79.5 0-144-64.5-144-144s64.5-144 144-144s144 64.5 144 144s-64.5 144-144 144zm0-48c13.3 0 24-10.7 24-24s-10.7-24-24-24s-24 10.7-24 24s10.7 24 24 24zM368 321.6V328c0 8.8 7.2 16 16 16s16-7.2 16-16v-6.4c0-5.3 4.3-9.6 9.6-9.6h40.5c7.7 0 13.9 6.2 13.9 13.9c0 5.2-2.9 9.9-7.4 12.3l-32 16.8c-5.3 2.8-8.6 8.2-8.6 14.2V384c0 8.8 7.2 16 16 16s16-7.2 16-16v-5.1l23.5-12.3c15.1-7.9 24.5-23.6 24.5-40.6c0-25.4-20.6-45.9-45.9-45.9H409.6c-23 0-41.6 18.6-41.6 41.6z"/></svg>