<svg xmlns="http://www.w3.org/2000/svg" viewBox="0 0 384 512"><!--! Font Awesome Free 6.4.0 by @fontawesome - https://fontawesome.com License - https://fontawesome.com/license/free (Icons: CC BY 4.0, Fonts: SIL OFL 1.1, Code: MIT License) Copyright 2023 Fonticons, Inc. --><path d="M64 32C46.3 32 32 46.3 32 64v96c-17.7 0-32 14.3-32 32s14.3 32 32 32l0 96V448c0 17.7 14.3 32 32 32s32-14.3 32-32V352h96c77.4 0 142-55 156.8-128H352c17.7 0 32-14.3 32-32s-14.3-32-32-32h-3.2C334 87 269.4 32 192 32H64zM282.5 160H96V96h96c41.8 0 77.4 26.7 90.5 64zM96 224H282.5c-13.2 37.3-48.7 64-90.5 64H96V224z"/></svg>