<svg xmlns="http://www.w3.org/2000/svg" viewBox="0 0 512 512"><!--! Font Awesome Free 6.5.1 by @fontawesome - https://fontawesome.com License - https://fontawesome.com/license/free (Icons: CC BY 4.0, Fonts: SIL OFL 1.1, Code: MIT License) Copyright 2023 Fonticons, Inc. --><path d="M288 120c0-30.9 25.1-56 56-56s56 25.1 56 56v13c-29.3 10-48 34.5-48 70.1c0 27.9 25.3 74.8 66 111.6c3.8 3.5 8.9 5.3 14 5.3s10.2-1.8 14-5.3c40.7-36.8 66-83.7 66-111.6c0-35.6-18.7-60.2-48-70.1V120C464 53.7 410.3 0 344 0S224 53.7 224 120v21.8C207.3 133 188.2 128 168 128c-66.3 0-120 53.7-120 120v13c-29.3 10-48 34.5-48 70.1C0 359 25.3 405.9 66 442.7c3.8 3.5 8.9 5.3 14 5.3s10.2-1.8 14-5.3c40.7-36.8 66-83.7 66-111.6c0-35.6-18.7-60.2-48-70.1V248c0-30.9 25.1-56 56-56s56 25.1 56 56v32V480c0 17.7 14.3 32 32 32s32-14.3 32-32V280 248 120z"/></svg>