<svg xmlns="http://www.w3.org/2000/svg" viewBox="0 0 448 512"><!--! Font Awesome Free 6.1.1 by @fontawesome - https://fontawesome.com License - https://fontawesome.com/license/free (Icons: CC BY 4.0, Fonts: SIL OFL 1.1, Code: MIT License) Copyright 2022 Fonticons, Inc. --><path d="M304 368H248.3l38.45-89.7c2.938-6.859 .7187-14.84-5.312-19.23c-6.096-4.422-14.35-4.031-19.94 .8906l-128 111.1c-5.033 4.391-6.783 11.44-4.439 17.67c2.346 6.25 8.314 10.38 14.97 10.38H199.7l-38.45 89.7c-2.938 6.859-.7187 14.84 5.312 19.23C169.4 510.1 172.7 512 175.1 512c3.781 0 7.531-1.328 10.53-3.953l128-111.1c5.033-4.391 6.783-11.44 4.439-17.67C316.6 372.1 310.7 368 304 368zM373.3 226.6C379.9 216.6 384 204.9 384 192c0-35.38-28.62-64-64-64h-5.875C317.8 118 320 107.3 320 96c0-53-43-96-96-96C218.9 0 213.9 .75 208.9 1.5C218.3 14.62 224 30.62 224 48C224 92.13 188.1 128 144 128H128C92.63 128 64 156.6 64 192c0 12.88 4.117 24.58 10.72 34.55C31.98 236.3 0 274.3 0 320c0 53.02 42.98 96 96 96h12.79c-4.033-4.414-7.543-9.318-9.711-15.1c-7.01-18.64-1.645-39.96 13.32-53.02l127.9-111.9C249.1 228.2 260.3 223.1 271.1 224c10.19 0 19.95 3.174 28.26 9.203c18.23 13.27 24.76 36.1 15.89 57.71l-19.33 45.1h7.195c19.89 0 37.95 12.51 44.92 31.11C355.3 384 351 402.8 339.1 416H352c53.02 0 96-42.98 96-96C448 274.3 416 236.3 373.3 226.6z"/></svg>