<svg xmlns="http://www.w3.org/2000/svg" viewBox="0 0 512 512"><!--! Font Awesome Free 6.2.0 by @fontawesome - https://fontawesome.com License - https://fontawesome.com/license/free (Icons: CC BY 4.0, Fonts: SIL OFL 1.1, Code: MIT License) Copyright 2022 Fonticons, Inc. --><path d="M268.9 .9c-5.5-.7-11 1.4-14.5 5.7s-4.6 10.1-2.8 15.4c2.8 8.2 4.3 16.9 4.3 26.1c0 44.1-35.7 79.9-79.8 80H160c-35.3 0-64 28.7-64 64c0 19.1 8.4 36.3 21.7 48H104c-39.8 0-72 32.2-72 72c0 23.2 11 43.8 28 57c-34.1 5.7-60 35.3-60 71c0 39.8 32.2 72 72 72H440c39.8 0 72-32.2 72-72c0-35.7-25.9-65.3-60-71c17-13.2 28-33.8 28-57c0-39.8-32.2-72-72-72H394.3c13.3-11.7 21.7-28.9 21.7-48c0-35.3-28.7-64-64-64h-5.5c3.5-10 5.5-20.8 5.5-32c0-48.6-36.2-88.8-83.1-95.1zM192 320c-17.7 0-32-14.3-32-32s14.3-32 32-32s32 14.3 32 32s-14.3 32-32 32zm160-32c0 17.7-14.3 32-32 32s-32-14.3-32-32s14.3-32 32-32s32 14.3 32 32zm0 108.3c0 2.4-.7 4.8-2.2 6.7c-8.2 10.5-39.5 45-93.8 45s-85.6-34.6-93.8-45c-1.5-1.9-2.2-4.3-2.2-6.7c0-6.8 5.5-12.3 12.3-12.3H339.7c6.8 0 12.3 5.5 12.3 12.3z"/></svg>