<svg xmlns="http://www.w3.org/2000/svg" viewBox="0 0 448 512"><!--! Font Awesome Free 6.1.1 by @fontawesome - https://fontawesome.com License - https://fontawesome.com/license/free (Icons: CC BY 4.0, Fonts: SIL OFL 1.1, Code: MIT License) Copyright 2022 Fonticons, Inc. --><path d="M393.1 402.5c34.12-39.32 54.93-90.48 54.93-146.5c0-123.5-100.5-224-223.1-224S.0001 132.5 .0001 256s100.5 224 223.1 224c44.45 0 85.81-13.16 120.7-35.58l46.73 56.08c6.328 7.594 15.42 11.52 24.59 11.52c21.35 0 31.98-18.26 31.98-32.01c0-7.223-2.433-14.49-7.419-20.47L393.1 402.5zM224 416c-88.22 0-160-71.78-160-160s71.78-159.1 160-159.1s160 71.78 160 159.1c0 36.21-12.55 69.28-32.92 96.12L280.6 267.5c-6.338-7.597-15.44-11.53-24.61-11.53c-21.27 0-31.96 18.22-31.96 32.02c0 7.223 2.433 14.49 7.419 20.47l71.53 85.83C279.6 407.7 252.8 416 224 416z"/></svg>