<svg xmlns="http://www.w3.org/2000/svg" viewBox="0 0 448 512"><!--! Font Awesome Free 6.3.0 by @fontawesome - https://fontawesome.com License - https://fontawesome.com/license/free (Icons: CC BY 4.0, Fonts: SIL OFL 1.1, Code: MIT License) Copyright 2023 Fonticons, Inc. --><path d="M64 256c0 88.4 71.6 160 160 160c28.9 0 56-7.7 79.4-21.1l-72-86.4c-11.3-13.6-9.5-33.8 4.1-45.1s33.8-9.5 45.1 4.1l70.9 85.1C371.9 325.8 384 292.3 384 256c0-88.4-71.6-160-160-160S64 167.6 64 256zM344.9 444.6C310 467 268.5 480 224 480C100.3 480 0 379.7 0 256S100.3 32 224 32s224 100.3 224 224c0 56.1-20.6 107.4-54.7 146.7l47.3 56.8c11.3 13.6 9.5 33.8-4.1 45.1s-33.8 9.5-45.1-4.1l-46.6-55.9z"/></svg>