<svg xmlns="http://www.w3.org/2000/svg" viewBox="0 0 640 512"><!--! Font Awesome Free 6.5.1 by @fontawesome - https://fontawesome.com License - https://fontawesome.com/license/free (Icons: CC BY 4.0, Fonts: SIL OFL 1.1, Code: MIT License) Copyright 2023 Fonticons, Inc. --><path d="M288 32H213.2c-27.1 0-51.3 17.1-60.3 42.6L35.1 407.2c-2.1 5.9-3.1 12-3.1 18.2C32 455.5 56.5 480 86.6 480H288V416c0-17.7 14.3-32 32-32s32 14.3 32 32v64h32V352c0-23.7 12.9-44.4 32-55.4V272c0-58.3 44.6-106.2 101.5-111.5L487.1 74.6C478 49.1 453.9 32 426.8 32H352V96c0 17.7-14.3 32-32 32s-32-14.3-32-32V32zm64 192v64c0 17.7-14.3 32-32 32s-32-14.3-32-32V224c0-17.7 14.3-32 32-32s32 14.3 32 32zm176 16c17.7 0 32 14.3 32 32v48H496V272c0-17.7 14.3-32 32-32zm-80 32v48c-17.7 0-32 14.3-32 32V480c0 17.7 14.3 32 32 32H608c17.7 0 32-14.3 32-32V352c0-17.7-14.3-32-32-32V272c0-44.2-35.8-80-80-80s-80 35.8-80 80z"/></svg>