<svg xmlns="http://www.w3.org/2000/svg" viewBox="0 0 512 512"><!--! Font Awesome Free 6.2.0 by @fontawesome - https://fontawesome.com License - https://fontawesome.com/license/free (Icons: CC BY 4.0, Fonts: SIL OFL 1.1, Code: MIT License) Copyright 2022 Fonticons, Inc. --><path d="M416 256s96-96 96-160c0-53-43-96-96-96s-96 43-96 96c0 29.4 20.2 65.5 42.1 96H320c-53 0-96 43-96 96s43 96 96 96h96c17.7 0 32 14.3 32 32s-14.3 32-32 32H188.6c-6.2 9.6-12.6 18.8-19 27.2c-10.7 14.2-21.3 26.9-30 36.8H416c53 0 96-43 96-96s-43-96-96-96H320c-17.7 0-32-14.3-32-32s14.3-32 32-32h96zm0-128c-17.7 0-32-14.3-32-32s14.3-32 32-32s32 14.3 32 32s-14.3 32-32 32zM149.9 448c21.9-30.5 42.1-66.6 42.1-96c0-53-43-96-96-96s-96 43-96 96c0 64 96 160 96 160s3.5-3.5 9.2-9.6c.4-.4 .7-.8 1.1-1.2c3.3-3.5 7.1-7.8 11.4-12.8c.2-.2 .4-.4 .6-.6c9.4-10.8 20.7-24.6 31.6-39.8zM96 384c-17.7 0-32-14.3-32-32s14.3-32 32-32s32 14.3 32 32s-14.3 32-32 32z"/></svg>