<svg xmlns="http://www.w3.org/2000/svg" viewBox="0 0 448 512"><!--! Font Awesome Free 6.1.1 by @fontawesome - https://fontawesome.com License - https://fontawesome.com/license/free (Icons: CC BY 4.0, Fonts: SIL OFL 1.1, Code: MIT License) Copyright 2022 Fonticons, Inc. --><path d="M25.57 176.1C12.41 175.4 .9117 185.2 .0523 198.4s9.173 24.65 22.39 25.5c120.1 7.875 225.7 112.7 233.6 233.6C256.9 470.3 267.4 480 279.1 480c.5313 0 1.062-.0313 1.594-.0625c13.22-.8438 23.25-12.28 22.39-25.5C294.6 310.3 169.7 185.4 25.57 176.1zM32 32C14.33 32 0 46.31 0 64s14.33 32 32 32c194.1 0 352 157.9 352 352c0 17.69 14.33 32 32 32s32-14.31 32-32C448 218.6 261.4 32 32 32zM63.1 351.9C28.63 351.9 0 380.6 0 416s28.63 64 63.1 64s64.08-28.62 64.08-64S99.37 351.9 63.1 351.9z"/></svg>