<svg xmlns="http://www.w3.org/2000/svg" viewBox="0 0 640 512"><!--! Font Awesome Free 6.2.0 by @fontawesome - https://fontawesome.com License - https://fontawesome.com/license/free (Icons: CC BY 4.0, Fonts: SIL OFL 1.1, Code: MIT License) Copyright 2022 Fonticons, Inc. --><path d="M302.2 5.4c10.7-7.2 24.8-7.2 35.5 0l139 92.7L602.4 126c22 4.9 37.6 24.4 37.6 46.9V272c0-61.9-50.1-112-112-112s-112 50.1-112 112v24.6c-19.1 11.1-32 31.7-32 55.4H320.3l-.3 0c-35.3 0-64 28.7-64 64v96h64v0H48c-26.5 0-48-21.5-48-48V172.8c0-22.5 15.6-42 37.6-46.9L163.2 98.1l139-92.7zM80 208v64c0 8.8 7.2 16 16 16h32c8.8 0 16-7.2 16-16V208c0-8.8-7.2-16-16-16H96c-8.8 0-16 7.2-16 16zm0 128v64c0 8.8 7.2 16 16 16h32c8.8 0 16-7.2 16-16V336c0-8.8-7.2-16-16-16H96c-8.8 0-16 7.2-16 16zm240-72c48.6 0 88-39.4 88-88s-39.4-88-88-88s-88 39.4-88 88s39.4 88 88 88zm16-120v16h16c8.8 0 16 7.2 16 16s-7.2 16-16 16H320c-8.8 0-16-7.2-16-16V144c0-8.8 7.2-16 16-16s16 7.2 16 16zm192 96c-17.7 0-32 14.3-32 32v48h64V272c0-17.7-14.3-32-32-32zm-80 32c0-44.2 35.8-80 80-80s80 35.8 80 80v48c17.7 0 32 14.3 32 32V480c0 17.7-14.3 32-32 32H448c-17.7 0-32-14.3-32-32V352c0-17.7 14.3-32 32-32V272z"/></svg>