<svg xmlns="http://www.w3.org/2000/svg" viewBox="0 0 640 512"><!--! Font Awesome Free 6.2.0 by @fontawesome - https://fontawesome.com License - https://fontawesome.com/license/free (Icons: CC BY 4.0, Fonts: SIL OFL 1.1, Code: MIT License) Copyright 2022 Fonticons, Inc. --><path d="M337.8 5.4C327-1.8 313-1.8 302.2 5.4l-139 92.7L37.6 126C15.6 130.9 0 150.3 0 172.8V464c0 26.5 21.5 48 48 48H592c26.5 0 48-21.5 48-48V172.8c0-22.5-15.6-42-37.6-46.9L476.8 98.1 337.8 5.4zM256 416c0-35.3 28.7-64 64-64s64 28.7 64 64v96H256V416zM96 192h32c8.8 0 16 7.2 16 16v64c0 8.8-7.2 16-16 16H96c-8.8 0-16-7.2-16-16V208c0-8.8 7.2-16 16-16zm400 16c0-8.8 7.2-16 16-16h32c8.8 0 16 7.2 16 16v64c0 8.8-7.2 16-16 16H512c-8.8 0-16-7.2-16-16V208zM96 320h32c8.8 0 16 7.2 16 16v64c0 8.8-7.2 16-16 16H96c-8.8 0-16-7.2-16-16V336c0-8.8 7.2-16 16-16zm400 16c0-8.8 7.2-16 16-16h32c8.8 0 16 7.2 16 16v64c0 8.8-7.2 16-16 16H512c-8.8 0-16-7.2-16-16V336zM408 176c0 48.6-39.4 88-88 88s-88-39.4-88-88s39.4-88 88-88s88 39.4 88 88zm-88-48c-8.8 0-16 7.2-16 16v32c0 8.8 7.2 16 16 16h32c8.8 0 16-7.2 16-16s-7.2-16-16-16H336V144c0-8.8-7.2-16-16-16z"/></svg>