<svg xmlns="http://www.w3.org/2000/svg" viewBox="0 0 640 512"><!--! Font Awesome Free 6.3.0 by @fontawesome - https://fontawesome.com License - https://fontawesome.com/license/free (Icons: CC BY 4.0, Fonts: SIL OFL 1.1, Code: MIT License) Copyright 2023 Fonticons, Inc. --><path d="M337.8 5.4C327-1.8 313-1.8 302.2 5.4L166.3 96H48C21.5 96 0 117.5 0 144V464c0 26.5 21.5 48 48 48H320v0H256V416c0-35.3 28.7-64 64-64l.3 0h.5c3.4-37.7 18.7-72.1 42.2-99.1C350.2 260 335.6 264 320 264c-48.6 0-88-39.4-88-88s39.4-88 88-88s88 39.4 88 88c0 18.3-5.6 35.3-15.1 49.4c29-21 64.6-33.4 103.1-33.4c59.5 0 112.1 29.6 144 74.8V144c0-26.5-21.5-48-48-48H473.7L337.8 5.4zM96 192h32c8.8 0 16 7.2 16 16v64c0 8.8-7.2 16-16 16H96c-8.8 0-16-7.2-16-16V208c0-8.8 7.2-16 16-16zm0 128h32c8.8 0 16 7.2 16 16v64c0 8.8-7.2 16-16 16H96c-8.8 0-16-7.2-16-16V336c0-8.8 7.2-16 16-16zM320 128c-8.8 0-16 7.2-16 16v32c0 8.8 7.2 16 16 16h32c8.8 0 16-7.2 16-16s-7.2-16-16-16H336V144c0-8.8-7.2-16-16-16zM496 512a144 144 0 1 0 0-288 144 144 0 1 0 0 288zm0-96a24 24 0 1 1 0 48 24 24 0 1 1 0-48zm0-144c8.8 0 16 7.2 16 16v80c0 8.8-7.2 16-16 16s-16-7.2-16-16V288c0-8.8 7.2-16 16-16z"/></svg>