<svg xmlns="http://www.w3.org/2000/svg" viewBox="0 0 512 512"><!--! Font Awesome Free 6.2.1 by @fontawesome - https://fontawesome.com License - https://fontawesome.com/license/free (Icons: CC BY 4.0, Fonts: SIL OFL 1.1, Code: MIT License) Copyright 2022 Fonticons, Inc. --><path d="M512 64c0 113.6-84.6 207.5-194.2 222c-7.1-53.4-30.6-101.6-65.3-139.3C290.8 78.3 364 32 448 32h32c17.7 0 32 14.3 32 32zM0 128c0-17.7 14.3-32 32-32H64c123.7 0 224 100.3 224 224v32 96c0 17.7-14.3 32-32 32s-32-14.3-32-32V352C100.3 352 0 251.7 0 128z"/></svg>