<svg xmlns="http://www.w3.org/2000/svg" viewBox="0 0 512 512"><!--! Font Awesome Free 6.0.0 by @fontawesome - https://fontawesome.com License - https://fontawesome.com/license/free (Icons: CC BY 4.0, Fonts: SIL OFL 1.1, Code: MIT License) Copyright 2022 Fonticons, Inc. --><path d="M411.4 175.5C417.4 185.4 417.5 197.7 411.8 207.8C406.2 217.8 395.5 223.1 384 223.1H192C180.5 223.1 169.8 217.8 164.2 207.8C158.5 197.7 158.6 185.4 164.6 175.5L260.6 15.54C266.3 5.897 276.8 0 288 0C299.2 0 309.7 5.898 315.4 15.54L411.4 175.5zM288 312C288 289.9 305.9 272 328 272H472C494.1 272 512 289.9 512 312V456C512 478.1 494.1 496 472 496H328C305.9 496 288 478.1 288 456V312zM0 384C0 313.3 57.31 256 128 256C198.7 256 256 313.3 256 384C256 454.7 198.7 512 128 512C57.31 512 0 454.7 0 384z"/></svg>