<svg xmlns="http://www.w3.org/2000/svg" viewBox="0 0 576 512"><!--! Font Awesome Free 6.1.1 by @fontawesome - https://fontawesome.com License - https://fontawesome.com/license/free (Icons: CC BY 4.0, Fonts: SIL OFL 1.1, Code: MIT License) Copyright 2022 Fonticons, Inc. --><path d="M568.9 143.5l-150.9-138.2C404.8-6.773 384 3.039 384 21.84V96C241.2 97.63 128 126.1 128 260.6c0 54.3 35.2 108.1 74.08 136.2c12.14 8.781 29.42-2.238 24.94-16.46C186.7 252.2 256 224 384 223.1v74.2c0 18.82 20.84 28.59 34.02 16.51l150.9-138.2C578.4 167.8 578.4 152.2 568.9 143.5zM416 384c-17.67 0-32 14.33-32 32v31.1l-320-.0013V128h32c17.67 0 32-14.32 32-32S113.7 64 96 64H64C28.65 64 0 92.65 0 128v319.1c0 35.34 28.65 64 64 64l320-.0013c35.35 0 64-28.66 64-64V416C448 398.3 433.7 384 416 384z"/></svg>