<svg xmlns="http://www.w3.org/2000/svg" viewBox="0 0 576 512"><!--! Font Awesome Free 6.2.0 by @fontawesome - https://fontawesome.com License - https://fontawesome.com/license/free (Icons: CC BY 4.0, Fonts: SIL OFL 1.1, Code: MIT License) Copyright 2022 Fonticons, Inc. --><path d="M384 24c0-9.6 5.7-18.2 14.5-22s19-2 26 4.6l144 136c4.8 4.5 7.5 10.8 7.5 17.4s-2.7 12.9-7.5 17.4l-144 136c-7 6.6-17.2 8.4-26 4.6s-14.5-12.5-14.5-22V224H352 337.5c-45 0-81.5 36.5-81.5 81.5c0 22.3 10.3 34.3 19.2 40.5c6.8 4.7 12.8 12 12.8 20.3c0 9.8-8 17.8-17.8 17.8h-2.5c-2.4 0-4.8-.4-7.1-1.4C242.8 374.8 160 333.4 160 240c0-79.5 64.5-144 144-144h80V24zM0 144C0 99.8 35.8 64 80 64H96c17.7 0 32 14.3 32 32s-14.3 32-32 32H80c-8.8 0-16 7.2-16 16V432c0 8.8 7.2 16 16 16H368c8.8 0 16-7.2 16-16V416c0-17.7 14.3-32 32-32s32 14.3 32 32v16c0 44.2-35.8 80-80 80H80c-44.2 0-80-35.8-80-80V144z"/></svg>