<svg xmlns="http://www.w3.org/2000/svg" viewBox="0 0 512 512"><!--! Font Awesome Free 6.1.0 by @fontawesome - https://fontawesome.com License - https://fontawesome.com/license/free (Icons: CC BY 4.0, Fonts: SIL OFL 1.1, Code: MIT License) Copyright 2022 Fonticons, Inc. --><path d="M256.3-.0068C261.9-.0507 267.3 1.386 272.1 4.066L476.5 90.53C487.7 95.27 495.2 105.1 495.9 118.1C501.6 213.6 466.7 421.9 272.5 507.7C267.6 510.5 261.1 512.1 256.3 512C250.5 512.1 244.9 510.5 239.1 507.7C45.8 421.9 10.95 213.6 16.57 118.1C17.28 105.1 24.83 95.27 36.04 90.53L240.4 4.066C245.2 1.386 250.7-.0507 256.3-.0068H256.3zM266.1 363.4L364.2 263.6C392.2 234.7 390.5 186.6 358.1 159.5C331.8 135.8 291.5 140.2 266.1 166.5L256.4 176.1L245.9 166.5C221.4 140.2 180.2 135.8 153 159.5C121.5 186.6 119.8 234.7 147.8 263.6L244.2 363.4C251.2 369.5 260.8 369.5 266.1 363.4V363.4z"/></svg>