<svg xmlns="http://www.w3.org/2000/svg" viewBox="0 0 512 512"><!--! Font Awesome Free 6.0.0 by @fontawesome - https://fontawesome.com License - https://fontawesome.com/license/free (Icons: CC BY 4.0, Fonts: SIL OFL 1.1, Code: MIT License) Copyright 2022 Fonticons, Inc. --><path d="M466.5 83.71l-192-80C269.6 1.67 261.3 0 256 0C250.7 0 242.5 1.67 237.6 3.702l-192 80C27.7 91.1 16 108.6 16 127.1c0 257.2 189.2 384 239.1 384c51.1 0 240-128.2 240-384C496 108.6 484.3 91.1 466.5 83.71zM256 446.5l.0234-381.1c.0059-.0234 0 0 0 0l175.9 73.17C427.8 319.7 319 417.1 256 446.5z"/></svg>