<svg xmlns="http://www.w3.org/2000/svg" viewBox="0 0 512 512"><!--! Font Awesome Free 6.1.1 by @fontawesome - https://fontawesome.com License - https://fontawesome.com/license/free (Icons: CC BY 4.0, Fonts: SIL OFL 1.1, Code: MIT License) Copyright 2022 Fonticons, Inc. --><path d="M288 320V128H64C46.34 128 32 113.6 32 96s14.34-32 32-32h368c8.844 0 16-7.156 16-16s-7.156-16-16-16H64C28.72 32 0 60.7 0 96s28.72 64 64 64h2.879c15.26 90.77 94.01 160 189.1 160H288zM192 216c-13.25 0-24-10.75-24-24c0-13.26 10.75-24 24-24s24 10.74 24 24C216 205.3 205.3 216 192 216zM225.6 399.4c-4.75 12.36 1.406 26.25 13.78 31.02l5.688 2.188C233.3 434.1 224 443.8 224 456c0 13.25 10.75 24 24 24h72v-70.03l-63.38-24.38C244.3 380.9 230.4 386.1 225.6 399.4zM511.2 286.7c-.5488-5.754-2.201-11.1-3.314-16.65l-124.6 90.62c.3711 2.404 .7383 4.814 .7383 7.322c0 1.836-.3379 3.576-.5391 5.357l90.15 40.06C500.8 379.2 515.8 334.8 511.2 286.7zM352 413.1v66.08c37.23-3.363 71.04-18.3 97.94-41.21l-80.34-35.71C364.7 407.1 358.6 410.7 352 413.1zM497.9 237.7C470.1 172.4 402.8 128 328.4 128h-8.436v192h16c12.28 0 23.36 4.748 31.85 12.33L497.9 237.7z"/></svg>