<svg xmlns="http://www.w3.org/2000/svg" viewBox="0 0 512 512"><!--! Font Awesome Free 6.2.1 by @fontawesome - https://fontawesome.com License - https://fontawesome.com/license/free (Icons: CC BY 4.0, Fonts: SIL OFL 1.1, Code: MIT License) Copyright 2022 Fonticons, Inc. --><path d="M96 0c17.7 0 32 14.3 32 32V64l352 0c17.7 0 32 14.3 32 32s-14.3 32-32 32l-352 0V480c0 17.7-14.3 32-32 32s-32-14.3-32-32V128H32C14.3 128 0 113.7 0 96S14.3 64 32 64H64V32C64 14.3 78.3 0 96 0zm96 160H448c17.7 0 32 14.3 32 32V352c0 17.7-14.3 32-32 32H192c-17.7 0-32-14.3-32-32V192c0-17.7 14.3-32 32-32z"/></svg>