<svg xmlns="http://www.w3.org/2000/svg" viewBox="0 0 512 512"><!--! Font Awesome Free 6.1.1 by @fontawesome - https://fontawesome.com License - https://fontawesome.com/license/free (Icons: CC BY 4.0, Fonts: SIL OFL 1.1, Code: MIT License) Copyright 2022 Fonticons, Inc. --><path d="M96 0C113.7 0 128 14.33 128 32V64H480C497.7 64 512 78.33 512 96C512 113.7 497.7 128 480 128H128V480C128 497.7 113.7 512 96 512C78.33 512 64 497.7 64 480V128H32C14.33 128 0 113.7 0 96C0 78.33 14.33 64 32 64H64V32C64 14.33 78.33 0 96 0zM448 160C465.7 160 480 174.3 480 192V352C480 369.7 465.7 384 448 384H192C174.3 384 160 369.7 160 352V192C160 174.3 174.3 160 192 160H448z"/></svg>