<svg xmlns="http://www.w3.org/2000/svg" viewBox="0 0 640 512"><!--! Font Awesome Free 6.5.1 by @fontawesome - https://fontawesome.com License - https://fontawesome.com/license/free (Icons: CC BY 4.0, Fonts: SIL OFL 1.1, Code: MIT License) Copyright 2023 Fonticons, Inc. --><path d="M448 32V43c0 38.2 15.2 74.8 42.2 101.8l21 21c21 21 32.8 49.5 32.8 79.2v11c0 17.7-14.3 32-32 32s-32-14.3-32-32V245c0-12.7-5.1-24.9-14.1-33.9l-21-21C405.9 151.1 384 98.1 384 43V32c0-17.7 14.3-32 32-32s32 14.3 32 32zM576 256V245c0-38.2-15.2-74.8-42.2-101.8l-21-21c-21-21-32.8-49.5-32.8-79.2V32c0-17.7 14.3-32 32-32s32 14.3 32 32V43c0 12.7 5.1 24.9 14.1 33.9l21 21c39 39 60.9 91.9 60.9 147.1v11c0 17.7-14.3 32-32 32s-32-14.3-32-32zM0 416c0-35.3 28.7-64 64-64H416c17.7 0 32 14.3 32 32v96c0 17.7-14.3 32-32 32H64c-35.3 0-64-28.7-64-64V416zm224 0v32H384V416H224zm288-64c17.7 0 32 14.3 32 32v96c0 17.7-14.3 32-32 32s-32-14.3-32-32V384c0-17.7 14.3-32 32-32zm96 0c17.7 0 32 14.3 32 32v96c0 17.7-14.3 32-32 32s-32-14.3-32-32V384c0-17.7 14.3-32 32-32z"/></svg>