<svg xmlns="http://www.w3.org/2000/svg" viewBox="0 0 640 512"><!--! Font Awesome Free 6.2.0 by @fontawesome - https://fontawesome.com License - https://fontawesome.com/license/free (Icons: CC BY 4.0, Fonts: SIL OFL 1.1, Code: MIT License) Copyright 2022 Fonticons, Inc. --><path d="M96 0C80.7 0 67.6 10.8 64.6 25.7l-64 320c-1.9 9.4 .6 19.1 6.6 26.6S22.4 384 32 384H288v64H224c-17.7 0-32 14.3-32 32s14.3 32 32 32H416c17.7 0 32-14.3 32-32s-14.3-32-32-32H352V384H608c9.6 0 18.7-4.3 24.7-11.7s8.5-17.2 6.6-26.6l-64-320C572.4 10.8 559.3 0 544 0H96zm5.4 168L122.2 64h90.4L202.3 168H101.4zm-9.6 48H197.5L187.1 320H71L91.8 216zm153.9 0H394.3l10.4 104H235.3l10.4-104zm196.8 0H548.2L569 320h-116L442.5 216zm96-48H437.7L427.3 64h90.4l20.8 104zm-149.1 0h-139L260.9 64H379.1l10.4 104z"/></svg>