<svg xmlns="http://www.w3.org/2000/svg" viewBox="0 0 576 512"><!--! Font Awesome Free 6.4.0 by @fontawesome - https://fontawesome.com License - https://fontawesome.com/license/free (Icons: CC BY 4.0, Fonts: SIL OFL 1.1, Code: MIT License) Copyright 2023 Fonticons, Inc. --><path d="M112 0C99.1 0 87.4 7.8 82.5 19.7l-66.7 160-13.3 32c-6.8 16.3 .9 35 17.2 41.8s35-.9 41.8-17.2L66.7 224h90.7l5.1 12.3c6.8 16.3 25.5 24 41.8 17.2s24-25.5 17.2-41.8l-13.3-32-66.7-160C136.6 7.8 124.9 0 112 0zm18.7 160H93.3L112 115.2 130.7 160zM256 32v96 96c0 17.7 14.3 32 32 32h80c44.2 0 80-35.8 80-80c0-23.1-9.8-43.8-25.4-58.4c6-11.2 9.4-24 9.4-37.6c0-44.2-35.8-80-80-80H288c-17.7 0-32 14.3-32 32zm96 64H320V64h32c8.8 0 16 7.2 16 16s-7.2 16-16 16zm-32 64h32 16c8.8 0 16 7.2 16 16s-7.2 16-16 16H320V160zM566.6 310.6c12.5-12.5 12.5-32.8 0-45.3s-32.8-12.5-45.3 0L352 434.7l-73.4-73.4c-12.5-12.5-32.8-12.5-45.3 0s-12.5 32.8 0 45.3l96 96c12.5 12.5 32.8 12.5 45.3 0l192-192z"/></svg>