<svg xmlns="http://www.w3.org/2000/svg" viewBox="0 0 512 512"><!--! Font Awesome Free 6.2.0 by @fontawesome - https://fontawesome.com License - https://fontawesome.com/license/free (Icons: CC BY 4.0, Fonts: SIL OFL 1.1, Code: MIT License) Copyright 2022 Fonticons, Inc. --><path d="M287.6 .1c-19.7 0-38.3 9.1-50.4 24.6L205.9 64.9c-17.9 23-46 35.6-75.1 33.7L59.1 94c-13.5-.9-26.9 3.2-37.7 11.6C-1.3 123.2-6.7 155.2 8.8 179.4l44.5 69.2c7.1 11 10.8 23.8 10.8 36.8c0 11.9-3.1 23.5-9 33.8L27.4 367.7c-10 17.5-10 39.1 0 56.6c12.1 21.2 36.4 32.3 60.4 27.7l67-13c5.5-1.1 11.2-1.6 16.8-1.6H180c20.9 0 41 7.4 56.9 20.9l45 38.2c11.8 10 26.9 15.6 42.4 15.6c37.8 0 67.7-31.9 65.4-69.6l-3.1-50.6c-1-16.8 6.6-32.9 20.1-42.8l82.5-60.2c14.2-10.4 22.7-27 22.7-44.6c0-23.2-14.5-43.9-36.3-51.8l-58.2-21.2c-24.4-8.9-42.9-29.1-49.7-54.2L349.3 47.4C341.8 19.5 316.5 .1 287.6 .1z"/></svg>