<svg xmlns="http://www.w3.org/2000/svg" viewBox="0 0 448 512"><!--! Font Awesome Free 6.2.1 by @fontawesome - https://fontawesome.com License - https://fontawesome.com/license/free (Icons: CC BY 4.0, Fonts: SIL OFL 1.1, Code: MIT License) Copyright 2022 Fonticons, Inc. --><path d="M384 32c35.3 0 64 28.7 64 64V416c0 35.3-28.7 64-64 64H64c-35.3 0-64-28.7-64-64V96C0 60.7 28.7 32 64 32H384zM160 160c-6.5 0-12.3 3.9-14.8 9.9s-1.1 12.9 3.5 17.4l40 40-71 71C114 302 112 306.9 112 312s2 10 5.7 13.7l36.7 36.7c3.6 3.6 8.5 5.7 13.7 5.7s10-2 13.7-5.7l71-71 40 40c4.6 4.6 11.5 5.9 17.4 3.5s9.9-8.3 9.9-14.8V176c0-8.8-7.2-16-16-16H160z"/></svg>