<svg xmlns="http://www.w3.org/2000/svg" viewBox="0 0 448 512"><!--! Font Awesome Free 6.2.0 by @fontawesome - https://fontawesome.com License - https://fontawesome.com/license/free (Icons: CC BY 4.0, Fonts: SIL OFL 1.1, Code: MIT License) Copyright 2022 Fonticons, Inc. --><path d="M64 32C28.7 32 0 60.7 0 96V416c0 35.3 28.7 64 64 64H384c35.3 0 64-28.7 64-64V96c0-35.3-28.7-64-64-64H64zM256 144c0 26.5-21.5 48-48 48s-48-21.5-48-48s21.5-48 48-48s48 21.5 48 48zM240 248c0-30.9 25.1-56 56-56s56 25.1 56 56V350.1c0 36.4-29.5 65.9-65.9 65.9c-17.5 0-34.3-6.9-46.6-19.3L184.8 342l-28.1 56.3c-7.9 15.8-27.1 22.2-42.9 14.3s-22.2-27.1-14.3-42.9l48-96c4.6-9.2 13.3-15.6 23.5-17.3s20.5 1.7 27.8 9L240 306.7V248z"/></svg>