<svg xmlns="http://www.w3.org/2000/svg" viewBox="0 0 640 512"><!--! Font Awesome Free 6.5.1 by @fontawesome - https://fontawesome.com License - https://fontawesome.com/license/free (Icons: CC BY 4.0, Fonts: SIL OFL 1.1, Code: MIT License) Copyright 2023 Fonticons, Inc. --><path d="M640 299.3V304 432c0 26.5-21.5 48-48 48H512 448 64c-17.7 0-32-14.3-32-32s14.3-32 32-32H448V368H96c-17.7 0-32-14.3-32-32V219.4L33.8 214C14.2 210.5 0 193.5 0 173.7c0-8.9 2.9-17.5 8.2-24.6l35.6-47.5C76.7 57.8 128.2 32 182.9 32c27 0 53.6 6.3 77.8 18.4L586.9 213.5C619.5 229.7 640 263 640 299.3zM448 304V288L128 230.9V304H448z"/></svg>