<svg xmlns="http://www.w3.org/2000/svg" viewBox="0 0 512 512"><!--! Font Awesome Free 6.5.1 by @fontawesome - https://fontawesome.com License - https://fontawesome.com/license/free (Icons: CC BY 4.0, Fonts: SIL OFL 1.1, Code: MIT License) Copyright 2023 Fonticons, Inc. --><path d="M208 32c0-17.7 14.3-32 32-32h32c17.7 0 32 14.3 32 32V172.9l122-70.4c15.3-8.8 34.9-3.6 43.7 11.7l16 27.7c8.8 15.3 3.6 34.9-11.7 43.7L352 256l122 70.4c15.3 8.8 20.5 28.4 11.7 43.7l-16 27.7c-8.8 15.3-28.4 20.6-43.7 11.7L304 339.1V480c0 17.7-14.3 32-32 32H240c-17.7 0-32-14.3-32-32V339.1L86 409.6c-15.3 8.8-34.9 3.6-43.7-11.7l-16-27.7c-8.8-15.3-3.6-34.9 11.7-43.7L160 256 38 185.6c-15.3-8.8-20.5-28.4-11.7-43.7l16-27.7C51.1 98.8 70.7 93.6 86 102.4l122 70.4V32z"/></svg>