<svg xmlns="http://www.w3.org/2000/svg" viewBox="0 0 448 512"><!--! Font Awesome Free 6.0.0 by @fontawesome - https://fontawesome.com License - https://fontawesome.com/license/free (Icons: CC BY 4.0, Fonts: SIL OFL 1.1, Code: MIT License) Copyright 2022 Fonticons, Inc. --><path d="M272 0C289.7 0 304 14.33 304 32C304 49.67 289.7 64 272 64H256V98.45C293.5 104.2 327.7 120 355.7 143L377.4 121.4C389.9 108.9 410.1 108.9 422.6 121.4C435.1 133.9 435.1 154.1 422.6 166.6L398.5 190.8C419.7 223.3 432 262.2 432 304C432 418.9 338.9 512 224 512C109.1 512 16 418.9 16 304C16 200 92.32 113.8 192 98.45V64H176C158.3 64 144 49.67 144 32C144 14.33 158.3 0 176 0L272 0zM248 192C248 178.7 237.3 168 224 168C210.7 168 200 178.7 200 192V320C200 333.3 210.7 344 224 344C237.3 344 248 333.3 248 320V192z"/></svg>