<svg xmlns="http://www.w3.org/2000/svg" viewBox="0 0 512 512"><!--! Font Awesome Free 6.1.2 by @fontawesome - https://fontawesome.com License - https://fontawesome.com/license/free (Icons: CC BY 4.0, Fonts: SIL OFL 1.1, Code: MIT License) Copyright 2022 Fonticons, Inc. --><path d="M0 144v288C0 457.6 22.41 480 48 480H64V96H48C22.41 96 0 118.4 0 144zM464 96H448v384h16c25.59 0 48-22.41 48-48v-288C512 118.4 489.6 96 464 96zM384 48C384 22.41 361.6 0 336 0h-160C150.4 0 128 22.41 128 48V96H96v384h320V96h-32V48zM176 48h160V96h-160V48zM352 312C352 316.4 348.4 320 344 320H288v56c0 4.375-3.625 8-8 8h-48C227.6 384 224 380.4 224 376V320H168C163.6 320 160 316.4 160 312v-48C160 259.6 163.6 256 168 256H224V200C224 195.6 227.6 192 232 192h48C284.4 192 288 195.6 288 200V256h56C348.4 256 352 259.6 352 264V312z"/></svg>