<svg xmlns="http://www.w3.org/2000/svg" viewBox="0 0 448 512"><!--! Font Awesome Free 6.1.0 by @fontawesome - https://fontawesome.com License - https://fontawesome.com/license/free (Icons: CC BY 4.0, Fonts: SIL OFL 1.1, Code: MIT License) Copyright 2022 Fonticons, Inc. --><path d="M368 128h-47.95l.0123-80c0-26.5-21.5-48-48-48h-96c-26.5 0-48 21.5-48 48L128 128H80C53.5 128 32 149.5 32 176v256C32 458.5 53.5 480 80 480h16.05L96 496C96 504.9 103.1 512 112 512h32C152.9 512 160 504.9 160 496L160.1 480h128L288 496c0 8.875 7.125 16 16 16h32c8.875 0 16-7.125 16-16l.0492-16H368c26.5 0 48-21.5 48-48v-256C416 149.5 394.5 128 368 128zM176.1 48h96V128h-96V48zM336 384h-224C103.2 384 96 376.8 96 368C96 359.2 103.2 352 112 352h224c8.801 0 16 7.199 16 16C352 376.8 344.8 384 336 384zM336 256h-224C103.2 256 96 248.8 96 240C96 231.2 103.2 224 112 224h224C344.8 224 352 231.2 352 240C352 248.8 344.8 256 336 256z"/></svg>