<svg xmlns="http://www.w3.org/2000/svg" viewBox="0 0 512 512"><!--! Font Awesome Free 6.2.1 by @fontawesome - https://fontawesome.com License - https://fontawesome.com/license/free (Icons: CC BY 4.0, Fonts: SIL OFL 1.1, Code: MIT License) Copyright 2022 Fonticons, Inc. --><path d="M0 32C0 14.3 14.3 0 32 0H160c17.7 0 32 14.3 32 32V416c0 53-43 96-96 96s-96-43-96-96V32zM223.6 425.9c.3-3.3 .4-6.6 .4-9.9V154l75.4-75.4c12.5-12.5 32.8-12.5 45.3 0l90.5 90.5c12.5 12.5 12.5 32.8 0 45.3L223.6 425.9zM182.8 512l192-192H480c17.7 0 32 14.3 32 32V480c0 17.7-14.3 32-32 32H182.8zM128 64H64v64h64V64zM64 192v64h64V192H64zM96 440c13.3 0 24-10.7 24-24s-10.7-24-24-24s-24 10.7-24 24s10.7 24 24 24z"/></svg>