<svg xmlns="http://www.w3.org/2000/svg" viewBox="0 0 512 512"><!--! Font Awesome Free 6.4.2 by @fontawesome - https://fontawesome.com License - https://fontawesome.com/license/free (Icons: CC BY 4.0, Fonts: SIL OFL 1.1, Code: MIT License) Copyright 2023 Fonticons, Inc. --><path d="M441 7l32 32 32 32c9.4 9.4 9.4 24.6 0 33.9s-24.6 9.4-33.9 0l-15-15L417.9 128l55 55c9.4 9.4 9.4 24.6 0 33.9s-24.6 9.4-33.9 0l-72-72L295 73c-9.4-9.4-9.4-24.6 0-33.9s24.6-9.4 33.9 0l55 55L422.1 56 407 41c-9.4-9.4-9.4-24.6 0-33.9s24.6-9.4 33.9 0zM210.3 155.7l61.1-61.1c.3 .3 .6 .7 1 1l16 16 56 56 56 56 16 16c.3 .3 .6 .6 1 1l-191 191c-10.5 10.5-24.7 16.4-39.6 16.4H97.9L41 505c-9.4 9.4-24.6 9.4-33.9 0s-9.4-24.6 0-33.9l57-57V325.3c0-14.9 5.9-29.1 16.4-39.6l43.3-43.3 57 57c6.2 6.2 16.4 6.2 22.6 0s6.2-16.4 0-22.6l-57-57 41.4-41.4 57 57c6.2 6.2 16.4 6.2 22.6 0s6.2-16.4 0-22.6l-57-57z"/></svg>