<svg xmlns="http://www.w3.org/2000/svg" viewBox="0 0 512 512"><!--! Font Awesome Free 6.2.1 by @fontawesome - https://fontawesome.com License - https://fontawesome.com/license/free (Icons: CC BY 4.0, Fonts: SIL OFL 1.1, Code: MIT License) Copyright 2022 Fonticons, Inc. --><path d="M192 0c-17.7 0-32 14.3-32 32V64c0 .1 0 .1 0 .2c-38.6 2.2-72.3 27.3-85.2 64.1L39.6 228.8C16.4 238.4 0 261.3 0 288V432v48c0 17.7 14.3 32 32 32H64c17.7 0 32-14.3 32-32V432H416v48c0 17.7 14.3 32 32 32h32c17.7 0 32-14.3 32-32V432 288c0-26.7-16.4-49.6-39.6-59.2L437.2 128.3c-12.9-36.8-46.6-62-85.2-64.1c0-.1 0-.1 0-.2V32c0-17.7-14.3-32-32-32H192zM165.4 128H346.6c13.6 0 25.7 8.6 30.2 21.4L402.9 224H109.1l26.1-74.6c4.5-12.8 16.6-21.4 30.2-21.4zM96 352c-17.7 0-32-14.3-32-32s14.3-32 32-32s32 14.3 32 32s-14.3 32-32 32zm352-32c0 17.7-14.3 32-32 32s-32-14.3-32-32s14.3-32 32-32s32 14.3 32 32z"/></svg>