<svg xmlns="http://www.w3.org/2000/svg" viewBox="0 0 384 512"><!--! Font Awesome Free 6.3.0 by @fontawesome - https://fontawesome.com License - https://fontawesome.com/license/free (Icons: CC BY 4.0, Fonts: SIL OFL 1.1, Code: MIT License) Copyright 2023 Fonticons, Inc. --><path d="M0 64C0 46.3 14.3 32 32 32H352c17.7 0 32 14.3 32 32s-14.3 32-32 32H32C14.3 96 0 81.7 0 64zM0 192c0-17.7 14.3-32 32-32H192 352c17.7 0 32 14.3 32 32s-14.3 32-32 32H224V448c0 17.7-14.3 32-32 32s-32-14.3-32-32V224H32c-17.7 0-32-14.3-32-32z"/></svg>