<svg xmlns="http://www.w3.org/2000/svg" viewBox="0 0 576 512"><!--! Font Awesome Free 6.5.0 by @fontawesome - https://fontawesome.com License - https://fontawesome.com/license/free (Icons: CC BY 4.0, Fonts: SIL OFL 1.1, Code: MIT License) Copyright 2023 Fonticons, Inc. --><path d="M64 128V96h64l0 320H96c-17.7 0-32 14.3-32 32s14.3 32 32 32H224c17.7 0 32-14.3 32-32s-14.3-32-32-32H192l0-320h64v32c0 17.7 14.3 32 32 32s32-14.3 32-32V80c0-26.5-21.5-48-48-48H160 48C21.5 32 0 53.5 0 80v48c0 17.7 14.3 32 32 32s32-14.3 32-32zM502.6 41.4c-12.5-12.5-32.8-12.5-45.3 0l-64 64c-9.2 9.2-11.9 22.9-6.9 34.9s16.6 19.8 29.6 19.8h32V352H416c-12.9 0-24.6 7.8-29.6 19.8s-2.2 25.7 6.9 34.9l64 64c12.5 12.5 32.8 12.5 45.3 0l64-64c9.2-9.2 11.9-22.9 6.9-34.9s-16.6-19.8-29.6-19.8H512V160h32c12.9 0 24.6-7.8 29.6-19.8s2.2-25.7-6.9-34.9l-64-64z"/></svg>