<svg xmlns="http://www.w3.org/2000/svg" viewBox="0 0 576 512"><!--! Font Awesome Free 6.5.1 by @fontawesome - https://fontawesome.com License - https://fontawesome.com/license/free (Icons: CC BY 4.0, Fonts: SIL OFL 1.1, Code: MIT License) Copyright 2023 Fonticons, Inc. --><path d="M62.6 2.3C46.2-4.3 27.6 3.6 20.9 20C7.4 53.4 0 89.9 0 128s7.4 74.6 20.9 108c6.6 16.4 25.3 24.3 41.7 17.7S86.9 228.4 80.3 212C69.8 186.1 64 157.8 64 128s5.8-58.1 16.3-84C86.9 27.6 79 9 62.6 2.3zm450.8 0C497 9 489.1 27.6 495.7 44C506.2 69.9 512 98.2 512 128s-5.8 58.1-16.3 84c-6.6 16.4 1.3 35 17.7 41.7s35-1.3 41.7-17.7c13.5-33.4 20.9-69.9 20.9-108s-7.4-74.6-20.9-108C548.4 3.6 529.8-4.3 513.4 2.3zM340.1 165.2c7.5-10.5 11.9-23.3 11.9-37.2c0-35.3-28.7-64-64-64s-64 28.7-64 64c0 13.9 4.4 26.7 11.9 37.2L98.9 466.8c-7.3 16.1-.2 35.1 15.9 42.4s35.1 .2 42.4-15.9L177.7 448H398.3l20.6 45.2c7.3 16.1 26.3 23.2 42.4 15.9s23.2-26.3 15.9-42.4L340.1 165.2zM369.2 384H206.8l14.5-32H354.7l14.5 32zM288 205.3L325.6 288H250.4L288 205.3zM163.3 73.6c5.3-12.1-.2-26.3-12.4-31.6s-26.3 .2-31.6 12.4C109.5 77 104 101.9 104 128s5.5 51 15.3 73.6c5.3 12.1 19.5 17.7 31.6 12.4s17.7-19.5 12.4-31.6C156 165.8 152 147.4 152 128s4-37.8 11.3-54.4zM456.7 54.4c-5.3-12.1-19.5-17.7-31.6-12.4s-17.7 19.5-12.4 31.6C420 90.2 424 108.6 424 128s-4 37.8-11.3 54.4c-5.3 12.1 .2 26.3 12.4 31.6s26.3-.2 31.6-12.4C466.5 179 472 154.1 472 128s-5.5-51-15.3-73.6z"/></svg>