<svg xmlns="http://www.w3.org/2000/svg" viewBox="0 0 576 512"><!--! Font Awesome Free 6.1.2 by @fontawesome - https://fontawesome.com License - https://fontawesome.com/license/free (Icons: CC BY 4.0, Fonts: SIL OFL 1.1, Code: MIT License) Copyright 2022 Fonticons, Inc. --><path d="M62.62 2.339C78.1 8.97 86.9 27.63 80.27 44.01C69.79 69.9 64 98.24 64 128C64 157.8 69.79 186.1 80.27 211.1C86.9 228.4 78.1 247 62.62 253.7C46.23 260.3 27.58 252.4 20.95 236C7.428 202.6 0 166.1 0 128C0 89.87 7.428 53.39 20.95 19.99C27.58 3.612 46.23-4.293 62.62 2.339V2.339zM513.4 2.339C529.8-4.293 548.4 3.612 555.1 19.99C568.6 53.39 576 89.87 576 128C576 166.1 568.6 202.6 555.1 236C548.4 252.4 529.8 260.3 513.4 253.7C497 247 489.1 228.4 495.7 211.1C506.2 186.1 512 157.8 512 128C512 98.24 506.2 69.9 495.7 44.01C489.1 27.63 497 8.969 513.4 2.338V2.339zM477.1 466.8C484.4 482.8 477.3 501.8 461.2 509.1C445.2 516.4 426.2 509.3 418.9 493.2L398.3 448H177.7L157.1 493.2C149.8 509.3 130.8 516.4 114.8 509.1C98.67 501.8 91.56 482.8 98.87 466.8L235.9 165.2C228.4 154.7 224 141.9 224 128C224 92.65 252.7 64 288 64C323.3 64 352 92.65 352 128C352 141.9 347.6 154.7 340.1 165.2L477.1 466.8zM369.2 384L354.7 352H221.3L206.8 384H369.2zM250.4 288H325.6L288 205.3L250.4 288zM152 128C152 147.4 156 165.8 163.3 182.4C168.6 194.5 163.1 208.7 150.9 213.1C138.8 219.3 124.6 213.8 119.3 201.6C109.5 179 104 154.1 104 128C104 101.9 109.5 76.96 119.3 54.39C124.6 42.25 138.8 36.7 150.9 42.01C163.1 47.31 168.6 61.46 163.3 73.61C156 90.23 152 108.6 152 128V128zM472 128C472 154.1 466.5 179 456.7 201.6C451.4 213.8 437.2 219.3 425.1 213.1C412.9 208.7 407.4 194.5 412.7 182.4C419.1 165.8 424 147.4 424 128C424 108.6 419.1 90.24 412.7 73.61C407.4 61.46 412.9 47.32 425.1 42.01C437.2 36.7 451.4 42.25 456.7 54.39C466.5 76.96 472 101.9 472 128V128z"/></svg>