<svg xmlns="http://www.w3.org/2000/svg" viewBox="0 0 640 512"><!--! Font Awesome Free 6.5.1 by @fontawesome - https://fontawesome.com License - https://fontawesome.com/license/free (Icons: CC BY 4.0, Fonts: SIL OFL 1.1, Code: MIT License) Copyright 2023 Fonticons, Inc. --><path d="M288 64v64H416L368 64H288zM419.2 25.6L496 128h80c17.7 0 32 14.3 32 32v64c17.7 0 32 14.3 32 32s-14.3 32-32 32c-29.2-38.9-75.7-64-128-64s-98.8 25.1-128 64H288c-29.2-38.9-75.7-64-128-64s-98.8 25.1-128 64c-17.7 0-32-14.3-32-32s14.3-32 32-32V160c0-17.7 14.3-32 32-32H224V48c0-26.5 21.5-48 48-48h96c20.1 0 39.1 9.5 51.2 25.6zM152 256h16c12.1 0 22.1 8.9 23.8 20.6c7.6 2.2 14.9 5.3 21.7 9c9.4-7 22.8-6.3 31.3 2.3l11.3 11.3c8.6 8.6 9.3 21.9 2.3 31.3c3.7 6.8 6.8 14.1 9 21.7c11.6 1.7 20.6 11.7 20.6 23.8v16c0 12.1-8.9 22.1-20.6 23.8c-2.2 7.6-5.3 14.9-9 21.7c7 9.4 6.3 22.8-2.3 31.3l-11.3 11.3c-8.6 8.6-21.9 9.3-31.3 2.2c-6.8 3.7-14.1 6.8-21.7 9C190.1 503.1 180.1 512 168 512H152c-12.1 0-22.1-8.9-23.8-20.6c-7.6-2.2-14.9-5.3-21.7-9c-9.4 7.1-22.8 6.3-31.3-2.2L63.8 468.9c-8.6-8.6-9.3-21.9-2.3-31.3c-3.7-6.9-6.8-14.1-9-21.8C40.9 414.1 32 404.1 32 392V376c0-12.1 8.9-22.1 20.6-23.8c2.2-7.6 5.3-14.9 9-21.8c-7-9.4-6.3-22.8 2.3-31.3l11.3-11.3c8.6-8.6 21.9-9.3 31.3-2.3c6.8-3.7 14.1-6.8 21.7-9c1.7-11.6 11.7-20.6 23.8-20.6zm8 176a48 48 0 1 0 0-96 48 48 0 1 0 0 96zM448.2 276.6c1.7-11.6 11.7-20.6 23.8-20.6h16c12.1 0 22.1 8.9 23.8 20.6c7.6 2.2 14.9 5.3 21.8 9c9.4-7 22.8-6.3 31.3 2.3l11.3 11.3c8.6 8.6 9.3 21.9 2.2 31.3c3.7 6.8 6.8 14.1 9 21.7c11.6 1.7 20.6 11.7 20.6 23.8v16c0 12.1-8.9 22.1-20.6 23.8c-2.2 7.6-5.3 14.9-9 21.7c7 9.4 6.3 22.8-2.2 31.3l-11.3 11.3c-8.6 8.6-21.9 9.3-31.3 2.2c-6.9 3.7-14.1 6.8-21.8 9C510.1 503.1 500.1 512 488 512H472c-12.1 0-22.1-8.9-23.8-20.6c-7.6-2.2-14.9-5.3-21.7-9c-9.4 7.1-22.8 6.3-31.3-2.2l-11.3-11.3c-8.6-8.6-9.3-21.9-2.2-31.3c-3.7-6.9-6.8-14.1-9-21.8C360.9 414.1 352 404.1 352 392V376c0-12.1 8.9-22.1 20.6-23.8c2.2-7.6 5.3-14.9 9-21.8c-7-9.4-6.3-22.8 2.2-31.3l11.3-11.3c8.6-8.6 21.9-9.3 31.3-2.3c6.8-3.7 14.1-6.8 21.7-9zM528 384a48 48 0 1 0 -96 0 48 48 0 1 0 96 0z"/></svg>