<svg xmlns="http://www.w3.org/2000/svg" viewBox="0 0 512 512"><!--! Font Awesome Free 6.2.1 by @fontawesome - https://fontawesome.com License - https://fontawesome.com/license/free (Icons: CC BY 4.0, Fonts: SIL OFL 1.1, Code: MIT License) Copyright 2022 Fonticons, Inc. --><path d="M0 80C0 35.8 35.8 0 80 0H432c44.2 0 80 35.8 80 80V368c0 26.2-12.6 49.4-32 64v48c0 17.7-14.3 32-32 32H416c-17.7 0-32-14.3-32-32V448H128v32c0 17.7-14.3 32-32 32H64c-17.7 0-32-14.3-32-32V432C12.6 417.4 0 394.2 0 368V80zm129.9 72.2L112 224H400l-17.9-71.8C378.5 138 365.7 128 351 128H161c-14.7 0-27.5 10-31 24.2zM128 320c0-17.7-14.3-32-32-32s-32 14.3-32 32s14.3 32 32 32s32-14.3 32-32zm288 32c17.7 0 32-14.3 32-32s-14.3-32-32-32s-32 14.3-32 32s14.3 32 32 32z"/></svg>