<svg xmlns="http://www.w3.org/2000/svg" viewBox="0 0 512 512"><!--! Font Awesome Free 6.2.0 by @fontawesome - https://fontawesome.com License - https://fontawesome.com/license/free (Icons: CC BY 4.0, Fonts: SIL OFL 1.1, Code: MIT License) Copyright 2022 Fonticons, Inc. --><path d="M472.7 188.8c-8.5 13.8-26.8 19.6-42.7 13.6L356 174.2c-14-5.3-22.5-18.5-21-32.4l4.6-42.6c-54.1-17.4-113.2-17.4-167.3 0l4.6 42.6c1.5 13.9-7 27.1-21 32.4L82 202.4c-15.9 6.1-34.2 .3-42.7-13.6L4.5 132.5c-7.7-12.4-5.4-28 5.5-38.1c135.9-125.8 356.1-125.8 492 0c10.9 10.1 13.2 25.7 5.5 38.1l-34.8 56.4zM32 272c0-8.8 7.2-16 16-16H80c8.8 0 16 7.2 16 16v32c0 8.8-7.2 16-16 16H48c-8.8 0-16-7.2-16-16V272zm0 192c0-8.8 7.2-16 16-16H80c8.8 0 16 7.2 16 16v32c0 8.8-7.2 16-16 16H48c-8.8 0-16-7.2-16-16V464zM96 352h32c8.8 0 16 7.2 16 16v32c0 8.8-7.2 16-16 16H96c-8.8 0-16-7.2-16-16V368c0-8.8 7.2-16 16-16zm32-80c0-8.8 7.2-16 16-16h32c8.8 0 16 7.2 16 16v32c0 8.8-7.2 16-16 16H144c-8.8 0-16-7.2-16-16V272zm64 80h32c8.8 0 16 7.2 16 16v32c0 8.8-7.2 16-16 16H192c-8.8 0-16-7.2-16-16V368c0-8.8 7.2-16 16-16zm32-80c0-8.8 7.2-16 16-16h32c8.8 0 16 7.2 16 16v32c0 8.8-7.2 16-16 16H240c-8.8 0-16-7.2-16-16V272zm64 80h32c8.8 0 16 7.2 16 16v32c0 8.8-7.2 16-16 16H288c-8.8 0-16-7.2-16-16V368c0-8.8 7.2-16 16-16zm80 16c0-8.8 7.2-16 16-16h32c8.8 0 16 7.2 16 16v32c0 8.8-7.2 16-16 16H384c-8.8 0-16-7.2-16-16V368zM336 256h32c8.8 0 16 7.2 16 16v32c0 8.8-7.2 16-16 16H336c-8.8 0-16-7.2-16-16V272c0-8.8 7.2-16 16-16zm80 16c0-8.8 7.2-16 16-16h32c8.8 0 16 7.2 16 16v32c0 8.8-7.2 16-16 16H432c-8.8 0-16-7.2-16-16V272zm16 176h32c8.8 0 16 7.2 16 16v32c0 8.8-7.2 16-16 16H432c-8.8 0-16-7.2-16-16V464c0-8.8 7.2-16 16-16zM128 464c0-8.8 7.2-16 16-16H368c8.8 0 16 7.2 16 16v32c0 8.8-7.2 16-16 16H144c-8.8 0-16-7.2-16-16V464z"/></svg>