<svg xmlns="http://www.w3.org/2000/svg" viewBox="0 0 512 512"><!--! Font Awesome Free 6.0.0 by @fontawesome - https://fontawesome.com License - https://fontawesome.com/license/free (Icons: CC BY 4.0, Fonts: SIL OFL 1.1, Code: MIT License) Copyright 2022 Fonticons, Inc. --><path d="M271.1 364v40c0 6.625 5.375 12 12 12h40c6.625 0 12-5.375 12-12v-40c0-6.625-5.375-12-12-12h-40C277.3 352 271.1 357.4 271.1 364zM367.1 364v40c0 6.625 5.375 12 12 12h40c6.625 0 12-5.375 12-12v-40c0-6.625-5.375-12-12-12h-40C373.3 352 367.1 357.4 367.1 364zM275.1 256h-40c-6.625 0-12 5.375-12 12v40c0 6.625 5.376 12 12 12h39.1c6.625 0 12-5.375 12-12v-40C287.1 261.4 282.6 256 275.1 256zM83.96 448h-40c-6.625 0-12 5.375-12 12v40c0 6.625 5.375 12 12 12h40c6.625 0 12-5.375 12-12v-40C95.96 453.4 90.59 448 83.96 448zM175.1 364v40c0 6.625 5.375 12 12 12h40c6.625 0 12-5.375 12-12v-40c0-6.625-5.375-12-12-12h-40C181.3 352 175.1 357.4 175.1 364zM371.1 256h-40c-6.625 0-12 5.375-12 12v40c0 6.625 5.372 12 11.1 12h39.1c6.625 0 12-5.375 12-12v-40C383.1 261.4 378.6 256 371.1 256zM467.1 256h-40c-6.625 0-12 5.375-12 12v40c0 6.625 5.369 12 11.99 12h39.1c6.625 0 12.01-5.375 12.01-12v-40C479.1 261.4 474.6 256 467.1 256zM371.1 448h-232c-6.625 0-12 5.375-12 12v40c0 6.625 5.375 12 12 12h232c6.625 0 12-5.375 12-12v-40C383.1 453.4 378.6 448 371.1 448zM179.1 256h-40c-6.625 0-12 5.375-12 12v40c0 6.625 5.38 12 12 12h39.1c6.625 0 11.1-5.375 11.1-12v-40C191.1 261.4 186.6 256 179.1 256zM467.1 448h-40c-6.625 0-12 5.375-12 12v40c0 6.625 5.375 12 12 12h40c6.625 0 12-5.375 12-12v-40C479.1 453.4 474.6 448 467.1 448zM79.96 364v40c0 6.625 5.375 12 12 12h40c6.625 0 12-5.375 12-12v-40c0-6.625-5.375-12-12-12h-40C85.34 352 79.96 357.4 79.96 364zM83.96 256h-40c-6.625 0-12 5.375-12 12v40c0 6.625 5.383 12 12.01 12H83.97c6.625 0 11.99-5.375 11.99-12v-40C95.96 261.4 90.59 256 83.96 256zM504.9 102.9C367.7-34.31 144.3-34.32 7.083 102.9c-7.975 7.973-9.375 20.22-3.391 29.74l42.17 67.47c6.141 9.844 18.47 13.88 29.35 9.632l84.36-33.74C169.5 172.1 175.6 161.1 174.5 151.3l-5.303-53.27c56.15-19.17 117.4-19.17 173.6 .0059L337.5 151.3c-1.139 10.59 4.997 20.78 14.96 24.73l84.35 33.73c10.83 4.303 23.22 .1608 29.33-9.615l42.18-67.48C514.3 123.2 512.9 110.9 504.9 102.9z"/></svg>