<svg xmlns="http://www.w3.org/2000/svg" viewBox="0 0 512 512"><!--! Font Awesome Free 6.2.1 by @fontawesome - https://fontawesome.com License - https://fontawesome.com/license/free (Icons: CC BY 4.0, Fonts: SIL OFL 1.1, Code: MIT License) Copyright 2022 Fonticons, Inc. --><path d="M512 256c0 141.4-114.6 256-256 256S0 397.4 0 256S114.6 0 256 0S512 114.6 512 256zM161.5 169.9c-12.2-5.2-26.3 .4-31.5 12.6s.4 26.3 12.6 31.5l11.9 5.1c17.3 7.4 35.2 12.9 53.6 16.3v50.1c0 4.3-.7 8.6-2.1 12.6l-28.7 86.1c-4.2 12.6 2.6 26.2 15.2 30.4s26.2-2.6 30.4-15.2l24.4-73.2c1.3-3.8 4.8-6.4 8.8-6.4s7.6 2.6 8.8 6.4l24.4 73.2c4.2 12.6 17.8 19.4 30.4 15.2s19.4-17.8 15.2-30.4l-28.7-86.1c-1.4-4.1-2.1-8.3-2.1-12.6V235.5c18.4-3.5 36.3-8.9 53.6-16.3l11.9-5.1c12.2-5.2 17.8-19.3 12.6-31.5s-19.3-17.8-31.5-12.6L338.7 175c-26.1 11.2-54.2 17-82.7 17s-56.5-5.8-82.7-17l-11.9-5.1zM256 160c22.1 0 40-17.9 40-40s-17.9-40-40-40s-40 17.9-40 40s17.9 40 40 40z"/></svg>