<svg xmlns="http://www.w3.org/2000/svg" viewBox="0 0 448 512"><!--! Font Awesome Free 6.1.1 by @fontawesome - https://fontawesome.com License - https://fontawesome.com/license/free (Icons: CC BY 4.0, Fonts: SIL OFL 1.1, Code: MIT License) Copyright 2022 Fonticons, Inc. --><path d="M144 192H384C419.3 192 448 220.7 448 256V448C448 483.3 419.3 512 384 512H64C28.65 512 0 483.3 0 448V256C0 220.7 28.65 192 64 192H80V144C80 64.47 144.5 0 224 0C281.5 0 331 33.69 354.1 82.27C361.7 98.23 354.9 117.3 338.1 124.9C322.1 132.5 303.9 125.7 296.3 109.7C283.4 82.63 255.9 64 224 64C179.8 64 144 99.82 144 144L144 192z"/></svg>