<svg xmlns="http://www.w3.org/2000/svg" viewBox="0 0 640 512"><!--! Font Awesome Free 6.2.0 by @fontawesome - https://fontawesome.com License - https://fontawesome.com/license/free (Icons: CC BY 4.0, Fonts: SIL OFL 1.1, Code: MIT License) Copyright 2022 Fonticons, Inc. --><path d="M224 256c-70.7 0-128-57.3-128-128S153.3 0 224 0s128 57.3 128 128s-57.3 128-128 128zm-45.7 48h91.4c20.6 0 40.4 3.5 58.8 9.9C323 331 320 349.1 320 368c0 59.5 29.5 112.1 74.8 144H29.7C13.3 512 0 498.7 0 482.3C0 383.8 79.8 304 178.3 304zM640 368c0 79.5-64.5 144-144 144s-144-64.5-144-144s64.5-144 144-144s144 64.5 144 144zM496 288c-8.8 0-16 7.2-16 16v64c0 8.8 7.2 16 16 16h48c8.8 0 16-7.2 16-16s-7.2-16-16-16H512V304c0-8.8-7.2-16-16-16z"/></svg>