<svg xmlns="http://www.w3.org/2000/svg" viewBox="0 0 448 512"><!--! Font Awesome Free 6.0.0 by @fontawesome - https://fontawesome.com License - https://fontawesome.com/license/free (Icons: CC BY 4.0, Fonts: SIL OFL 1.1, Code: MIT License) Copyright 2022 Fonticons, Inc. --><path d="M176 448C167.3 448 160 455.3 160 464V512h32v-48C192 455.3 184.8 448 176 448zM272 448c-8.75 0-16 7.25-16 16s7.25 16 16 16s16-7.25 16-16S280.8 448 272 448zM164 172l8.205 24.62c1.215 3.645 6.375 3.645 7.59 0L188 172l24.62-8.203c3.646-1.219 3.646-6.375 0-7.594L188 148L179.8 123.4c-1.215-3.648-6.375-3.648-7.59 0L164 148L139.4 156.2c-3.646 1.219-3.646 6.375 0 7.594L164 172zM336.1 315.4C304 338.6 265.1 352 224 352s-80.03-13.43-112.1-36.59C46.55 340.2 0 403.3 0 477.3C0 496.5 15.52 512 34.66 512H128v-64c0-17.75 14.25-32 32-32h128c17.75 0 32 14.25 32 32v64h93.34C432.5 512 448 496.5 448 477.3C448 403.3 401.5 340.2 336.1 315.4zM64 224h13.5C102.3 280.5 158.4 320 224 320s121.8-39.5 146.5-96H384c8.75 0 16-7.25 16-16v-96C400 103.3 392.8 96 384 96h-13.5C345.8 39.5 289.6 0 224 0S102.3 39.5 77.5 96H64C55.25 96 48 103.3 48 112v96C48 216.8 55.25 224 64 224zM104 136C104 113.9 125.5 96 152 96h144c26.5 0 48 17.88 48 40V160c0 53-43 96-96 96h-48c-53 0-96-43-96-96V136z"/></svg>