<svg xmlns="http://www.w3.org/2000/svg" viewBox="0 0 384 512"><!--! Font Awesome Free 6.1.0 by @fontawesome - https://fontawesome.com License - https://fontawesome.com/license/free (Icons: CC BY 4.0, Fonts: SIL OFL 1.1, Code: MIT License) Copyright 2022 Fonticons, Inc. --><path d="M368 176c0-97.2-78.8-176-176-176c-97.2 0-176 78.8-176 176c0 86.26 62.1 157.9 144 172.1v35.05H112c-8.836 0-16 7.162-16 16v32c0 8.836 7.164 16 16 16H160v48c0 8.836 7.164 16 16 16h32c8.838 0 16-7.164 16-16v-48h48c8.838 0 16-7.164 16-16v-32c0-8.838-7.162-16-16-16H224v-35.05C305.9 333.9 368 262.3 368 176zM192 272c-52.93 0-96-43.07-96-96c0-52.94 43.07-96 96-96c52.94 0 96 43.06 96 96C288 228.9 244.9 272 192 272z"/></svg>