<svg xmlns="http://www.w3.org/2000/svg" viewBox="0 0 448 512"><!--! Font Awesome Free 6.0.0 by @fontawesome - https://fontawesome.com License - https://fontawesome.com/license/free (Icons: CC BY 4.0, Fonts: SIL OFL 1.1, Code: MIT License) Copyright 2022 Fonticons, Inc. --><path d="M437.3 239.9L384 160V32c0-17.67-14.33-32-32-32h-32c-4.75 0-9.375 1.406-13.31 4.031l-25 16.66c-35.03 23.38-80.28 23.38-115.4 0l-25-16.66C137.4 1.406 132.8 0 128 0H96C78.33 0 64 14.33 64 32v128L10.75 239.9C3.74 250.4 0 262.7 0 275.4V480c0 17.67 14.33 32 32 32h160V288c0-3.439 .5547-6.855 1.643-10.12l13.49-40.48L150.2 66.56C173.2 79.43 198.5 86.25 224 86.25s50.79-6.824 73.81-19.69L224 288v224h192c17.67 0 32-14.33 32-32V275.4C448 262.7 444.3 250.4 437.3 239.9zM63.5 272.5c-4.656-4.688-4.656-12.31 0-17c4.688-4.688 12.31-4.688 17 0L96 271l15.5-15.5c4.688-4.688 12.31-4.688 17 0c4.656 4.688 4.656 12.31 0 17L113 288l15.5 15.5c4.656 4.688 4.656 12.31 0 17C126.2 322.8 123.1 324 120 324s-6.156-1.156-8.5-3.5L96 305l-15.5 15.5C78.16 322.8 75.06 324 72 324s-6.156-1.156-8.5-3.5c-4.656-4.688-4.656-12.31 0-17L79 288L63.5 272.5zM96 456c-22.09 0-40-17.91-40-40S73.91 376 96 376S136 393.9 136 416S118.1 456 96 456zM359.2 335.8L310.7 336C306.1 336 303.1 333 304 329.3l.2158-48.53c.1445-14.4 12.53-25.98 27.21-24.67c12.79 1.162 22.13 12.62 22.06 25.42l-.0557 5.076l5.069-.0566c12.83-.0352 24.24 9.275 25.4 22.08C385.2 323.3 373.7 335.7 359.2 335.8z"/></svg>