<svg xmlns="http://www.w3.org/2000/svg" viewBox="0 0 640 512"><!--! Font Awesome Free 6.2.0 by @fontawesome - https://fontawesome.com License - https://fontawesome.com/license/free (Icons: CC BY 4.0, Fonts: SIL OFL 1.1, Code: MIT License) Copyright 2022 Fonticons, Inc. --><path d="M281 22L305.8 4.7c1.3-.9 2.7-1.8 4.1-2.4C313.1 .7 316.6 0 320 0s6.9 .7 10.1 2.2c1.4 .7 2.8 1.5 4.1 2.4L359 22C393 45.8 430.8 63.5 470.8 74.4l23 6.3c1.8 .5 3.6 1.1 5.2 2c3.2 1.7 5.9 4 8.1 6.8c3.8 4.9 5.6 11.3 4.7 17.8c-.4 2.8-1.2 5.4-2.5 7.8c-1.7 3.2-4 5.9-6.8 8.1c-4.3 3.2-9.6 5.1-15.1 4.9H480v56.1l6.4 5.1 5.2 4.1c21.1 16.7 45 29.6 70.5 38.1l28.9 9.6c1.6 .5 3.2 1.2 4.6 2c3.1 1.7 5.8 4.1 7.8 6.9s3.5 6.1 4.1 9.6c.5 2.7 .6 5.5 .1 8.3s-1.4 5.4-2.7 7.8c-1.7 3.1-4.1 5.8-6.9 7.8s-6.1 3.5-9.6 4.1c-1.6 .3-3.3 .4-5 .4H544v65.9c20.5 22.8 47.4 39.2 77.4 46.7C632 403 640 412.6 640 424c0 13.3-10.7 24-24 24H576v32c0 17.7-14.3 32-32 32s-32-14.3-32-32V448H352v32c0 17.7-14.3 32-32 32s-32-14.3-32-32V448H128v32c0 17.7-14.3 32-32 32s-32-14.3-32-32V448H24c-13.3 0-24-10.7-24-24c0-11.4 8-21 18.6-23.4c30-7.6 56.9-23.9 77.4-46.7V288H56.6c-1.7 0-3.4-.1-5-.4c-3.5-.7-6.8-2.1-9.6-4.1s-5.2-4.7-7-7.8c-1.3-2.4-2.3-5-2.7-7.8s-.4-5.6 .1-8.3c.7-3.5 2.1-6.8 4.1-9.6s4.7-5.2 7.8-6.9c1.4-.8 3-1.5 4.6-2l28.9-9.6c25.5-8.5 49.4-21.4 70.5-38.1l5.2-4.1 6.4-5.1V176 128h-7.5c-5.5 .1-10.8-1.7-15.1-4.9c-2.8-2.1-5.1-4.8-6.8-8.1c-1.2-2.4-2.1-5-2.5-7.8c-.9-6.5 .9-12.8 4.7-17.8c2.1-2.8 4.8-5.1 8.1-6.8c1.6-.8 3.4-1.5 5.2-2l23-6.3C209.2 63.5 247 45.8 281 22zM416 128H320 224v64h72 48 72V128zM160 288v64H296h24 24H480V288H344 320h0H296 160z"/></svg>