<svg xmlns="http://www.w3.org/2000/svg" viewBox="0 0 640 512"><!--! Font Awesome Free 6.1.2 by @fontawesome - https://fontawesome.com License - https://fontawesome.com/license/free (Icons: CC BY 4.0, Fonts: SIL OFL 1.1, Code: MIT License) Copyright 2022 Fonticons, Inc. --><path d="M134.7 80.27C135.9 78.4 137.3 76.62 138.1 74.98C151.5 62.48 171.7 62.48 184.2 74.98L192.4 83.15C227.7 118.4 287.1 93.44 287.1 43.55V32C287.1 14.33 302.3 0 319.1 0C337.7 0 352 14.33 352 32V43.55C352 93.44 412.3 118.4 447.6 83.15L455.8 74.98C468.3 62.48 488.5 62.48 501 74.98C513.5 87.48 513.5 107.7 501 120.2L492.9 128.4C457.6 163.7 482.6 224 532.4 224H544C561.7 224 576 238.3 576 256C576 273.7 561.7 288 544 288H532.5C497.2 288 474.4 318.1 476.5 348.1L630.8 469.1C641.2 477.3 643.1 492.4 634.9 502.8C626.7 513.2 611.6 515.1 601.2 506.9L9.196 42.89C-1.236 34.71-3.065 19.63 5.112 9.196C13.29-1.236 28.37-3.065 38.81 5.112L134.7 80.27zM264.6 182.1L334.3 236.7C335.4 232.7 336 228.4 336 224C336 197.5 314.5 176 288 176C279.5 176 271.5 178.2 264.6 182.1V182.1zM107.5 224C122.5 224 135.2 218.6 144.7 210L401.1 412.7C375.6 415.7 352 437.2 352 468.5V480C352 497.7 337.7 512 319.1 512C302.3 512 287.1 497.7 287.1 480V468.5C287.1 418.6 227.7 393.6 192.4 428.9L184.2 437C171.7 449.5 151.5 449.5 138.1 437C126.5 424.5 126.5 404.3 138.1 391.8L147.1 383.6C182.4 348.3 157.4 288 107.5 288H95.1C78.33 288 63.1 273.7 63.1 256C63.1 238.3 78.33 224 95.1 224H107.5z"/></svg>