<svg xmlns="http://www.w3.org/2000/svg" viewBox="0 0 576 512"><!--! Font Awesome Free 6.0.0 by @fontawesome - https://fontawesome.com License - https://fontawesome.com/license/free (Icons: CC BY 4.0, Fonts: SIL OFL 1.1, Code: MIT License) Copyright 2022 Fonticons, Inc. --><path d="M515.6 227.6h-21.55c-50.68 0-76.06-61.28-40.23-97.12l15.25-15.25c11.11-11.11 11.11-29.11 .001-40.22c-11.11-11.11-29.11-11.11-40.22 .001l-15.24 15.24c-35.84 35.84-97.12 10.46-97.12-40.23V28.44c0-15.72-12.72-28.44-28.45-28.44S259.6 12.72 259.6 28.44v21.55c0 50.68-61.28 76.06-97.12 40.23L147.2 74.97C136.1 63.86 118.1 63.86 106.1 74.97c-11.11 11.11-11.11 29.11 .001 40.22l15.25 15.25C158.1 166.3 132.7 227.6 81.99 227.6H60.45C44.72 227.6 32 240.3 32 256s12.72 28.44 28.45 28.44h21.55c50.68 0 76.06 61.28 40.23 97.12l-15.25 15.25c-11.11 11.11-11.11 29.11-.001 40.22c5.555 5.555 12.83 8.333 20.11 8.333c7.277 0 14.55-2.779 20.11-8.334l15.24-15.25c35.84-35.84 97.12-10.46 97.12 40.23v21.55c0 15.72 12.72 28.45 28.45 28.45s28.45-12.72 28.45-28.45v-21.55c0-50.68 61.28-76.06 97.12-40.23l15.24 15.25c5.557 5.555 12.83 8.334 20.11 8.334c7.279 0 14.56-2.778 20.11-8.333c11.11-11.11 11.11-29.11-.001-40.22l-15.25-15.25c-35.84-35.84-10.46-97.12 40.23-97.12h21.55C531.3 284.4 544 271.7 544 256S531.3 227.6 515.6 227.6zM256 272c-26.51 0-48-21.49-48-48s21.49-48 48-48s48 21.49 48 48S282.5 272 256 272zM336 328c-13.25 0-24-10.75-24-24c0-13.26 10.75-23.1 24-23.1s24 10.74 24 24C360 317.3 349.3 328 336 328z"/></svg>