<svg xmlns="http://www.w3.org/2000/svg" viewBox="0 0 640 512"><!--! Font Awesome Free 6.1.1 by @fontawesome - https://fontawesome.com License - https://fontawesome.com/license/free (Icons: CC BY 4.0, Fonts: SIL OFL 1.1, Code: MIT License) Copyright 2022 Fonticons, Inc. --><path d="M346.5 213.3h16.16C374.5 213.3 384 203.8 384 192c0-11.79-9.541-21.33-21.33-21.33h-16.16c-38.01 0-57.05-45.96-30.17-72.84l11.44-11.44c8.332-8.332 8.331-21.83-.0012-30.17c-8.334-8.334-21.83-8.332-30.17 .002L286.2 67.66C259.3 94.54 213.3 75.51 213.3 37.49V21.33C213.3 9.542 203.8 0 192 0S170.7 9.542 170.7 21.33v16.16c0 38.01-45.96 57.05-72.84 30.17L86.4 56.23c-8.334-8.334-21.83-8.336-30.17-.002c-8.332 8.334-8.333 21.84-.0012 30.17L67.66 97.83c26.88 26.88 7.842 72.84-30.17 72.84H21.33C9.541 170.7 0 180.2 0 192c0 11.79 9.541 21.33 21.33 21.33h16.16c38.01 0 57.05 45.96 30.17 72.84L56.23 297.6c-8.332 8.334-8.328 21.84 .0043 30.17c4.168 4.168 9.621 6.248 15.08 6.248s10.92-2.082 15.08-6.25L97.83 316.3c26.88-26.88 72.84-7.842 72.84 30.17v16.16C170.7 374.5 180.2 384 192 384s21.33-9.543 21.33-21.33v-16.16c0-38.01 45.96-57.05 72.84-30.17l11.43 11.43c4.168 4.168 9.625 6.25 15.08 6.25s10.91-2.08 15.08-6.248c8.332-8.332 8.333-21.83 .0012-30.17L316.3 286.2C289.5 259.3 308.5 213.3 346.5 213.3zM160 192C142.3 192 128 177.7 128 160c0-17.67 14.33-32 32-32s32 14.33 32 32C192 177.7 177.7 192 160 192zM240 224C231.2 224 224 216.8 224 208C224 199.2 231.2 192 240 192S256 199.2 256 208C256 216.8 248.8 224 240 224zM624 352h-12.12c-28.51 0-42.79-34.47-22.63-54.63l8.576-8.576c6.25-6.25 6.25-16.37 0-22.62s-16.38-6.253-22.62-.0031l-8.576 8.576C546.5 294.9 512 280.6 512 252.1V240C512 231.2 504.8 224 496 224S480 231.2 480 240v12.12c0 28.51-34.47 42.79-54.63 22.63l-8.576-8.576c-6.25-6.25-16.37-6.253-22.62-.0031s-6.253 16.38-.0031 22.63l8.576 8.576C422.9 317.5 408.6 352 380.1 352H368c-8.844 0-16 7.156-16 16s7.156 16 16 16h12.12c28.51 0 42.79 34.47 22.63 54.63l-8.576 8.576c-6.25 6.25-6.253 16.37-.0031 22.62c3.125 3.125 7.222 4.691 11.32 4.691s8.188-1.562 11.31-4.688l8.576-8.576C445.5 441.1 480 455.4 480 483.9V496c0 8.844 7.156 16 16 16s16-7.156 16-16v-12.12c0-28.51 34.47-42.79 54.63-22.63l8.576 8.576c3.125 3.125 7.219 4.688 11.31 4.688s8.184-1.559 11.31-4.684c6.25-6.25 6.253-16.38 .0031-22.63l-8.576-8.576C569.1 418.5 583.4 384 611.9 384H624c8.844 0 16-7.156 16-16S632.8 352 624 352zM480 384c-17.67 0-32-14.33-32-32c0-17.67 14.33-32 32-32s32 14.33 32 32C512 369.7 497.7 384 480 384z"/></svg>