<svg xmlns="http://www.w3.org/2000/svg" viewBox="0 0 512 512"><!--! Font Awesome Free 6.1.0 by @fontawesome - https://fontawesome.com License - https://fontawesome.com/license/free (Icons: CC BY 4.0, Fonts: SIL OFL 1.1, Code: MIT License) Copyright 2022 Fonticons, Inc. --><path d="M416.1 128.1C407.6 138.3 392.4 138.3 383 128.1C373.7 119.6 373.7 104.4 383 95.03L471 7.029C480.4-2.343 495.6-2.343 504.1 7.029C514.3 16.4 514.3 31.6 504.1 40.97L416.1 128.1zM327.2 230.1L295.3 261.1C323.8 264.7 351.5 277 373.4 298.8L395.1 321.5L373.4 344.1C335.9 381.6 275.1 381.6 237.6 344.1L225.4 331.9L193.5 363.8C221.1 366.5 249.7 378.8 271.5 400.7L294.2 423.3L271.5 445.9C234 483.4 173.3 483.4 135.8 445.9L123.5 433.7L54.63 502.6C42.13 515.1 21.87 515.1 9.372 502.6C-3.124 490.1-3.124 469.9 9.372 457.4L78.29 388.5L67.88 378C30.39 340.6 30.39 279.8 67.88 242.3L90.51 219.6L113.1 242.3C134.1 263.3 146.3 289.7 149.7 317.1L180.1 286.6L169.7 276.2C132.2 238.7 132.2 177.9 169.7 140.5L192.3 117.8L214.1 140.5C235.1 161.4 248.1 187.9 251.5 215.3L281.9 184.8L271.5 174.4C234 136.9 234 76.12 271.5 38.63L294.2 16L316.8 38.63C321.3 43.15 325.4 47.94 329.1 52.93L375 7.03C384.4-2.343 399.6-2.343 408.1 7.03C418.3 16.4 418.3 31.6 408.1 40.97L350.7 99.2C355.9 120.7 355.4 143.2 349.3 164.5C369.6 158.7 391.1 157.1 411.7 162.4L471 103C480.4 93.66 495.6 93.66 504.1 103C514.3 112.4 514.3 127.6 504.1 136.1L458.8 183.2C464.5 187.2 470 191.9 475.2 197L497.8 219.6L475.2 242.3C437.7 279.8 376.9 279.8 339.4 242.3L327.2 230.1z"/></svg>