<svg xmlns="http://www.w3.org/2000/svg" viewBox="0 0 512 512"><!--! Font Awesome Free 6.2.1 by @fontawesome - https://fontawesome.com License - https://fontawesome.com/license/free (Icons: CC BY 4.0, Fonts: SIL OFL 1.1, Code: MIT License) Copyright 2022 Fonticons, Inc. --><path d="M288 32c0 17.7 14.3 32 32 32h32c17.7 0 32 14.3 32 32s-14.3 32-32 32H32c-17.7 0-32 14.3-32 32s14.3 32 32 32H352c53 0 96-43 96-96s-43-96-96-96H320c-17.7 0-32 14.3-32 32zm64 352c0 17.7 14.3 32 32 32h32c53 0 96-43 96-96s-43-96-96-96H32c-17.7 0-32 14.3-32 32s14.3 32 32 32H416c17.7 0 32 14.3 32 32s-14.3 32-32 32H384c-17.7 0-32 14.3-32 32zM128 512h32c53 0 96-43 96-96s-43-96-96-96H32c-17.7 0-32 14.3-32 32s14.3 32 32 32H160c17.7 0 32 14.3 32 32s-14.3 32-32 32H128c-17.7 0-32 14.3-32 32s14.3 32 32 32z"/></svg>