<svg xmlns="http://www.w3.org/2000/svg" viewBox="0 0 320 512"><!--! Font Awesome Free 6.1.1 by @fontawesome - https://fontawesome.com License - https://fontawesome.com/license/free (Icons: CC BY 4.0, Fonts: SIL OFL 1.1, Code: MIT License) Copyright 2022 Fonticons, Inc. --><path d="M232 464h-40.01v-117.3c68.52-15.88 118-79.86 111.4-154.1L287.5 14.5C286.8 6.25 279.9 0 271.8 0H48.23C40.1 0 33.22 6.25 32.47 14.5L16.6 192.6c-6.625 74.25 42.88 138.2 111.4 154.2V464H87.98c-22.13 0-40.01 17.88-40.01 40c0 4.375 3.625 8 8.002 8h208c4.377 0 8.002-3.625 8.002-8C272 481.9 254.1 464 232 464zM180.4 300.2c-13.64 3.16-27.84 3.148-41.48-.0371C91.88 289.2 60.09 245.2 64.38 197.1L77.7 48h164.6L255.6 197.2c4.279 48.01-27.5 91.93-74.46 102.8L180.4 300.2z"/></svg>