<svg xmlns="http://www.w3.org/2000/svg" viewBox="0 0 512 512"><!--! Font Awesome Free 6.0.0 by @fontawesome - https://fontawesome.com License - https://fontawesome.com/license/free (Icons: CC BY 4.0, Fonts: SIL OFL 1.1, Code: MIT License) Copyright 2022 Fonticons, Inc. --><path d="M507.3 72.57l-67.88-67.88c-6.252-6.25-16.38-6.25-22.63 0l-22.63 22.62c-6.25 6.254-6.251 16.38-.0006 22.63l-76.63 76.63c-46.63-19.75-102.4-10.75-140.4 27.25l-158.4 158.4c-25 25-25 65.51 0 90.51l90.51 90.52c25 25 65.51 25 90.51 0l158.4-158.4c38-38 47-93.76 27.25-140.4l76.63-76.63c6.25 6.25 16.5 6.25 22.75 0l22.63-22.63C513.5 88.95 513.5 78.82 507.3 72.57zM179.3 423.2l-90.51-90.51l122-122l90.51 90.52L179.3 423.2z"/></svg>