<svg xmlns="http://www.w3.org/2000/svg" viewBox="0 0 512 512"><!--! Font Awesome Free 6.2.1 by @fontawesome - https://fontawesome.com License - https://fontawesome.com/license/free (Icons: CC BY 4.0, Fonts: SIL OFL 1.1, Code: MIT License) Copyright 2022 Fonticons, Inc. --><path d="M0 64C0 46.3 14.3 32 32 32H480c17.7 0 32 14.3 32 32s-14.3 32-32 32V416c17.7 0 32 14.3 32 32s-14.3 32-32 32H32c-17.7 0-32-14.3-32-32s14.3-32 32-32V96C14.3 96 0 81.7 0 64zM256 96c-8.8 0-16 7.2-16 16v16H144c-8.8 0-16 7.2-16 16s7.2 16 16 16h96v32H112c-8.8 0-16 7.2-16 16s7.2 16 16 16H240v32H144c-8.8 0-16 7.2-16 16s7.2 16 16 16h96v32H152c-8.9 0-17 4.9-21.2 12.7s-3.7 17.3 1.2 24.6l32 48C168.5 412 176 416 184 416H328c8 0 15.5-4 20-10.7l32-48c4.9-7.4 5.4-16.8 1.2-24.6S368.9 320 360 320H272V288h96c8.8 0 16-7.2 16-16s-7.2-16-16-16H272V224H400c8.8 0 16-7.2 16-16s-7.2-16-16-16H272V160h96c8.8 0 16-7.2 16-16s-7.2-16-16-16H272V112c0-8.8-7.2-16-16-16zM208 384c-8.8 0-16-7.2-16-16s7.2-16 16-16s16 7.2 16 16s-7.2 16-16 16zm112-16c0 8.8-7.2 16-16 16s-16-7.2-16-16s7.2-16 16-16s16 7.2 16 16z"/></svg>