<?xml version="1.0" encoding="UTF-8" standalone="no"?>
<!-- Created with Inkscape (http://www.inkscape.org/) -->

<svg
   xmlns:dc="http://purl.org/dc/elements/1.1/"
   xmlns:cc="http://creativecommons.org/ns#"
   xmlns:rdf="http://www.w3.org/1999/02/22-rdf-syntax-ns#"
   xmlns:svg="http://www.w3.org/2000/svg"
   xmlns="http://www.w3.org/2000/svg"
   xmlns:sodipodi="http://sodipodi.sourceforge.net/DTD/sodipodi-0.dtd"
   xmlns:inkscape="http://www.inkscape.org/namespaces/inkscape"
   id="svg6532"
   version="1.1"
   inkscape:version="0.48.4 r9939"
   width="400"
   height="400"
   sodipodi:docname="5ef9c00f35096a0951b2dad3f0ab7df2_400x400.png">
  <metadata
     id="metadata6538">
    <rdf:RDF>
      <cc:Work
         rdf:about="">
        <dc:format>image/svg+xml</dc:format>
        <dc:type
           rdf:resource="http://purl.org/dc/dcmitype/StillImage" />
        <dc:title></dc:title>
      </cc:Work>
    </rdf:RDF>
  </metadata>
  <defs
     id="defs6536" />
  <sodipodi:namedview
     pagecolor="#ffffff"
     bordercolor="#666666"
     borderopacity="1"
     objecttolerance="10"
     gridtolerance="10"
     guidetolerance="10"
     inkscape:pageopacity="0"
     inkscape:pageshadow="2"
     inkscape:window-width="1600"
     inkscape:window-height="881"
     id="namedview6534"
     showgrid="false"
     inkscape:zoom="0.834386"
     inkscape:cx="185.65565"
     inkscape:cy="203.97468"
     inkscape:window-x="0"
     inkscape:window-y="0"
     inkscape:window-maximized="1"
     inkscape:current-layer="svg6532" />
  <path
     style="fill:#000000"
     d="m 157.31524,348.92767 c -1.75163,-0.52308 -4.64411,-2.40829 -6.42775,-4.18936 C 145.18557,339.0446 141.47422,329.53157 125.24079,279 102.84499,209.28613 89.546862,169.1015 86.026108,160.5 c -0.450251,-1.1 -2.255384,-6.05 -4.011409,-11 -1.756024,-4.95 -4.311282,-12.15 -5.678352,-16 -1.36707,-3.85 -3.116694,-8.575 -3.888054,-10.5 -4.680631,-11.68095 -13.445445,-40.101513 -13.446756,-43.602117 -0.0036,-9.524801 6.915472,-14.104076 35.89134,-23.754208 31.653363,-10.541845 37.532103,-11.173124 44.448703,-4.77305 6.15328,5.69375 9.88169,15.681427 25.63658,68.675195 5.55196,18.6748 10.48386,35.07918 10.95976,36.45418 0.47591,1.375 2.32428,7.225 4.1075,13 1.78322,5.775 5.60246,17.7 8.4872,26.5 2.88475,8.8 8.69754,26.8 12.91731,40 9.07197,28.37831 9.24236,28.82313 10.82331,28.25629 0.67472,-0.24192 10.00176,-3.24293 20.72676,-6.66892 10.725,-3.42599 20.4,-6.60128 21.5,-7.05619 10.09811,-4.17612 56.98216,-18.38046 61.99671,-18.78298 5.79599,-0.46525 6.36143,-0.31165 9.72505,2.64165 3.9968,3.50923 5.79412,7.36294 8.21317,17.61015 0.90886,3.85 2.30781,9.79248 3.10877,13.20552 2.32726,9.91681 1.9408,19.79202 -0.96884,24.75695 -3.41496,5.82718 -8.04635,7.99189 -38.07486,17.79613 -94.80766,30.95448 -119.22235,38.89695 -125,40.66442 -4.99298,1.52743 -12.80934,2.01262 -16.18476,1.00465 z m 12.2511,-2.9657 c 3.26351,-0.57092 6.83366,-1.42352 7.93366,-1.89467 1.81335,-0.77668 39.91891,-13.18893 71.5,-23.28993 6.875,-2.19892 13.4,-4.36235 14.5,-4.80763 1.1,-0.44527 15.95,-5.35828 33,-10.9178 32.58367,-10.62461 35.58339,-12.07038 38.90777,-18.75228 2.31321,-4.64949 1.97913,-10.40327 -1.50761,-25.96484 -3.85667,-17.21263 -6.66154,-23.51917 -11.47647,-25.80401 -3.89943,-1.8504 -7.97769,-1.35108 -19.17427,2.34758 -3.16218,1.04459 -23.29942,7.61717 -44.74942,14.60572 -21.45,6.98855 -41.1149,13.43618 -43.69978,14.32806 -2.58488,0.89188 -4.97653,1.34485 -5.31478,1.00661 -0.93895,-0.93896 -11.50722,-32.84384 -23.95509,-72.31878 -2.60152,-8.25 -5.09941,-15.9 -5.55087,-17 -0.45146,-1.1 -2.24932,-6.725 -3.99524,-12.5 -1.74592,-5.775 -3.7956,-12.525 -4.55484,-15 -0.75925,-2.475 -4.57363,-15.3 -8.47641,-28.5 C 147.02969,67.644089 142.67199,56.077979 136.60065,51.556244 130.85798,47.279287 120.62484,49.139319 89,60.208406 70.084438,66.829087 62.754953,71.286237 61.517365,76.920936 60.640352,80.913951 63.94253,91.589017 78.709947,132.5 c 1.389714,3.85 2.896781,7.9 3.349038,9 0.452258,1.1 5.066831,14.15 10.254607,29 9.101998,26.05444 13.022278,37.90761 23.151628,70 2.60396,8.25 5.09981,15.9 5.54635,17 0.44654,1.1 4.26969,12.8 8.4959,26 11.88913,37.13414 13.2802,41.17196 16.82532,48.83834 6.09949,13.19025 10.6059,15.83271 23.23355,13.62363 z"
     id="path6542"
     inkscape:connector-curvature="0" />
</svg>
